g Air_Conditioner_13B
v 3.231653 5.95932 -9.199999
v 3.231653 5.887644 -9.239628
v 3.30333 5.887644 -9.199999
v 3.30333 5.887644 -9.199999
v 3.231653 5.887644 -9.239628
v 3.231653 5.815967 -9.199999
v 3.231653 5.815967 -9.199999
v 3.231653 5.887644 -9.239628
v 3.159976 5.887644 -9.199999
v 3.159976 5.887644 -9.199999
v 3.231653 5.887644 -9.239628
v 3.231653 5.95932 -9.199999
v 3.231653 5.19932 -9.199999
v 3.231653 5.127642 -9.239628
v 3.30333 5.127643 -9.199999
v 3.30333 5.127643 -9.199999
v 3.231653 5.127642 -9.239628
v 3.231653 5.055967 -9.199999
v 3.231653 5.055967 -9.199999
v 3.231653 5.127642 -9.239628
v 3.159976 5.127643 -9.199999
v 3.159976 5.127643 -9.199999
v 3.231653 5.127642 -9.239628
v 3.231653 5.19932 -9.199999
v -3.228347 5.95932 -9.2
v -3.228347 5.887644 -9.23963
v -3.156668 5.887644 -9.199999
v -3.156668 5.887644 -9.199999
v -3.228347 5.887644 -9.23963
v -3.228347 5.815967 -9.2
v -3.228347 5.815967 -9.2
v -3.228347 5.887644 -9.23963
v -3.300024 5.887644 -9.2
v -3.300024 5.887644 -9.2
v -3.228347 5.887644 -9.23963
v -3.228347 5.95932 -9.2
v -3.228347 5.19932 -9.2
v -3.228347 5.127642 -9.23963
v -3.156668 5.127643 -9.199999
v -3.156668 5.127643 -9.199999
v -3.228347 5.127642 -9.23963
v -3.228347 5.055967 -9.2
v -3.228347 5.055967 -9.2
v -3.228347 5.127642 -9.23963
v -3.300024 5.127643 -9.2
v -3.300024 5.127643 -9.2
v -3.228347 5.127642 -9.23963
v -3.228347 5.19932 -9.2
v -3.231653 5.95932 9.199999
v -3.231653 5.887644 9.239628
v -3.303331 5.887644 9.199999
v -3.303331 5.887644 9.199999
v -3.231653 5.887644 9.239628
v -3.231653 5.815967 9.199999
v -3.231653 5.815967 9.199999
v -3.231653 5.887644 9.239628
v -3.159976 5.887644 9.199999
v -3.159976 5.887644 9.199999
v -3.231653 5.887644 9.239628
v -3.231653 5.95932 9.199999
v -3.231653 5.19932 9.199999
v -3.231653 5.127642 9.239628
v -3.303331 5.127643 9.199999
v -3.303331 5.127643 9.199999
v -3.231653 5.127642 9.239628
v -3.231653 5.055967 9.199999
v -3.231653 5.055967 9.199999
v -3.231653 5.127642 9.239628
v -3.159976 5.127643 9.199999
v -3.159976 5.127643 9.199999
v -3.231653 5.127642 9.239628
v -3.231653 5.19932 9.199999
v 3.228347 5.95932 9.2
v 3.228347 5.887644 9.23963
v 3.156668 5.887644 9.199999
v 3.156668 5.887644 9.199999
v 3.228347 5.887644 9.23963
v 3.228347 5.815967 9.2
v 3.228347 5.815967 9.2
v 3.228347 5.887644 9.23963
v 3.300023 5.887644 9.2
v 3.300023 5.887644 9.2
v 3.228347 5.887644 9.23963
v 3.228347 5.95932 9.2
v 3.228347 5.19932 9.2
v 3.228347 5.127642 9.23963
v 3.156668 5.127643 9.199999
v 3.156668 5.127643 9.199999
v 3.228347 5.127642 9.23963
v 3.228347 5.055967 9.2
v 3.228347 5.055967 9.2
v 3.228347 5.127642 9.23963
v 3.300023 5.127643 9.2
v 3.300023 5.127643 9.2
v 3.228347 5.127642 9.23963
v 3.228347 5.19932 9.2
v -3.320004 5.975 -8.700002
v -3.320004 5.025 -8.700002
v -3.320003 5.025 -9.200002
v -3.320003 5.975 -9.200002
v 3.320009 5.975 -9.200002
v 3.320009 5.025 -9.200002
v 3.320008 5.025 -8.700001
v 3.320008 5.975 -8.700001
v 3.320008 5.025 -8.700001
v 3.320009 5.025 -9.200002
v -3.320003 5.025 -9.200002
v -3.320004 5.025 -8.700002
v 3.320009 5.975 -9.200002
v 3.320008 5.975 -8.700001
v -3.320004 5.975 -8.700002
v -3.320003 5.975 -9.200002
v 3.170007 5.825 -9.200001
v 3.170007 5.825 -8.900001
v 3.170007 5.174999 -8.900001
v 3.170007 5.174999 -9.200001
v 3.321532 5.240818 -8.800093
v 3.321532 5.240818 -9.086884
v 3.321532 5.159183 -9.086884
v 3.321532 5.159183 -8.800093
v 3.321532 5.440816 -8.800093
v 3.321532 5.440816 -9.086884
v 3.321532 5.359182 -9.086884
v 3.321532 5.359182 -8.800093
v 3.321532 5.640818 -8.800093
v 3.321532 5.640818 -9.086884
v 3.321532 5.559183 -9.086884
v 3.321532 5.559183 -8.800093
v -3.32232 5.240818 -9.086882
v -3.32232 5.240818 -8.800091
v -3.32232 5.159183 -8.800091
v -3.32232 5.159183 -9.086882
v -3.32232 5.440816 -9.086882
v -3.32232 5.440816 -8.800091
v -3.32232 5.359182 -8.800091
v -3.32232 5.359182 -9.086882
v -3.32232 5.640818 -9.086882
v -3.32232 5.640818 -8.800091
v -3.32232 5.559183 -8.800091
v -3.32232 5.559183 -9.086882
v -3.170004 5.825 -9.200002
v -3.320003 5.975 -9.200002
v -3.320003 5.025 -9.200002
v -3.170004 5.174999 -9.200002
v -3.170004 5.174999 -9.200002
v -3.320003 5.025 -9.200002
v 3.320009 5.025 -9.200002
v 3.170007 5.174999 -9.200001
v 3.170007 5.825 -9.200001
v 3.320009 5.975 -9.200002
v -3.320003 5.975 -9.200002
v -3.170004 5.825 -9.200002
v 3.170007 5.174999 -9.200001
v 3.320009 5.025 -9.200002
v 3.320009 5.975 -9.200002
v 3.170007 5.825 -9.200001
v -3.170004 5.174999 -8.900001
v 3.170007 5.174999 -8.900001
v 3.170007 5.825 -8.900001
v -3.170004 5.825 -8.900001
v 3.170007 5.174999 -9.200001
v 3.170007 5.174999 -8.900001
v -3.170004 5.174999 -8.900001
v -3.170004 5.174999 -9.200002
v -3.170004 5.825 -9.200002
v -3.170004 5.825 -8.900001
v 3.170007 5.825 -8.900001
v 3.170007 5.825 -9.200001
v -3.170004 5.174999 -9.200002
v -3.170004 5.174999 -8.900001
v -3.170004 5.825 -8.900001
v -3.170004 5.825 -9.200002
v 3.170007 5.413101 -8.886616
v -3.170004 5.413101 -8.886616
v -3.170004 5.186897 -9.041244
v 3.170007 5.186897 -9.041243
v 3.170007 5.619051 -8.886616
v -3.170004 5.619051 -8.886616
v -3.170004 5.392847 -9.041244
v 3.170007 5.392847 -9.041243
v 3.170007 5.825 -8.886616
v -3.170004 5.825 -8.886616
v -3.170004 5.598795 -9.041244
v 3.170007 5.598795 -9.041243
v 3.320002 5.975 8.700002
v 3.320002 5.025 8.700002
v 3.320003 5.025 9.200002
v 3.320003 5.975 9.200002
v -3.320009 5.975 9.200002
v -3.320009 5.025 9.200002
v -3.320009 5.025 8.700001
v -3.320009 5.975 8.700001
v -3.320009 5.025 8.700001
v -3.320009 5.025 9.200002
v 3.320003 5.025 9.200002
v 3.320002 5.025 8.700002
v -3.320009 5.975 9.200002
v -3.320009 5.975 8.700001
v 3.320002 5.975 8.700002
v 3.320003 5.975 9.200002
v -3.170008 5.825 9.200001
v -3.170008 5.825 8.900001
v -3.170008 5.174999 8.900001
v -3.170008 5.174999 9.200001
v -3.321532 5.240818 8.800093
v -3.321532 5.240818 9.086884
v -3.321532 5.159183 9.086884
v -3.321532 5.159183 8.800093
v -3.321532 5.440816 8.800093
v -3.321532 5.440816 9.086884
v -3.321532 5.359182 9.086884
v -3.321532 5.359182 8.800093
v -3.321532 5.640818 8.800093
v -3.321532 5.640818 9.086884
v -3.321532 5.559183 9.086884
v -3.321532 5.559183 8.800093
v 3.322319 5.240818 9.086882
v 3.322319 5.240818 8.800091
v 3.322319 5.159183 8.800091
v 3.322319 5.159183 9.086882
v 3.322319 5.440816 9.086882
v 3.322319 5.440816 8.800091
v 3.322319 5.359182 8.800091
v 3.322319 5.359182 9.086882
v 3.322319 5.640818 9.086882
v 3.322319 5.640818 8.800091
v 3.322319 5.559183 8.800091
v 3.322319 5.559183 9.086882
v 3.170003 5.825 9.200002
v 3.320003 5.975 9.200002
v 3.320003 5.025 9.200002
v 3.170003 5.174999 9.200002
v 3.170003 5.174999 9.200002
v 3.320003 5.025 9.200002
v -3.320009 5.025 9.200002
v -3.170008 5.174999 9.200001
v -3.170008 5.825 9.200001
v -3.320009 5.975 9.200002
v 3.320003 5.975 9.200002
v 3.170003 5.825 9.200002
v -3.170008 5.174999 9.200001
v -3.320009 5.025 9.200002
v -3.320009 5.975 9.200002
v -3.170008 5.825 9.200001
v 3.170003 5.174999 8.900001
v -3.170008 5.174999 8.900001
v -3.170008 5.825 8.900001
v 3.170003 5.825 8.900001
v -3.170008 5.174999 9.200001
v -3.170008 5.174999 8.900001
v 3.170003 5.174999 8.900001
v 3.170003 5.174999 9.200002
v 3.170003 5.825 9.200002
v 3.170003 5.825 8.900001
v -3.170008 5.825 8.900001
v -3.170008 5.825 9.200001
v 3.170003 5.174999 9.200002
v 3.170003 5.174999 8.900001
v 3.170003 5.825 8.900001
v 3.170003 5.825 9.200002
v -3.170008 5.413101 8.886616
v 3.170003 5.413101 8.886616
v 3.170003 5.186897 9.041244
v -3.170008 5.186897 9.041243
v -3.170008 5.619051 8.886616
v 3.170003 5.619051 8.886616
v 3.170003 5.392847 9.041244
v -3.170008 5.392847 9.041243
v -3.170008 5.825 8.886616
v 3.170003 5.825 8.886616
v 3.170003 5.598795 9.041244
v -3.170008 5.598795 9.041243
vt 0.8552152 0.4792181
vt 0.8552152 0.4086937
vt 0.7846924 0.4086952
vt 0.8084568 0.3711724
vt 0.8789796 0.3711709
vt 0.8789796 0.3006496
vt 0.9039948 0.2718821
vt 0.9039948 0.3424034
vt 0.9745176 0.3424049
vt 0.9495024 0.3711724
vt 0.8789796 0.3711709
vt 0.8789796 0.4416952
vt 0.8552152 0.4792181
vt 0.8552152 0.4086937
vt 0.7846924 0.4086952
vt 0.8084568 0.3711724
vt 0.8789796 0.3711709
vt 0.8789796 0.3006496
vt 0.9039948 0.2718821
vt 0.9039948 0.3424034
vt 0.9745176 0.3424049
vt 0.9495024 0.3711724
vt 0.8789796 0.3711709
vt 0.8789796 0.4416952
vt 0.8552152 0.4792181
vt 0.8552152 0.4086937
vt 0.7846924 0.4086952
vt 0.8084568 0.3711724
vt 0.8789796 0.3711709
vt 0.8789796 0.3006496
vt 0.9039948 0.2718821
vt 0.9039948 0.3424034
vt 0.9745176 0.3424049
vt 0.9495024 0.3711724
vt 0.8789796 0.3711709
vt 0.8789796 0.4416952
vt 0.8552152 0.4792181
vt 0.8552152 0.4086937
vt 0.7846924 0.4086952
vt 0.8084568 0.3711724
vt 0.8789796 0.3711709
vt 0.8789796 0.3006496
vt 0.9039948 0.2718821
vt 0.9039948 0.3424034
vt 0.9745176 0.3424049
vt 0.9495024 0.3711724
vt 0.8789796 0.3711709
vt 0.8789796 0.4416952
vt 0.8552152 0.4792181
vt 0.8552152 0.4086937
vt 0.7846924 0.4086952
vt 0.8084568 0.3711724
vt 0.8789796 0.3711709
vt 0.8789796 0.3006496
vt 0.9039948 0.2718821
vt 0.9039948 0.3424034
vt 0.9745176 0.3424049
vt 0.9495024 0.3711724
vt 0.8789796 0.3711709
vt 0.8789796 0.4416952
vt 0.8552152 0.4792181
vt 0.8552152 0.4086937
vt 0.7846924 0.4086952
vt 0.8084568 0.3711724
vt 0.8789796 0.3711709
vt 0.8789796 0.3006496
vt 0.9039948 0.2718821
vt 0.9039948 0.3424034
vt 0.9745176 0.3424049
vt 0.9495024 0.3711724
vt 0.8789796 0.3711709
vt 0.8789796 0.4416952
vt 0.8552152 0.4792181
vt 0.8552152 0.4086937
vt 0.7846924 0.4086952
vt 0.8084568 0.3711724
vt 0.8789796 0.3711709
vt 0.8789796 0.3006496
vt 0.9039948 0.2718821
vt 0.9039948 0.3424034
vt 0.9745176 0.3424049
vt 0.9495024 0.3711724
vt 0.8789796 0.3711709
vt 0.8789796 0.4416952
vt 0.8552152 0.4792181
vt 0.8552152 0.4086937
vt 0.7846924 0.4086952
vt 0.8084568 0.3711724
vt 0.8789796 0.3711709
vt 0.8789796 0.3006496
vt 0.9039948 0.2718821
vt 0.9039948 0.3424034
vt 0.9745176 0.3424049
vt 0.9495024 0.3711724
vt 0.8789796 0.3711709
vt 0.8789796 0.4416952
vt 0.9031734 0.4044668
vt 0.9031734 0.3660943
vt 0.9031734 0.3660943
vt 0.9031734 0.4044668
vt 0.8508728 0.4044668
vt 0.8508728 0.3660943
vt 0.8508728 0.3660943
vt 0.8508728 0.4044668
vt 0.7969514 0.3054428
vt 0.7969514 0.3054428
vt 0.949945 0.3054428
vt 0.949945 0.3054428
vt 0.791221 0.4837044
vt 0.791221 0.4837044
vt 0.9663588 0.4837044
vt 0.9663588 0.4837044
vt 0.94636 0.296194
vt 0.94636 0.2546586
vt 0.94636 0.3453354
vt 0.94636 0.3868708
vt 0.9903107 0.2892563
vt 0.7628861 0.2892563
vt 0.7628861 0.4846467
vt 0.9903107 0.4846467
vt 0.9903107 0.2892563
vt 0.7628861 0.2892563
vt 0.7628861 0.4846467
vt 0.9903107 0.4846467
vt 0.9903107 0.2892563
vt 0.7628861 0.2892563
vt 0.7628861 0.4846467
vt 0.9903107 0.4846467
vt 0.9903107 0.2892563
vt 0.7628861 0.2892563
vt 0.7628861 0.4846467
vt 0.9903107 0.4846467
vt 0.9903107 0.2892563
vt 0.7628861 0.2892563
vt 0.7628861 0.4846467
vt 0.9903107 0.4846467
vt 0.9903107 0.2892563
vt 0.7628861 0.2892563
vt 0.7628861 0.4846467
vt 0.9903107 0.4846467
vt 0.9081398 0.4308811
vt 0.9160433 0.4387847
vt 0.9160433 0.3676524
vt 0.9081398 0.375556
vt 0.9081398 0.375556
vt 0.9160433 0.3676524
vt 0.8190921 0.3676524
vt 0.8269957 0.375556
vt 0.8269957 0.4308811
vt 0.819092 0.4387847
vt 0.9160433 0.4387847
vt 0.9081398 0.4308811
vt 0.8269957 0.375556
vt 0.8190921 0.3676524
vt 0.819092 0.4387847
vt 0.8269957 0.4308811
vt 0.8175439 0.3505273
vt 0.9192973 0.3505273
vt 0.9192973 0.2811504
vt 0.8175439 0.2811504
vt 0.94636 0.3868708
vt 0.94636 0.3453354
vt 0.8133662 0.3453354
vt 0.8133662 0.3868708
vt 0.8133662 0.2961939
vt 0.8133662 0.2546585
vt 0.94636 0.2546586
vt 0.94636 0.296194
vt 0.8133662 0.3868708
vt 0.8133662 0.3453354
vt 0.8133662 0.2546585
vt 0.8133662 0.2961939
vt 0.9773646 0.3003789
vt 0.7758322 0.3003789
vt 0.7758322 0.4735241
vt 0.9773646 0.4735241
vt 0.9773646 0.3003789
vt 0.7758322 0.3003789
vt 0.7758322 0.4735241
vt 0.9773646 0.4735241
vt 0.9773646 0.3003789
vt 0.7758322 0.3003789
vt 0.7758322 0.4735241
vt 0.9773646 0.4735241
vt 0.9031734 0.4044668
vt 0.9031734 0.3660943
vt 0.9031734 0.3660943
vt 0.9031734 0.4044668
vt 0.8508728 0.4044668
vt 0.8508728 0.3660943
vt 0.8508728 0.3660943
vt 0.8508728 0.4044668
vt 0.7969514 0.3054428
vt 0.7969514 0.3054428
vt 0.949945 0.3054428
vt 0.949945 0.3054428
vt 0.791221 0.4837044
vt 0.791221 0.4837044
vt 0.9663588 0.4837044
vt 0.9663588 0.4837044
vt 0.94636 0.296194
vt 0.94636 0.2546586
vt 0.94636 0.3453354
vt 0.94636 0.3868708
vt 0.9903107 0.2892563
vt 0.7628861 0.2892563
vt 0.7628861 0.4846467
vt 0.9903107 0.4846467
vt 0.9903107 0.2892563
vt 0.7628861 0.2892563
vt 0.7628861 0.4846467
vt 0.9903107 0.4846467
vt 0.9903107 0.2892563
vt 0.7628861 0.2892563
vt 0.7628861 0.4846467
vt 0.9903107 0.4846467
vt 0.9903107 0.2892563
vt 0.7628861 0.2892563
vt 0.7628861 0.4846467
vt 0.9903107 0.4846467
vt 0.9903107 0.2892563
vt 0.7628861 0.2892563
vt 0.7628861 0.4846467
vt 0.9903107 0.4846467
vt 0.9903107 0.2892563
vt 0.7628861 0.2892563
vt 0.7628861 0.4846467
vt 0.9903107 0.4846467
vt 0.9081398 0.4308811
vt 0.9160433 0.4387847
vt 0.9160433 0.3676524
vt 0.9081398 0.375556
vt 0.9081398 0.375556
vt 0.9160433 0.3676524
vt 0.8190921 0.3676524
vt 0.8269957 0.375556
vt 0.8269957 0.4308811
vt 0.819092 0.4387847
vt 0.9160433 0.4387847
vt 0.9081398 0.4308811
vt 0.8269957 0.375556
vt 0.8190921 0.3676524
vt 0.819092 0.4387847
vt 0.8269957 0.4308811
vt 0.8175439 0.3505273
vt 0.9192973 0.3505273
vt 0.9192973 0.2811504
vt 0.8175439 0.2811504
vt 0.94636 0.3868708
vt 0.94636 0.3453354
vt 0.8133662 0.3453354
vt 0.8133662 0.3868708
vt 0.8133662 0.2961939
vt 0.8133662 0.2546585
vt 0.94636 0.2546586
vt 0.94636 0.296194
vt 0.8133662 0.3868708
vt 0.8133662 0.3453354
vt 0.8133662 0.2546585
vt 0.8133662 0.2961939
vt 0.9773646 0.3003789
vt 0.7758322 0.3003789
vt 0.7758322 0.4735241
vt 0.9773646 0.4735241
vt 0.9773646 0.3003789
vt 0.7758322 0.3003789
vt 0.7758322 0.4735241
vt 0.9773646 0.4735241
vt 0.9773646 0.3003789
vt 0.7758322 0.3003789
vt 0.7758322 0.4735241
vt 0.9773646 0.4735241
vn 0.4355478 0.4355569 -0.7877743
vn 0.4355478 0.4355569 -0.7877743
vn 0.4355478 0.4355569 -0.7877743
vn 0.4355478 -0.4355569 -0.7877743
vn 0.4355478 -0.4355569 -0.7877743
vn 0.4355478 -0.4355569 -0.7877743
vn -0.4355461 -0.4355553 -0.7877761
vn -0.4355461 -0.4355553 -0.7877761
vn -0.4355461 -0.4355553 -0.7877761
vn -0.4355461 0.4355553 -0.7877761
vn -0.4355461 0.4355553 -0.7877761
vn -0.4355461 0.4355553 -0.7877761
vn 0.4355395 0.4355487 -0.7877834
vn 0.4355395 0.4355487 -0.7877834
vn 0.4355395 0.4355487 -0.7877834
vn 0.435554 -0.4355631 -0.7877674
vn 0.435554 -0.4355631 -0.7877674
vn 0.435554 -0.4355631 -0.7877674
vn -0.4355539 -0.435563 -0.7877675
vn -0.4355539 -0.435563 -0.7877675
vn -0.4355539 -0.435563 -0.7877675
vn -0.4355399 0.4355491 -0.787783
vn -0.4355399 0.4355491 -0.787783
vn -0.4355399 0.4355491 -0.787783
vn 0.435555 0.4355595 -0.7877688
vn 0.435555 0.4355595 -0.7877688
vn 0.435555 0.4355595 -0.7877688
vn 0.4355513 -0.4355604 -0.7877705
vn 0.4355513 -0.4355604 -0.7877705
vn 0.4355513 -0.4355604 -0.7877705
vn -0.4355567 -0.4355567 -0.7877694
vn -0.4355567 -0.4355567 -0.7877694
vn -0.4355567 -0.4355567 -0.7877694
vn -0.4355604 0.4355558 -0.7877679
vn -0.4355604 0.4355558 -0.7877679
vn -0.4355604 0.4355558 -0.7877679
vn 0.4355444 0.4355536 -0.787778
vn 0.4355444 0.4355536 -0.787778
vn 0.4355444 0.4355536 -0.787778
vn 0.4355575 -0.4355667 -0.7877635
vn 0.4355575 -0.4355667 -0.7877635
vn 0.4355575 -0.4355667 -0.7877635
vn -0.4355643 -0.4355643 -0.7877611
vn -0.4355643 -0.4355643 -0.7877611
vn -0.4355643 -0.4355643 -0.7877611
vn -0.4355489 0.4355489 -0.7877781
vn -0.4355489 0.4355489 -0.7877781
vn -0.4355489 0.4355489 -0.7877781
vn -0.4355461 0.4355553 0.7877761
vn -0.4355461 0.4355553 0.7877761
vn -0.4355461 0.4355553 0.7877761
vn -0.4355461 -0.4355553 0.7877761
vn -0.4355461 -0.4355553 0.7877761
vn -0.4355461 -0.4355553 0.7877761
vn 0.4355461 -0.4355553 0.7877761
vn 0.4355461 -0.4355553 0.7877761
vn 0.4355461 -0.4355553 0.7877761
vn 0.4355461 0.4355553 0.7877761
vn 0.4355461 0.4355553 0.7877761
vn 0.4355461 0.4355553 0.7877761
vn -0.4355395 0.4355487 0.7877834
vn -0.4355395 0.4355487 0.7877834
vn -0.4355395 0.4355487 0.7877834
vn -0.4355524 -0.4355616 0.7877691
vn -0.4355524 -0.4355616 0.7877691
vn -0.4355524 -0.4355616 0.7877691
vn 0.4355539 -0.435563 0.7877675
vn 0.4355539 -0.435563 0.7877675
vn 0.4355539 -0.435563 0.7877675
vn 0.4355383 0.4355475 0.7877847
vn 0.4355383 0.4355475 0.7877847
vn 0.4355383 0.4355475 0.7877847
vn -0.435555 0.4355595 0.7877688
vn -0.435555 0.4355595 0.7877688
vn -0.435555 0.4355595 0.7877688
vn -0.4355513 -0.4355604 0.7877705
vn -0.4355513 -0.4355604 0.7877705
vn -0.4355513 -0.4355604 0.7877705
vn 0.4355583 -0.4355583 0.7877678
vn 0.4355583 -0.4355583 0.7877678
vn 0.4355583 -0.4355583 0.7877678
vn 0.435562 0.4355574 0.7877662
vn 0.435562 0.4355574 0.7877662
vn 0.435562 0.4355574 0.7877662
vn -0.4355444 0.4355536 0.787778
vn -0.4355444 0.4355536 0.787778
vn -0.4355444 0.4355536 0.787778
vn -0.4355575 -0.4355667 0.7877635
vn -0.4355575 -0.4355667 0.7877635
vn -0.4355575 -0.4355667 0.7877635
vn 0.4355658 -0.4355658 0.7877593
vn 0.4355658 -0.4355658 0.7877593
vn 0.4355658 -0.4355658 0.7877593
vn 0.4355505 0.4355505 0.7877764
vn 0.4355505 0.4355505 0.7877764
vn 0.4355505 0.4355505 0.7877764
vn -1 0 -5.019335E-07
vn -1 0 -5.019335E-07
vn -1 0 -5.019335E-07
vn -1 0 -5.019335E-07
vn 1 0 1.003865E-06
vn 1 0 1.003865E-06
vn 1 0 1.003865E-06
vn 1 0 1.003865E-06
vn 0 -1 0
vn 0 -1 0
vn 0 -1 0
vn 0 -1 0
vn 0 1 0
vn 0 1 0
vn 0 1 0
vn 0 1 0
vn -1 0 -1.222655E-06
vn -1 0 -1.222655E-06
vn -1 0 -1.222655E-06
vn -1 0 -1.222655E-06
vn 1 0 0
vn 1 0 0
vn 1 0 0
vn 1 0 0
vn 1 0 0
vn 1 0 0
vn 1 0 0
vn 1 0 0
vn 1 0 0
vn 1 0 0
vn 1 0 0
vn 1 0 0
vn -1 0 -1.272951E-06
vn -1 0 -1.272951E-06
vn -1 0 -1.272951E-06
vn -1 0 -1.272951E-06
vn -1 0 -1.272945E-06
vn -1 0 -1.272945E-06
vn -1 0 -1.272945E-06
vn -1 0 -1.272945E-06
vn -1 0 -1.272945E-06
vn -1 0 -1.272945E-06
vn -1 0 -1.272945E-06
vn -1 0 -1.272945E-06
vn 0 0 -1
vn 0 0 -1
vn 0 0 -1
vn 0 0 -1
vn 0 7.837083E-06 -1
vn 0 7.837083E-06 -1
vn 0 7.837083E-06 -1
vn 0 7.837083E-06 -1
vn 0 -7.837083E-06 -1
vn 0 -7.837083E-06 -1
vn 0 -7.837083E-06 -1
vn 0 -7.837083E-06 -1
vn -6.357781E-06 0 -1
vn -6.357781E-06 0 -1
vn -6.357781E-06 0 -1
vn -6.357781E-06 0 -1
vn 0 0 -1
vn 0 0 -1
vn 0 0 -1
vn 0 0 -1
vn 0 1 0
vn 0 1 0
vn 0 1 0
vn 0 1 0
vn 0 -1 0
vn 0 -1 0
vn 0 -1 0
vn 0 -1 0
vn 1 0 0
vn 1 0 0
vn 1 0 0
vn 1 0 0
vn 0 0.5643243 -0.8255532
vn 0 0.5643243 -0.8255532
vn 0 0.5643243 -0.8255532
vn 0 0.5643243 -0.8255532
vn 0 0.5643243 -0.8255532
vn 0 0.5643243 -0.8255532
vn 0 0.5643243 -0.8255532
vn 0 0.5643243 -0.8255532
vn 0 0.5643211 -0.8255554
vn 0 0.5643211 -0.8255554
vn 0 0.5643211 -0.8255554
vn 0 0.5643211 -0.8255554
vn 1 0 -5.019335E-07
vn 1 0 -5.019335E-07
vn 1 0 -5.019335E-07
vn 1 0 -5.019335E-07
vn -1 0 -5.019324E-07
vn -1 0 -5.019324E-07
vn -1 0 -5.019324E-07
vn -1 0 -5.019324E-07
vn 0 -1 0
vn 0 -1 0
vn 0 -1 0
vn 0 -1 0
vn 0 1 0
vn 0 1 0
vn 0 1 0
vn 0 1 0
vn 1 0 -1.222655E-06
vn 1 0 -1.222655E-06
vn 1 0 -1.222655E-06
vn 1 0 -1.222655E-06
vn -1 0 0
vn -1 0 0
vn -1 0 0
vn -1 0 0
vn -1 0 0
vn -1 0 0
vn -1 0 0
vn -1 0 0
vn -1 0 0
vn -1 0 0
vn -1 0 0
vn -1 0 0
vn 1 0 -1.272951E-06
vn 1 0 -1.272951E-06
vn 1 0 -1.272951E-06
vn 1 0 -1.272951E-06
vn 1 0 -1.272945E-06
vn 1 0 -1.272945E-06
vn 1 0 -1.272945E-06
vn 1 0 -1.272945E-06
vn 1 0 -1.272945E-06
vn 1 0 -1.272945E-06
vn 1 0 -1.272945E-06
vn 1 0 -1.272945E-06
vn 0 0 1
vn 0 0 1
vn 0 0 1
vn 0 0 1
vn 0 7.837083E-06 1
vn 0 7.837083E-06 1
vn 0 7.837083E-06 1
vn 0 7.837083E-06 1
vn 0 -7.837083E-06 1
vn 0 -7.837083E-06 1
vn 0 -7.837083E-06 1
vn 0 -7.837083E-06 1
vn 6.357793E-06 0 1
vn 6.357793E-06 0 1
vn 6.357793E-06 0 1
vn 6.357793E-06 0 1
vn 0 0 1
vn 0 0 1
vn 0 0 1
vn 0 0 1
vn 0 1 0
vn 0 1 0
vn 0 1 0
vn 0 1 0
vn 0 -1 0
vn 0 -1 0
vn 0 -1 0
vn 0 -1 0
vn -1 0 0
vn -1 0 0
vn -1 0 0
vn -1 0 0
vn 0 0.5643256 0.8255522
vn 0 0.5643256 0.8255522
vn 0 0.5643256 0.8255522
vn 0 0.5643256 0.8255522
vn 0 0.5643256 0.8255522
vn 0 0.5643256 0.8255522
vn 0 0.5643256 0.8255522
vn 0 0.5643256 0.8255522
vn 0 0.5643224 0.8255545
vn 0 0.5643224 0.8255545
vn 0 0.5643224 0.8255545
vn 0 0.5643224 0.8255545
g Air_Conditioner_13B_0
f 3/3/3 2/2/2 1/1/1
f 6/6/6 5/5/5 4/4/4
f 9/9/9 8/8/8 7/7/7
f 12/12/12 11/11/11 10/10/10
f 15/15/15 14/14/14 13/13/13
f 18/18/18 17/17/17 16/16/16
f 21/21/21 20/20/20 19/19/19
f 24/24/24 23/23/23 22/22/22
f 27/27/27 26/26/26 25/25/25
f 30/30/30 29/29/29 28/28/28
f 33/33/33 32/32/32 31/31/31
f 36/36/36 35/35/35 34/34/34
f 39/39/39 38/38/38 37/37/37
f 42/42/42 41/41/41 40/40/40
f 45/45/45 44/44/44 43/43/43
f 48/48/48 47/47/47 46/46/46
f 51/51/51 50/50/50 49/49/49
f 54/54/54 53/53/53 52/52/52
f 57/57/57 56/56/56 55/55/55
f 60/60/60 59/59/59 58/58/58
f 63/63/63 62/62/62 61/61/61
f 66/66/66 65/65/65 64/64/64
f 69/69/69 68/68/68 67/67/67
f 72/72/72 71/71/71 70/70/70
f 75/75/75 74/74/74 73/73/73
f 78/78/78 77/77/77 76/76/76
f 81/81/81 80/80/80 79/79/79
f 84/84/84 83/83/83 82/82/82
f 87/87/87 86/86/86 85/85/85
f 90/90/90 89/89/89 88/88/88
f 93/93/93 92/92/92 91/91/91
f 96/96/96 95/95/95 94/94/94
f 99/99/99 98/98/98 97/97/97
f 100/100/100 99/99/99 97/97/97
f 103/103/103 102/102/102 101/101/101
f 104/104/104 103/103/103 101/101/101
f 107/107/107 106/106/106 105/105/105
f 108/108/108 107/107/107 105/105/105
f 111/111/111 110/110/110 109/109/109
f 112/112/112 111/111/111 109/109/109
f 115/115/115 114/114/114 113/113/113
f 116/116/116 115/115/115 113/113/113
f 119/119/119 118/118/118 117/117/117
f 120/120/120 119/119/119 117/117/117
f 123/123/123 122/122/122 121/121/121
f 124/124/124 123/123/123 121/121/121
f 127/127/127 126/126/126 125/125/125
f 128/128/128 127/127/127 125/125/125
f 131/131/131 130/130/130 129/129/129
f 132/132/132 131/131/131 129/129/129
f 135/135/135 134/134/134 133/133/133
f 136/136/136 135/135/135 133/133/133
f 139/139/139 138/138/138 137/137/137
f 140/140/140 139/139/139 137/137/137
f 143/143/143 142/142/142 141/141/141
f 144/144/144 143/143/143 141/141/141
f 147/147/147 146/146/146 145/145/145
f 148/148/148 147/147/147 145/145/145
f 151/151/151 150/150/150 149/149/149
f 152/152/152 151/151/151 149/149/149
f 155/155/155 154/154/154 153/153/153
f 156/156/156 155/155/155 153/153/153
f 159/159/159 158/158/158 157/157/157
f 160/160/160 159/159/159 157/157/157
f 163/163/163 162/162/162 161/161/161
f 164/164/164 163/163/163 161/161/161
f 167/167/167 166/166/166 165/165/165
f 168/168/168 167/167/167 165/165/165
f 171/171/171 170/170/170 169/169/169
f 172/172/172 171/171/171 169/169/169
f 175/175/175 174/174/174 173/173/173
f 176/176/176 175/175/175 173/173/173
f 179/179/179 178/178/178 177/177/177
f 180/180/180 179/179/179 177/177/177
f 183/183/183 182/182/182 181/181/181
f 184/184/184 183/183/183 181/181/181
f 187/187/187 186/186/186 185/185/185
f 188/188/188 187/187/187 185/185/185
f 191/191/191 190/190/190 189/189/189
f 192/192/192 191/191/191 189/189/189
f 195/195/195 194/194/194 193/193/193
f 196/196/196 195/195/195 193/193/193
f 199/199/199 198/198/198 197/197/197
f 200/200/200 199/199/199 197/197/197
f 203/203/203 202/202/202 201/201/201
f 204/204/204 203/203/203 201/201/201
f 207/207/207 206/206/206 205/205/205
f 208/208/208 207/207/207 205/205/205
f 211/211/211 210/210/210 209/209/209
f 212/212/212 211/211/211 209/209/209
f 215/215/215 214/214/214 213/213/213
f 216/216/216 215/215/215 213/213/213
f 219/219/219 218/218/218 217/217/217
f 220/220/220 219/219/219 217/217/217
f 223/223/223 222/222/222 221/221/221
f 224/224/224 223/223/223 221/221/221
f 227/227/227 226/226/226 225/225/225
f 228/228/228 227/227/227 225/225/225
f 231/231/231 230/230/230 229/229/229
f 232/232/232 231/231/231 229/229/229
f 235/235/235 234/234/234 233/233/233
f 236/236/236 235/235/235 233/233/233
f 239/239/239 238/238/238 237/237/237
f 240/240/240 239/239/239 237/237/237
f 243/243/243 242/242/242 241/241/241
f 244/244/244 243/243/243 241/241/241
f 247/247/247 246/246/246 245/245/245
f 248/248/248 247/247/247 245/245/245
f 251/251/251 250/250/250 249/249/249
f 252/252/252 251/251/251 249/249/249
f 255/255/255 254/254/254 253/253/253
f 256/256/256 255/255/255 253/253/253
f 259/259/259 258/258/258 257/257/257
f 260/260/260 259/259/259 257/257/257
f 263/263/263 262/262/262 261/261/261
f 264/264/264 263/263/263 261/261/261
f 267/267/267 266/266/266 265/265/265
f 268/268/268 267/267/267 265/265/265
f 271/271/271 270/270/270 269/269/269
f 272/272/272 271/271/271 269/269/269
