g Barrel_1B
v 0.3911998 1.100694 -0.1048217
v 0.4184249 1.158751 0.1121169
v 0.418425 1.158751 -0.1121166
v 0.3911998 1.100694 0.104822
v 0.3063082 1.158751 0.3063086
v 0.286378 1.100694 0.2863784
v 0.1121164 1.158751 0.4184252
v 0.1048214 1.100694 0.3912
v -0.1121169 1.158751 0.418425
v -0.1048219 1.100694 0.3911999
v -0.3063086 1.158751 0.3063084
v -0.2863784 1.100694 0.2863782
v -0.4184251 1.158751 0.1121166
v -0.3912 1.100694 0.1048217
v -0.3912 1.100694 0.1048217
v -0.4184251 1.158751 -0.1121167
v -0.4184251 1.158751 0.1121166
v -0.3912 1.100694 -0.1048217
v -0.3063085 1.158751 -0.3063084
v -0.2863784 1.100694 -0.2863782
v -0.1121168 1.158751 -0.418425
v -0.1048218 1.100694 -0.3911999
v 0.1121165 1.158751 -0.4184251
v 0.1048216 1.100694 -0.3911999
v 0.3063083 1.158751 -0.3063084
v 0.2863781 1.100694 -0.2863782
v 0.418425 1.158751 -0.1121166
v 0.3911998 1.100694 -0.1048217
v 0.2756373 0 -0.2756374
v 0.1008902 0 -0.3765278
v -0.1008904 0 -0.3765277
v -0.2756375 0 -0.2756374
v 0.3765276 0 -0.1008903
v -0.3765278 0 -0.1008903
v 0.3765276 0 0.1008906
v -0.3765278 0 0.1008903
v -0.2756376 0 0.2756374
v 0.2756372 0 0.2756376
v -0.1008905 0 0.3765277
v 0.1008901 0 0.3765278
v -0.1008904 1.2 -0.3765277
v 0.1008902 1.2 -0.3765278
v 0.2756373 1.2 -0.2756374
v -0.2756375 1.2 -0.2756374
v -0.3765278 1.2 -0.1008903
v 0.3765276 1.2 -0.1008903
v -0.3765278 1.2 0.1008903
v 0.3765276 1.2 0.1008906
v -0.2756376 1.2 0.2756374
v 0.2756372 1.2 0.2756376
v -0.1008905 1.2 0.3765277
v 0.1008901 1.2 0.3765278
v 0.3063083 0.04124945 -0.3063084
v 0.418425 0.04124945 -0.1121166
v 0.3911998 0.09930579 -0.1048217
v 0.2863781 0.09930585 -0.2863782
v 0.1121165 0.04124945 -0.4184251
v 0.1048216 0.09930579 -0.3911999
v -0.1121168 0.04124945 -0.418425
v -0.1048218 0.09930579 -0.3911999
v -0.3063085 0.04124945 -0.3063084
v -0.2863784 0.09930585 -0.2863782
v -0.4184251 0.04124945 -0.1121167
v -0.3912 0.09930579 -0.1048217
v -0.4184251 0.04124945 0.1121166
v -0.3912 0.09930579 0.1048217
v 0.2863781 0.09930585 -0.2863782
v 0.3911998 0.09930579 -0.1048217
v 0.3911998 1.100694 -0.1048217
v 0.2863781 1.100694 -0.2863782
v 0.1048216 0.09930579 -0.3911999
v 0.1048216 1.100694 -0.3911999
v -0.1048218 0.09930579 -0.3911999
v -0.1048218 1.100694 -0.3911999
v -0.2863784 0.09930585 -0.2863782
v -0.2863784 1.100694 -0.2863782
v -0.3912 0.09930579 -0.1048217
v -0.3912 1.100694 -0.1048217
v -0.3912 0.09930579 0.1048217
v -0.3912 1.100694 0.1048217
v -0.3063086 0.04124945 0.3063084
v -0.4184251 0.04124945 0.1121166
v -0.3912 0.09930579 0.1048217
v -0.2863784 0.09930579 0.2863782
v -0.1121169 0.04124945 0.418425
v -0.1048219 0.09930585 0.3911999
v 0.1121164 0.04124945 0.4184252
v 0.1048214 0.09930579 0.3912
v 0.3063082 0.04124945 0.3063086
v 0.286378 0.09930579 0.2863784
v 0.4184249 0.04124945 0.1121169
v 0.3911998 0.09930585 0.104822
v 0.418425 0.04124945 -0.1121166
v 0.3911998 0.09930579 -0.1048217
v -0.2863784 0.09930579 0.2863782
v -0.3912 0.09930579 0.1048217
v -0.3912 1.100694 0.1048217
v -0.2863784 1.100694 0.2863782
v -0.1048219 0.09930585 0.3911999
v -0.1048219 1.100694 0.3911999
v 0.1048214 0.09930579 0.3912
v 0.1048214 1.100694 0.3912
v 0.286378 0.09930579 0.2863784
v 0.286378 1.100694 0.2863784
v 0.3911998 0.09930585 0.104822
v 0.3911998 1.100694 0.104822
v 0.3911998 0.09930579 -0.1048217
v 0.3911998 1.100694 -0.1048217
v 0.3765276 0 -0.1008903
v 0.418425 0.04124945 -0.1121166
v 0.3063083 0.04124945 -0.3063084
v 0.2756373 0 -0.2756374
v 0.1121165 0.04124945 -0.4184251
v 0.1008902 0 -0.3765278
v -0.1121168 0.04124945 -0.418425
v -0.1008904 0 -0.3765277
v -0.3063085 0.04124945 -0.3063084
v -0.2756375 0 -0.2756374
v -0.4184251 0.04124945 -0.1121167
v -0.3765278 0 -0.1008903
v -0.4184251 0.04124945 0.1121166
v -0.3765278 0 0.1008903
v -0.3765278 0 0.1008903
v -0.4184251 0.04124945 0.1121166
v -0.3063086 0.04124945 0.3063084
v -0.2756376 0 0.2756374
v -0.1121169 0.04124945 0.418425
v -0.1008905 0 0.3765277
v 0.1121164 0.04124945 0.4184252
v 0.1008901 0 0.3765278
v 0.3063082 0.04124945 0.3063086
v 0.2756372 0 0.2756376
v 0.4184249 0.04124945 0.1121169
v 0.3765276 0 0.1008906
v 0.418425 0.04124945 -0.1121166
v 0.3765276 0 -0.1008903
v 0.2756373 1.2 -0.2756374
v 0.418425 1.158751 -0.1121166
v 0.3765276 1.2 -0.1008903
v 0.3063083 1.158751 -0.3063084
v 0.1008902 1.2 -0.3765278
v 0.1121165 1.158751 -0.4184251
v -0.1008904 1.2 -0.3765277
v -0.1121168 1.158751 -0.418425
v -0.2756375 1.2 -0.2756374
v -0.3063085 1.158751 -0.3063084
v -0.3765278 1.2 -0.1008903
v -0.4184251 1.158751 -0.1121167
v -0.3765278 1.2 0.1008903
v -0.4184251 1.158751 0.1121166
v -0.2756376 1.2 0.2756374
v -0.4184251 1.158751 0.1121166
v -0.3765278 1.2 0.1008903
v -0.3063086 1.158751 0.3063084
v -0.1008905 1.2 0.3765277
v -0.1121169 1.158751 0.418425
v 0.1008901 1.2 0.3765278
v 0.1121164 1.158751 0.4184252
v 0.2756372 1.2 0.2756376
v 0.3063082 1.158751 0.3063086
v 0.3765276 1.2 0.1008906
v 0.4184249 1.158751 0.1121169
v 0.3765276 1.2 -0.1008903
v 0.418425 1.158751 -0.1121166
v 0.289766 0.4220653 -0.2897661
v 0.3958277 0.4220653 -0.1060617
v 0.3958277 0.7779349 -0.1060617
v 0.289766 0.7779349 -0.2897661
v 0.1060616 0.4220653 -0.3958278
v 0.1060616 0.7779349 -0.3958278
v -0.1060619 0.4220653 -0.3958277
v -0.1060619 0.7779349 -0.3958277
v -0.2897662 0.4220653 -0.2897661
v -0.2897662 0.7779349 -0.2897661
v -0.3958279 0.4220653 -0.1060617
v -0.3958279 0.7779349 -0.1060617
v -0.3958279 0.4220653 0.1060617
v -0.3958279 0.7779349 0.1060617
v -0.2897662 0.4220653 0.2897661
v -0.3958279 0.4220653 0.1060617
v -0.3958279 0.7779349 0.1060617
v -0.2897662 0.7779349 0.2897661
v -0.106062 0.4220653 0.3958278
v -0.106062 0.7779349 0.3958278
v 0.1060615 0.4220653 0.3958279
v 0.1060615 0.7779349 0.3958279
v 0.2897658 0.4220653 0.2897663
v 0.2897658 0.7779349 0.2897663
v 0.3958277 0.4220653 0.106062
v 0.3958277 0.7779349 0.106062
v 0.3958277 0.4220653 -0.1060617
v 0.3958277 0.7779349 -0.1060617
v 0.03048017 1.245826 0.1857912
v 0.1025172 1.245826 0.1857911
v 0.1385357 1.245826 0.248177
v -0.005538344 1.245826 0.248177
v 0.0304802 1.245826 0.3105629
v 0.1025172 1.245826 0.3105629
v -0.005538344 1.245826 0.248177
v -0.02379801 1.2 0.2481771
v 0.02135032 1.2 0.1699778
v 0.03048017 1.245826 0.1857912
v 0.111647 1.2 0.1699778
v 0.1025172 1.245826 0.1857911
v 0.1567954 1.2 0.2481771
v 0.1385357 1.245826 0.248177
v 0.0304802 1.245826 0.3105629
v -0.02379801 1.2 0.2481771
v -0.005538344 1.245826 0.248177
v 0.02135038 1.2 0.3263763
v 0.1025172 1.245826 0.3105629
v 0.1116471 1.2 0.3263763
v 0.1385357 1.245826 0.248177
v 0.1567954 1.2 0.2481771
v -0.2556467 0.4630631 -0.3116506
v -0.106569 0.4630631 -0.3977205
v -0.106569 0.7369372 -0.3977205
v 0.065571 0.4630631 -0.3977206
vt 0.9434232 0.3016492
vt 0.9382768 0.3661789
vt 0.9482827 0.3661789
vt 0.9340685 0.3016495
vt 0.9109405 0.3661789
vt 0.9085109 0.3016492
vt 0.8735985 0.3661789
vt 0.8735985 0.3016492
vt 0.8362564 0.3661789
vt 0.8386862 0.3016495
vt 0.8089203 0.3661789
vt 0.8131285 0.3016492
vt 0.7989144 0.3661789
vt 0.8037739 0.3016492
vt 0.8037739 0.3016492
vt 0.8089203 0.3661789
vt 0.7989144 0.3661789
vt 0.8131285 0.3016492
vt 0.8362564 0.3661789
vt 0.8386862 0.3016495
vt 0.8735985 0.3661789
vt 0.8735985 0.3016492
vt 0.9109405 0.3661789
vt 0.9085109 0.3016492
vt 0.9382768 0.3661789
vt 0.9340685 0.3016495
vt 0.9482827 0.3661789
vt 0.9434232 0.3016492
vt 0.9318005 0.2601118
vt 0.9072015 0.2601118
vt 0.8735985 0.2601118
vt 0.8399956 0.2601118
vt 0.9408044 0.2601118
vt 0.8153965 0.2601118
vt 0.9318005 0.2601118
vt 0.8063926 0.2601118
vt 0.8153965 0.2601118
vt 0.9072015 0.2601118
vt 0.8399956 0.2601118
vt 0.8735985 0.2601118
vt 0.8790957 0.4465736
vt 0.9126987 0.4465736
vt 0.9372978 0.4465736
vt 0.8454928 0.4465736
vt 0.8208938 0.4465736
vt 0.9463018 0.4465736
vt 0.8118899 0.4465736
vt 0.9372978 0.4465736
vt 0.8208938 0.4465736
vt 0.9126987 0.4465736
vt 0.8454928 0.4465736
vt 0.8790957 0.4465736
vt 0.9382768 0.4628573
vt 0.9482827 0.4628573
vt 0.9434232 0.4869547
vt 0.9340685 0.4869547
vt 0.9109405 0.4628573
vt 0.9085109 0.4869547
vt 0.8735985 0.4628573
vt 0.8735985 0.4869547
vt 0.8362564 0.4628573
vt 0.8386862 0.4869547
vt 0.8089203 0.4628573
vt 0.8131285 0.4869547
vt 0.7989144 0.4628573
vt 0.8037739 0.4869547
vt 0.8519169 0.4262815
vt 0.8480806 0.4262815
vt 0.8480807 0.3599922
vt 0.8519169 0.3599922
vt 0.8623979 0.4262815
vt 0.862398 0.3599922
vt 0.8767152 0.4262815
vt 0.8767152 0.3599922
vt 0.8910325 0.4262815
vt 0.8910325 0.3599922
vt 0.9015136 0.4262815
vt 0.9015136 0.3599922
vt 0.9053499 0.4262815
vt 0.9053499 0.3599922
vt 0.8089203 0.4628573
vt 0.7989144 0.4628573
vt 0.8037739 0.4869547
vt 0.8131285 0.4869547
vt 0.8362564 0.4628573
vt 0.8386862 0.4869547
vt 0.8735985 0.4628573
vt 0.8735985 0.4869547
vt 0.9109405 0.4628573
vt 0.9085109 0.4869547
vt 0.9382768 0.4628573
vt 0.9340685 0.4869547
vt 0.9482827 0.4628573
vt 0.9434232 0.4869547
vt 0.9015136 0.4262815
vt 0.9053499 0.4262815
vt 0.9053499 0.3599922
vt 0.9015136 0.3599922
vt 0.8910325 0.4262815
vt 0.8910325 0.3599922
vt 0.8767152 0.4262815
vt 0.8767153 0.3599922
vt 0.8623979 0.4262815
vt 0.862398 0.3599922
vt 0.8519169 0.4262815
vt 0.8519169 0.3599922
vt 0.8480806 0.4262815
vt 0.8480807 0.3599922
vt 0.9408044 0.3016492
vt 0.9482827 0.3474979
vt 0.9382768 0.3474979
vt 0.9318005 0.3016492
vt 0.9109405 0.3474979
vt 0.9072015 0.3016492
vt 0.8735985 0.3474979
vt 0.8735985 0.3016492
vt 0.8362564 0.3474979
vt 0.8399956 0.3016492
vt 0.8089203 0.3474979
vt 0.8153965 0.3016492
vt 0.7989144 0.3474979
vt 0.8063926 0.3016492
vt 0.8063926 0.3016492
vt 0.7989144 0.3474979
vt 0.8089203 0.3474979
vt 0.8153965 0.3016492
vt 0.8362564 0.3474979
vt 0.8399956 0.3016492
vt 0.8735985 0.3474979
vt 0.8735985 0.3016492
vt 0.9109405 0.3474979
vt 0.9072015 0.3016492
vt 0.9382768 0.3474979
vt 0.9318005 0.3016492
vt 0.9482827 0.3474979
vt 0.9408044 0.3016492
vt 0.9318005 0.4869547
vt 0.9482827 0.4698334
vt 0.9408044 0.4869547
vt 0.9382768 0.4698334
vt 0.9072015 0.4869547
vt 0.9109405 0.4698334
vt 0.8735985 0.4869547
vt 0.8735985 0.4698334
vt 0.8399956 0.4869547
vt 0.8362564 0.4698334
vt 0.8153965 0.4869547
vt 0.8089203 0.4698334
vt 0.8063926 0.4869547
vt 0.7989144 0.4698334
vt 0.8153965 0.4869547
vt 0.7989144 0.4698334
vt 0.8063926 0.4869547
vt 0.8089203 0.4698334
vt 0.8399956 0.4869547
vt 0.8362564 0.4698334
vt 0.8735985 0.4869547
vt 0.8735985 0.4698334
vt 0.9072015 0.4869547
vt 0.9109405 0.4698334
vt 0.9318005 0.4869547
vt 0.9382768 0.4698334
vt 0.9408044 0.4869547
vt 0.9482827 0.4698334
vt 0.9574993 0.6426609
vt 0.9708831 0.6426609
vt 0.9708831 0.6896021
vt 0.9574993 0.6896021
vt 0.9209338 0.6426609
vt 0.9209338 0.6896021
vt 0.8709846 0.6426609
vt 0.8709846 0.6896021
vt 0.8210352 0.6426609
vt 0.8210352 0.6896021
vt 0.7844698 0.6426609
vt 0.7844698 0.6896021
vt 0.7710859 0.6426609
vt 0.7710859 0.6896021
vt 0.7844698 0.6426609
vt 0.7710859 0.6426609
vt 0.7710859 0.6896021
vt 0.7844698 0.6896021
vt 0.8210352 0.6426609
vt 0.8210352 0.6896021
vt 0.8709845 0.6426609
vt 0.8709845 0.6896021
vt 0.9209337 0.6426609
vt 0.9209337 0.6896021
vt 0.9574993 0.6426609
vt 0.9574993 0.6896021
vt 0.9708831 0.6426609
vt 0.9708831 0.6896021
vt 0.8555555 0.7133882
vt 0.9347701 0.7133882
vt 0.9559957 0.7133882
vt 0.7975664 0.7133882
vt 0.8187919 0.7133882
vt 0.8980065 0.7133882
vt 0.7975664 0.6301531
vt 0.7774873 0.5779833
vt 0.8501753 0.5779833
vt 0.8555555 0.6301531
vt 0.9494691 0.5779833
vt 0.9347701 0.6301531
vt 0.9760748 0.5779833
vt 0.9559957 0.6301531
vt 0.8187919 0.6301531
vt 0.7774873 0.5779833
vt 0.7975664 0.6301531
vt 0.804093 0.5779833
vt 0.8980065 0.6301531
vt 0.9033868 0.5779833
vt 0.9559957 0.6301531
vt 0.9760748 0.5779833
vt 0.5883111 0.3293441
vt 0.6286525 0.3293441
vt 0.6286525 0.3654696
vt 0.6689938 0.3293441
vn 0.8689408 -0.4367288 -0.2328305
vn 0.9529638 0.1633085 0.2553241
vn 0.9529638 0.1633085 -0.2553241
vn 0.8689408 -0.4367288 0.2328305
vn 0.6976138 0.1633096 0.6976138
vn 0.6361089 -0.4367278 0.6361089
vn 0.2553241 0.1633085 0.9529638
vn 0.2328305 -0.4367288 0.8689408
vn -0.2553241 0.1633085 0.9529638
vn -0.2328305 -0.4367288 0.8689408
vn -0.6976138 0.1633096 0.6976138
vn -0.6361089 -0.4367278 0.6361089
vn -0.9529638 0.1633085 0.2553241
vn -0.8689408 -0.4367288 0.2328305
vn -0.8689408 -0.4367288 0.2328305
vn -0.9529638 0.1633085 -0.2553241
vn -0.9529638 0.1633085 0.2553241
vn -0.8689408 -0.4367288 -0.2328305
vn -0.6976138 0.1633096 -0.6976138
vn -0.6361089 -0.4367278 -0.6361089
vn -0.2553241 0.1633085 -0.9529638
vn -0.2328305 -0.4367288 -0.8689408
vn 0.2553241 0.1633085 -0.9529638
vn 0.2328305 -0.4367288 -0.8689408
vn 0.6976138 0.1633096 -0.6976138
vn 0.6361089 -0.4367278 -0.6361089
vn 0.9529638 0.1633085 -0.2553241
vn 0.8689408 -0.4367288 -0.2328305
vn 0 -1 0
vn 0 -1 0
vn 0 -1 0
vn 0 -1 0
vn 0 -1 0
vn 0 -1 0
vn 0 -1 0
vn 0 -1 0
vn 0 -1 0
vn 0 -1 0
vn 0 -1 0
vn 0 -1 0
vn 0 1 0
vn 0 1 0
vn 0 1 0
vn 0 1 0
vn 0 1 0
vn 0 1 0
vn 0 1 0
vn 0 1 0
vn 0 1 0
vn 0 1 0
vn 0 1 0
vn 0 1 0
vn 0.6976138 -0.1633096 -0.6976138
vn 0.9529638 -0.1633085 -0.2553241
vn 0.8689408 0.4367288 -0.2328305
vn 0.6361089 0.4367278 -0.6361089
vn 0.2553241 -0.1633085 -0.9529638
vn 0.2328305 0.4367288 -0.8689408
vn -0.2553241 -0.1633085 -0.9529638
vn -0.2328305 0.4367288 -0.8689408
vn -0.6976138 -0.1633096 -0.6976138
vn -0.6361089 0.4367278 -0.6361089
vn -0.9529638 -0.1633085 -0.2553241
vn -0.8689408 0.4367288 -0.2328305
vn -0.9529638 -0.1633085 0.2553241
vn -0.8689408 0.4367288 0.2328305
vn 0.7071068 0 -0.7071068
vn 0.9659303 0 -0.2588022
vn 0.9659303 0 -0.2588022
vn 0.7071068 0 -0.7071068
vn 0.2588022 0 -0.9659303
vn 0.2588022 0 -0.9659303
vn -0.2588022 0 -0.9659303
vn -0.2588022 0 -0.9659303
vn -0.7071068 0 -0.7071068
vn -0.7071068 0 -0.7071068
vn -0.9659303 0 -0.2588022
vn -0.9659303 0 -0.2588022
vn -0.9659303 0 0.2588022
vn -0.9659303 0 0.2588022
vn -0.6976138 -0.1633096 0.6976138
vn -0.9529638 -0.1633085 0.2553241
vn -0.8689408 0.4367288 0.2328305
vn -0.6361089 0.4367278 0.6361089
vn -0.2553241 -0.1633085 0.9529638
vn -0.2328305 0.4367288 0.8689408
vn 0.2553241 -0.1633085 0.9529638
vn 0.2328305 0.4367288 0.8689408
vn 0.6976138 -0.1633096 0.6976138
vn 0.6361089 0.4367278 0.6361089
vn 0.9529638 -0.1633085 0.2553241
vn 0.8689408 0.4367288 0.2328305
vn 0.9529638 -0.1633085 -0.2553241
vn 0.8689408 0.4367288 -0.2328305
vn -0.7071068 0 0.7071068
vn -0.9659303 0 0.2588022
vn -0.9659303 0 0.2588022
vn -0.7071068 0 0.7071068
vn -0.2588022 0 0.9659303
vn -0.2588022 0 0.9659303
vn 0.2588022 0 0.9659303
vn 0.2588022 0 0.9659303
vn 0.7071068 0 0.7071068
vn 0.7071068 0 0.7071068
vn 0.9659303 0 0.2588022
vn 0.9659303 0 0.2588022
vn 0.9659303 0 -0.2588022
vn 0.9659303 0 -0.2588022
vn 0.6656475 -0.7246405 -0.1783524
vn 0.9529638 -0.1633085 -0.2553241
vn 0.6976138 -0.1633096 -0.6976138
vn 0.487275 -0.724656 -0.487275
vn 0.2553241 -0.1633085 -0.9529638
vn 0.1783524 -0.7246405 -0.6656475
vn -0.2553241 -0.1633085 -0.9529638
vn -0.1783524 -0.7246405 -0.6656475
vn -0.6976138 -0.1633096 -0.6976138
vn -0.487275 -0.724656 -0.487275
vn -0.9529638 -0.1633085 -0.2553241
vn -0.6656475 -0.7246405 -0.1783524
vn -0.9529638 -0.1633085 0.2553241
vn -0.6656475 -0.7246405 0.1783524
vn -0.6656475 -0.7246405 0.1783524
vn -0.9529638 -0.1633085 0.2553241
vn -0.6976138 -0.1633096 0.6976138
vn -0.487275 -0.724656 0.487275
vn -0.2553241 -0.1633085 0.9529638
vn -0.1783524 -0.7246405 0.6656475
vn 0.2553241 -0.1633085 0.9529638
vn 0.1783524 -0.7246405 0.6656475
vn 0.6976138 -0.1633096 0.6976138
vn 0.487275 -0.724656 0.487275
vn 0.9529638 -0.1633085 0.2553241
vn 0.6656475 -0.7246405 0.1783524
vn 0.9529638 -0.1633085 -0.2553241
vn 0.6656475 -0.7246405 -0.1783524
vn 0.487275 0.724656 -0.487275
vn 0.9529638 0.1633085 -0.2553241
vn 0.6656475 0.7246405 -0.1783524
vn 0.6976138 0.1633096 -0.6976138
vn 0.1783524 0.7246405 -0.6656475
vn 0.2553241 0.1633085 -0.9529638
vn -0.1783524 0.7246405 -0.6656475
vn -0.2553241 0.1633085 -0.9529638
vn -0.487275 0.724656 -0.487275
vn -0.6976138 0.1633096 -0.6976138
vn -0.6656475 0.7246405 -0.1783524
vn -0.9529638 0.1633085 -0.2553241
vn -0.6656475 0.7246405 0.1783524
vn -0.9529638 0.1633085 0.2553241
vn -0.487275 0.724656 0.487275
vn -0.9529638 0.1633085 0.2553241
vn -0.6656475 0.7246405 0.1783524
vn -0.6976138 0.1633096 0.6976138
vn -0.1783524 0.7246405 0.6656475
vn -0.2553241 0.1633085 0.9529638
vn 0.1783524 0.7246405 0.6656475
vn 0.2553241 0.1633085 0.9529638
vn 0.487275 0.724656 0.487275
vn 0.6976138 0.1633096 0.6976138
vn 0.6656475 0.7246405 0.1783524
vn 0.9529638 0.1633085 0.2553241
vn 0.6656475 0.7246405 -0.1783524
vn 0.9529638 0.1633085 -0.2553241
vn 0.7071068 0 -0.7071068
vn 0.9659303 0 -0.2588022
vn 0.9659303 0 -0.2588022
vn 0.7071068 0 -0.7071068
vn 0.2588022 0 -0.9659303
vn 0.2588022 0 -0.9659303
vn -0.2588022 0 -0.9659303
vn -0.2588022 0 -0.9659303
vn -0.7071068 0 -0.7071068
vn -0.7071068 0 -0.7071068
vn -0.9659303 0 -0.2588022
vn -0.9659303 0 -0.2588022
vn -0.9659303 0 0.2588022
vn -0.9659303 0 0.2588022
vn -0.7071068 0 0.7071068
vn -0.9659303 0 0.2588022
vn -0.9659303 0 0.2588022
vn -0.7071068 0 0.7071068
vn -0.2588022 0 0.9659303
vn -0.2588022 0 0.9659303
vn 0.2588022 0 0.9659303
vn 0.2588022 0 0.9659303
vn 0.7071068 0 0.7071068
vn 0.7071068 0 0.7071068
vn 0.9659303 0 0.2588022
vn 0.9659303 0 0.2588022
vn 0.9659303 0 -0.2588022
vn 0.9659303 0 -0.2588022
vn -0.3319305 0.7478508 -0.5749271
vn 0.3319305 0.7478508 -0.5749271
vn 0.6638635 0.7478536 0
vn -0.6638635 0.7478536 0
vn -0.3319305 0.7478508 0.5749271
vn 0.3319305 0.7478508 0.5749271
vn -0.6638635 0.7478536 0
vn -0.9289768 0.370138 0
vn -0.4644759 0.3701401 -0.8045238
vn -0.3319305 0.7478508 -0.5749271
vn 0.4644759 0.3701401 -0.8045238
vn 0.3319305 0.7478508 -0.5749271
vn 0.9289768 0.370138 0
vn 0.6638635 0.7478536 0
vn -0.3319305 0.7478508 0.5749271
vn -0.9289768 0.370138 0
vn -0.6638635 0.7478536 0
vn -0.4644759 0.3701401 0.8045238
vn 0.3319305 0.7478508 0.5749271
vn 0.4644759 0.3701401 0.8045238
vn 0.6638635 0.7478536 0
vn 0.9289768 0.370138 0
vn -0.4999893 0 -0.8660316
vn -0.2588022 0 -0.9659303
vn -0.2588022 0 -0.9659303
vn 0 0 -1
g Barrel_1B_0
f 3/3/3 2/2/2 1/1/1
f 2/2/2 4/4/4 1/1/1
f 2/2/2 5/5/5 4/4/4
f 5/5/5 6/6/6 4/4/4
f 5/5/5 7/7/7 6/6/6
f 7/7/7 8/8/8 6/6/6
f 7/7/7 9/9/9 8/8/8
f 9/9/9 10/10/10 8/8/8
f 9/9/9 11/11/11 10/10/10
f 11/11/11 12/12/12 10/10/10
f 11/11/11 13/13/13 12/12/12
f 13/13/13 14/14/14 12/12/12
f 17/17/17 16/16/16 15/15/15
f 16/16/16 18/18/18 15/15/15
f 16/16/16 19/19/19 18/18/18
f 19/19/19 20/20/20 18/18/18
f 19/19/19 21/21/21 20/20/20
f 21/21/21 22/22/22 20/20/20
f 21/21/21 23/23/23 22/22/22
f 23/23/23 24/24/24 22/22/22
f 23/23/23 25/25/25 24/24/24
f 25/25/25 26/26/26 24/24/24
f 25/25/25 27/27/27 26/26/26
f 27/27/27 28/28/28 26/26/26
f 31/31/31 30/30/30 29/29/29
f 29/29/29 32/32/32 31/31/31
f 29/29/29 33/33/33 32/32/32
f 33/33/33 34/34/34 32/32/32
f 33/33/33 35/35/35 34/34/34
f 35/35/35 36/36/36 34/34/34
f 35/35/35 37/37/37 36/36/36
f 35/35/35 38/38/38 37/37/37
f 38/38/38 39/39/39 37/37/37
f 38/38/38 40/40/40 39/39/39
f 43/43/43 42/42/42 41/41/41
f 41/41/41 44/44/44 43/43/43
f 44/44/44 45/45/45 43/43/43
f 45/45/45 46/46/46 43/43/43
f 45/45/45 47/47/47 46/46/46
f 47/47/47 48/48/48 46/46/46
f 47/47/47 49/49/49 48/48/48
f 49/49/49 50/50/50 48/48/48
f 49/49/49 51/51/51 50/50/50
f 51/51/51 52/52/52 50/50/50
f 55/55/55 54/54/54 53/53/53
f 56/56/56 55/55/55 53/53/53
f 56/56/56 53/53/53 57/57/57
f 58/58/58 56/56/56 57/57/57
f 58/58/58 57/57/57 59/59/59
f 60/60/60 58/58/58 59/59/59
f 60/60/60 59/59/59 61/61/61
f 62/62/62 60/60/60 61/61/61
f 62/62/62 61/61/61 63/63/63
f 64/64/64 62/62/62 63/63/63
f 64/64/64 63/63/63 65/65/65
f 66/66/66 64/64/64 65/65/65
f 69/69/69 68/68/68 67/67/67
f 70/70/70 69/69/69 67/67/67
f 70/70/70 67/67/67 71/71/71
f 72/72/72 70/70/70 71/71/71
f 72/72/72 71/71/71 73/73/73
f 74/74/74 72/72/72 73/73/73
f 74/74/74 73/73/73 75/75/75
f 76/76/76 74/74/74 75/75/75
f 76/76/76 75/75/75 77/77/77
f 78/78/78 76/76/76 77/77/77
f 78/78/78 77/77/77 79/79/79
f 80/80/80 78/78/78 79/79/79
f 83/83/83 82/82/82 81/81/81
f 84/84/84 83/83/83 81/81/81
f 84/84/84 81/81/81 85/85/85
f 86/86/86 84/84/84 85/85/85
f 86/86/86 85/85/85 87/87/87
f 88/88/88 86/86/86 87/87/87
f 88/88/88 87/87/87 89/89/89
f 90/90/90 88/88/88 89/89/89
f 90/90/90 89/89/89 91/91/91
f 92/92/92 90/90/90 91/91/91
f 92/92/92 91/91/91 93/93/93
f 94/94/94 92/92/92 93/93/93
f 97/97/97 96/96/96 95/95/95
f 98/98/98 97/97/97 95/95/95
f 98/98/98 95/95/95 99/99/99
f 100/100/100 98/98/98 99/99/99
f 100/100/100 99/99/99 101/101/101
f 102/102/102 100/100/100 101/101/101
f 102/102/102 101/101/101 103/103/103
f 104/104/104 102/102/102 103/103/103
f 104/104/104 103/103/103 105/105/105
f 106/106/106 104/104/104 105/105/105
f 106/106/106 105/105/105 107/107/107
f 108/108/108 106/106/106 107/107/107
f 111/111/111 110/110/110 109/109/109
f 112/112/112 111/111/111 109/109/109
f 113/113/113 111/111/111 112/112/112
f 114/114/114 113/113/113 112/112/112
f 115/115/115 113/113/113 114/114/114
f 116/116/116 115/115/115 114/114/114
f 117/117/117 115/115/115 116/116/116
f 118/118/118 117/117/117 116/116/116
f 119/119/119 117/117/117 118/118/118
f 120/120/120 119/119/119 118/118/118
f 121/121/121 119/119/119 120/120/120
f 122/122/122 121/121/121 120/120/120
f 125/125/125 124/124/124 123/123/123
f 126/126/126 125/125/125 123/123/123
f 127/127/127 125/125/125 126/126/126
f 128/128/128 127/127/127 126/126/126
f 129/129/129 127/127/127 128/128/128
f 130/130/130 129/129/129 128/128/128
f 131/131/131 129/129/129 130/130/130
f 132/132/132 131/131/131 130/130/130
f 133/133/133 131/131/131 132/132/132
f 134/134/134 133/133/133 132/132/132
f 135/135/135 133/133/133 134/134/134
f 136/136/136 135/135/135 134/134/134
f 139/139/139 138/138/138 137/137/137
f 138/138/138 140/140/140 137/137/137
f 137/137/137 140/140/140 141/141/141
f 140/140/140 142/142/142 141/141/141
f 141/141/141 142/142/142 143/143/143
f 142/142/142 144/144/144 143/143/143
f 143/143/143 144/144/144 145/145/145
f 144/144/144 146/146/146 145/145/145
f 145/145/145 146/146/146 147/147/147
f 146/146/146 148/148/148 147/147/147
f 147/147/147 148/148/148 149/149/149
f 148/148/148 150/150/150 149/149/149
f 153/153/153 152/152/152 151/151/151
f 152/152/152 154/154/154 151/151/151
f 151/151/151 154/154/154 155/155/155
f 154/154/154 156/156/156 155/155/155
f 155/155/155 156/156/156 157/157/157
f 156/156/156 158/158/158 157/157/157
f 157/157/157 158/158/158 159/159/159
f 158/158/158 160/160/160 159/159/159
f 159/159/159 160/160/160 161/161/161
f 160/160/160 162/162/162 161/161/161
f 161/161/161 162/162/162 163/163/163
f 162/162/162 164/164/164 163/163/163
f 167/167/167 166/166/166 165/165/165
f 168/168/168 167/167/167 165/165/165
f 168/168/168 165/165/165 169/169/169
f 170/170/170 168/168/168 169/169/169
f 170/170/170 169/169/169 171/171/171
f 172/172/172 170/170/170 171/171/171
f 172/172/172 171/171/171 173/173/173
f 174/174/174 172/172/172 173/173/173
f 174/174/174 173/173/173 175/175/175
f 176/176/176 174/174/174 175/175/175
f 176/176/176 175/175/175 177/177/177
f 178/178/178 176/176/176 177/177/177
f 181/181/181 180/180/180 179/179/179
f 182/182/182 181/181/181 179/179/179
f 182/182/182 179/179/179 183/183/183
f 184/184/184 182/182/182 183/183/183
f 184/184/184 183/183/183 185/185/185
f 186/186/186 184/184/184 185/185/185
f 186/186/186 185/185/185 187/187/187
f 188/188/188 186/186/186 187/187/187
f 188/188/188 187/187/187 189/189/189
f 190/190/190 188/188/188 189/189/189
f 190/190/190 189/189/189 191/191/191
f 192/192/192 190/190/190 191/191/191
f 195/195/195 194/194/194 193/193/193
f 193/193/193 196/196/196 195/195/195
f 196/196/196 197/197/197 195/195/195
f 197/197/197 198/198/198 195/195/195
f 201/201/201 200/200/200 199/199/199
f 202/202/202 201/201/201 199/199/199
f 203/203/203 201/201/201 202/202/202
f 204/204/204 203/203/203 202/202/202
f 205/205/205 203/203/203 204/204/204
f 206/206/206 205/205/205 204/204/204
f 209/209/209 208/208/208 207/207/207
f 208/208/208 210/210/210 207/207/207
f 207/207/207 210/210/210 211/211/211
f 210/210/210 212/212/212 211/211/211
f 211/211/211 212/212/212 213/213/213
f 212/212/212 214/214/214 213/213/213
f 217/217/217 216/216/216 215/215/215
f 217/217/217 218/218/218 216/216/216
