g Barrel_1C
v 0.3911998 1.100694 -0.1048217
v 0.4184249 1.158751 0.1121169
v 0.418425 1.158751 -0.1121166
v 0.3911998 1.100694 0.104822
v 0.3063082 1.158751 0.3063086
v 0.286378 1.100694 0.2863784
v 0.1121164 1.158751 0.4184252
v 0.1048214 1.100694 0.3912
v -0.1121169 1.158751 0.418425
v -0.1048219 1.100694 0.3911999
v -0.3063086 1.158751 0.3063084
v -0.2863784 1.100694 0.2863782
v -0.4184251 1.158751 0.1121166
v -0.3912 1.100694 0.1048217
v -0.3912 1.100694 0.1048217
v -0.4184251 1.158751 -0.1121167
v -0.4184251 1.158751 0.1121166
v -0.3912 1.100694 -0.1048217
v -0.3063085 1.158751 -0.3063084
v -0.2863784 1.100694 -0.2863782
v -0.1121168 1.158751 -0.418425
v -0.1048218 1.100694 -0.3911999
v 0.1121165 1.158751 -0.4184251
v 0.1048216 1.100694 -0.3911999
v 0.3063083 1.158751 -0.3063084
v 0.2863781 1.100694 -0.2863782
v 0.418425 1.158751 -0.1121166
v 0.3911998 1.100694 -0.1048217
v 0.2756373 0 -0.2756374
v 0.1008902 0 -0.3765278
v -0.1008904 0 -0.3765277
v -0.2756375 0 -0.2756374
v 0.3765276 0 -0.1008903
v -0.3765278 0 -0.1008903
v 0.3765276 0 0.1008906
v -0.3765278 0 0.1008903
v -0.2756376 0 0.2756374
v 0.2756372 0 0.2756376
v -0.1008905 0 0.3765277
v 0.1008901 0 0.3765278
v -0.1008904 1.2 -0.3765277
v 0.1008902 1.2 -0.3765278
v 0.2756373 1.2 -0.2756374
v -0.2756375 1.2 -0.2756374
v -0.3765278 1.2 -0.1008903
v 0.3765276 1.2 -0.1008903
v -0.3765278 1.2 0.1008903
v 0.3765276 1.2 0.1008906
v -0.2756376 1.2 0.2756374
v 0.2756372 1.2 0.2756376
v -0.1008905 1.2 0.3765277
v 0.1008901 1.2 0.3765278
v 0.3063083 0.04124945 -0.3063084
v 0.418425 0.04124945 -0.1121166
v 0.3911998 0.09930579 -0.1048217
v 0.2863781 0.09930585 -0.2863782
v 0.1121165 0.04124945 -0.4184251
v 0.1048216 0.09930579 -0.3911999
v -0.1121168 0.04124945 -0.418425
v -0.1048218 0.09930579 -0.3911999
v -0.3063085 0.04124945 -0.3063084
v -0.2863784 0.09930585 -0.2863782
v -0.4184251 0.04124945 -0.1121167
v -0.3912 0.09930579 -0.1048217
v -0.4184251 0.04124945 0.1121166
v -0.3912 0.09930579 0.1048217
v 0.2863781 0.09930585 -0.2863782
v 0.3911998 0.09930579 -0.1048217
v 0.3911998 1.100694 -0.1048217
v 0.2863781 1.100694 -0.2863782
v 0.1048216 0.09930579 -0.3911999
v 0.1048216 1.100694 -0.3911999
v -0.1048218 0.09930579 -0.3911999
v -0.1048218 1.100694 -0.3911999
v -0.2863784 0.09930585 -0.2863782
v -0.2863784 1.100694 -0.2863782
v -0.3912 0.09930579 -0.1048217
v -0.3912 1.100694 -0.1048217
v -0.3912 0.09930579 0.1048217
v -0.3912 1.100694 0.1048217
v -0.3063086 0.04124945 0.3063084
v -0.4184251 0.04124945 0.1121166
v -0.3912 0.09930579 0.1048217
v -0.2863784 0.09930579 0.2863782
v -0.1121169 0.04124945 0.418425
v -0.1048219 0.09930585 0.3911999
v 0.1121164 0.04124945 0.4184252
v 0.1048214 0.09930579 0.3912
v 0.3063082 0.04124945 0.3063086
v 0.286378 0.09930579 0.2863784
v 0.4184249 0.04124945 0.1121169
v 0.3911998 0.09930585 0.104822
v 0.418425 0.04124945 -0.1121166
v 0.3911998 0.09930579 -0.1048217
v -0.2863784 0.09930579 0.2863782
v -0.3912 0.09930579 0.1048217
v -0.3912 1.100694 0.1048217
v -0.2863784 1.100694 0.2863782
v -0.1048219 0.09930585 0.3911999
v -0.1048219 1.100694 0.3911999
v 0.1048214 0.09930579 0.3912
v 0.1048214 1.100694 0.3912
v 0.286378 0.09930579 0.2863784
v 0.286378 1.100694 0.2863784
v 0.3911998 0.09930585 0.104822
v 0.3911998 1.100694 0.104822
v 0.3911998 0.09930579 -0.1048217
v 0.3911998 1.100694 -0.1048217
v 0.3765276 0 -0.1008903
v 0.418425 0.04124945 -0.1121166
v 0.3063083 0.04124945 -0.3063084
v 0.2756373 0 -0.2756374
v 0.1121165 0.04124945 -0.4184251
v 0.1008902 0 -0.3765278
v -0.1121168 0.04124945 -0.418425
v -0.1008904 0 -0.3765277
v -0.3063085 0.04124945 -0.3063084
v -0.2756375 0 -0.2756374
v -0.4184251 0.04124945 -0.1121167
v -0.3765278 0 -0.1008903
v -0.4184251 0.04124945 0.1121166
v -0.3765278 0 0.1008903
v -0.3765278 0 0.1008903
v -0.4184251 0.04124945 0.1121166
v -0.3063086 0.04124945 0.3063084
v -0.2756376 0 0.2756374
v -0.1121169 0.04124945 0.418425
v -0.1008905 0 0.3765277
v 0.1121164 0.04124945 0.4184252
v 0.1008901 0 0.3765278
v 0.3063082 0.04124945 0.3063086
v 0.2756372 0 0.2756376
v 0.4184249 0.04124945 0.1121169
v 0.3765276 0 0.1008906
v 0.418425 0.04124945 -0.1121166
v 0.3765276 0 -0.1008903
v 0.2756373 1.2 -0.2756374
v 0.418425 1.158751 -0.1121166
v 0.3765276 1.2 -0.1008903
v 0.3063083 1.158751 -0.3063084
v 0.1008902 1.2 -0.3765278
v 0.1121165 1.158751 -0.4184251
v -0.1008904 1.2 -0.3765277
v -0.1121168 1.158751 -0.418425
v -0.2756375 1.2 -0.2756374
v -0.3063085 1.158751 -0.3063084
v -0.3765278 1.2 -0.1008903
v -0.4184251 1.158751 -0.1121167
v -0.3765278 1.2 0.1008903
v -0.4184251 1.158751 0.1121166
v -0.2756376 1.2 0.2756374
v -0.4184251 1.158751 0.1121166
v -0.3765278 1.2 0.1008903
v -0.3063086 1.158751 0.3063084
v -0.1008905 1.2 0.3765277
v -0.1121169 1.158751 0.418425
v 0.1008901 1.2 0.3765278
v 0.1121164 1.158751 0.4184252
v 0.2756372 1.2 0.2756376
v 0.3063082 1.158751 0.3063086
v 0.3765276 1.2 0.1008906
v 0.4184249 1.158751 0.1121169
v 0.3765276 1.2 -0.1008903
v 0.418425 1.158751 -0.1121166
v 0.289766 0.4220653 -0.2897661
v 0.3958277 0.4220653 -0.1060617
v 0.3958277 0.7779349 -0.1060617
v 0.289766 0.7779349 -0.2897661
v 0.1060616 0.4220653 -0.3958278
v 0.1060616 0.7779349 -0.3958278
v -0.1060619 0.4220653 -0.3958277
v -0.1060619 0.7779349 -0.3958277
v -0.2897662 0.4220653 -0.2897661
v -0.2897662 0.7779349 -0.2897661
v -0.3958279 0.4220653 -0.1060617
v -0.3958279 0.7779349 -0.1060617
v -0.3958279 0.4220653 0.1060617
v -0.3958279 0.7779349 0.1060617
v -0.2897662 0.4220653 0.2897661
v -0.3958279 0.4220653 0.1060617
v -0.3958279 0.7779349 0.1060617
v -0.2897662 0.7779349 0.2897661
v -0.106062 0.4220653 0.3958278
v -0.106062 0.7779349 0.3958278
v 0.1060615 0.4220653 0.3958279
v 0.1060615 0.7779349 0.3958279
v 0.2897658 0.4220653 0.2897663
v 0.2897658 0.7779349 0.2897663
v 0.3958277 0.4220653 0.106062
v 0.3958277 0.7779349 0.106062
v 0.3958277 0.4220653 -0.1060617
v 0.3958277 0.7779349 -0.1060617
v 0.1250584 1.245826 -0.1714308
v 0.1663771 1.245826 -0.2304401
v 0.23814 1.245826 -0.2241617
v 0.2685841 1.245826 -0.158874
v 0.1555025 1.245826 -0.1061431
v 0.2272654 1.245826 -0.09986465
v 0.2272654 1.245826 -0.09986465
v 0.2349823 1.2 -0.08331581
v 0.1450292 1.2 -0.09118567
v 0.1555025 1.245826 -0.1061431
v 0.1068681 1.2 -0.1730223
v 0.1250584 1.245826 -0.1714308
v 0.1586602 1.2 -0.246989
v 0.1663771 1.245826 -0.2304401
v 0.2685841 1.245826 -0.158874
v 0.2349823 1.2 -0.08331581
v 0.2272654 1.245826 -0.09986465
v 0.2867744 1.2 -0.1572826
v 0.23814 1.245826 -0.2241617
v 0.2486133 1.2 -0.2391191
v 0.1663771 1.245826 -0.2304401
v 0.1586602 1.2 -0.246989
vt 0.2222985 0.5712814
vt 0.2151841 0.6604873
vt 0.2290163 0.6604873
vt 0.2093666 0.5712818
vt 0.1773943 0.6604873
vt 0.1740357 0.5712814
vt 0.1257726 0.6604873
vt 0.1257726 0.5712814
vt 0.07415083 0.6604873
vt 0.07750978 0.5712818
vt 0.0363613 0.6604873
vt 0.04217882 0.5712814
vt 0.02252912 0.6604873
vt 0.02924692 0.5712814
vt 0.02924692 0.5712814
vt 0.0363613 0.6604873
vt 0.02252912 0.6604873
vt 0.04217882 0.5712814
vt 0.07415083 0.6604873
vt 0.07750978 0.5712818
vt 0.1257727 0.6604873
vt 0.1257727 0.5712814
vt 0.1773943 0.6604873
vt 0.1740357 0.5712814
vt 0.2151841 0.6604873
vt 0.2093666 0.5712818
vt 0.2290163 0.6604873
vt 0.2222985 0.5712814
vt 0.2062314 0.51386
vt 0.1722255 0.51386
vt 0.1257727 0.51386
vt 0.07931989 0.51386
vt 0.2186784 0.51386
vt 0.04531405 0.51386
vt 0.2062314 0.51386
vt 0.03286706 0.51386
vt 0.04531405 0.51386
vt 0.1722255 0.51386
vt 0.07931989 0.51386
vt 0.1257726 0.51386
vt 0.1333721 0.7716253
vt 0.179825 0.7716253
vt 0.2138308 0.7716253
vt 0.08691926 0.7716253
vt 0.0529135 0.7716253
vt 0.2262779 0.7716253
vt 0.04046651 0.7716253
vt 0.2138308 0.7716253
vt 0.0529135 0.7716253
vt 0.179825 0.7716253
vt 0.08691926 0.7716253
vt 0.1333721 0.7716253
vt 0.2151841 0.794136
vt 0.2290163 0.794136
vt 0.2222985 0.8274482
vt 0.2093666 0.8274482
vt 0.1773943 0.794136
vt 0.1740357 0.8274482
vt 0.1257727 0.794136
vt 0.1257727 0.8274482
vt 0.07415083 0.794136
vt 0.07750978 0.8274482
vt 0.0363613 0.794136
vt 0.04217882 0.8274482
vt 0.02252912 0.794136
vt 0.02924692 0.8274482
vt 0.0958 0.7435734
vt 0.09049672 0.7435734
vt 0.09049679 0.6519349
vt 0.0958 0.6519349
vt 0.110289 0.7435734
vt 0.1102891 0.6519349
vt 0.1300813 0.7435734
vt 0.1300813 0.6519349
vt 0.1498735 0.7435734
vt 0.1498735 0.6519349
vt 0.1643626 0.7435734
vt 0.1643626 0.6519349
vt 0.1696659 0.7435734
vt 0.1696659 0.6519349
vt 0.0363613 0.794136
vt 0.02252912 0.794136
vt 0.02924692 0.8274482
vt 0.04217882 0.8274482
vt 0.07415083 0.794136
vt 0.07750978 0.8274482
vt 0.1257726 0.794136
vt 0.1257726 0.8274482
vt 0.1773943 0.794136
vt 0.1740357 0.8274482
vt 0.2151841 0.794136
vt 0.2093666 0.8274482
vt 0.2290163 0.794136
vt 0.2222985 0.8274482
vt 0.1643626 0.7435734
vt 0.1696659 0.7435734
vt 0.1696659 0.6519349
vt 0.1643626 0.6519349
vt 0.1498735 0.7435734
vt 0.1498735 0.6519349
vt 0.1300813 0.7435734
vt 0.1300814 0.6519349
vt 0.110289 0.7435734
vt 0.1102891 0.6519349
vt 0.0958 0.7435734
vt 0.0958 0.6519349
vt 0.09049672 0.7435734
vt 0.09049679 0.6519349
vt 0.2186784 0.5712814
vt 0.2290163 0.6346627
vt 0.2151841 0.6346627
vt 0.2062314 0.5712814
vt 0.1773943 0.6346627
vt 0.1722255 0.5712814
vt 0.1257727 0.6346627
vt 0.1257727 0.5712814
vt 0.07415083 0.6346627
vt 0.07931989 0.5712814
vt 0.0363613 0.6346627
vt 0.04531405 0.5712814
vt 0.02252912 0.6346627
vt 0.03286706 0.5712814
vt 0.03286706 0.5712814
vt 0.02252912 0.6346627
vt 0.0363613 0.6346627
vt 0.04531405 0.5712814
vt 0.07415083 0.6346627
vt 0.07931989 0.5712814
vt 0.1257726 0.6346627
vt 0.1257726 0.5712814
vt 0.1773943 0.6346627
vt 0.1722255 0.5712814
vt 0.2151841 0.6346627
vt 0.2062314 0.5712814
vt 0.2290163 0.6346627
vt 0.2186784 0.5712814
vt 0.2062314 0.8274482
vt 0.2290163 0.8037796
vt 0.2186784 0.8274482
vt 0.2151841 0.8037796
vt 0.1722255 0.8274482
vt 0.1773943 0.8037796
vt 0.1257727 0.8274482
vt 0.1257727 0.8037796
vt 0.07931989 0.8274482
vt 0.07415083 0.8037796
vt 0.04531405 0.8274482
vt 0.0363613 0.8037796
vt 0.03286706 0.8274482
vt 0.02252912 0.8037796
vt 0.04531405 0.8274482
vt 0.02252912 0.8037796
vt 0.03286706 0.8274482
vt 0.0363613 0.8037796
vt 0.07931989 0.8274482
vt 0.07415083 0.8037796
vt 0.1257726 0.8274482
vt 0.1257726 0.8037796
vt 0.1722255 0.8274482
vt 0.1773943 0.8037796
vt 0.2062314 0.8274482
vt 0.2151841 0.8037796
vt 0.2186784 0.8274482
vt 0.2290163 0.8037796
vt 0.2096735 0.3148934
vt 0.2230573 0.3148934
vt 0.2230573 0.3618345
vt 0.2096735 0.3618345
vt 0.173108 0.3148934
vt 0.173108 0.3618345
vt 0.1231588 0.3148934
vt 0.1231588 0.3618345
vt 0.0732094 0.3148934
vt 0.0732094 0.3618345
vt 0.03664398 0.3148934
vt 0.03664398 0.3618345
vt 0.02326012 0.3148934
vt 0.02326012 0.3618345
vt 0.03664398 0.3148934
vt 0.02326012 0.3148934
vt 0.02326012 0.3618345
vt 0.03664398 0.3618345
vt 0.0732094 0.3148934
vt 0.0732094 0.3618345
vt 0.1231587 0.3148934
vt 0.1231587 0.3618345
vt 0.1731079 0.3148934
vt 0.1731079 0.3618345
vt 0.2096735 0.3148934
vt 0.2096735 0.3618345
vt 0.2230573 0.3148934
vt 0.2230573 0.3618345
vt 0.6864517 0.399043
vt 0.7076773 0.399043
vt 0.6496881 0.399043
vt 0.5704734 0.399043
vt 0.6072371 0.399043
vt 0.5492479 0.399043
vt 0.5492479 0.3158078
vt 0.5291689 0.263638
vt 0.6018568 0.263638
vt 0.6072371 0.3158078
vt 0.7011507 0.263638
vt 0.6864517 0.3158078
vt 0.7277564 0.263638
vt 0.7076773 0.3158078
vt 0.5704734 0.3158078
vt 0.5291689 0.263638
vt 0.5492479 0.3158078
vt 0.5557746 0.263638
vt 0.6496881 0.3158078
vt 0.6550684 0.263638
vt 0.7076773 0.3158078
vt 0.7277564 0.263638
vn 0.8689408 -0.4367288 -0.2328305
vn 0.9529638 0.1633085 0.2553241
vn 0.9529638 0.1633085 -0.2553241
vn 0.8689408 -0.4367288 0.2328305
vn 0.6976138 0.1633096 0.6976138
vn 0.6361089 -0.4367278 0.6361089
vn 0.2553241 0.1633085 0.9529638
vn 0.2328305 -0.4367288 0.8689408
vn -0.2553241 0.1633085 0.9529638
vn -0.2328305 -0.4367288 0.8689408
vn -0.6976138 0.1633096 0.6976138
vn -0.6361089 -0.4367278 0.6361089
vn -0.9529638 0.1633085 0.2553241
vn -0.8689408 -0.4367288 0.2328305
vn -0.8689408 -0.4367288 0.2328305
vn -0.9529638 0.1633085 -0.2553241
vn -0.9529638 0.1633085 0.2553241
vn -0.8689408 -0.4367288 -0.2328305
vn -0.6976138 0.1633096 -0.6976138
vn -0.6361089 -0.4367278 -0.6361089
vn -0.2553241 0.1633085 -0.9529638
vn -0.2328305 -0.4367288 -0.8689408
vn 0.2553241 0.1633085 -0.9529638
vn 0.2328305 -0.4367288 -0.8689408
vn 0.6976138 0.1633096 -0.6976138
vn 0.6361089 -0.4367278 -0.6361089
vn 0.9529638 0.1633085 -0.2553241
vn 0.8689408 -0.4367288 -0.2328305
vn 0 -1 0
vn 0 -1 0
vn 0 -1 0
vn 0 -1 0
vn 0 -1 0
vn 0 -1 0
vn 0 -1 0
vn 0 -1 0
vn 0 -1 0
vn 0 -1 0
vn 0 -1 0
vn 0 -1 0
vn 0 1 0
vn 0 1 0
vn 0 1 0
vn 0 1 0
vn 0 1 0
vn 0 1 0
vn 0 1 0
vn 0 1 0
vn 0 1 0
vn 0 1 0
vn 0 1 0
vn 0 1 0
vn 0.6976138 -0.1633096 -0.6976138
vn 0.9529638 -0.1633085 -0.2553241
vn 0.8689408 0.4367288 -0.2328305
vn 0.6361089 0.4367278 -0.6361089
vn 0.2553241 -0.1633085 -0.9529638
vn 0.2328305 0.4367288 -0.8689408
vn -0.2553241 -0.1633085 -0.9529638
vn -0.2328305 0.4367288 -0.8689408
vn -0.6976138 -0.1633096 -0.6976138
vn -0.6361089 0.4367278 -0.6361089
vn -0.9529638 -0.1633085 -0.2553241
vn -0.8689408 0.4367288 -0.2328305
vn -0.9529638 -0.1633085 0.2553241
vn -0.8689408 0.4367288 0.2328305
vn 0.7071068 0 -0.7071068
vn 0.9659303 0 -0.2588022
vn 0.9659303 0 -0.2588022
vn 0.7071068 0 -0.7071068
vn 0.2588022 0 -0.9659303
vn 0.2588022 0 -0.9659303
vn -0.2588022 0 -0.9659303
vn -0.2588022 0 -0.9659303
vn -0.7071068 0 -0.7071068
vn -0.7071068 0 -0.7071068
vn -0.9659303 0 -0.2588022
vn -0.9659303 0 -0.2588022
vn -0.9659303 0 0.2588022
vn -0.9659303 0 0.2588022
vn -0.6976138 -0.1633096 0.6976138
vn -0.9529638 -0.1633085 0.2553241
vn -0.8689408 0.4367288 0.2328305
vn -0.6361089 0.4367278 0.6361089
vn -0.2553241 -0.1633085 0.9529638
vn -0.2328305 0.4367288 0.8689408
vn 0.2553241 -0.1633085 0.9529638
vn 0.2328305 0.4367288 0.8689408
vn 0.6976138 -0.1633096 0.6976138
vn 0.6361089 0.4367278 0.6361089
vn 0.9529638 -0.1633085 0.2553241
vn 0.8689408 0.4367288 0.2328305
vn 0.9529638 -0.1633085 -0.2553241
vn 0.8689408 0.4367288 -0.2328305
vn -0.7071068 0 0.7071068
vn -0.9659303 0 0.2588022
vn -0.9659303 0 0.2588022
vn -0.7071068 0 0.7071068
vn -0.2588022 0 0.9659303
vn -0.2588022 0 0.9659303
vn 0.2588022 0 0.9659303
vn 0.2588022 0 0.9659303
vn 0.7071068 0 0.7071068
vn 0.7071068 0 0.7071068
vn 0.9659303 0 0.2588022
vn 0.9659303 0 0.2588022
vn 0.9659303 0 -0.2588022
vn 0.9659303 0 -0.2588022
vn 0.6656475 -0.7246405 -0.1783524
vn 0.9529638 -0.1633085 -0.2553241
vn 0.6976138 -0.1633096 -0.6976138
vn 0.487275 -0.724656 -0.487275
vn 0.2553241 -0.1633085 -0.9529638
vn 0.1783524 -0.7246405 -0.6656475
vn -0.2553241 -0.1633085 -0.9529638
vn -0.1783524 -0.7246405 -0.6656475
vn -0.6976138 -0.1633096 -0.6976138
vn -0.487275 -0.724656 -0.487275
vn -0.9529638 -0.1633085 -0.2553241
vn -0.6656475 -0.7246405 -0.1783524
vn -0.9529638 -0.1633085 0.2553241
vn -0.6656475 -0.7246405 0.1783524
vn -0.6656475 -0.7246405 0.1783524
vn -0.9529638 -0.1633085 0.2553241
vn -0.6976138 -0.1633096 0.6976138
vn -0.487275 -0.724656 0.487275
vn -0.2553241 -0.1633085 0.9529638
vn -0.1783524 -0.7246405 0.6656475
vn 0.2553241 -0.1633085 0.9529638
vn 0.1783524 -0.7246405 0.6656475
vn 0.6976138 -0.1633096 0.6976138
vn 0.487275 -0.724656 0.487275
vn 0.9529638 -0.1633085 0.2553241
vn 0.6656475 -0.7246405 0.1783524
vn 0.9529638 -0.1633085 -0.2553241
vn 0.6656475 -0.7246405 -0.1783524
vn 0.487275 0.724656 -0.487275
vn 0.9529638 0.1633085 -0.2553241
vn 0.6656475 0.7246405 -0.1783524
vn 0.6976138 0.1633096 -0.6976138
vn 0.1783524 0.7246405 -0.6656475
vn 0.2553241 0.1633085 -0.9529638
vn -0.1783524 0.7246405 -0.6656475
vn -0.2553241 0.1633085 -0.9529638
vn -0.487275 0.724656 -0.487275
vn -0.6976138 0.1633096 -0.6976138
vn -0.6656475 0.7246405 -0.1783524
vn -0.9529638 0.1633085 -0.2553241
vn -0.6656475 0.7246405 0.1783524
vn -0.9529638 0.1633085 0.2553241
vn -0.487275 0.724656 0.487275
vn -0.9529638 0.1633085 0.2553241
vn -0.6656475 0.7246405 0.1783524
vn -0.6976138 0.1633096 0.6976138
vn -0.1783524 0.7246405 0.6656475
vn -0.2553241 0.1633085 0.9529638
vn 0.1783524 0.7246405 0.6656475
vn 0.2553241 0.1633085 0.9529638
vn 0.487275 0.724656 0.487275
vn 0.6976138 0.1633096 0.6976138
vn 0.6656475 0.7246405 0.1783524
vn 0.9529638 0.1633085 0.2553241
vn 0.6656475 0.7246405 -0.1783524
vn 0.9529638 0.1633085 -0.2553241
vn 0.7071068 0 -0.7071068
vn 0.9659303 0 -0.2588022
vn 0.9659303 0 -0.2588022
vn 0.7071068 0 -0.7071068
vn 0.2588022 0 -0.9659303
vn 0.2588022 0 -0.9659303
vn -0.2588022 0 -0.9659303
vn -0.2588022 0 -0.9659303
vn -0.7071068 0 -0.7071068
vn -0.7071068 0 -0.7071068
vn -0.9659303 0 -0.2588022
vn -0.9659303 0 -0.2588022
vn -0.9659303 0 0.2588022
vn -0.9659303 0 0.2588022
vn -0.7071068 0 0.7071068
vn -0.9659303 0 0.2588022
vn -0.9659303 0 0.2588022
vn -0.7071068 0 0.7071068
vn -0.2588022 0 0.9659303
vn -0.2588022 0 0.9659303
vn 0.2588022 0 0.9659303
vn 0.2588022 0 0.9659303
vn 0.7071068 0 0.7071068
vn 0.7071068 0 0.7071068
vn 0.9659303 0 0.2588022
vn 0.9659303 0 0.2588022
vn 0.9659303 0 -0.2588022
vn 0.9659303 0 -0.2588022
vn -0.6613516 0.7478431 -0.05783393
vn -0.2805667 0.7478524 -0.6016635
vn 0.3807664 0.7478599 -0.5438038
vn 0.6613516 0.7478431 0.05783393
vn -0.3807664 0.7478599 0.5438038
vn 0.2805667 0.7478524 0.6016635
vn 0.2805667 0.7478524 0.6016635
vn 0.3926016 0.3701393 0.8419387
vn -0.5328392 0.37014 0.7609723
vn -0.3807664 0.7478599 0.5438038
vn -0.9254431 0.3701406 -0.08093774
vn -0.6613516 0.7478431 -0.05783393
vn -0.3926016 0.3701393 -0.8419387
vn -0.2805667 0.7478524 -0.6016635
vn 0.6613516 0.7478431 0.05783393
vn 0.3926016 0.3701393 0.8419387
vn 0.2805667 0.7478524 0.6016635
vn 0.9254431 0.3701406 0.08093774
vn 0.3807664 0.7478599 -0.5438038
vn 0.5328392 0.37014 -0.7609723
vn -0.2805667 0.7478524 -0.6016635
vn -0.3926016 0.3701393 -0.8419387
g Barrel_1C_0
f 3/3/3 2/2/2 1/1/1
f 2/2/2 4/4/4 1/1/1
f 2/2/2 5/5/5 4/4/4
f 5/5/5 6/6/6 4/4/4
f 5/5/5 7/7/7 6/6/6
f 7/7/7 8/8/8 6/6/6
f 7/7/7 9/9/9 8/8/8
f 9/9/9 10/10/10 8/8/8
f 9/9/9 11/11/11 10/10/10
f 11/11/11 12/12/12 10/10/10
f 11/11/11 13/13/13 12/12/12
f 13/13/13 14/14/14 12/12/12
f 17/17/17 16/16/16 15/15/15
f 16/16/16 18/18/18 15/15/15
f 16/16/16 19/19/19 18/18/18
f 19/19/19 20/20/20 18/18/18
f 19/19/19 21/21/21 20/20/20
f 21/21/21 22/22/22 20/20/20
f 21/21/21 23/23/23 22/22/22
f 23/23/23 24/24/24 22/22/22
f 23/23/23 25/25/25 24/24/24
f 25/25/25 26/26/26 24/24/24
f 25/25/25 27/27/27 26/26/26
f 27/27/27 28/28/28 26/26/26
f 31/31/31 30/30/30 29/29/29
f 29/29/29 32/32/32 31/31/31
f 29/29/29 33/33/33 32/32/32
f 33/33/33 34/34/34 32/32/32
f 33/33/33 35/35/35 34/34/34
f 35/35/35 36/36/36 34/34/34
f 35/35/35 37/37/37 36/36/36
f 35/35/35 38/38/38 37/37/37
f 38/38/38 39/39/39 37/37/37
f 38/38/38 40/40/40 39/39/39
f 43/43/43 42/42/42 41/41/41
f 41/41/41 44/44/44 43/43/43
f 44/44/44 45/45/45 43/43/43
f 45/45/45 46/46/46 43/43/43
f 45/45/45 47/47/47 46/46/46
f 47/47/47 48/48/48 46/46/46
f 47/47/47 49/49/49 48/48/48
f 49/49/49 50/50/50 48/48/48
f 49/49/49 51/51/51 50/50/50
f 51/51/51 52/52/52 50/50/50
f 55/55/55 54/54/54 53/53/53
f 56/56/56 55/55/55 53/53/53
f 56/56/56 53/53/53 57/57/57
f 58/58/58 56/56/56 57/57/57
f 58/58/58 57/57/57 59/59/59
f 60/60/60 58/58/58 59/59/59
f 60/60/60 59/59/59 61/61/61
f 62/62/62 60/60/60 61/61/61
f 62/62/62 61/61/61 63/63/63
f 64/64/64 62/62/62 63/63/63
f 64/64/64 63/63/63 65/65/65
f 66/66/66 64/64/64 65/65/65
f 69/69/69 68/68/68 67/67/67
f 70/70/70 69/69/69 67/67/67
f 70/70/70 67/67/67 71/71/71
f 72/72/72 70/70/70 71/71/71
f 72/72/72 71/71/71 73/73/73
f 74/74/74 72/72/72 73/73/73
f 74/74/74 73/73/73 75/75/75
f 76/76/76 74/74/74 75/75/75
f 76/76/76 75/75/75 77/77/77
f 78/78/78 76/76/76 77/77/77
f 78/78/78 77/77/77 79/79/79
f 80/80/80 78/78/78 79/79/79
f 83/83/83 82/82/82 81/81/81
f 84/84/84 83/83/83 81/81/81
f 84/84/84 81/81/81 85/85/85
f 86/86/86 84/84/84 85/85/85
f 86/86/86 85/85/85 87/87/87
f 88/88/88 86/86/86 87/87/87
f 88/88/88 87/87/87 89/89/89
f 90/90/90 88/88/88 89/89/89
f 90/90/90 89/89/89 91/91/91
f 92/92/92 90/90/90 91/91/91
f 92/92/92 91/91/91 93/93/93
f 94/94/94 92/92/92 93/93/93
f 97/97/97 96/96/96 95/95/95
f 98/98/98 97/97/97 95/95/95
f 98/98/98 95/95/95 99/99/99
f 100/100/100 98/98/98 99/99/99
f 100/100/100 99/99/99 101/101/101
f 102/102/102 100/100/100 101/101/101
f 102/102/102 101/101/101 103/103/103
f 104/104/104 102/102/102 103/103/103
f 104/104/104 103/103/103 105/105/105
f 106/106/106 104/104/104 105/105/105
f 106/106/106 105/105/105 107/107/107
f 108/108/108 106/106/106 107/107/107
f 111/111/111 110/110/110 109/109/109
f 112/112/112 111/111/111 109/109/109
f 113/113/113 111/111/111 112/112/112
f 114/114/114 113/113/113 112/112/112
f 115/115/115 113/113/113 114/114/114
f 116/116/116 115/115/115 114/114/114
f 117/117/117 115/115/115 116/116/116
f 118/118/118 117/117/117 116/116/116
f 119/119/119 117/117/117 118/118/118
f 120/120/120 119/119/119 118/118/118
f 121/121/121 119/119/119 120/120/120
f 122/122/122 121/121/121 120/120/120
f 125/125/125 124/124/124 123/123/123
f 126/126/126 125/125/125 123/123/123
f 127/127/127 125/125/125 126/126/126
f 128/128/128 127/127/127 126/126/126
f 129/129/129 127/127/127 128/128/128
f 130/130/130 129/129/129 128/128/128
f 131/131/131 129/129/129 130/130/130
f 132/132/132 131/131/131 130/130/130
f 133/133/133 131/131/131 132/132/132
f 134/134/134 133/133/133 132/132/132
f 135/135/135 133/133/133 134/134/134
f 136/136/136 135/135/135 134/134/134
f 139/139/139 138/138/138 137/137/137
f 138/138/138 140/140/140 137/137/137
f 137/137/137 140/140/140 141/141/141
f 140/140/140 142/142/142 141/141/141
f 141/141/141 142/142/142 143/143/143
f 142/142/142 144/144/144 143/143/143
f 143/143/143 144/144/144 145/145/145
f 144/144/144 146/146/146 145/145/145
f 145/145/145 146/146/146 147/147/147
f 146/146/146 148/148/148 147/147/147
f 147/147/147 148/148/148 149/149/149
f 148/148/148 150/150/150 149/149/149
f 153/153/153 152/152/152 151/151/151
f 152/152/152 154/154/154 151/151/151
f 151/151/151 154/154/154 155/155/155
f 154/154/154 156/156/156 155/155/155
f 155/155/155 156/156/156 157/157/157
f 156/156/156 158/158/158 157/157/157
f 157/157/157 158/158/158 159/159/159
f 158/158/158 160/160/160 159/159/159
f 159/159/159 160/160/160 161/161/161
f 160/160/160 162/162/162 161/161/161
f 161/161/161 162/162/162 163/163/163
f 162/162/162 164/164/164 163/163/163
f 167/167/167 166/166/166 165/165/165
f 168/168/168 167/167/167 165/165/165
f 168/168/168 165/165/165 169/169/169
f 170/170/170 168/168/168 169/169/169
f 170/170/170 169/169/169 171/171/171
f 172/172/172 170/170/170 171/171/171
f 172/172/172 171/171/171 173/173/173
f 174/174/174 172/172/172 173/173/173
f 174/174/174 173/173/173 175/175/175
f 176/176/176 174/174/174 175/175/175
f 176/176/176 175/175/175 177/177/177
f 178/178/178 176/176/176 177/177/177
f 181/181/181 180/180/180 179/179/179
f 182/182/182 181/181/181 179/179/179
f 182/182/182 179/179/179 183/183/183
f 184/184/184 182/182/182 183/183/183
f 184/184/184 183/183/183 185/185/185
f 186/186/186 184/184/184 185/185/185
f 186/186/186 185/185/185 187/187/187
f 188/188/188 186/186/186 187/187/187
f 188/188/188 187/187/187 189/189/189
f 190/190/190 188/188/188 189/189/189
f 190/190/190 189/189/189 191/191/191
f 192/192/192 190/190/190 191/191/191
f 195/195/195 194/194/194 193/193/193
f 193/193/193 196/196/196 195/195/195
f 193/193/193 197/197/197 196/196/196
f 197/197/197 198/198/198 196/196/196
f 201/201/201 200/200/200 199/199/199
f 202/202/202 201/201/201 199/199/199
f 203/203/203 201/201/201 202/202/202
f 204/204/204 203/203/203 202/202/202
f 205/205/205 203/203/203 204/204/204
f 206/206/206 205/205/205 204/204/204
f 209/209/209 208/208/208 207/207/207
f 208/208/208 210/210/210 207/207/207
f 207/207/207 210/210/210 211/211/211
f 210/210/210 212/212/212 211/211/211
f 211/211/211 212/212/212 213/213/213
f 212/212/212 214/214/214 213/213/213
