g Base_low
v -0.0006555904 0.002446691 -0.02386349
v 1.326455E-11 0.002533002 -0.02386349
v 1.326455E-11 0.002533002 -0.02357466
v -0.0006555904 0.002446691 -0.02357466
v -0.001266505 0.002193642 -0.02386349
v 0.0006555904 0.002446691 -0.02357466
v 0.0006555904 0.002446691 -0.02386349
v -0.001266505 0.002193642 -0.02357466
v -0.00179111 0.0017911 -0.02386349
v 0.001266505 0.002193642 -0.02357466
v 0.001266505 0.002193642 -0.02386349
v -0.00179111 0.0017911 -0.02357466
v -0.002193653 0.001266497 -0.02386349
v 0.00179111 0.0017911 -0.02357466
v 0.00179111 0.0017911 -0.02386349
v -0.002193653 0.001266498 -0.02357466
v -0.0024467 0.0006555841 -0.02386349
v 0.002193653 0.001266497 -0.02357466
v 0.002193653 0.001266496 -0.02386349
v -0.0024467 0.0006555842 -0.02357466
v -0.002533011 -6.345667E-09 -0.02386349
v 0.0024467 0.0006555827 -0.02357466
v 0.0024467 0.0006555826 -0.02386349
v -0.002533011 -6.255876E-09 -0.02357466
v -0.0024467 -0.0006555969 -0.02386349
v 0.002533011 -7.624737E-09 -0.02357466
v 0.002533011 -7.714529E-09 -0.02386349
v -0.0024467 -0.0006555968 -0.02357466
v -0.002193653 -0.00126651 -0.02386349
v 0.0024467 -0.0006555982 -0.02357466
v 0.0024467 -0.0006555984 -0.02386349
v -0.002193653 -0.00126651 -0.02357466
v -0.00179111 -0.001791113 -0.02386349
v 0.002193653 -0.001266511 -0.02357466
v 0.002193653 -0.001266511 -0.02386349
v -0.00179111 -0.001791113 -0.02357466
v -0.001266505 -0.002193655 -0.02386349
v 0.00179111 -0.001791115 -0.02357466
v 0.00179111 -0.001791115 -0.02386349
v -0.001266505 -0.002193655 -0.02357466
v -0.0006555904 -0.002446704 -0.02386349
v 0.001266505 -0.002193657 -0.02357466
v 0.001266505 -0.002193657 -0.02386349
v -0.0006555904 -0.002446704 -0.02357466
v 1.326455E-11 -0.002533015 -0.02386349
v 0.0006555904 -0.002446704 -0.02357466
v 0.0006555904 -0.002446704 -0.02386349
v 1.326455E-11 -0.002533015 -0.02357466
v 0.001703694 -0.001703699 -0.02332449
v 0.001204693 -0.002086594 -0.02332449
v 0.000623594 -0.002327292 -0.02332449
v 1.237099E-11 -0.00240939 -0.02332449
v -0.000623594 -0.002327292 -0.02332449
v -0.001204693 -0.002086593 -0.02332449
v 0.00208659 -0.001204698 -0.02332449
v -0.001703694 -0.001703697 -0.02332449
v 0.002327288 -0.0006236018 -0.02332449
v -0.00208659 -0.001204697 -0.02332449
v 0.002409386 -7.504906E-09 -0.02332449
v -0.002327288 -0.0006236004 -0.02332449
v 0.002327288 0.0006235863 -0.02332449
v -0.002409386 -6.202852E-09 -0.02332449
v 0.00208659 0.001204684 -0.02332449
v -0.002327288 0.0006235878 -0.02332449
v 0.001703694 0.001703684 -0.02332449
v -0.00208659 0.001204685 -0.02332449
v 0.001204693 0.00208658 -0.02332449
v -0.001703694 0.001703684 -0.02332449
v 0.000623594 0.002327279 -0.02332449
v -0.001204693 0.00208658 -0.02332449
v 1.237099E-11 0.002409377 -0.02332449
v -0.000623594 0.002327279 -0.02332449
v 0.001554388 0.001554379 -0.02319028
v 0.001099118 0.001903719 -0.02319028
v 1.862645E-11 -6.556511E-09 -0.02319027
v 0.001903729 0.00109911 -0.02319028
v 0.0005689445 0.002123324 -0.02319028
v 0.002123333 0.0005689369 -0.02319028
v 1.102332E-11 0.002198227 -0.02319028
v 0.002198236 -7.386405E-09 -0.02319028
v -0.0005689445 0.002123324 -0.02319028
v 0.002123333 -0.0005689521 -0.02319028
v -0.001099118 0.001903719 -0.02319028
v 0.001903729 -0.001099123 -0.02319028
v -0.001554388 0.001554379 -0.02319028
v 0.001554388 -0.001554394 -0.02319028
v -0.001903729 0.00109911 -0.02319028
v 0.001099118 -0.001903733 -0.02319028
v -0.002123333 0.0005689382 -0.02319028
v 0.0005689445 -0.002123337 -0.02319028
v -0.002198236 -6.198458E-09 -0.02319028
v 1.102332E-11 -0.00219824 -0.02319028
v -0.002123333 -0.0005689509 -0.02319028
v -0.0005689445 -0.002123337 -0.02319028
v -0.001903729 -0.001099123 -0.02319028
v -0.001099118 -0.001903732 -0.02319028
v -0.001554388 -0.001554392 -0.02319028
vt 0.8281541 0.502077
vt 0.8219655 0.4913594
vt 0.8178419 0.4945
vt 0.8233577 0.5040429
vt 0.831357 0.5140313
vt 0.810043 0.4867116
vt 0.8132125 0.4826103
vt 0.8262151 0.5146886
vt 0.8313562 0.5264076
vt 0.8004899 0.4812067
vt 0.8024939 0.476426
vt 0.8262194 0.5257115
vt 0.8281519 0.5383617
vt 0.7898502 0.4783427
vt 0.7905484 0.4732083
vt 0.8233706 0.5363599
vt 0.8219634 0.5490795
vt 0.778831 0.4783529
vt 0.7781717 0.4732114
vt 0.8178629 0.5459088
vt 0.8132129 0.5578313
vt 0.7681834 0.481217
vt 0.7662196 0.4764196
vt 0.8100717 0.5537074
vt 0.802496 0.5640218
vt 0.7586337 0.4867154
vt 0.7554973 0.4825904
vt 0.8005288 0.5592253
vt 0.7905407 0.5672272
vt 0.750847 0.4945135
vt 0.7467456 0.491343
vt 0.7898865 0.5620869
vt 0.778168 0.5672097
vt 0.7453413 0.504063
vt 0.7405593 0.502062
vt 0.7788705 0.5620755
vt 0.766223 0.5639941
vt 0.7424935 0.514712
vt 0.7373569 0.5140165
vt 0.7682261 0.5592133
vt 0.7555033 0.5578116
vt 0.7424986 0.5257348
vt 0.7373569 0.5263922
vt 0.7586722 0.5537102
vt 0.7467495 0.5490638
vt 0.7453564 0.5363804
vt 0.7405603 0.5383466
vt 0.7508727 0.5459229
vt 0.7470257 0.5153488
vt 0.747041 0.5251769
vt 0.7495993 0.5346657
vt 0.7545267 0.5431682
vt 0.7614876 0.5501033
vt 0.7700171 0.5549972
vt 0.7495545 0.5058509
vt 0.7795149 0.5575451
vt 0.7544543 0.4973301
vt 0.7893329 0.557549
vt 0.7613813 0.4903692
vt 0.7988123 0.5549824
vt 0.7698977 0.4854659
vt 0.8073167 0.5500523
vt 0.7793916 0.4828945
vt 0.8142561 0.5430911
vt 0.78921 0.4828686
vt 0.8191577 0.5345715
vt 0.7986977 0.4854223
vt 0.8216875 0.5250744
vt 0.8072269 0.4903184
vt 0.8216728 0.5152463
vt 0.8141878 0.4972545
vt 0.8191148 0.5057573
vt 0.7887025 0.4867457
vt 0.7972045 0.4890341
vt 0.7843572 0.5202116
vt 0.7798914 0.4867707
vt 0.8048385 0.4934102
vt 0.7713964 0.4890759
vt 0.8110787 0.499622
vt 0.7637641 0.4934708
vt 0.8154985 0.507239
vt 0.7575486 0.4997202
vt 0.8177959 0.5157415
vt 0.7531605 0.50736
vt 0.8178142 0.5245491
vt 0.750899 0.5158736
vt 0.8155524 0.5330619
vt 0.7509178 0.5246814
vt 0.811164 0.5406995
vt 0.7532154 0.5331839
vt 0.8049481 0.5469421
vt 0.7576352 0.5408005
vt 0.7973272 0.5513653
vt 0.7638754 0.5470115
vt 0.7888178 0.5536706
vt 0.7715083 0.5513858
vt 0.7800053 0.5536681
vn -0.2588022 0.9659303 0
vn 0 1 0
vn 0 0.9747331 0.2233725
vn -0.2522729 0.941522 0.2233711
vn -0.4999893 0.8660316 0
vn 0.2522729 0.941522 0.2233711
vn 0.2588022 0.9659303 0
vn -0.4873681 0.8441426 0.2233732
vn -0.7071068 0.7071068 0
vn 0.4873681 0.8441426 0.2233732
vn 0.4999893 0.8660316 0
vn -0.6892411 0.6892411 0.2233685
vn -0.8660316 0.4999893 0
vn 0.6892411 0.6892411 0.2233685
vn 0.7071068 0.7071068 0
vn -0.8441426 0.4873681 0.2233732
vn -0.9659303 0.2588022 0
vn 0.8441426 0.4873681 0.2233732
vn 0.8660316 0.4999893 0
vn -0.941522 0.2522729 0.2233711
vn -1 0 0
vn 0.941522 0.2522729 0.2233711
vn 0.9659303 0.2588022 0
vn -0.9747331 0 0.2233725
vn -0.9659303 -0.2588022 0
vn 0.9747331 0 0.2233725
vn 1 0 0
vn -0.941522 -0.2522729 0.2233711
vn -0.8660316 -0.4999893 0
vn 0.941522 -0.2522729 0.2233711
vn 0.9659303 -0.2588022 0
vn -0.8441426 -0.4873681 0.2233732
vn -0.7071068 -0.7071068 0
vn 0.8441426 -0.4873681 0.2233732
vn 0.8660316 -0.4999893 0
vn -0.6892411 -0.6892411 0.2233685
vn -0.4999893 -0.8660316 0
vn 0.6892411 -0.6892411 0.2233685
vn 0.7071068 -0.7071068 0
vn -0.4873681 -0.8441426 0.2233732
vn -0.2588022 -0.9659303 0
vn 0.4873681 -0.8441426 0.2233732
vn 0.4999893 -0.8660316 0
vn -0.2522729 -0.941522 0.2233711
vn 0 -1 0
vn 0.2522729 -0.941522 0.2233711
vn 0.2588022 -0.9659303 0
vn 0 -0.9747331 0.2233725
vn 0.5329227 -0.5329227 0.657257
vn 0.3768164 -0.6527069 0.6572542
vn 0.1950455 -0.7279949 0.6572524
vn 0 -0.7536666 0.657257
vn -0.1950455 -0.7279949 0.6572524
vn -0.3768164 -0.6527069 0.6572542
vn 0.6527069 -0.3768164 0.6572542
vn -0.5329227 -0.5329227 0.657257
vn 0.7279949 -0.1950455 0.6572524
vn -0.6527069 -0.3768164 0.6572542
vn 0.7536666 0 0.657257
vn -0.7279949 -0.1950455 0.6572524
vn 0.7279949 0.1950455 0.6572524
vn -0.7536666 0 0.657257
vn 0.6527069 0.3768164 0.6572542
vn -0.7279949 0.1950455 0.6572524
vn 0.5329227 0.5329227 0.657257
vn -0.6527069 0.3768164 0.6572542
vn 0.3768164 0.6527069 0.6572542
vn -0.5329227 0.5329227 0.657257
vn 0.1950455 0.7279949 0.6572524
vn -0.3768164 0.6527069 0.6572542
vn 0 0.7536666 0.657257
vn -0.1950455 0.7279949 0.6572524
vn 0.2124748 0.2124748 0.9537867
vn 0.1502457 0.2602366 0.9537836
vn 0 0 1
vn 0.2602366 0.1502457 0.9537836
vn 0.07776251 0.2902666 0.953781
vn 0.2902666 0.07776251 0.953781
vn 0 0.3004916 0.9537845
vn 0.3004916 0 0.9537845
vn -0.07776251 0.2902666 0.953781
vn 0.2902666 -0.07776251 0.953781
vn -0.1502457 0.2602366 0.9537836
vn 0.2602366 -0.1502457 0.9537836
vn -0.2124748 0.2124748 0.9537867
vn 0.2124748 -0.2124748 0.9537867
vn -0.2602366 0.1502457 0.9537836
vn 0.1502457 -0.2602366 0.9537836
vn -0.2902666 0.07776251 0.953781
vn 0.07776251 -0.2902666 0.953781
vn -0.3004916 0 0.9537845
vn 0 -0.3004916 0.9537845
vn -0.2902666 -0.07776251 0.953781
vn -0.07776251 -0.2902666 0.953781
vn -0.2602366 -0.1502457 0.9537836
vn -0.1502457 -0.2602366 0.9537836
vn -0.2124748 -0.2124748 0.9537867
g Base_low_0
f 3/3/3 2/2/2 1/1/1
f 4/4/4 3/3/3 1/1/1
f 4/4/4 1/1/1 5/5/5
f 3/3/3 6/6/6 2/2/2
f 6/6/6 7/7/7 2/2/2
f 8/8/8 4/4/4 5/5/5
f 8/8/8 5/5/5 9/9/9
f 6/6/6 10/10/10 7/7/7
f 10/10/10 11/11/11 7/7/7
f 12/12/12 8/8/8 9/9/9
f 12/12/12 9/9/9 13/13/13
f 10/10/10 14/14/14 11/11/11
f 14/14/14 15/15/15 11/11/11
f 16/16/16 12/12/12 13/13/13
f 16/16/16 13/13/13 17/17/17
f 14/14/14 18/18/18 15/15/15
f 18/18/18 19/19/19 15/15/15
f 20/20/20 16/16/16 17/17/17
f 20/20/20 17/17/17 21/21/21
f 18/18/18 22/22/22 19/19/19
f 22/22/22 23/23/23 19/19/19
f 24/24/24 20/20/20 21/21/21
f 24/24/24 21/21/21 25/25/25
f 22/22/22 26/26/26 23/23/23
f 26/26/26 27/27/27 23/23/23
f 28/28/28 24/24/24 25/25/25
f 28/28/28 25/25/25 29/29/29
f 26/26/26 30/30/30 27/27/27
f 30/30/30 31/31/31 27/27/27
f 32/32/32 28/28/28 29/29/29
f 32/32/32 29/29/29 33/33/33
f 30/30/30 34/34/34 31/31/31
f 34/34/34 35/35/35 31/31/31
f 36/36/36 32/32/32 33/33/33
f 36/36/36 33/33/33 37/37/37
f 34/34/34 38/38/38 35/35/35
f 38/38/38 39/39/39 35/35/35
f 40/40/40 36/36/36 37/37/37
f 40/40/40 37/37/37 41/41/41
f 38/38/38 42/42/42 39/39/39
f 42/42/42 43/43/43 39/39/39
f 44/44/44 40/40/40 41/41/41
f 44/44/44 41/41/41 45/45/45
f 42/42/42 46/46/46 43/43/43
f 46/46/46 47/47/47 43/43/43
f 48/48/48 45/45/45 47/47/47
f 48/48/48 44/44/44 45/45/45
f 46/46/46 48/48/48 47/47/47
f 49/49/49 38/38/38 34/34/34
f 50/50/50 42/42/42 38/38/38
f 49/49/49 50/50/50 38/38/38
f 51/51/51 46/46/46 42/42/42
f 50/50/50 51/51/51 42/42/42
f 52/52/52 48/48/48 46/46/46
f 51/51/51 52/52/52 46/46/46
f 53/53/53 44/44/44 48/48/48
f 52/52/52 53/53/53 48/48/48
f 54/54/54 40/40/40 44/44/44
f 53/53/53 54/54/54 44/44/44
f 55/55/55 49/49/49 34/34/34
f 55/55/55 34/34/34 30/30/30
f 54/54/54 56/56/56 40/40/40
f 56/56/56 36/36/36 40/40/40
f 57/57/57 55/55/55 30/30/30
f 57/57/57 30/30/30 26/26/26
f 56/56/56 58/58/58 36/36/36
f 58/58/58 32/32/32 36/36/36
f 59/59/59 57/57/57 26/26/26
f 59/59/59 26/26/26 22/22/22
f 58/58/58 60/60/60 32/32/32
f 60/60/60 28/28/28 32/32/32
f 61/61/61 59/59/59 22/22/22
f 61/61/61 22/22/22 18/18/18
f 60/60/60 62/62/62 28/28/28
f 62/62/62 24/24/24 28/28/28
f 63/63/63 61/61/61 18/18/18
f 63/63/63 18/18/18 14/14/14
f 62/62/62 64/64/64 24/24/24
f 64/64/64 20/20/20 24/24/24
f 65/65/65 63/63/63 14/14/14
f 65/65/65 14/14/14 10/10/10
f 64/64/64 66/66/66 20/20/20
f 66/66/66 16/16/16 20/20/20
f 67/67/67 65/65/65 10/10/10
f 67/67/67 10/10/10 6/6/6
f 66/66/66 68/68/68 16/16/16
f 68/68/68 12/12/12 16/16/16
f 69/69/69 67/67/67 6/6/6
f 69/69/69 6/6/6 3/3/3
f 68/68/68 70/70/70 12/12/12
f 70/70/70 8/8/8 12/12/12
f 71/71/71 69/69/69 3/3/3
f 71/71/71 3/3/3 4/4/4
f 72/72/72 4/4/4 8/8/8
f 70/70/70 72/72/72 8/8/8
f 72/72/72 71/71/71 4/4/4
f 73/73/73 65/65/65 67/67/67
f 74/74/74 67/67/67 69/69/69
f 74/74/74 73/73/73 67/67/67
f 75/75/75 73/73/73 74/74/74
f 73/73/73 76/76/76 65/65/65
f 75/75/75 76/76/76 73/73/73
f 76/76/76 63/63/63 65/65/65
f 77/77/77 74/74/74 69/69/69
f 77/77/77 69/69/69 71/71/71
f 75/75/75 74/74/74 77/77/77
f 76/76/76 78/78/78 63/63/63
f 75/75/75 78/78/78 76/76/76
f 78/78/78 61/61/61 63/63/63
f 79/79/79 77/77/77 71/71/71
f 79/79/79 71/71/71 72/72/72
f 75/75/75 77/77/77 79/79/79
f 78/78/78 80/80/80 61/61/61
f 75/75/75 80/80/80 78/78/78
f 80/80/80 59/59/59 61/61/61
f 81/81/81 79/79/79 72/72/72
f 75/75/75 79/79/79 81/81/81
f 75/75/75 82/82/82 80/80/80
f 80/80/80 82/82/82 59/59/59
f 75/75/75 81/81/81 83/83/83
f 81/81/81 72/72/72 70/70/70
f 83/83/83 81/81/81 70/70/70
f 82/82/82 57/57/57 59/59/59
f 83/83/83 70/70/70 68/68/68
f 82/82/82 84/84/84 57/57/57
f 75/75/75 84/84/84 82/82/82
f 84/84/84 55/55/55 57/57/57
f 85/85/85 83/83/83 68/68/68
f 75/75/75 83/83/83 85/85/85
f 85/85/85 68/68/68 66/66/66
f 84/84/84 86/86/86 55/55/55
f 75/75/75 86/86/86 84/84/84
f 86/86/86 49/49/49 55/55/55
f 87/87/87 85/85/85 66/66/66
f 75/75/75 85/85/85 87/87/87
f 87/87/87 66/66/66 64/64/64
f 86/86/86 88/88/88 49/49/49
f 75/75/75 88/88/88 86/86/86
f 88/88/88 50/50/50 49/49/49
f 89/89/89 87/87/87 64/64/64
f 75/75/75 87/87/87 89/89/89
f 75/75/75 90/90/90 88/88/88
f 88/88/88 90/90/90 50/50/50
f 75/75/75 89/89/89 91/91/91
f 89/89/89 64/64/64 62/62/62
f 91/91/91 89/89/89 62/62/62
f 90/90/90 51/51/51 50/50/50
f 91/91/91 62/62/62 60/60/60
f 90/90/90 92/92/92 51/51/51
f 75/75/75 92/92/92 90/90/90
f 92/92/92 52/52/52 51/51/51
f 93/93/93 91/91/91 60/60/60
f 75/75/75 91/91/91 93/93/93
f 93/93/93 60/60/60 58/58/58
f 92/92/92 94/94/94 52/52/52
f 75/75/75 94/94/94 92/92/92
f 94/94/94 53/53/53 52/52/52
f 95/95/95 93/93/93 58/58/58
f 75/75/75 93/93/93 95/95/95
f 95/95/95 58/58/58 56/56/56
f 94/94/94 96/96/96 53/53/53
f 75/75/75 96/96/96 94/94/94
f 96/96/96 54/54/54 53/53/53
f 97/97/97 95/95/95 56/56/56
f 75/75/75 95/95/95 97/97/97
f 97/97/97 56/56/56 54/54/54
f 96/96/96 97/97/97 54/54/54
f 75/75/75 97/97/97 96/96/96
