g Bracer_right_low
v 2.377471 -1.09765 -0.2174826
v 2.215455 -1.09765 -0.2174826
v 2.215455 -1.09765 -0.1924301
v 2.40062 -1.09765 -0.1924301
v 2.40062 1.09765 -0.1924301
v 2.215455 1.09765 -0.1924301
v 2.215455 1.09765 -0.2174826
v 2.377471 1.09765 -0.2174826
v 2.40062 1.09765 -0.3972442
v 2.377471 1.09765 -0.3972442
v 2.377471 1.09765 -0.2174826
v 2.40062 -1.09765 -0.3972442
v 2.377471 1.09765 -0.3972442
v 2.377471 -1.09765 -0.3972442
v 2.377471 -1.09765 -0.2174826
v 2.377471 -1.09765 -0.3972442
v 2.215455 -1.09765 -0.2174826
v 2.215455 1.09765 -0.1924301
v 2.215455 -1.09765 -0.1924301
v 2.215455 1.09765 -0.2174826
v 2.377471 -1.09765 -0.2174826
v 2.377471 1.09765 -0.2174826
v 2.377471 -1.09765 -0.3972442
v 2.377471 1.09765 -0.3972442
v 2.40243 1.087651 -0.0026391
v 2.21096 1.087651 -0.0026391
v 2.21096 1.112704 -0.0026391
v 2.425579 1.112704 -0.0026391
v 2.425579 1.112704 -1.335186
v 2.21096 1.112704 -1.335186
v 2.21096 1.087651 -1.335186
v 2.40243 1.087651 -1.335186
v 2.425579 0.9078895 -1.335186
v 2.40243 0.9078895 -1.335186
v 2.40243 1.087651 -1.335186
v 2.425579 0.9078896 -0.0026391
v 2.40243 0.9078895 -1.335186
v 2.40243 0.9078896 -0.0026391
v 2.40243 1.087651 -0.0026391
v 2.40243 0.9078896 -0.0026391
v 2.21096 1.087651 -0.0026391
v 2.21096 1.112704 -1.335186
v 2.21096 1.112704 -0.0026391
v 2.21096 1.087651 -1.335186
v 2.40243 1.087651 -0.0026391
v 2.40243 1.087651 -1.335186
v 2.40243 0.9078896 -0.0026391
v 2.40243 0.9078895 -1.335186
v 2.363012 -0.4377075 -0.2501952
v 2.224117 -0.4377075 -0.2501952
v 2.224117 -0.4272825 -0.2274149
v 2.386161 -0.4272825 -0.2274149
v 2.386161 1.076248 -1.132796
v 2.224117 1.076248 -1.132796
v 2.224117 1.065822 -1.155577
v 2.363012 1.065822 -1.155577
v 2.386161 0.9910188 -1.28728
v 2.363012 0.9910188 -1.28728
v 2.363012 1.065822 -1.155577
v 2.386161 -0.5125113 -0.3818987
v 2.363012 0.9910188 -1.28728
v 2.363012 -0.5125113 -0.3818987
v 2.363012 -0.4377075 -0.2501952
v 2.363012 -0.5125113 -0.3818987
v 2.224117 -0.4377075 -0.2501952
v 2.224117 1.076248 -1.132796
v 2.224117 -0.4272825 -0.2274149
v 2.224117 1.065822 -1.155577
v 2.363012 -0.4377075 -0.2501952
v 2.363012 1.065822 -1.155577
v 2.363012 -0.5125113 -0.3818987
v 2.363012 0.9910188 -1.28728
vt 0.3498269 0.8370392
vt 0.3498269 0.8615152
vt 0.3536116 0.8615153
vt 0.3536116 0.8335422
vt 0.6852589 0.8335422
vt 0.6852589 0.8615153
vt 0.6890436 0.8615153
vt 0.6890436 0.8370392
vt 0.6852589 0.8026007
vt 0.688756 0.8026006
vt 0.688756 0.8297575
vt 0.3536116 0.8026009
vt 0.685299 0.7968126
vt 0.3536516 0.7968127
vt 0.3501146 0.8297575
vt 0.3501146 0.8026009
vt 0.003536977 0.8743774
vt 0.3351955 0.8685898
vt 0.003571967 0.8685896
vt 0.3351606 0.8743776
vt 0.003536977 0.8988519
vt 0.3351606 0.8988519
vt 0.003536977 0.9260069
vt 0.3351606 0.9260069
vt 0.7874346 0.6112504
vt 0.8168728 0.6112504
vt 0.8168728 0.6073986
vt 0.7838756 0.6073986
vt 0.7838757 0.4025215
vt 0.816873 0.4025215
vt 0.816873 0.3986697
vt 0.7874348 0.3986697
vt 0.7523859 0.4025215
vt 0.7523859 0.3989624
vt 0.780024 0.3989624
vt 0.7523857 0.6073986
vt 0.7488097 0.4025211
vt 0.7488095 0.6073983
vt 0.7800238 0.6109576
vt 0.7523857 0.6109576
vt 0.8671119 0.2084397
vt 0.8632604 0.003536977
vt 0.8632596 0.2084397
vt 0.8671119 0.003537014
vt 0.8965538 0.2084397
vt 0.8965538 0.003536995
vt 0.9241953 0.2084397
vt 0.9241953 0.003536995
vt 0.6961176 0.8318405
vt 0.6961176 0.8529854
vt 0.6999314 0.8529854
vt 0.6999314 0.8283165
vt 0.9671178 0.8283164
vt 0.9671178 0.8529854
vt 0.9709318 0.8529854
vt 0.9709318 0.8318404
vt 0.9681346 0.8014759
vt 0.9716562 0.8016076
vt 0.9707948 0.8246498
vt 0.7009483 0.8014761
vt 0.9681545 0.7968126
vt 0.7009682 0.7968127
vt 0.6965424 0.8243822
vt 0.6974269 0.8013408
vt 0.6815235 0.9364977
vt 0.9484658 0.9318368
vt 0.6809953 0.9318368
vt 0.9489939 0.9364977
vt 0.6815235 0.957665
vt 0.9489939 0.9576651
vt 0.6821115 0.9807404
vt 0.9495821 0.9807404
vn -0.301503 -0.9045396 -0.301503
vn -0.5773503 -0.5773503 -0.5773503
vn -0.5773503 -0.5773503 0.5773503
vn 0.5773503 -0.5773503 0.5773503
vn 0.5773503 0.5773503 0.5773503
vn -0.5773503 0.5773503 0.5773503
vn -0.5773503 0.5773503 -0.5773503
vn -0.301503 0.9045396 -0.301503
vn 0.5773503 0.5773503 -0.5773503
vn -0.5773503 0.5773503 -0.5773503
vn -0.301503 0.9045396 -0.301503
vn 0.5773503 -0.5773503 -0.5773503
vn -0.5773503 0.5773503 -0.5773503
vn -0.5773503 -0.5773503 -0.5773503
vn -0.301503 -0.9045396 -0.301503
vn -0.5773503 -0.5773503 -0.5773503
vn -0.5773503 -0.5773503 -0.5773503
vn -0.5773503 0.5773503 0.5773503
vn -0.5773503 -0.5773503 0.5773503
vn -0.5773503 0.5773503 -0.5773503
vn -0.301503 -0.9045396 -0.301503
vn -0.301503 0.9045396 -0.301503
vn -0.5773503 -0.5773503 -0.5773503
vn -0.5773503 0.5773503 -0.5773503
vn -0.301503 -0.301503 0.9045396
vn -0.5773503 -0.5773503 0.5773503
vn -0.5773503 0.5773503 0.5773503
vn 0.5773503 0.5773503 0.5773503
vn 0.5773503 0.5773503 -0.5773503
vn -0.5773503 0.5773503 -0.5773503
vn -0.5773503 -0.5773503 -0.5773503
vn -0.301503 -0.301503 -0.9045396
vn 0.5773503 -0.5773503 -0.5773503
vn -0.5773503 -0.5773503 -0.5773503
vn -0.301503 -0.301503 -0.9045396
vn 0.5773503 -0.5773503 0.5773503
vn -0.5773503 -0.5773503 -0.5773503
vn -0.5773503 -0.5773503 0.5773503
vn -0.301503 -0.301503 0.9045396
vn -0.5773503 -0.5773503 0.5773503
vn -0.5773503 -0.5773503 0.5773503
vn -0.5773503 0.5773503 -0.5773503
vn -0.5773503 0.5773503 0.5773503
vn -0.5773503 -0.5773503 -0.5773503
vn -0.301503 -0.301503 0.9045396
vn -0.301503 -0.301503 -0.9045396
vn -0.5773503 -0.5773503 0.5773503
vn -0.5773503 -0.5773503 -0.5773503
vn -0.3097363 -0.9393411 0.1473147
vn -0.5835206 -0.775881 -0.2398172
vn -0.5716454 -0.2423183 0.7839027
vn 0.5744349 -0.2269723 0.7864528
vn 0.5803226 0.7826039 0.2252927
vn -0.5835206 0.775881 0.2398172
vn -0.5716496 0.2422896 -0.7839085
vn -0.2940504 0.666504 -0.6850596
vn 0.5912417 0.206521 -0.779604
vn -0.5600963 0.2121419 -0.8008046
vn -0.2940504 0.666504 -0.6850596
vn 0.5638812 -0.7981196 -0.2122337
vn -0.5600963 0.2121419 -0.8008046
vn -0.5937848 -0.777603 -0.2067687
vn -0.3097363 -0.9393411 0.1473147
vn -0.5937848 -0.777603 -0.2067687
vn -0.5835206 -0.775881 -0.2398172
vn -0.5835206 0.775881 0.2398172
vn -0.5716454 -0.2423183 0.7839027
vn -0.5716496 0.2422896 -0.7839085
vn -0.3097363 -0.9393411 0.1473147
vn -0.2940504 0.666504 -0.6850596
vn -0.5937848 -0.777603 -0.2067687
vn -0.5600963 0.2121419 -0.8008046
g Bracer_right_low_0
f 3/3/3 2/2/2 1/1/1
f 4/4/4 3/3/3 1/1/1
f 4/4/4 5/5/5 3/3/3
f 5/5/5 6/6/6 3/3/3
f 6/6/6 5/5/5 7/7/7
f 5/5/5 8/8/8 7/7/7
f 5/5/5 4/4/4 9/9/9
f 5/5/5 9/9/9 10/10/10
f 11/11/11 5/5/5 10/10/10
f 4/4/4 12/12/12 9/9/9
f 13/13/13 9/9/9 12/12/12
f 14/14/14 13/13/13 12/12/12
f 4/4/4 15/15/15 12/12/12
f 15/15/15 16/16/16 12/12/12
f 19/19/19 18/18/18 17/17/17
f 18/18/18 20/20/20 17/17/17
f 21/21/21 17/17/17 20/20/20
f 22/22/22 21/21/21 20/20/20
f 23/23/23 21/21/21 22/22/22
f 24/24/24 23/23/23 22/22/22
f 27/27/27 26/26/26 25/25/25
f 28/28/28 27/27/27 25/25/25
f 28/28/28 29/29/29 27/27/27
f 29/29/29 30/30/30 27/27/27
f 30/30/30 29/29/29 31/31/31
f 29/29/29 32/32/32 31/31/31
f 29/29/29 28/28/28 33/33/33
f 29/29/29 33/33/33 34/34/34
f 35/35/35 29/29/29 34/34/34
f 28/28/28 36/36/36 33/33/33
f 37/37/37 33/33/33 36/36/36
f 38/38/38 37/37/37 36/36/36
f 28/28/28 39/39/39 36/36/36
f 39/39/39 40/40/40 36/36/36
f 43/43/43 42/42/42 41/41/41
f 42/42/42 44/44/44 41/41/41
f 45/45/45 41/41/41 44/44/44
f 46/46/46 45/45/45 44/44/44
f 47/47/47 45/45/45 46/46/46
f 48/48/48 47/47/47 46/46/46
f 51/51/51 50/50/50 49/49/49
f 52/52/52 51/51/51 49/49/49
f 52/52/52 53/53/53 51/51/51
f 53/53/53 54/54/54 51/51/51
f 54/54/54 53/53/53 55/55/55
f 53/53/53 56/56/56 55/55/55
f 53/53/53 52/52/52 57/57/57
f 53/53/53 57/57/57 58/58/58
f 59/59/59 53/53/53 58/58/58
f 52/52/52 60/60/60 57/57/57
f 61/61/61 57/57/57 60/60/60
f 62/62/62 61/61/61 60/60/60
f 52/52/52 63/63/63 60/60/60
f 63/63/63 64/64/64 60/60/60
f 67/67/67 66/66/66 65/65/65
f 66/66/66 68/68/68 65/65/65
f 69/69/69 65/65/65 68/68/68
f 70/70/70 69/69/69 68/68/68
f 71/71/71 69/69/69 70/70/70
f 72/72/72 71/71/71 70/70/70
