g Bracer_left_low
v -2.377471 -1.09765 -0.2174826
v -2.215455 -1.09765 -0.1924301
v -2.215455 -1.09765 -0.2174826
v -2.40062 -1.09765 -0.1924301
v -2.40062 1.09765 -0.1924301
v -2.215455 1.09765 -0.1924301
v -2.215455 1.09765 -0.2174826
v -2.377471 1.09765 -0.2174826
v -2.40062 1.09765 -0.3972442
v -2.377471 1.09765 -0.3972442
v -2.377471 1.09765 -0.2174826
v -2.40062 -1.09765 -0.3972442
v -2.377471 1.09765 -0.3972442
v -2.377471 -1.09765 -0.3972442
v -2.377471 -1.09765 -0.2174826
v -2.377471 -1.09765 -0.3972442
v -2.215455 -1.09765 -0.2174826
v -2.215455 -1.09765 -0.1924301
v -2.215455 1.09765 -0.1924301
v -2.215455 1.09765 -0.2174826
v -2.377471 -1.09765 -0.2174826
v -2.377471 1.09765 -0.2174826
v -2.377471 -1.09765 -0.3972442
v -2.377471 1.09765 -0.3972442
v -2.40243 1.087651 -0.0026391
v -2.21096 1.112704 -0.0026391
v -2.21096 1.087651 -0.0026391
v -2.425579 1.112704 -0.0026391
v -2.425579 1.112704 -1.335186
v -2.21096 1.112704 -1.335186
v -2.21096 1.087651 -1.335186
v -2.40243 1.087651 -1.335186
v -2.425579 0.9078895 -1.335186
v -2.40243 0.9078895 -1.335186
v -2.40243 1.087651 -1.335186
v -2.425579 0.9078896 -0.0026391
v -2.40243 0.9078895 -1.335186
v -2.40243 0.9078896 -0.0026391
v -2.40243 1.087651 -0.0026391
v -2.40243 0.9078896 -0.0026391
v -2.21096 1.087651 -0.0026391
v -2.21096 1.112704 -0.0026391
v -2.21096 1.112704 -1.335186
v -2.21096 1.087651 -1.335186
v -2.40243 1.087651 -0.0026391
v -2.40243 1.087651 -1.335186
v -2.40243 0.9078896 -0.0026391
v -2.40243 0.9078895 -1.335186
v -2.363012 -0.4377075 -0.2501952
v -2.224117 -0.4272825 -0.2274149
v -2.224117 -0.4377075 -0.2501952
v -2.386161 -0.4272825 -0.2274149
v -2.386161 1.076248 -1.132796
v -2.224117 1.076248 -1.132796
v -2.224117 1.065822 -1.155577
v -2.363012 1.065822 -1.155577
v -2.386161 0.9910188 -1.28728
v -2.363012 0.9910188 -1.28728
v -2.363012 1.065822 -1.155577
v -2.386161 -0.5125113 -0.3818987
v -2.363012 0.9910188 -1.28728
v -2.363012 -0.5125113 -0.3818987
v -2.363012 -0.4377075 -0.2501952
v -2.363012 -0.5125113 -0.3818987
v -2.224117 -0.4377075 -0.2501952
v -2.224117 -0.4272825 -0.2274149
v -2.224117 1.076248 -1.132796
v -2.224117 1.065822 -1.155577
v -2.363012 -0.4377075 -0.2501952
v -2.363012 1.065822 -1.155577
v -2.363012 -0.5125113 -0.3818987
v -2.363012 0.9910188 -1.28728
vt 0.003536977 0.8212887
vt 0.007321641 0.7968127
vt 0.003536977 0.7968127
vt 0.007321678 0.8247858
vt 0.3389683 0.8247856
vt 0.3389683 0.7968126
vt 0.342753 0.7968126
vt 0.342753 0.8212886
vt 0.3389684 0.8557268
vt 0.3424654 0.8557268
vt 0.3424654 0.8285703
vt 0.007321678 0.8557273
vt 0.3390004 0.8615152
vt 0.007353813 0.8615156
vt 0.003824583 0.8285704
vt 0.003824619 0.8557273
vt 0.3422695 0.9202189
vt 0.3422984 0.9260069
vt 0.6739214 0.9260069
vt 0.6738925 0.9202189
vt 0.3422695 0.8957447
vt 0.6738925 0.8957444
vt 0.3422695 0.8685898
vt 0.6738924 0.8685896
vt 0.8175605 0.2161178
vt 0.7881224 0.212266
vt 0.7881224 0.2161178
vt 0.8211195 0.212266
vt 0.8211195 0.007388803
vt 0.7881224 0.007388803
vt 0.7881224 0.003536977
vt 0.8175605 0.003536977
vt 0.8526096 0.007388803
vt 0.8526095 0.003829743
vt 0.8249713 0.003829743
vt 0.8526094 0.212266
vt 0.8561856 0.007388511
vt 0.8561856 0.2122657
vt 0.8249713 0.215825
vt 0.8526094 0.215825
vt 0.8810312 0.6035724
vt 0.8848826 0.6035724
vt 0.8848826 0.3986697
vt 0.8810303 0.3986697
vt 0.8515893 0.6035725
vt 0.8515884 0.3986698
vt 0.8239477 0.6035727
vt 0.8239469 0.39867
vt 0.6809953 0.889735
vt 0.6848093 0.8685899
vt 0.6809953 0.8685899
vt 0.6848093 0.893259
vt 0.9519956 0.8932585
vt 0.9519956 0.8685896
vt 0.9558095 0.8685896
vt 0.9558095 0.8897345
vt 0.9530126 0.9200989
vt 0.956534 0.9199672
vt 0.9556726 0.8969251
vt 0.6858261 0.9200994
vt 0.95303 0.9247624
vt 0.6858436 0.9247628
vt 0.6814202 0.8971933
vt 0.6823047 0.9202346
vt 0.003980482 0.9773235
vt 0.003536977 0.9819844
vt 0.2710075 0.9819844
vt 0.271451 0.9773235
vt 0.003980482 0.9561562
vt 0.2714509 0.9561562
vt 0.004568523 0.9330808
vt 0.2720391 0.9330808
vn 0.301503 -0.9045396 -0.301503
vn 0.5773503 -0.5773503 0.5773503
vn 0.5773503 -0.5773503 -0.5773503
vn -0.5773503 -0.5773503 0.5773503
vn -0.5773503 0.5773503 0.5773503
vn 0.5773503 0.5773503 0.5773503
vn 0.5773503 0.5773503 -0.5773503
vn 0.301503 0.9045396 -0.301503
vn -0.5773503 0.5773503 -0.5773503
vn 0.5773503 0.5773503 -0.5773503
vn 0.301503 0.9045396 -0.301503
vn -0.5773503 -0.5773503 -0.5773503
vn 0.5773503 0.5773503 -0.5773503
vn 0.5773503 -0.5773503 -0.5773503
vn 0.301503 -0.9045396 -0.301503
vn 0.5773503 -0.5773503 -0.5773503
vn 0.5773503 -0.5773503 -0.5773503
vn 0.5773503 -0.5773503 0.5773503
vn 0.5773503 0.5773503 0.5773503
vn 0.5773503 0.5773503 -0.5773503
vn 0.301503 -0.9045396 -0.301503
vn 0.301503 0.9045396 -0.301503
vn 0.5773503 -0.5773503 -0.5773503
vn 0.5773503 0.5773503 -0.5773503
vn 0.301503 -0.301503 0.9045396
vn 0.5773503 0.5773503 0.5773503
vn 0.5773503 -0.5773503 0.5773503
vn -0.5773503 0.5773503 0.5773503
vn -0.5773503 0.5773503 -0.5773503
vn 0.5773503 0.5773503 -0.5773503
vn 0.5773503 -0.5773503 -0.5773503
vn 0.301503 -0.301503 -0.9045396
vn -0.5773503 -0.5773503 -0.5773503
vn 0.5773503 -0.5773503 -0.5773503
vn 0.301503 -0.301503 -0.9045396
vn -0.5773503 -0.5773503 0.5773503
vn 0.5773503 -0.5773503 -0.5773503
vn 0.5773503 -0.5773503 0.5773503
vn 0.301503 -0.301503 0.9045396
vn 0.5773503 -0.5773503 0.5773503
vn 0.5773503 -0.5773503 0.5773503
vn 0.5773503 0.5773503 0.5773503
vn 0.5773503 0.5773503 -0.5773503
vn 0.5773503 -0.5773503 -0.5773503
vn 0.301503 -0.301503 0.9045396
vn 0.301503 -0.301503 -0.9045396
vn 0.5773503 -0.5773503 0.5773503
vn 0.5773503 -0.5773503 -0.5773503
vn 0.3097363 -0.9393411 0.1473147
vn 0.5716496 -0.2422896 0.7839085
vn 0.5835206 -0.775881 -0.2398172
vn -0.5744349 -0.2269723 0.7864528
vn -0.5803226 0.7826039 0.2252927
vn 0.5835206 0.775881 0.2398172
vn 0.5716496 0.2422896 -0.7839085
vn 0.2940504 0.666504 -0.6850596
vn -0.5912417 0.206521 -0.779604
vn 0.5600963 0.2121419 -0.8008046
vn 0.2940504 0.666504 -0.6850596
vn -0.5638812 -0.7981196 -0.2122337
vn 0.5600963 0.2121419 -0.8008046
vn 0.5937848 -0.777603 -0.2067687
vn 0.3097363 -0.9393411 0.1473147
vn 0.5937848 -0.777603 -0.2067687
vn 0.5835206 -0.775881 -0.2398172
vn 0.5716496 -0.2422896 0.7839085
vn 0.5835206 0.775881 0.2398172
vn 0.5716496 0.2422896 -0.7839085
vn 0.3097363 -0.9393411 0.1473147
vn 0.2940504 0.666504 -0.6850596
vn 0.5937848 -0.777603 -0.2067687
vn 0.5600963 0.2121419 -0.8008046
g Bracer_left_low_0
f 3/3/3 2/2/2 1/1/1
f 2/2/2 4/4/4 1/1/1
f 5/5/5 4/4/4 2/2/2
f 6/6/6 5/5/5 2/2/2
f 5/5/5 6/6/6 7/7/7
f 8/8/8 5/5/5 7/7/7
f 4/4/4 5/5/5 9/9/9
f 9/9/9 5/5/5 10/10/10
f 5/5/5 11/11/11 10/10/10
f 12/12/12 4/4/4 9/9/9
f 9/9/9 13/13/13 12/12/12
f 13/13/13 14/14/14 12/12/12
f 15/15/15 4/4/4 12/12/12
f 16/16/16 15/15/15 12/12/12
f 19/19/19 18/18/18 17/17/17
f 20/20/20 19/19/19 17/17/17
f 17/17/17 21/21/21 20/20/20
f 21/21/21 22/22/22 20/20/20
f 21/21/21 23/23/23 22/22/22
f 23/23/23 24/24/24 22/22/22
f 27/27/27 26/26/26 25/25/25
f 26/26/26 28/28/28 25/25/25
f 29/29/29 28/28/28 26/26/26
f 30/30/30 29/29/29 26/26/26
f 29/29/29 30/30/30 31/31/31
f 32/32/32 29/29/29 31/31/31
f 28/28/28 29/29/29 33/33/33
f 33/33/33 29/29/29 34/34/34
f 29/29/29 35/35/35 34/34/34
f 36/36/36 28/28/28 33/33/33
f 33/33/33 37/37/37 36/36/36
f 37/37/37 38/38/38 36/36/36
f 39/39/39 28/28/28 36/36/36
f 40/40/40 39/39/39 36/36/36
f 43/43/43 42/42/42 41/41/41
f 44/44/44 43/43/43 41/41/41
f 41/41/41 45/45/45 44/44/44
f 45/45/45 46/46/46 44/44/44
f 45/45/45 47/47/47 46/46/46
f 47/47/47 48/48/48 46/46/46
f 51/51/51 50/50/50 49/49/49
f 50/50/50 52/52/52 49/49/49
f 53/53/53 52/52/52 50/50/50
f 54/54/54 53/53/53 50/50/50
f 53/53/53 54/54/54 55/55/55
f 56/56/56 53/53/53 55/55/55
f 52/52/52 53/53/53 57/57/57
f 57/57/57 53/53/53 58/58/58
f 53/53/53 59/59/59 58/58/58
f 60/60/60 52/52/52 57/57/57
f 57/57/57 61/61/61 60/60/60
f 61/61/61 62/62/62 60/60/60
f 63/63/63 52/52/52 60/60/60
f 64/64/64 63/63/63 60/60/60
f 67/67/67 66/66/66 65/65/65
f 68/68/68 67/67/67 65/65/65
f 65/65/65 69/69/69 68/68/68
f 69/69/69 70/70/70 68/68/68
f 69/69/69 71/71/71 70/70/70
f 71/71/71 72/72/72 70/70/70
