g Canopy_9C.M
v -1.459887 -0.08581924 2.225051
v -2.919772 -0.02761078 2.22505
v -2.919766 -0.02761078 -2.22505
v -1.459882 -0.08581924 -2.225051
v -1.459882 -0.08581924 -2.225051
v 2.575513E-06 -0.6088237 -2.22505
v 2.575513E-06 2.861022E-06 -2.22505
v -1.459882 -0.6946458 -2.225051
v -2.588919 -0.6609611 -2.22505
v -2.919766 -0.02761078 -2.22505
v -2.804146 -0.5202007 -2.22505
v -1.459887 -0.08581924 2.225051
v -2.725195 -0.692049 2.22505
v -2.919772 -0.02761078 2.22505
v -1.459887 -0.6946458 2.225051
v -2.098675E-06 2.861022E-06 2.22505
v -2.098675E-06 -0.6088237 2.22505
v -2.098675E-06 2.861022E-06 2.22505
v -1.459887 -0.08581924 2.225051
v -1.459882 -0.08581924 -2.225051
v 2.575513E-06 2.861022E-06 -2.22505
v -2.919772 -0.02761078 2.22505
v -2.919773 -0.6364364 2.155128
v -2.919766 -0.6364374 -2.147382
v -2.919766 -0.02761078 -2.22505
v -2.923877 -0.02368354 1.082847
v -2.923877 -0.02368354 1.829929
v -2.923877 -0.6325111 1.82993
v -2.923876 -0.6325111 1.082847
v -0.004107306 0.003928184 1.082848
v -0.004107419 0.003928184 1.82993
v -1.463992 -0.08189296 1.82993
v -1.463992 -0.08189296 1.082847
v -2.923877 -0.02368354 1.829929
v -2.923877 -0.02368354 1.082847
v -2.923876 -0.02368354 0.3798379
v -2.923875 -0.6325111 0.3798379
v -2.923877 -0.6325111 -0.3672449
v -2.923877 -0.02368354 -0.3672447
v -2.923877 -0.02368354 -1.114327
v -2.923877 -0.6325111 -1.114328
v -2.923877 -0.6325111 -1.86141
v -2.923877 -0.02368354 -1.86141
v -0.004106723 0.003928184 0.379839
v -1.463992 -0.08189296 -0.3672442
v -0.004106611 0.003928184 -0.3672435
v -1.463992 -0.08189296 0.3798384
v -2.923877 -0.02368354 -0.3672447
v -2.923876 -0.02368354 0.3798379
v -0.004106974 0.003928184 -1.114326
v -1.463992 -0.08189296 -1.86141
v -0.004107338 0.003928184 -1.861409
v -1.463992 -0.08189296 -1.114327
v -2.923877 -0.02368354 -1.114327
v -2.923877 -0.02368354 -1.86141
v -1.463992 -0.08189296 -1.86141
v -1.454185 -0.09740637 2.225051
v -1.45418 -0.09740637 -2.225051
v -2.914064 -0.03919792 -2.22505
v -2.91407 -0.03919792 2.22505
v -1.45418 -0.09740637 -2.225051
v 0.005704594 -0.01158428 -2.22505
v 0.005704594 -0.6204109 -2.22505
v -1.45418 -0.706233 -2.225051
v -2.583217 -0.6725482 -2.22505
v -2.914064 -0.03919792 -2.22505
v -2.798444 -0.5317878 -2.22505
v -1.454185 -0.09740637 2.225051
v -2.91407 -0.03919792 2.22505
v -2.719493 -0.7036361 2.22505
v -1.454185 -0.706233 2.225051
v 0.00569992 -0.01158428 2.22505
v 0.00569992 -0.6204109 2.22505
v 0.00569992 -0.01158428 2.22505
v 0.005704594 -0.01158428 -2.22505
v -1.45418 -0.09740637 -2.225051
v -1.454185 -0.09740637 2.225051
v -2.91407 -0.03919792 2.22505
v -2.914064 -0.03919792 -2.22505
v -2.914064 -0.6480245 -2.147382
v -2.914071 -0.6480235 2.155128
v 0.01986306 -0.02845287 1.082848
v -1.440022 -0.114274 1.82993
v 0.01986294 -0.02845287 1.82993
v -1.440022 -0.114274 1.082847
v -2.899907 -0.0560646 1.829929
v -2.899907 -0.0560646 1.082847
v 0.01986364 -0.02845287 0.379839
v 0.01986375 -0.02845287 -0.3672435
v -1.440021 -0.114274 -0.3672442
v -1.440021 -0.114274 0.3798384
v -2.899907 -0.0560646 -0.3672447
v -2.899906 -0.0560646 0.3798379
v 0.01986339 -0.02845287 -1.114326
v 0.01986302 -0.02845287 -1.861409
v -1.440021 -0.114274 -1.86141
v -1.440022 -0.114274 -1.114327
v -1.440021 -0.114274 -1.86141
v -2.899906 -0.0560646 -1.86141
v -2.899907 -0.0560646 -1.114327
vt 0.1243654 0.4376284
vt 0.0420763 0.494635
vt 0.0420764 0.4946348
vt 0.1243655 0.4376284
vt 0.1205593 0.4833136
vt 0.2077284 0.3423421
vt 0.2272117 0.4757836
vt 0.1062096 0.3007294
vt 0.04016307 0.3109448
vt 0.02631686 0.4811539
vt 0.02369979 0.3451211
vt 0.1205591 0.4833138
vt 0.02781738 0.3128541
vt 0.0263167 0.4811539
vt 0.1062094 0.3007294
vt 0.2272117 0.4757836
vt 0.2077283 0.3423423
vt 0.2076222 0.2613988
vt 0.1243654 0.4376284
vt 0.1243655 0.4376284
vt 0.2076222 0.2613987
vt 0.03728516 0.4940012
vt 0.03873332 0.3550245
vt 0.03873378 0.3550243
vt 0.03728488 0.4940012
vt 0.3133641 0.9450038
vt 0.3133642 0.9450038
vt 0.3133643 0.75596
vt 0.3133644 0.75596
vt 0.4770328 0.8905056
vt 0.4770328 0.8905056
vt 0.367983 0.9091107
vt 0.367983 0.9091107
vt 0.2772955 0.9804328
vt 0.2772956 0.9804327
vt 0.3133641 0.9450038
vt 0.3133644 0.75596
vt 0.3133643 0.75596
vt 0.3133642 0.9450038
vt 0.3133642 0.9450038
vt 0.3133643 0.75596
vt 0.3133642 0.75596
vt 0.3133642 0.9450038
vt 0.4770328 0.8905056
vt 0.367983 0.9091107
vt 0.4770328 0.8905056
vt 0.367983 0.9091107
vt 0.2772955 0.9804328
vt 0.2772956 0.9804327
vt 0.4770328 0.8905056
vt 0.367983 0.9091108
vt 0.4770327 0.8905057
vt 0.367983 0.9091108
vt 0.2772955 0.9804328
vt 0.2772955 0.9804328
vt 0.367983 0.9091108
vt 0.1384329 0.377379
vt 0.138433 0.3773789
vt 0.05344272 0.4107996
vt 0.0534426 0.4107997
vt 0.1579197 0.3327102
vt 0.2376241 0.3253412
vt 0.2124606 0.2734787
vt 0.1327562 0.2612408
vt 0.08383451 0.2679956
vt 0.08679657 0.3357433
vt 0.07412748 0.2821628
vt 0.1579196 0.3327103
vt 0.08679645 0.3357433
vt 0.07468979 0.2692581
vt 0.132756 0.2612408
vt 0.2376241 0.3253412
vt 0.2124604 0.2734788
vt 0.2406319 0.2555441
vt 0.2406321 0.255544
vt 0.138433 0.3773789
vt 0.1384329 0.377379
vt 0.08669293 0.3951421
vt 0.08669269 0.3951421
vt 0.08762598 0.3056275
vt 0.08762562 0.3056276
vt 0.4291408 0.827981
vt 0.3676189 0.8384774
vt 0.4291408 0.827981
vt 0.3676189 0.8384774
vt 0.3164563 0.8787147
vt 0.3164563 0.8787146
vt 0.4291408 0.827981
vt 0.4291408 0.827981
vt 0.3676189 0.8384774
vt 0.3676189 0.8384774
vt 0.3164563 0.8787147
vt 0.3164563 0.8787146
vt 0.4291408 0.827981
vt 0.4291407 0.8279811
vt 0.3676189 0.8384774
vt 0.3676189 0.8384774
vt 0.3676189 0.8384774
vt 0.3164563 0.8787147
vt 0.3164563 0.8787147
vn -0.009434053 0.9999555 0
vn 0.03984031 0.9992061 0
vn 0.03984031 0.9992061 0
vn -0.009434119 0.9999555 0
vn 0 0 -1
vn 0 0 -1
vn 0 0 -1
vn 0 0 -1
vn 0 0 -1
vn 0 0 -1
vn 0 0 -1
vn 0 0 1
vn 0 0 1
vn 0 0 1
vn 0 0 1
vn 0 0 1
vn 0 0 1
vn -0.05868558 0.9982766 0
vn -0.009434053 0.9999555 0
vn -0.009434119 0.9999555 0
vn -0.05868558 0.9982766 0
vn -1 0 0
vn -1 0 0
vn -1 0 0
vn -1 0 0
vn -1 0 0
vn -1 0 0
vn -1 0 0
vn -1 0 0
vn -0.05868492 0.9982766 0
vn -0.05868492 0.9982766 0
vn -0.009433444 0.9999555 0
vn -0.009433449 0.9999555 0
vn 0.03984094 0.9992061 0
vn 0.03984094 0.9992061 0
vn -1 0 0
vn -1 0 0
vn -1 0 0
vn -1 0 0
vn -1 0 0
vn -1 0 0
vn -1 0 0
vn -1 0 0
vn -0.05868492 0.9982766 0
vn -0.009433444 0.9999555 0
vn -0.05868492 0.9982766 0
vn -0.009433446 0.9999555 0
vn 0.03984094 0.9992061 0
vn 0.03984094 0.9992061 0
vn -0.05868493 0.9982766 0
vn -0.009433449 0.9999555 0
vn -0.05868493 0.9982766 0
vn -0.009433449 0.9999555 0
vn 0.03984095 0.9992061 0
vn 0.03984095 0.9992061 0
vn -0.009433449 0.9999555 0
vn 0.009434053 -0.9999555 0
vn 0.009434116 -0.9999555 0
vn -0.03984031 -0.9992061 0
vn -0.03984031 -0.9992061 0
vn 0 0 1
vn 0 0 1
vn 0 0 1
vn 0 0 1
vn 0 0 1
vn 0 0 1
vn 0 0 1
vn 0 0 -1
vn 0 0 -1
vn 0 0 -1
vn 0 0 -1
vn 0 0 -1
vn 0 0 -1
vn 0.05868558 -0.9982766 0
vn 0.05868558 -0.9982766 0
vn 0.009434116 -0.9999555 0
vn 0.009434053 -0.9999555 0
vn 1 0 0
vn 1 0 0
vn 1 0 0
vn 1 0 0
vn 0.05868493 -0.9982766 0
vn 0.009433448 -0.9999555 0
vn 0.05868493 -0.9982766 0
vn 0.009433454 -0.9999555 0
vn -0.03984094 -0.9992061 0
vn -0.03984094 -0.9992061 0
vn 0.05868492 -0.9982766 0
vn 0.05868492 -0.9982766 0
vn 0.009433441 -0.9999555 0
vn 0.009433445 -0.9999555 0
vn -0.03984095 -0.9992061 0
vn -0.03984095 -0.9992061 0
vn 0.05868492 -0.9982766 0
vn 0.05868492 -0.9982766 0
vn 0.00943344 -0.9999555 0
vn 0.00943344 -0.9999555 0
vn 0.00943344 -0.9999555 0
vn -0.03984095 -0.9992061 0
vn -0.03984095 -0.9992061 0
g Canopy_9C.M_0
f 3/3/3 2/2/2 1/1/1
f 4/4/4 3/3/3 1/1/1
f 7/7/7 6/6/6 5/5/5
f 6/6/6 8/8/8 5/5/5
f 5/5/5 8/8/8 9/9/9
f 9/9/9 10/10/10 5/5/5
f 9/9/9 11/11/11 10/10/10
f 14/14/14 13/13/13 12/12/12
f 13/13/13 15/15/15 12/12/12
f 12/12/12 15/15/15 16/16/16
f 15/15/15 17/17/17 16/16/16
f 20/20/20 19/19/19 18/18/18
f 21/21/21 20/20/20 18/18/18
f 24/24/24 23/23/23 22/22/22
f 25/25/25 24/24/24 22/22/22
f 28/28/28 27/27/27 26/26/26
f 29/29/29 28/28/28 26/26/26
f 32/32/32 31/31/31 30/30/30
f 33/33/33 32/32/32 30/30/30
f 34/34/34 32/32/32 33/33/33
f 35/35/35 34/34/34 33/33/33
f 38/38/38 37/37/37 36/36/36
f 39/39/39 38/38/38 36/36/36
f 42/42/42 41/41/41 40/40/40
f 43/43/43 42/42/42 40/40/40
f 46/46/46 45/45/45 44/44/44
f 45/45/45 47/47/47 44/44/44
f 45/45/45 48/48/48 47/47/47
f 48/48/48 49/49/49 47/47/47
f 52/52/52 51/51/51 50/50/50
f 51/51/51 53/53/53 50/50/50
f 55/55/55 54/54/54 53/53/53
f 56/56/56 55/55/55 53/53/53
f 59/59/59 58/58/58 57/57/57
f 60/60/60 59/59/59 57/57/57
f 63/63/63 62/62/62 61/61/61
f 64/64/64 63/63/63 61/61/61
f 65/65/65 64/64/64 61/61/61
f 61/61/61 66/66/66 65/65/65
f 66/66/66 67/67/67 65/65/65
f 70/70/70 69/69/69 68/68/68
f 71/71/71 70/70/70 68/68/68
f 71/71/71 68/68/68 72/72/72
f 73/73/73 71/71/71 72/72/72
f 76/76/76 75/75/75 74/74/74
f 77/77/77 76/76/76 74/74/74
f 80/80/80 79/79/79 78/78/78
f 81/81/81 80/80/80 78/78/78
f 84/84/84 83/83/83 82/82/82
f 83/83/83 85/85/85 82/82/82
f 83/83/83 86/86/86 85/85/85
f 86/86/86 87/87/87 85/85/85
f 90/90/90 89/89/89 88/88/88
f 91/91/91 90/90/90 88/88/88
f 92/92/92 90/90/90 91/91/91
f 93/93/93 92/92/92 91/91/91
f 96/96/96 95/95/95 94/94/94
f 97/97/97 96/96/96 94/94/94
f 99/99/99 98/98/98 97/97/97
f 100/100/100 99/99/99 97/97/97
