g Canopy_2B_Top
v -1.559887 -0.08581924 4.425051
v -3.119772 -0.02761078 4.425051
v -3.119766 -0.02761078 -4.425051
v -1.559882 -0.08581924 -4.425051
v -1.559882 -0.08581924 -4.425051
v 2.575513E-06 -0.6088238 -4.425051
v 2.575513E-06 2.861023E-06 -4.425051
v -1.559882 -0.6946458 -4.425051
v -2.788919 -0.6609612 -4.425051
v -3.119766 -0.02761078 -4.425051
v -3.004146 -0.5202007 -4.425051
v -1.559887 -0.08581924 4.425051
v -2.925195 -0.692049 4.425051
v -3.119772 -0.02761078 4.425051
v -1.559887 -0.6946458 4.425051
v -2.098676E-06 2.861023E-06 4.425051
v -2.098676E-06 -0.6088238 4.425051
v -2.098676E-06 2.861023E-06 4.425051
v -1.559887 -0.08581924 4.425051
v -1.559882 -0.08581924 -4.425051
v 2.575513E-06 2.861023E-06 -4.425051
v -3.119772 -0.02761078 4.425051
v -3.119773 -0.6364365 4.355128
v -3.119766 -0.6364374 -4.347382
v -3.119766 -0.02761078 -4.425051
v -3.123877 -0.02368355 -1.117153
v -3.123878 -0.02368355 -0.3700703
v -3.123878 -0.6325111 -0.3700701
v -3.123876 -0.6325111 -1.117153
v -3.123878 -0.02368355 0.3770123
v -3.123878 -0.02368355 1.124095
v -3.123878 -0.6325111 1.124096
v -3.123878 -0.6325111 0.3770126
v -0.004107307 0.003928185 -1.117152
v -0.004107419 0.003928185 -0.3700696
v -1.563992 -0.08189297 -0.3700698
v -1.563992 -0.08189297 -1.117153
v -3.123878 -0.02368355 -0.3700703
v -3.123877 -0.02368355 -1.117153
v -0.004108009 0.003928185 0.3770131
v -0.004108599 0.003928185 1.124096
v -1.563993 -0.08189297 1.124096
v -1.563993 -0.08189297 0.3770127
v -1.563993 -0.08189297 1.124096
v -3.123878 -0.02368355 1.124095
v -3.123878 -0.02368355 0.3770123
v -3.123878 -0.02368355 1.862747
v -3.123879 -0.02368355 2.60983
v -3.123879 -0.6325111 2.60983
v -3.123878 -0.6325111 1.862747
v -3.123879 -0.02368355 3.356913
v -3.123879 -0.02368355 4.103996
v -3.123879 -0.6325111 4.103996
v -3.123879 -0.6325111 3.356913
v -0.004108233 0.003928185 1.862748
v -0.004108346 0.003928185 2.609831
v -1.563993 -0.08189297 2.609831
v -1.563993 -0.08189297 1.862748
v -3.123879 -0.02368355 2.60983
v -3.123878 -0.02368355 1.862747
v -0.004108936 0.003928185 3.356914
v -0.004109526 0.003928185 4.103997
v -1.563994 -0.08189297 4.103996
v -1.563994 -0.08189297 3.356913
v -1.563994 -0.08189297 4.103996
v -3.123879 -0.02368355 4.103996
v -3.123879 -0.02368355 3.356913
v -3.123876 -0.02368355 -1.820162
v -3.123875 -0.6325111 -1.820162
v -3.123877 -0.6325111 -2.567245
v -3.123877 -0.02368355 -2.567245
v -3.123877 -0.02368355 -3.314327
v -3.123877 -0.6325111 -3.314328
v -3.123877 -0.6325111 -4.06141
v -3.123877 -0.02368355 -4.06141
v -0.004106724 0.003928185 -1.820161
v -1.563992 -0.08189297 -2.567244
v -0.004106611 0.003928185 -2.567244
v -1.563992 -0.08189297 -1.820162
v -3.123877 -0.02368355 -2.567245
v -3.123876 -0.02368355 -1.820162
v -0.004106975 0.003928185 -3.314326
v -1.563992 -0.08189297 -4.06141
v -0.004107339 0.003928185 -4.061409
v -1.563992 -0.08189297 -3.314327
v -3.123877 -0.02368355 -3.314327
v -3.123877 -0.02368355 -4.06141
v -1.563992 -0.08189297 -4.06141
v -1.554185 -0.09740639 4.425051
v -1.55418 -0.09740639 -4.425051
v -3.114064 -0.03919792 -4.425051
v -3.11407 -0.03919792 4.425051
v -1.55418 -0.09740639 -4.425051
v 0.005704594 -0.01158428 -4.425051
v 0.005704594 -0.6204109 -4.425051
v -1.55418 -0.706233 -4.425051
v -2.783217 -0.6725483 -4.425051
v -3.114064 -0.03919792 -4.425051
v -2.998444 -0.5317879 -4.425051
v -1.554185 -0.09740639 4.425051
v -3.11407 -0.03919792 4.425051
v -2.919493 -0.7036362 4.425051
v -1.554185 -0.706233 4.425051
v 0.00569992 -0.01158428 4.425051
v 0.00569992 -0.6204109 4.425051
v 0.00569992 -0.01158428 4.425051
v 0.005704594 -0.01158428 -4.425051
v -1.55418 -0.09740639 -4.425051
v -1.554185 -0.09740639 4.425051
v -3.11407 -0.03919792 4.425051
v -3.114064 -0.03919792 -4.425051
v -3.114064 -0.6480246 -4.347382
v -3.114071 -0.6480236 4.355128
v 0.01986306 -0.02845287 -1.117152
v -1.540022 -0.114274 -0.3700698
v 0.01986295 -0.02845287 -0.3700696
v -1.540022 -0.114274 -1.117153
v -3.099907 -0.05606461 -0.3700703
v -3.099907 -0.05606461 -1.117153
v 0.01986236 -0.02845287 0.3770131
v -1.540023 -0.114274 1.124096
v 0.01986177 -0.02845287 1.124096
v -1.540022 -0.114274 0.3770127
v -3.099907 -0.05606461 0.3770123
v -3.099907 -0.05606461 1.124095
v -1.540023 -0.114274 1.124096
v 0.01986213 -0.02845287 1.862748
v -1.540023 -0.114274 2.609831
v 0.01986202 -0.02845287 2.609831
v -1.540023 -0.114274 1.862748
v -3.099908 -0.05606461 2.60983
v -3.099907 -0.05606461 1.862747
v 0.01986143 -0.02845287 3.356914
v -1.540024 -0.114274 4.103996
v 0.01986084 -0.02845287 4.103997
v -1.540023 -0.114274 3.356913
v -3.099908 -0.05606461 3.356913
v -3.099909 -0.05606461 4.103996
v -1.540024 -0.114274 4.103996
v 0.01986364 -0.02845287 -1.820161
v 0.01986375 -0.02845287 -2.567244
v -1.540021 -0.114274 -2.567244
v -1.540021 -0.114274 -1.820162
v -3.099906 -0.05606461 -2.567245
v -3.099906 -0.05606461 -1.820162
v 0.01986339 -0.02845287 -3.314326
v 0.01986303 -0.02845287 -4.061409
v -1.540022 -0.114274 -4.06141
v -1.540022 -0.114274 -3.314327
v -1.540022 -0.114274 -4.06141
v -3.099906 -0.05606461 -4.06141
v -3.099906 -0.05606461 -3.314327
vt 0.3386545 0.4514215
vt 0.2536642 0.4848421
vt 0.2536643 0.484842
vt 0.3386547 0.4514214
vt 0.3501123 0.4688438
vt 0.4046531 0.4096124
vt 0.4298167 0.4614748
vt 0.3249488 0.3973745
vt 0.2760271 0.4041292
vt 0.2789892 0.4718769
vt 0.2663201 0.4182964
vt 0.3501122 0.4688438
vt 0.2668824 0.4053918
vt 0.2789891 0.4718769
vt 0.3249486 0.3973745
vt 0.4298167 0.4614748
vt 0.4046531 0.4096124
vt 0.4408536 0.3295865
vt 0.3386545 0.4514215
vt 0.3386547 0.4514214
vt 0.4408537 0.3295864
vt 0.2869145 0.4691846
vt 0.2878473 0.3796701
vt 0.2878476 0.37967
vt 0.2869143 0.4691846
vt 0.5494028 0.4513457
vt 0.5494029 0.4513457
vt 0.549403 0.2623019
vt 0.5494031 0.2623019
vt 0.5494029 0.4513457
vt 0.5494029 0.4513457
vt 0.5494029 0.2623019
vt 0.549403 0.2623019
vt 0.7130715 0.3968475
vt 0.7130715 0.3968475
vt 0.6040217 0.4154527
vt 0.6040217 0.4154527
vt 0.5133342 0.4867747
vt 0.5133343 0.4867746
vt 0.7130715 0.3968475
vt 0.7130714 0.3968477
vt 0.6040217 0.4154528
vt 0.6040217 0.4154528
vt 0.6040217 0.4154528
vt 0.5133342 0.4867747
vt 0.5133342 0.4867747
vt 0.5494028 0.4513457
vt 0.5494029 0.4513457
vt 0.549403 0.2623019
vt 0.5494031 0.2623019
vt 0.5494029 0.4513457
vt 0.5494029 0.4513457
vt 0.5494029 0.2623019
vt 0.549403 0.2623019
vt 0.7130715 0.3968475
vt 0.7130715 0.3968475
vt 0.6040217 0.4154527
vt 0.6040217 0.4154527
vt 0.5133342 0.4867747
vt 0.5133343 0.4867746
vt 0.7130715 0.3968475
vt 0.7130714 0.3968477
vt 0.6040217 0.4154528
vt 0.6040217 0.4154528
vt 0.6040217 0.4154528
vt 0.5133342 0.4867747
vt 0.5133342 0.4867747
vt 0.5494028 0.4513457
vt 0.5494031 0.2623019
vt 0.549403 0.2623019
vt 0.5494029 0.4513457
vt 0.5494029 0.4513457
vt 0.549403 0.2623019
vt 0.5494029 0.2623019
vt 0.5494029 0.4513457
vt 0.7130715 0.3968475
vt 0.6040217 0.4154527
vt 0.7130715 0.3968475
vt 0.6040217 0.4154527
vt 0.5133342 0.4867747
vt 0.5133343 0.4867746
vt 0.7130715 0.3968475
vt 0.6040217 0.4154528
vt 0.7130714 0.3968477
vt 0.6040217 0.4154528
vt 0.5133342 0.4867747
vt 0.5133342 0.4867747
vt 0.6040217 0.4154528
vt 0.3878045 0.3772936
vt 0.3878047 0.3772935
vt 0.3028144 0.4107141
vt 0.3028142 0.4107142
vt 0.3992623 0.3947159
vt 0.4789667 0.3873469
vt 0.4538032 0.3354844
vt 0.3740988 0.3232465
vt 0.3251771 0.3300013
vt 0.3281392 0.397749
vt 0.3154701 0.3441685
vt 0.3992622 0.3947159
vt 0.3281391 0.397749
vt 0.3160324 0.3312638
vt 0.3740987 0.3232466
vt 0.4789667 0.3873469
vt 0.4538031 0.3354845
vt 0.4900036 0.2554586
vt 0.4900037 0.2554585
vt 0.3878047 0.3772935
vt 0.3878045 0.3772936
vt 0.3360645 0.3950567
vt 0.3360643 0.3950567
vt 0.3369976 0.3055421
vt 0.3369973 0.3055422
vt 0.6651795 0.3343229
vt 0.6036575 0.3448193
vt 0.6651795 0.3343229
vt 0.6036575 0.3448193
vt 0.552495 0.3850566
vt 0.552495 0.3850565
vt 0.6651795 0.3343229
vt 0.6036575 0.3448194
vt 0.6651794 0.334323
vt 0.6036575 0.3448194
vt 0.552495 0.3850566
vt 0.5524949 0.3850566
vt 0.6036575 0.3448194
vt 0.6651795 0.3343229
vt 0.6036575 0.3448193
vt 0.6651795 0.3343229
vt 0.6036575 0.3448193
vt 0.552495 0.3850566
vt 0.552495 0.3850565
vt 0.6651795 0.3343229
vt 0.6036575 0.3448194
vt 0.6651794 0.334323
vt 0.6036575 0.3448194
vt 0.552495 0.3850566
vt 0.5524949 0.3850566
vt 0.6036575 0.3448194
vt 0.6651795 0.3343229
vt 0.6651795 0.3343229
vt 0.6036575 0.3448193
vt 0.6036575 0.3448193
vt 0.552495 0.3850566
vt 0.552495 0.3850565
vt 0.6651795 0.3343229
vt 0.6651794 0.334323
vt 0.6036575 0.3448194
vt 0.6036575 0.3448194
vt 0.6036575 0.3448194
vt 0.5524949 0.3850566
vt 0.552495 0.3850566
vn -0.00883198 0.999961 0
vn 0.03728995 0.9993045 0
vn 0.03728995 0.9993045 0
vn -0.008832011 0.999961 0
vn 0 1.640527E-07 -1
vn 3.056875E-07 0 -1
vn 3.056875E-07 0 -1
vn 0 1.664397E-07 -1
vn -3.278425E-07 3.299072E-07 -1
vn -3.278425E-07 3.299072E-07 -1
vn -3.278425E-07 3.299072E-07 -1
vn 0 0 1
vn -3.270599E-07 0 1
vn -3.270599E-07 0 1
vn 0 0 1
vn 3.056874E-07 0 1
vn 3.056874E-07 0 1
vn -0.05493515 0.99849 0
vn -0.00883198 0.999961 0
vn -0.008832011 0.999961 0
vn -0.05493515 0.99849 0
vn -1 7.7906E-07 -6.68375E-07
vn -1 7.7906E-07 -6.68375E-07
vn -1 7.7906E-07 -6.68375E-07
vn -1 7.7906E-07 -6.68375E-07
vn -1 -7.832056E-07 -7.862639E-07
vn -1 -7.832056E-07 -7.862639E-07
vn -1 -7.832056E-07 -7.862639E-07
vn -1 -7.832056E-07 -7.862639E-07
vn -1 0 -2.620879E-07
vn -1 0 -2.620879E-07
vn -1 0 -2.620879E-07
vn -1 0 -2.620879E-07
vn -0.05493454 0.99849 0
vn -0.05493454 0.99849 0
vn -0.008831402 0.999961 0
vn -0.008831398 0.999961 0
vn 0.03729053 0.9993045 0
vn 0.03729053 0.9993045 0
vn -0.05493455 0.99849 0
vn -0.05493455 0.99849 0
vn -0.008831405 0.999961 0
vn -0.008831399 0.999961 0
vn -0.008831405 0.999961 0
vn 0.03729054 0.9993045 0
vn 0.03729054 0.9993045 0
vn -1 0 -1.834616E-06
vn -1 0 -1.834616E-06
vn -1 0 -1.834616E-06
vn -1 0 -1.834616E-06
vn -1 0 -2.62088E-07
vn -1 0 -2.62088E-07
vn -1 0 -2.62088E-07
vn -1 0 -2.62088E-07
vn -0.05493453 0.99849 0
vn -0.05493453 0.99849 0
vn -0.008831401 0.999961 0
vn -0.008831398 0.999961 0
vn 0.03729052 0.9993045 0
vn 0.03729052 0.9993045 0
vn -0.05493454 0.99849 0
vn -0.05493454 0.99849 0
vn -0.008831413 0.999961 0
vn -0.008831404 0.999961 0
vn -0.008831413 0.999961 0
vn 0.03729052 0.9993045 0
vn 0.03729052 0.9993045 0
vn -1 -7.832064E-07 1.572528E-06
vn -1 -7.832064E-07 1.572528E-06
vn -1 -7.832064E-07 1.572528E-06
vn -1 -7.832064E-07 1.572528E-06
vn -1 0 -2.62088E-07
vn -1 0 -2.62088E-07
vn -1 0 -2.62088E-07
vn -1 0 -2.62088E-07
vn -0.05493452 0.99849 0
vn -0.008831388 0.999961 0
vn -0.05493452 0.99849 0
vn -0.008831399 0.999961 0
vn 0.03729052 0.9993045 0
vn 0.03729052 0.9993045 0
vn -0.05493452 0.99849 0
vn -0.008831378 0.999961 0
vn -0.05493452 0.99849 0
vn -0.008831388 0.999961 0
vn 0.03729055 0.9993045 0
vn 0.03729055 0.9993045 0
vn -0.008831378 0.999961 0
vn 0.008831988 -0.999961 0
vn 0.00883202 -0.999961 0
vn -0.03728994 -0.9993045 0
vn -0.03728994 -0.9993045 0
vn 0 -1.50915E-07 1
vn -3.056875E-07 0 1
vn -3.056875E-07 0 1
vn 0 -1.531109E-07 1
vn 3.278426E-07 -3.034876E-07 1
vn 3.278426E-07 -3.034876E-07 1
vn 3.278426E-07 -3.034876E-07 1
vn 0 1.27732E-07 -1
vn 3.2706E-07 2.568671E-07 -1
vn 3.2706E-07 2.568671E-07 -1
vn 0 1.306428E-07 -1
vn -3.056874E-07 0 -1
vn -3.056874E-07 0 -1
vn 0.05493515 -0.99849 0
vn 0.05493515 -0.99849 0
vn 0.00883202 -0.999961 0
vn 0.008831988 -0.999961 0
vn 1 -7.7906E-07 6.469982E-07
vn 1 -7.7906E-07 6.469982E-07
vn 1 -7.7906E-07 6.469982E-07
vn 1 -7.7906E-07 6.469982E-07
vn 0.05493454 -0.99849 0
vn 0.008831402 -0.999961 0
vn 0.05493454 -0.99849 0
vn 0.008831395 -0.999961 0
vn -0.03729053 -0.9993045 0
vn -0.03729053 -0.9993045 0
vn 0.05493456 -0.99849 0
vn 0.008831409 -0.999961 0
vn 0.05493456 -0.99849 0
vn 0.008831401 -0.999961 0
vn -0.03729054 -0.9993045 0
vn -0.03729054 -0.9993045 0
vn 0.008831409 -0.999961 0
vn 0.05493453 -0.99849 0
vn 0.0088314 -0.999961 0
vn 0.05493453 -0.99849 0
vn 0.008831395 -0.999961 0
vn -0.03729053 -0.9993045 0
vn -0.03729053 -0.9993045 0
vn 0.05493454 -0.99849 0
vn 0.008831414 -0.999961 0
vn 0.05493454 -0.99849 0
vn 0.008831405 -0.999961 0
vn -0.03729051 -0.9993045 0
vn -0.03729051 -0.9993045 0
vn 0.008831414 -0.999961 0
vn 0.05493452 -0.99849 0
vn 0.05493452 -0.99849 0
vn 0.008831384 -0.999961 0
vn 0.008831395 -0.999961 0
vn -0.03729053 -0.9993045 0
vn -0.03729053 -0.9993045 0
vn 0.05493451 -0.99849 0
vn 0.05493451 -0.99849 0
vn 0.008831372 -0.999961 0
vn 0.008831384 -0.999961 0
vn 0.008831372 -0.999961 0
vn -0.03729055 -0.9993045 0
vn -0.03729055 -0.9993045 0
g Canopy_2B_Top_0
f 3/3/3 2/2/2 1/1/1
f 4/4/4 3/3/3 1/1/1
f 7/7/7 6/6/6 5/5/5
f 6/6/6 8/8/8 5/5/5
f 5/5/5 8/8/8 9/9/9
f 9/9/9 10/10/10 5/5/5
f 9/9/9 11/11/11 10/10/10
f 14/14/14 13/13/13 12/12/12
f 13/13/13 15/15/15 12/12/12
f 12/12/12 15/15/15 16/16/16
f 15/15/15 17/17/17 16/16/16
f 20/20/20 19/19/19 18/18/18
f 21/21/21 20/20/20 18/18/18
f 24/24/24 23/23/23 22/22/22
f 25/25/25 24/24/24 22/22/22
f 28/28/28 27/27/27 26/26/26
f 29/29/29 28/28/28 26/26/26
f 32/32/32 31/31/31 30/30/30
f 33/33/33 32/32/32 30/30/30
f 36/36/36 35/35/35 34/34/34
f 37/37/37 36/36/36 34/34/34
f 38/38/38 36/36/36 37/37/37
f 39/39/39 38/38/38 37/37/37
f 42/42/42 41/41/41 40/40/40
f 43/43/43 42/42/42 40/40/40
f 45/45/45 44/44/44 43/43/43
f 46/46/46 45/45/45 43/43/43
f 49/49/49 48/48/48 47/47/47
f 50/50/50 49/49/49 47/47/47
f 53/53/53 52/52/52 51/51/51
f 54/54/54 53/53/53 51/51/51
f 57/57/57 56/56/56 55/55/55
f 58/58/58 57/57/57 55/55/55
f 59/59/59 57/57/57 58/58/58
f 60/60/60 59/59/59 58/58/58
f 63/63/63 62/62/62 61/61/61
f 64/64/64 63/63/63 61/61/61
f 66/66/66 65/65/65 64/64/64
f 67/67/67 66/66/66 64/64/64
f 70/70/70 69/69/69 68/68/68
f 71/71/71 70/70/70 68/68/68
f 74/74/74 73/73/73 72/72/72
f 75/75/75 74/74/74 72/72/72
f 78/78/78 77/77/77 76/76/76
f 77/77/77 79/79/79 76/76/76
f 77/77/77 80/80/80 79/79/79
f 80/80/80 81/81/81 79/79/79
f 84/84/84 83/83/83 82/82/82
f 83/83/83 85/85/85 82/82/82
f 87/87/87 86/86/86 85/85/85
f 88/88/88 87/87/87 85/85/85
f 91/91/91 90/90/90 89/89/89
f 92/92/92 91/91/91 89/89/89
f 95/95/95 94/94/94 93/93/93
f 96/96/96 95/95/95 93/93/93
f 97/97/97 96/96/96 93/93/93
f 93/93/93 98/98/98 97/97/97
f 98/98/98 99/99/99 97/97/97
f 102/102/102 101/101/101 100/100/100
f 103/103/103 102/102/102 100/100/100
f 103/103/103 100/100/100 104/104/104
f 105/105/105 103/103/103 104/104/104
f 108/108/108 107/107/107 106/106/106
f 109/109/109 108/108/108 106/106/106
f 112/112/112 111/111/111 110/110/110
f 113/113/113 112/112/112 110/110/110
f 116/116/116 115/115/115 114/114/114
f 115/115/115 117/117/117 114/114/114
f 115/115/115 118/118/118 117/117/117
f 118/118/118 119/119/119 117/117/117
f 122/122/122 121/121/121 120/120/120
f 121/121/121 123/123/123 120/120/120
f 125/125/125 124/124/124 123/123/123
f 126/126/126 125/125/125 123/123/123
f 129/129/129 128/128/128 127/127/127
f 128/128/128 130/130/130 127/127/127
f 128/128/128 131/131/131 130/130/130
f 131/131/131 132/132/132 130/130/130
f 135/135/135 134/134/134 133/133/133
f 134/134/134 136/136/136 133/133/133
f 138/138/138 137/137/137 136/136/136
f 139/139/139 138/138/138 136/136/136
f 142/142/142 141/141/141 140/140/140
f 143/143/143 142/142/142 140/140/140
f 144/144/144 142/142/142 143/143/143
f 145/145/145 144/144/144 143/143/143
f 148/148/148 147/147/147 146/146/146
f 149/149/149 148/148/148 146/146/146
f 151/151/151 150/150/150 149/149/149
f 152/152/152 151/151/151 149/149/149
