g default
v -1.090842 0.007902 2.058009
v -1.751466 0.007902 -0.153114
v -1.751466 0.007902 2.058009
v -1.090842 0.007902 -0.153114
v -1.104102 0.448089 -0.131682
v -1.738203 0.448089 -0.131682
v -1.738203 0.448089 2.036577
v -1.751466 0.007902 2.058009
v -1.751466 0.007902 -0.153114
v -1.104102 0.448089 2.036577
v -1.090842 0.007902 -0.153114
v -1.090842 0.007902 2.058009
v -1.090842 0.007902 2.058009
v -1.751466 0.007902 2.058009
v 1.090839 0.007902 2.058009
v 1.751466 0.007902 2.058009
v 1.751466 0.007902 -0.153114
v 1.090839 0.007902 -0.153114
v 1.104102 0.448089 -0.131682
v 1.738203 0.448089 -0.131682
v 1.738203 0.448089 2.036577
v 1.751466 0.007902 2.058009
v 1.751466 0.007902 -0.153114
v 1.104102 0.448089 2.036577
v 1.090839 0.007902 -0.153114
v 1.090839 0.007902 2.058009
v 1.090839 0.007902 2.058009
v 1.751466 0.007902 2.058009
vt 0.720743 0.565514
vt 0.770546 0.732206
vt 0.770546 0.565514
vt 0.720743 0.732206
vt 0.721743 0.76543
vt 0.769547 0.76543
vt 0.769547 0.928891
vt 0.802746 0.930507
vt 0.802746 0.763815
vt 0.721743 0.928891
vt 0.688543 0.763815
vt 0.688543 0.930507
vt 0.720743 0.962115
vt 0.770546 0.962115
vt 0.834946 0.962115
vt 0.88475 0.962115
vt 0.88475 0.795423
vt 0.834946 0.795423
vt 0.835946 0.762199
vt 0.88375 0.762199
vt 0.88375 0.598738
vt 0.91695 0.597122
vt 0.91695 0.763815
vt 0.835946 0.598738
vt 0.802746 0.763815
vt 0.802746 0.597122
vt 0.834946 0.565514
vt 0.88475 0.565514
vn 0.5841284 -0.556627 0.5907286
vn -0.5841284 -0.556627 -0.5907286
vn -0.5841284 -0.556627 0.5907286
vn 0.5841284 -0.556627 -0.5907286
vn 0.570223 0.5979241 -0.5633227
vn -0.570223 0.5979241 -0.5633227
vn -0.570223 0.5979241 0.5633227
vn -0.5841284 -0.556627 0.5907286
vn -0.5841284 -0.556627 -0.5907286
vn 0.570223 0.5979241 0.5633227
vn 0.5841284 -0.556627 -0.5907286
vn 0.5841284 -0.556627 0.5907286
vn 0.5841284 -0.556627 0.5907286
vn -0.5841284 -0.556627 0.5907286
vn -0.5841284 -0.556627 0.5907286
vn 0.5841284 -0.556627 0.5907286
vn 0.5841284 -0.556627 -0.5907286
vn -0.5841284 -0.556627 -0.5907286
vn -0.570223 0.5979241 -0.5633227
vn 0.570223 0.5979241 -0.5633227
vn 0.570223 0.5979241 0.5633227
vn 0.5841284 -0.556627 0.5907286
vn 0.5841284 -0.556627 -0.5907286
vn -0.570223 0.5979241 0.5633227
vn -0.5841284 -0.556627 -0.5907286
vn -0.5841284 -0.556627 0.5907286
vn -0.5841284 -0.556627 0.5907286
vn 0.5841284 -0.556627 0.5907286
g default_0
f 3/3/3 2/2/2 1/1/1
f 2/2/2 4/4/4 1/1/1
f 5/5/5 4/4/4 2/2/2
f 6/6/6 5/5/5 2/2/2
f 5/5/5 6/6/6 7/7/7
f 7/7/7 6/6/6 8/8/8
f 6/6/6 9/9/9 8/8/8
f 10/10/10 5/5/5 7/7/7
f 5/5/5 10/10/10 11/11/11
f 10/10/10 12/12/12 11/11/11
f 10/10/10 7/7/7 13/13/13
f 7/7/7 14/14/14 13/13/13
f 17/17/17 16/16/16 15/15/15
f 18/18/18 17/17/17 15/15/15
f 18/18/18 19/19/19 17/17/17
f 19/19/19 20/20/20 17/17/17
f 20/20/20 19/19/19 21/21/21
f 20/20/20 21/21/21 22/22/22
f 23/23/23 20/20/20 22/22/22
f 19/19/19 24/24/24 21/21/21
f 24/24/24 19/19/19 25/25/25
f 26/26/26 24/24/24 25/25/25
f 21/21/21 24/24/24 27/27/27
f 28/28/28 21/21/21 27/27/27
