g default
v -2.03386 0.609776 1.146538
v -2.03386 0.609776 1.129892
v 0.717942 0.609776 1.12989
v 0.717942 0.609776 1.146536
v -2.095382 0.514128 1.145814
v 0.779464 0.514128 1.145812
v -2.095382 0.514128 1.08488
v 0.81359 0.548254 1.145812
v 0.779464 0.514128 1.084878
v 0.81359 0.548254 1.084878
v -2.03386 0.609776 1.129892
v -2.03386 3.361578 1.129892
v 0.717942 3.361578 1.12989
v 0.717942 0.609776 1.12989
v -2.03386 3.361578 1.146536
v -2.03386 3.361578 1.129892
v -2.03386 0.609776 1.129892
v -2.03386 0.609776 1.146538
v -2.129508 3.423098 1.145814
v -2.129508 0.548254 1.145814
v -2.095382 0.514128 1.145814
v -2.129508 3.423098 1.08488
v -2.095382 0.514128 1.08488
v -2.129508 0.548254 1.08488
v 0.717942 0.609776 1.146536
v 0.717942 0.609776 1.12989
v 0.717942 3.361578 1.12989
v 0.717942 3.361578 1.146536
v 0.81359 0.548254 1.145812
v 0.81359 3.423098 1.145812
v 0.779464 3.457226 1.145812
v 0.81359 0.548254 1.084878
v 0.779464 3.457226 1.084878
v 0.81359 3.423098 1.084878
v 0.717942 3.361578 1.146536
v 0.717942 3.361578 1.12989
v -2.03386 3.361578 1.129892
v -2.03386 3.361578 1.146536
v 0.779464 3.457226 1.145812
v -2.095382 3.457226 1.145814
v 0.779464 3.457226 1.084878
v -2.129508 3.423098 1.145814
v -2.095382 3.457226 1.08488
v -2.129508 3.423098 1.08488
vt 0.020367 0.922769
vt 0.020513 0.936633
vt 0.814912 0.932853
vt 0.814767 0.918989
vt 0.00018 0.891394
vt 0.825983 0.89089
vt 0.000179 0.873807
vt 0.838468 0.895989
vt 0.82994 0.873808
vt 0.844023 0.878208
vt 0.000179 0.00018
vt 0.00018 0.873448
vt 0.873449 0.873448
vt 0.873449 0.000179
vt 0.922771 0.823835
vt 0.936635 0.823689
vt 0.932852 0.029289
vt 0.918988 0.029435
vt 0.891395 0.844023
vt 0.89089 0.018219
vt 0.895989 0.005735
vt 0.873808 0.844023
vt 0.878208 0.000179
vt 0.873809 0.014262
vt 0.950858 0.020368
vt 0.936994 0.020513
vt 0.940776 0.814913
vt 0.954639 0.814767
vt 0.982234 0.000179
vt 0.982738 0.825984
vt 0.977639 0.838468
vt 0.999821 0.000179
vt 0.99542 0.844023
vt 0.99982 0.82994
vt 0.823835 0.950856
vt 0.82369 0.936992
vt 0.02929 0.940773
vt 0.029436 0.954637
vt 0.844023 0.982232
vt 0.018219 0.982736
vt 0.844023 0.999818
vt 0.005735 0.977637
vt 0.014262 0.999818
vt 0.000179 0.995418
vn 0.2986993 0.2986993 0.9063981
vn 0.5773503 0.5773503 0.5773503
vn -0.5773503 0.5773503 0.5773503
vn -0.2986993 0.2986993 0.9063981
vn -0.2978037 -0.7187088 0.6283078
vn 0.2978037 -0.7187088 0.6283078
vn -0.3826903 -0.9238766 0
vn 0.7187088 -0.2978037 0.6283078
vn 0.3826903 -0.9238766 0
vn 0.9238766 -0.3826903 0
vn 0.5773503 0.5773503 0.5773503
vn 0.5773503 -0.5773503 0.5773503
vn -0.5773503 -0.5773503 0.5773503
vn -0.5773503 0.5773503 0.5773503
vn 0.2986993 -0.2986993 0.9063981
vn 0.5773503 -0.5773503 0.5773503
vn 0.5773503 0.5773503 0.5773503
vn 0.2986993 0.2986993 0.9063981
vn -0.7187088 0.2978037 0.6283078
vn -0.7187088 -0.2978037 0.6283078
vn -0.2978037 -0.7187088 0.6283078
vn -0.9238766 0.3826903 0
vn -0.3826903 -0.9238766 0
vn -0.9238766 -0.3826903 0
vn -0.2986993 0.2986993 0.9063981
vn -0.5773503 0.5773503 0.5773503
vn -0.5773503 -0.5773503 0.5773503
vn -0.2986993 -0.2986993 0.9063981
vn 0.7187088 -0.2978037 0.6283078
vn 0.7187088 0.2978037 0.6283078
vn 0.2978037 0.7187088 0.6283078
vn 0.9238766 -0.3826903 0
vn 0.3826903 0.9238766 0
vn 0.9238766 0.3826903 0
vn -0.2986993 -0.2986993 0.9063981
vn -0.5773503 -0.5773503 0.5773503
vn 0.5773503 -0.5773503 0.5773503
vn 0.2986993 -0.2986993 0.9063981
vn 0.2978037 0.7187088 0.6283078
vn -0.2978037 0.7187088 0.6283078
vn 0.3826903 0.9238766 0
vn -0.7187088 0.2978037 0.6283078
vn -0.3826903 0.9238766 0
vn -0.9238766 0.3826903 0
g default_0
f 3/3/3 2/2/2 1/1/1
f 4/4/4 3/3/3 1/1/1
f 4/4/4 1/1/1 5/5/5
f 6/6/6 4/4/4 5/5/5
f 6/6/6 5/5/5 7/7/7
f 8/8/8 4/4/4 6/6/6
f 9/9/9 6/6/6 7/7/7
f 10/10/10 8/8/8 6/6/6
f 9/9/9 10/10/10 6/6/6
f 13/13/13 12/12/12 11/11/11
f 14/14/14 13/13/13 11/11/11
f 17/17/17 16/16/16 15/15/15
f 18/18/18 17/17/17 15/15/15
f 15/15/15 19/19/19 18/18/18
f 19/19/19 20/20/20 18/18/18
f 18/18/18 20/20/20 21/21/21
f 19/19/19 22/22/22 20/20/20
f 21/21/21 20/20/20 23/23/23
f 22/22/22 24/24/24 20/20/20
f 20/20/20 24/24/24 23/23/23
f 27/27/27 26/26/26 25/25/25
f 28/28/28 27/27/27 25/25/25
f 25/25/25 29/29/29 28/28/28
f 29/29/29 30/30/30 28/28/28
f 28/28/28 30/30/30 31/31/31
f 30/30/30 29/29/29 32/32/32
f 31/31/31 30/30/30 33/33/33
f 34/34/34 30/30/30 32/32/32
f 30/30/30 34/34/34 33/33/33
f 37/37/37 36/36/36 35/35/35
f 38/38/38 37/37/37 35/35/35
f 38/38/38 35/35/35 39/39/39
f 40/40/40 38/38/38 39/39/39
f 40/40/40 39/39/39 41/41/41
f 40/40/40 42/42/42 38/38/38
f 43/43/43 40/40/40 41/41/41
f 44/44/44 42/42/42 40/40/40
f 43/43/43 44/44/44 40/40/40
