g default
v -3.351586 2.90353 0.77889
v -3.356802 2.90353 1.078724
v -3.180922 2.950656 1.078724
v -3.17527 2.950656 0.778904
v -3.154016 2.90353 0.398714
v -3.05217 3.07941 1.078724
v -3.02987 2.950656 0.522878
v -2.737584 2.90353 0.251492
v -3.045852 3.07941 0.779096
v -3.005042 3.25529 1.078724
v -2.998316 3.25529 0.779342
v -3.05217 3.43117 1.078724
v -2.939266 3.07941 0.613656
v -2.737588 2.950656 0.427262
v -3.045852 3.43117 0.779096
v -3.180922 3.559924 1.078724
v -2.90629 3.25529 0.646822
v -3.17527 3.559924 0.778904
v -3.356802 3.60705 1.078724
v -2.425636 2.950656 0.423058
v -2.425636 2.90353 0.247176
v -2.425636 2.829572 0.247176
v -2.737616 3.07941 0.555856
v -2.939266 3.43117 0.613656
v -3.351586 3.60705 0.77889
v -3.532682 3.559924 1.078724
v -2.425636 3.07941 0.55181
v -2.425636 2.886608 0.460036
v -2.353492 2.829572 0.247176
v -2.353492 2.886608 0.460036
v -2.425636 3.04243 0.61586
v -2.353492 3.04243 0.61586
v -2.425636 3.25529 0.598938
v -2.425636 3.25529 0.672896
v -2.353492 3.25529 0.672896
v -2.73765 3.25529 0.602884
v -2.425636 3.43117 0.55181
v -2.425636 3.46815 0.61586
v -2.353492 3.46815 0.61586
v -2.737616 3.43117 0.555856
v -2.425636 3.559924 0.423058
v -2.425636 3.623974 0.460036
v -2.353492 3.623974 0.460036
v -3.02987 3.559924 0.522878
v -2.737588 3.559924 0.42726
v -2.425636 3.60705 0.247176
v -2.425636 3.681008 0.247176
v -2.353492 3.681008 0.247176
v -3.154016 3.60705 0.398714
v -2.737584 3.60705 0.251492
v -2.425636 3.559924 0.071296
v -2.425636 3.623974 0.034318
v -2.353492 3.623974 0.034318
v -3.527684 3.559924 0.778882
v -3.661436 3.43117 1.078724
v -3.27827 3.559924 0.27445
v -3.656528 3.43117 0.778862
v -3.708564 3.25529 1.078724
v -2.737584 3.559924 0.075672
v -2.425636 3.43117 -0.057456
v -2.425636 3.46815 -0.121506
v -2.353492 3.46815 -0.121506
v -3.369248 3.43117 0.18344
v -3.70368 3.25529 0.77885
v -3.661436 3.07941 1.078724
v -2.737578 3.43117 -0.053056
v -2.425636 3.25529 -0.104584
v -2.425636 3.25529 -0.178542
v -2.353492 3.25529 -0.178542
v -3.40255 3.25529 0.150122
v -3.656528 3.07941 0.778862
v -3.532682 2.950656 1.078724
v -2.737576 3.25529 -0.100174
v -2.425636 3.07941 -0.057456
v -2.425636 3.04243 -0.121506
v -2.353492 3.04243 -0.121506
v -3.369248 3.07941 0.18344
v -3.527684 2.950656 0.778882
v -3.356802 2.90353 1.078724
v -3.351586 2.90353 0.77889
v -3.27827 2.950656 0.27445
v -3.154016 2.90353 0.398714
v -2.737578 3.07941 -0.053056
v -2.737584 2.950656 0.075672
v -2.737584 2.90353 0.251492
v -2.425636 2.90353 0.247176
v -2.425636 2.950656 0.071296
v -2.425636 2.886608 0.034318
v -2.425636 2.829572 0.247176
v -2.353492 2.886608 0.034318
v -2.353492 2.829572 0.247176
v -3.351586 1.809832 0.77889
v -3.356802 1.809832 1.078724
v -3.180922 1.85696 1.078724
v -3.17527 1.85696 0.778904
v -3.154016 1.809832 0.398714
v -3.05217 1.985712 1.078724
v -3.02987 1.85696 0.522878
v -2.737584 1.809832 0.251492
v -3.045852 1.985712 0.779096
v -3.005042 2.161592 1.078724
v -2.998316 2.161592 0.779342
v -3.05217 2.337474 1.078724
v -2.939266 1.985712 0.613656
v -2.737588 1.85696 0.42726
v -3.045852 2.337474 0.779096
v -3.180922 2.466226 1.078724
v -2.90629 2.161592 0.646822
v -3.17527 2.466226 0.778904
v -3.356802 2.513354 1.078724
v -2.425636 1.85696 0.423056
v -2.425636 1.809832 0.247176
v -2.425636 1.735874 0.247176
v -2.737616 1.985712 0.555854
v -2.939266 2.337474 0.613656
v -3.351586 2.513354 0.77889
v -3.532682 2.466226 1.078724
v -2.425636 1.985712 0.55181
v -2.425636 1.79291 0.460036
v -2.353492 1.735874 0.247176
v -2.353492 1.79291 0.460036
v -2.425636 1.948734 0.61586
v -2.353492 1.948734 0.61586
v -2.425636 2.161592 0.598938
v -2.425636 2.161592 0.672896
v -2.353492 2.161592 0.672896
v -2.73765 2.161592 0.602884
v -2.425636 2.337474 0.55181
v -2.425636 2.374452 0.61586
v -2.353492 2.374452 0.61586
v -2.737616 2.337474 0.555854
v -2.425636 2.466226 0.423056
v -2.425636 2.530276 0.460036
v -2.353492 2.530276 0.460036
v -3.02987 2.466226 0.522878
v -2.737588 2.466226 0.42726
v -2.425636 2.513354 0.247176
v -2.425636 2.587312 0.247176
v -2.353492 2.587312 0.247176
v -3.154016 2.513354 0.398714
v -2.737584 2.513354 0.251492
v -2.425636 2.466226 0.071296
v -2.425636 2.530276 0.034318
v -2.353492 2.530276 0.034318
v -3.527684 2.466226 0.778882
v -3.661436 2.337472 1.078724
v -3.27827 2.466226 0.27445
v -3.656528 2.337472 0.778862
v -3.708564 2.161592 1.078724
v -2.737584 2.466226 0.075672
v -2.425636 2.337472 -0.057456
v -2.425636 2.374452 -0.121506
v -2.353492 2.374452 -0.121506
v -3.369248 2.337474 0.18344
v -3.70368 2.161592 0.77885
v -3.661436 1.985712 1.078724
v -2.737578 2.337474 -0.053056
v -2.425636 2.161592 -0.104584
v -2.425636 2.161592 -0.178542
v -2.353492 2.161592 -0.178542
v -3.40255 2.161592 0.150122
v -3.656528 1.985712 0.778862
v -3.532682 1.85696 1.078724
v -2.737576 2.161592 -0.100174
v -2.425636 1.985712 -0.057456
v -2.425636 1.948734 -0.121506
v -2.353492 1.948734 -0.121506
v -3.369248 1.985712 0.18344
v -3.527684 1.85696 0.778882
v -3.356802 1.809832 1.078724
v -3.351586 1.809832 0.77889
v -3.27827 1.85696 0.27445
v -3.154016 1.809832 0.398714
v -2.737578 1.985712 -0.053056
v -2.737584 1.85696 0.075672
v -2.737584 1.809832 0.251492
v -2.425636 1.809832 0.247176
v -2.425636 1.85696 0.071296
v -2.425636 1.79291 0.034318
v -2.425636 1.735874 0.247176
v -2.353492 1.79291 0.034318
v -2.353492 1.735874 0.247176
vt 0.433091 0.640855
vt 0.502221 0.600735
vt 0.477159 0.559174
vt 0.400874 0.599826
vt 0.324099 0.680039
vt 0.456105 0.517088
vt 0.312535 0.629735
vt 0.209877 0.682472
vt 0.369688 0.548512
vt 0.44392 0.474113
vt 0.351601 0.485195
vt 0.445829 0.429451
vt 0.298989 0.566875
vt 0.216216 0.633387
vt 0.353319 0.419127
vt 0.45696 0.383257
vt 0.287813 0.493393
vt 0.371144 0.361053
vt 0.472725 0.336074
vt 0.118411 0.638919
vt 0.131591 0.692055
vt 0.11186 0.703043
vt 0.220221 0.572827
vt 0.279253 0.418853
vt 0.392513 0.312406
vt 0.488111 0.287083
vt 0.109474 0.581267
vt 0.096841 0.642633
vt 0.091857 0.707749
vt 0.077481 0.646649
vt 0.088201 0.583981
vt 0.068826 0.587318
vt 0.098435 0.523632
vt 0.079265 0.527269
vt 0.060129 0.531325
vt 0.215242 0.503681
vt 0.087836 0.464886
vt 0.066153 0.470554
vt 0.046471 0.475734
vt 0.199494 0.434272
vt 0.0741 0.403941
vt 0.050067 0.409944
vt 0.029599 0.415396
vt 0.276777 0.353313
vt 0.176996 0.372552
vt 0.057731 0.344853
vt 0.035841 0.348842
vt 0.015426 0.353244
vt 0.27677 0.301206
vt 0.154646 0.319547
vt 0.046717 0.287585
vt 0.025638 0.289685
vt 0.005631 0.292381
vt 0.410446 0.268637
vt 0.498821 0.235941
vt 0.277562 0.258531
vt 0.422107 0.226082
vt 0.502221 0.183811
vt 0.137634 0.272208
vt 0.041345 0.231795
vt 0.021025 0.231925
vt 0.001499 0.232702
vt 0.278611 0.220435
vt 0.426567 0.18362
vt 0.499467 0.131268
vt 0.127958 0.227126
vt 0.041378 0.177351
vt 0.02273 0.175871
vt 0.003143 0.174797
vt 0.279703 0.184009
vt 0.421917 0.141103
vt 0.489115 0.079079
vt 0.125967 0.182763
vt 0.050045 0.12326
vt 0.028654 0.119074
vt 0.009091 0.115681
vt 0.278841 0.147687
vt 0.4097 0.098399
vt 0.473537 0.028245
vt 0.390327 0.05458
vt 0.277799 0.109908
vt 0.276516 0.06769
vt 0.13209 0.138764
vt 0.144887 0.096305
vt 0.163535 0.053568
vt 0.083992 0.023283
vt 0.06241 0.070298
vt 0.044186 0.063418
vt 0.069581 0.010644
vt 0.02522 0.056854
vt 0.050496 0.001499
vt 0.927666 0.64164
vt 0.998501 0.600612
vt 0.972869 0.558026
vt 0.894761 0.599403
vt 0.815307 0.681705
vt 0.951391 0.515002
vt 0.803763 0.629552
vt 0.696369 0.683409
vt 0.863212 0.546618
vt 0.939047 0.471304
vt 0.845488 0.481839
vt 0.941041 0.42624
vt 0.790638 0.564548
vt 0.70385 0.632097
vt 0.8481 0.415085
vt 0.952282 0.380081
vt 0.780564 0.488994
vt 0.866753 0.357193
vt 0.968147 0.333278
vt 0.600717 0.635511
vt 0.613306 0.69212
vt 0.592069 0.703318
vt 0.709445 0.56912
vt 0.773551 0.413217
vt 0.88866 0.309077
vt 0.983682 0.284903
vt 0.593625 0.574211
vt 0.577679 0.638786
vt 0.57068 0.707829
vt 0.5569 0.642497
vt 0.57062 0.575948
vt 0.549537 0.578614
vt 0.586794 0.512244
vt 0.563909 0.514054
vt 0.543253 0.516836
vt 0.706322 0.497319
vt 0.578055 0.450615
vt 0.555467 0.45314
vt 0.535179 0.45654
vt 0.692652 0.425912
vt 0.566946 0.390234
vt 0.545007 0.393256
vt 0.52503 0.396998
vt 0.772638 0.347624
vt 0.672313 0.363519
vt 0.555892 0.332033
vt 0.534648 0.334603
vt 0.51491 0.337866
vt 0.773852 0.295945
vt 0.652359 0.310606
vt 0.547747 0.27576
vt 0.527082 0.276952
vt 0.507492 0.278886
vt 0.906974 0.265936
vt 0.994666 0.234507
vt 0.775561 0.253805
vt 0.919006 0.224024
vt 0.998501 0.183149
vt 0.637386 0.263644
vt 0.544764 0.220934
vt 0.524606 0.220108
vt 0.50522 0.220095
vt 0.777367 0.216272
vt 0.923905 0.182183
vt 0.996308 0.131383
vt 0.629422 0.21921
vt 0.548178 0.167207
vt 0.528451 0.164222
vt 0.509449 0.162157
vt 0.779133 0.18045
vt 0.919824 0.14024
vt 0.986669 0.079903
vt 0.62889 0.175757
vt 0.55631 0.115102
vt 0.537731 0.110122
vt 0.519475 0.105939
vt 0.778906 0.144775
vt 0.908288 0.098056
vt 0.971888 0.029709
vt 0.889718 0.054721
vt 0.77842 0.107722
vt 0.777637 0.066331
vt 0.635788 0.133122
vt 0.648876 0.092342
vt 0.667176 0.051393
vt 0.591952 0.022475
vt 0.570576 0.066134
vt 0.553898 0.059046
vt 0.578865 0.010439
vt 0.536505 0.052345
vt 0.561336 0.001499
vn -0.03710196 -0.9991529 -0.01780094
vn -0.002899988 -0.9999958 9.999958E-05
vn 0.4969236 -0.8677412 0.009600457
vn 0.4547226 -0.8819438 0.1241062
vn -0.03919951 -0.9980875 -0.0477994
vn 0.8643909 -0.5024947 0.01809981
vn 0.2894059 -0.8894182 0.3538072
vn -0.01109974 -0.9995765 -0.02689937
vn 0.817157 -0.5167361 0.2554178
vn 0.9997624 0 0.02179918
vn 0.9494505 0 0.3139167
vn 0.8643909 0.5024947 0.01809981
vn 0.5103294 -0.5192299 0.6855395
vn 0.07919684 -0.8712652 0.4843807
vn 0.8171362 0.5167229 0.2555113
vn 0.4969236 0.8677412 0.009600457
vn 0.5779036 0 0.8161051
vn 0.4547226 0.8819438 0.1241062
vn -0.002899988 0.9999958 9.999958E-05
vn -0.7682073 -0.5550053 0.319103
vn -0.7702903 -0.637692 -0.001399982
vn -0.6532422 -0.757149 0
vn 0.1310046 -0.4978177 0.8573304
vn 0.5103294 0.5192299 0.6855395
vn -0.03710196 0.9991529 -0.01780094
vn -0.5018938 0.8648894 -0.008299897
vn -0.7667271 -0.3214113 0.5557196
vn -0.6532161 -0.6557162 0.3786093
vn 0 -1 0
vn 0 -0.8660191 0.500011
vn -0.6532161 -0.3786093 0.6557162
vn 0 -0.500011 0.8660191
vn -0.7662503 0 0.6425421
vn -0.6532422 0 0.757149
vn 0 0 1
vn 0.1431012 0 0.9897081
vn -0.7667271 0.3214113 0.5557196
vn -0.6532161 0.3786093 0.6557162
vn 0 0.500011 0.8660191
vn 0.1310046 0.4978177 0.8573304
vn -0.7682073 0.5550053 0.319103
vn -0.6532161 0.6557162 0.3786093
vn 0 0.8660191 0.500011
vn 0.2894059 0.8894182 0.3538072
vn 0.07919684 0.8712652 0.4843807
vn -0.7702903 0.637692 -0.001399982
vn -0.6532422 0.757149 0
vn 0 1 0
vn -0.03919951 0.9980875 -0.0477994
vn -0.01109974 0.9995765 -0.02689937
vn -0.7724625 0.5493444 -0.3186257
vn -0.6532161 0.6557162 -0.3786093
vn 0 0.8660191 -0.500011
vn -0.515283 0.846872 -0.1314957
vn -0.8665324 0.4989187 -0.01420053
vn -0.3644979 0.8377952 -0.4064977
vn -0.8536026 0.4810014 -0.2000006
vn -0.9998671 0 -0.01630109
vn -0.1013024 0.8486202 -0.5192124
vn -0.7740231 0.3159094 -0.5487163
vn -0.6532161 0.3786093 -0.6557162
vn 0 0.500011 -0.8660191
vn -0.594713 0.4732103 -0.6499142
vn -0.9749528 0 -0.222412
vn -0.8665324 -0.4989187 -0.01420053
vn -0.1607109 0.4808325 -0.8619583
vn -0.7746252 0 -0.6324206
vn -0.6532422 0 -0.757149
vn 0 0 -1
vn -0.6770955 0 -0.7358951
vn -0.8536026 -0.4810014 -0.2000006
vn -0.5018938 -0.8648894 -0.008299897
vn -0.1806101 0 -0.9835548
vn -0.7740231 -0.3159094 -0.5487163
vn -0.6532161 -0.3786093 -0.6557162
vn 0 -0.500011 -0.8660191
vn -0.594713 -0.4732103 -0.6499142
vn -0.515283 -0.846872 -0.1314957
vn -0.002899988 -0.9999958 9.999958E-05
vn -0.03710196 -0.9991529 -0.01780094
vn -0.3644979 -0.8377952 -0.4064977
vn -0.03919951 -0.9980875 -0.0477994
vn -0.1607109 -0.4808325 -0.8619583
vn -0.1013024 -0.8486202 -0.5192124
vn -0.01109974 -0.9995765 -0.02689937
vn -0.7702903 -0.637692 -0.001399982
vn -0.7724625 -0.5493444 -0.3186257
vn -0.6532161 -0.6557162 -0.3786093
vn -0.6532422 -0.757149 0
vn 0 -0.8660191 -0.500011
vn 0 -1 0
vn -0.03710196 -0.9991529 -0.01780094
vn -0.002899988 -0.9999958 9.999958E-05
vn 0.4969236 -0.8677412 0.009600457
vn 0.4547226 -0.8819438 0.1241062
vn -0.03919951 -0.9980875 -0.0477994
vn 0.8643909 -0.5024947 0.01809981
vn 0.2894059 -0.8894182 0.3538072
vn -0.01109974 -0.9995765 -0.02689937
vn 0.8171362 -0.5167229 0.2555113
vn 0.9997624 0 0.02179918
vn 0.9494505 0 0.3139167
vn 0.8643909 0.5024947 0.01809981
vn 0.5103294 -0.5192299 0.6855395
vn 0.07919684 -0.8712652 0.4843807
vn 0.817157 0.5167361 0.2554178
vn 0.4969236 0.8677412 0.009600457
vn 0.5779036 0 0.8161051
vn 0.4547226 0.8819438 0.1241062
vn -0.002899988 0.9999958 9.999958E-05
vn -0.7682073 -0.5550053 0.319103
vn -0.7702903 -0.637692 -0.001399982
vn -0.6532422 -0.757149 0
vn 0.1310046 -0.4978177 0.8573304
vn 0.5103294 0.5192299 0.6855395
vn -0.03710196 0.9991529 -0.01780094
vn -0.5018938 0.8648894 -0.008299897
vn -0.7667271 -0.3214113 0.5557196
vn -0.6532161 -0.6557162 0.3786093
vn 0 -1 0
vn 0 -0.8660191 0.500011
vn -0.6532161 -0.3786093 0.6557162
vn 0 -0.500011 0.8660191
vn -0.7662503 0 0.6425421
vn -0.6532422 0 0.757149
vn 0 0 1
vn 0.1431012 0 0.9897081
vn -0.7667271 0.3214113 0.5557196
vn -0.6532161 0.3786093 0.6557162
vn 0 0.500011 0.8660191
vn 0.1310046 0.4978177 0.8573304
vn -0.7682073 0.5550053 0.319103
vn -0.6532161 0.6557162 0.3786093
vn 0 0.8660191 0.500011
vn 0.2894059 0.8894182 0.3538072
vn 0.07919684 0.8712652 0.4843807
vn -0.7702903 0.637692 -0.001399982
vn -0.6532422 0.757149 0
vn 0 1 0
vn -0.03919951 0.9980875 -0.0477994
vn -0.01109974 0.9995765 -0.02689937
vn -0.7724625 0.5493444 -0.3186257
vn -0.6532161 0.6557162 -0.3786093
vn 0 0.8660191 -0.500011
vn -0.515283 0.846872 -0.1314957
vn -0.8665324 0.4989187 -0.01420053
vn -0.3644979 0.8377952 -0.4064977
vn -0.8536026 0.4810014 -0.2000006
vn -0.9998671 0 -0.01630109
vn -0.1013024 0.8486202 -0.5192124
vn -0.7740231 0.3159094 -0.5487163
vn -0.6532161 0.3786093 -0.6557162
vn 0 0.500011 -0.8660191
vn -0.594713 0.4732103 -0.6499142
vn -0.9749528 0 -0.222412
vn -0.8665324 -0.4989187 -0.01420053
vn -0.1607109 0.4808325 -0.8619583
vn -0.7746252 0 -0.6324206
vn -0.6532422 0 -0.757149
vn 0 0 -1
vn -0.6770955 0 -0.7358951
vn -0.8536026 -0.4810014 -0.2000006
vn -0.5018938 -0.8648894 -0.008299897
vn -0.1806101 0 -0.9835548
vn -0.7740231 -0.3159094 -0.5487163
vn -0.6532161 -0.3786093 -0.6557162
vn 0 -0.500011 -0.8660191
vn -0.594713 -0.4732103 -0.6499142
vn -0.515283 -0.846872 -0.1314957
vn -0.002899988 -0.9999958 9.999958E-05
vn -0.03710196 -0.9991529 -0.01780094
vn -0.3644979 -0.8377952 -0.4064977
vn -0.03919951 -0.9980875 -0.0477994
vn -0.1607109 -0.4808325 -0.8619583
vn -0.1013024 -0.8486202 -0.5192124
vn -0.01109974 -0.9995765 -0.02689937
vn -0.7702903 -0.637692 -0.001399982
vn -0.7724625 -0.5493444 -0.3186257
vn -0.6532161 -0.6557162 -0.3786093
vn -0.6532422 -0.757149 0
vn 0 -0.8660191 -0.500011
vn 0 -1 0
g default_0
f 3/3/3 2/2/2 1/1/1
f 4/4/4 3/3/3 1/1/1
f 4/4/4 1/1/1 5/5/5
f 6/6/6 3/3/3 4/4/4
f 7/7/7 4/4/4 5/5/5
f 7/7/7 5/5/5 8/8/8
f 9/9/9 6/6/6 4/4/4
f 9/9/9 4/4/4 7/7/7
f 10/10/10 6/6/6 9/9/9
f 11/11/11 10/10/10 9/9/9
f 12/12/12 10/10/10 11/11/11
f 13/13/13 9/9/9 7/7/7
f 11/11/11 9/9/9 13/13/13
f 14/14/14 7/7/7 8/8/8
f 13/13/13 7/7/7 14/14/14
f 15/15/15 12/12/12 11/11/11
f 16/16/16 12/12/12 15/15/15
f 17/17/17 11/11/11 13/13/13
f 15/15/15 11/11/11 17/17/17
f 18/18/18 16/16/16 15/15/15
f 19/19/19 16/16/16 18/18/18
f 14/14/14 8/8/8 20/20/20
f 8/8/8 21/21/21 20/20/20
f 21/21/21 22/22/22 20/20/20
f 23/23/23 13/13/13 14/14/14
f 17/17/17 13/13/13 23/23/23
f 24/24/24 15/15/15 17/17/17
f 18/18/18 15/15/15 24/24/24
f 25/25/25 19/19/19 18/18/18
f 26/26/26 19/19/19 25/25/25
f 14/14/14 20/20/20 27/27/27
f 23/23/23 14/14/14 27/27/27
f 22/22/22 28/28/28 20/20/20
f 20/20/20 28/28/28 27/27/27
f 22/22/22 29/29/29 28/28/28
f 29/29/29 30/30/30 28/28/28
f 28/28/28 30/30/30 31/31/31
f 28/28/28 31/31/31 27/27/27
f 30/30/30 32/32/32 31/31/31
f 23/23/23 27/27/27 33/33/33
f 27/27/27 31/31/31 33/33/33
f 31/31/31 32/32/32 34/34/34
f 31/31/31 34/34/34 33/33/33
f 32/32/32 35/35/35 34/34/34
f 36/36/36 23/23/23 33/33/33
f 36/36/36 17/17/17 23/23/23
f 24/24/24 17/17/17 36/36/36
f 33/33/33 34/34/34 37/37/37
f 36/36/36 33/33/33 37/37/37
f 34/34/34 35/35/35 38/38/38
f 34/34/34 38/38/38 37/37/37
f 35/35/35 39/39/39 38/38/38
f 40/40/40 24/24/24 36/36/36
f 40/40/40 36/36/36 37/37/37
f 37/37/37 38/38/38 41/41/41
f 40/40/40 37/37/37 41/41/41
f 38/38/38 39/39/39 42/42/42
f 38/38/38 42/42/42 41/41/41
f 39/39/39 43/43/43 42/42/42
f 44/44/44 24/24/24 40/40/40
f 44/44/44 18/18/18 24/24/24
f 25/25/25 18/18/18 44/44/44
f 45/45/45 40/40/40 41/41/41
f 45/45/45 44/44/44 40/40/40
f 41/41/41 42/42/42 46/46/46
f 45/45/45 41/41/41 46/46/46
f 42/42/42 43/43/43 47/47/47
f 42/42/42 47/47/47 46/46/46
f 43/43/43 48/48/48 47/47/47
f 49/49/49 25/25/25 44/44/44
f 49/49/49 44/44/44 45/45/45
f 50/50/50 45/45/45 46/46/46
f 50/50/50 49/49/49 45/45/45
f 46/46/46 47/47/47 51/51/51
f 50/50/50 46/46/46 51/51/51
f 47/47/47 48/48/48 52/52/52
f 47/47/47 52/52/52 51/51/51
f 48/48/48 53/53/53 52/52/52
f 54/54/54 25/25/25 49/49/49
f 54/54/54 26/26/26 25/25/25
f 55/55/55 26/26/26 54/54/54
f 56/56/56 49/49/49 50/50/50
f 56/56/56 54/54/54 49/49/49
f 57/57/57 55/55/55 54/54/54
f 57/57/57 54/54/54 56/56/56
f 58/58/58 55/55/55 57/57/57
f 59/59/59 50/50/50 51/51/51
f 59/59/59 56/56/56 50/50/50
f 51/51/51 52/52/52 60/60/60
f 59/59/59 51/51/51 60/60/60
f 52/52/52 53/53/53 61/61/61
f 52/52/52 61/61/61 60/60/60
f 53/53/53 62/62/62 61/61/61
f 63/63/63 57/57/57 56/56/56
f 63/63/63 56/56/56 59/59/59
f 64/64/64 58/58/58 57/57/57
f 64/64/64 57/57/57 63/63/63
f 65/65/65 58/58/58 64/64/64
f 66/66/66 59/59/59 60/60/60
f 66/66/66 63/63/63 59/59/59
f 60/60/60 61/61/61 67/67/67
f 66/66/66 60/60/60 67/67/67
f 61/61/61 62/62/62 68/68/68
f 61/61/61 68/68/68 67/67/67
f 62/62/62 69/69/69 68/68/68
f 70/70/70 64/64/64 63/63/63
f 70/70/70 63/63/63 66/66/66
f 71/71/71 65/65/65 64/64/64
f 71/71/71 64/64/64 70/70/70
f 72/72/72 65/65/65 71/71/71
f 73/73/73 66/66/66 67/67/67
f 73/73/73 70/70/70 66/66/66
f 67/67/67 68/68/68 74/74/74
f 73/73/73 67/67/67 74/74/74
f 68/68/68 69/69/69 75/75/75
f 68/68/68 75/75/75 74/74/74
f 69/69/69 76/76/76 75/75/75
f 77/77/77 71/71/71 70/70/70
f 77/77/77 70/70/70 73/73/73
f 78/78/78 72/72/72 71/71/71
f 78/78/78 71/71/71 77/77/77
f 79/79/79 72/72/72 78/78/78
f 80/80/80 79/79/79 78/78/78
f 80/80/80 78/78/78 81/81/81
f 81/81/81 78/78/78 77/77/77
f 82/82/82 80/80/80 81/81/81
f 83/83/83 77/77/77 73/73/73
f 83/83/83 73/73/73 74/74/74
f 81/81/81 77/77/77 83/83/83
f 82/82/82 81/81/81 84/84/84
f 84/84/84 81/81/81 83/83/83
f 85/85/85 82/82/82 84/84/84
f 85/85/85 84/84/84 86/86/86
f 83/83/83 74/74/74 87/87/87
f 84/84/84 83/83/83 87/87/87
f 84/84/84 87/87/87 86/86/86
f 74/74/74 75/75/75 87/87/87
f 87/87/87 88/88/88 86/86/86
f 75/75/75 88/88/88 87/87/87
f 75/75/75 76/76/76 88/88/88
f 88/88/88 89/89/89 86/86/86
f 76/76/76 90/90/90 88/88/88
f 88/88/88 90/90/90 89/89/89
f 90/90/90 91/91/91 89/89/89
f 94/94/94 93/93/93 92/92/92
f 95/95/95 94/94/94 92/92/92
f 95/95/95 92/92/92 96/96/96
f 97/97/97 94/94/94 95/95/95
f 98/98/98 95/95/95 96/96/96
f 98/98/98 96/96/96 99/99/99
f 100/100/100 97/97/97 95/95/95
f 100/100/100 95/95/95 98/98/98
f 101/101/101 97/97/97 100/100/100
f 102/102/102 101/101/101 100/100/100
f 103/103/103 101/101/101 102/102/102
f 104/104/104 100/100/100 98/98/98
f 102/102/102 100/100/100 104/104/104
f 105/105/105 98/98/98 99/99/99
f 104/104/104 98/98/98 105/105/105
f 106/106/106 103/103/103 102/102/102
f 107/107/107 103/103/103 106/106/106
f 108/108/108 102/102/102 104/104/104
f 106/106/106 102/102/102 108/108/108
f 109/109/109 107/107/107 106/106/106
f 110/110/110 107/107/107 109/109/109
f 105/105/105 99/99/99 111/111/111
f 99/99/99 112/112/112 111/111/111
f 112/112/112 113/113/113 111/111/111
f 114/114/114 104/104/104 105/105/105
f 108/108/108 104/104/104 114/114/114
f 115/115/115 106/106/106 108/108/108
f 109/109/109 106/106/106 115/115/115
f 116/116/116 110/110/110 109/109/109
f 117/117/117 110/110/110 116/116/116
f 105/105/105 111/111/111 118/118/118
f 114/114/114 105/105/105 118/118/118
f 113/113/113 119/119/119 111/111/111
f 111/111/111 119/119/119 118/118/118
f 113/113/113 120/120/120 119/119/119
f 120/120/120 121/121/121 119/119/119
f 119/119/119 121/121/121 122/122/122
f 119/119/119 122/122/122 118/118/118
f 121/121/121 123/123/123 122/122/122
f 114/114/114 118/118/118 124/124/124
f 118/118/118 122/122/122 124/124/124
f 122/122/122 123/123/123 125/125/125
f 122/122/122 125/125/125 124/124/124
f 123/123/123 126/126/126 125/125/125
f 127/127/127 114/114/114 124/124/124
f 127/127/127 108/108/108 114/114/114
f 115/115/115 108/108/108 127/127/127
f 124/124/124 125/125/125 128/128/128
f 127/127/127 124/124/124 128/128/128
f 125/125/125 126/126/126 129/129/129
f 125/125/125 129/129/129 128/128/128
f 126/126/126 130/130/130 129/129/129
f 131/131/131 115/115/115 127/127/127
f 131/131/131 127/127/127 128/128/128
f 128/128/128 129/129/129 132/132/132
f 131/131/131 128/128/128 132/132/132
f 129/129/129 130/130/130 133/133/133
f 129/129/129 133/133/133 132/132/132
f 130/130/130 134/134/134 133/133/133
f 135/135/135 115/115/115 131/131/131
f 135/135/135 109/109/109 115/115/115
f 116/116/116 109/109/109 135/135/135
f 136/136/136 131/131/131 132/132/132
f 136/136/136 135/135/135 131/131/131
f 132/132/132 133/133/133 137/137/137
f 136/136/136 132/132/132 137/137/137
f 133/133/133 134/134/134 138/138/138
f 133/133/133 138/138/138 137/137/137
f 134/134/134 139/139/139 138/138/138
f 140/140/140 116/116/116 135/135/135
f 140/140/140 135/135/135 136/136/136
f 141/141/141 136/136/136 137/137/137
f 141/141/141 140/140/140 136/136/136
f 137/137/137 138/138/138 142/142/142
f 141/141/141 137/137/137 142/142/142
f 138/138/138 139/139/139 143/143/143
f 138/138/138 143/143/143 142/142/142
f 139/139/139 144/144/144 143/143/143
f 145/145/145 116/116/116 140/140/140
f 145/145/145 117/117/117 116/116/116
f 146/146/146 117/117/117 145/145/145
f 147/147/147 140/140/140 141/141/141
f 147/147/147 145/145/145 140/140/140
f 148/148/148 146/146/146 145/145/145
f 148/148/148 145/145/145 147/147/147
f 149/149/149 146/146/146 148/148/148
f 150/150/150 141/141/141 142/142/142
f 150/150/150 147/147/147 141/141/141
f 142/142/142 143/143/143 151/151/151
f 150/150/150 142/142/142 151/151/151
f 143/143/143 144/144/144 152/152/152
f 143/143/143 152/152/152 151/151/151
f 144/144/144 153/153/153 152/152/152
f 154/154/154 148/148/148 147/147/147
f 154/154/154 147/147/147 150/150/150
f 155/155/155 149/149/149 148/148/148
f 155/155/155 148/148/148 154/154/154
f 156/156/156 149/149/149 155/155/155
f 157/157/157 150/150/150 151/151/151
f 157/157/157 154/154/154 150/150/150
f 151/151/151 152/152/152 158/158/158
f 157/157/157 151/151/151 158/158/158
f 152/152/152 153/153/153 159/159/159
f 152/152/152 159/159/159 158/158/158
f 153/153/153 160/160/160 159/159/159
f 161/161/161 155/155/155 154/154/154
f 161/161/161 154/154/154 157/157/157
f 162/162/162 156/156/156 155/155/155
f 162/162/162 155/155/155 161/161/161
f 163/163/163 156/156/156 162/162/162
f 164/164/164 157/157/157 158/158/158
f 164/164/164 161/161/161 157/157/157
f 158/158/158 159/159/159 165/165/165
f 164/164/164 158/158/158 165/165/165
f 159/159/159 160/160/160 166/166/166
f 159/159/159 166/166/166 165/165/165
f 160/160/160 167/167/167 166/166/166
f 168/168/168 162/162/162 161/161/161
f 168/168/168 161/161/161 164/164/164
f 169/169/169 163/163/163 162/162/162
f 169/169/169 162/162/162 168/168/168
f 170/170/170 163/163/163 169/169/169
f 171/171/171 170/170/170 169/169/169
f 171/171/171 169/169/169 172/172/172
f 172/172/172 169/169/169 168/168/168
f 173/173/173 171/171/171 172/172/172
f 174/174/174 168/168/168 164/164/164
f 174/174/174 164/164/164 165/165/165
f 172/172/172 168/168/168 174/174/174
f 173/173/173 172/172/172 175/175/175
f 175/175/175 172/172/172 174/174/174
f 176/176/176 173/173/173 175/175/175
f 176/176/176 175/175/175 177/177/177
f 174/174/174 165/165/165 178/178/178
f 175/175/175 174/174/174 178/178/178
f 175/175/175 178/178/178 177/177/177
f 165/165/165 166/166/166 178/178/178
f 178/178/178 179/179/179 177/177/177
f 166/166/166 179/179/179 178/178/178
f 166/166/166 167/167/167 179/179/179
f 179/179/179 180/180/180 177/177/177
f 167/167/167 181/181/181 179/179/179
f 179/179/179 181/181/181 180/180/180
f 181/181/181 182/182/182 180/180/180
