g default
v -1.924893 1.110609 0.031845
v -1.924893 1.110609 0.003183
v -1.830834 1.071648 0.003183
v -1.830834 1.071648 0.031845
v -2.025834 1.123896 0.031845
v -1.750062 1.009668 0.003183
v -1.750062 1.009668 0.031845
v -2.025834 1.123896 0.003183
v -2.126772 1.110609 0.031845
v -1.688082 0.928896 0.003183
v -1.688082 0.928896 0.031845
v -2.126772 1.110609 0.003183
v -2.220834 1.071645 0.031845
v -1.649121 0.834837 0.003183
v -1.649121 0.834837 0.031845
v -2.220834 1.071645 0.003183
v -2.301606 1.009668 0.031845
v -1.635834 0.733896 0.003183
v -1.635834 0.733896 0.031845
v -2.301606 1.009668 0.003183
v -2.363583 0.928896 0.031845
v -1.649121 0.632958 0.003183
v -1.649121 0.632958 0.031845
v -2.363583 0.928896 0.003183
v -2.402544 0.834837 0.031845
v -1.688082 0.538896 0.003183
v -1.688082 0.538896 0.031845
v -2.402544 0.834837 0.003183
v -2.415834 0.733896 0.031845
v -1.750062 0.458124 0.003183
v -1.750062 0.458124 0.031845
v -2.415834 0.733896 0.003183
v -2.402544 0.632958 0.031845
v -1.830834 0.396147 0.003183
v -1.830834 0.396147 0.031845
v -2.402544 0.632958 0.003183
v -2.363583 0.538896 0.031845
v -1.924893 0.357186 0.003183
v -1.924893 0.357186 0.031845
v -2.363583 0.538896 0.003183
v -2.301606 0.458124 0.031845
v -2.025834 0.343896 0.003183
v -2.025834 0.343896 0.031845
v -2.301606 0.458124 0.003183
v -2.220834 0.396147 0.031845
v -2.126772 0.357186 0.003183
v -2.126772 0.357186 0.031845
v -2.220834 0.396147 0.003183
v -1.841991 0.41547 -0.010176
v -1.930668 0.378738 -0.010176
v -2.025834 0.733896 -0.010176
v -1.765839 0.473904 -0.010176
v -2.025834 0.36621 -0.010176
v -1.707408 0.550053 -0.010176
v -2.120997 0.378738 -0.010176
v -1.670676 0.638733 -0.010176
v -2.209677 0.41547 -0.010176
v -1.658148 0.733896 -0.010176
v -2.285826 0.473904 -0.010176
v -1.670676 0.829062 -0.010176
v -2.34426 0.550053 -0.010176
v -1.707408 0.917739 -0.010176
v -2.380992 0.638733 -0.010176
v -1.765839 0.993891 -0.010176
v -2.39352 0.733896 -0.010176
v -1.841991 1.052322 -0.010176
v -2.380992 0.829062 -0.010176
v -1.930668 1.089054 -0.010176
v -2.34426 0.917739 -0.010176
v -2.025834 1.101582 -0.010176
v -2.285826 0.993891 -0.010176
v -2.120997 1.089054 -0.010176
v -2.209677 1.052322 -0.010176
vt 0.392363 0.806356
vt 0.394515 0.805533
vt 0.392648 0.798139
vt 0.390456 0.798391
vt 0.39638 0.813766
vt 0.392759 0.790563
vt 0.390513 0.790265
vt 0.398312 0.812322
vt 0.402363 0.819773
vt 0.394774 0.783214
vt 0.392662 0.782345
vt 0.403782 0.817913
vt 0.409616 0.823965
vt 0.398617 0.776602
vt 0.396794 0.775215
vt 0.410494 0.821817
vt 0.41767 0.826122
vt 0.404044 0.771195
vt 0.402639 0.769382
vt 0.417959 0.823828
vt 0.425989 0.82612
vt 0.410689 0.76737
vt 0.4098 0.765254
vt 0.425675 0.823833
vt 0.434016 0.823967
vt 0.418101 0.765393
vt 0.41779 0.763118
vt 0.433121 0.821841
vt 0.441208 0.819813
vt 0.425776 0.765401
vt 0.426064 0.763121
vt 0.439794 0.817992
vt 0.447077 0.813942
vt 0.433191 0.767394
vt 0.434059 0.765266
vt 0.445241 0.81255
vt 0.451226 0.806755
vt 0.439839 0.77124
vt 0.441229 0.769408
vt 0.449092 0.805886
vt 0.453372 0.798743
vt 0.445268 0.776677
vt 0.447085 0.775267
vt 0.451087 0.798455
vt 0.453372 0.79045
vt 0.449106 0.783336
vt 0.451227 0.782443
vt 0.451092 0.790764
vt 0.43242 0.769225
vt 0.43862 0.772809
vt 0.421872 0.794554
vt 0.425506 0.767367
vt 0.443684 0.777878
vt 0.418349 0.767362
vt 0.447265 0.784086
vt 0.411437 0.769208
vt 0.449118 0.791012
vt 0.40524 0.772775
vt 0.449116 0.798185
vt 0.400179 0.777819
vt 0.447258 0.805114
vt 0.396591 0.783987
vt 0.443668 0.811329
vt 0.394704 0.790848
vt 0.43859 0.816406
vt 0.394607 0.797918
vt 0.432369 0.819996
vt 0.39637 0.804806
vt 0.425426 0.821854
vt 0.399931 0.811122
vt 0.418232 0.821849
vt 0.405029 0.816328
vt 0.411276 0.819971
vn 0.2588077 0.9659289 0
vn 0.2275081 0.8493304 -0.4763171
vn 0.4396017 0.761503 -0.4763019
vn 0.500011 0.8660191 0
vn 0 1 0
vn 0.6217362 0.6217362 -0.4763277
vn 0.7071068 0.7071068 0
vn 0 0.8792867 -0.4762928
vn -0.2588077 0.9659289 0
vn 0.761503 0.4396017 -0.4763019
vn 0.8660191 0.500011 0
vn -0.2275081 0.8493304 -0.4763171
vn -0.500011 0.8660191 0
vn 0.8493304 0.2275081 -0.4763171
vn 0.9659289 0.2588077 0
vn -0.4396017 0.761503 -0.4763019
vn -0.7071068 0.7071068 0
vn 0.8792867 0 -0.4762928
vn 1 0 0
vn -0.6217362 0.6217362 -0.4763277
vn -0.8660191 0.500011 0
vn 0.8493304 -0.2275081 -0.4763171
vn 0.9659289 -0.2588077 0
vn -0.761503 0.4396017 -0.4763019
vn -0.9659289 0.2588077 0
vn 0.761503 -0.4396017 -0.4763019
vn 0.8660191 -0.500011 0
vn -0.8493304 0.2275081 -0.4763171
vn -1 0 0
vn 0.6217362 -0.6217362 -0.4763277
vn 0.7071068 -0.7071068 0
vn -0.8792867 0 -0.4762928
vn -0.9659289 -0.2588077 0
vn 0.4396017 -0.761503 -0.4763019
vn 0.500011 -0.8660191 0
vn -0.8493304 -0.2275081 -0.4763171
vn -0.8660191 -0.500011 0
vn 0.2275081 -0.8493304 -0.4763171
vn 0.2588077 -0.9659289 0
vn -0.761503 -0.4396017 -0.4763019
vn -0.7071068 -0.7071068 0
vn 0 -0.8792867 -0.4762928
vn 0 -1 0
vn -0.6217362 -0.6217362 -0.4763277
vn -0.500011 -0.8660191 0
vn -0.2275081 -0.8493304 -0.4763171
vn -0.2588077 -0.9659289 0
vn -0.4396017 -0.761503 -0.4763019
vn 0.1434116 -0.2484201 -0.9579774
vn 0.0742051 -0.277119 -0.9579659
vn 0 0 -1
vn 0.2028175 -0.2028175 -0.9579824
vn 0 -0.2868249 -0.957983
vn 0.2484201 -0.1434116 -0.9579774
vn -0.0742051 -0.277119 -0.9579659
vn 0.277119 -0.0742051 -0.9579659
vn -0.1434116 -0.2484201 -0.9579774
vn 0.2868249 0 -0.957983
vn -0.2028175 -0.2028175 -0.9579824
vn 0.277119 0.0742051 -0.9579659
vn -0.2484201 -0.1434116 -0.9579774
vn 0.2484201 0.1434116 -0.9579774
vn -0.277119 -0.0742051 -0.9579659
vn 0.2028175 0.2028175 -0.9579824
vn -0.2868249 0 -0.957983
vn 0.1434116 0.2484201 -0.9579774
vn -0.277119 0.0742051 -0.9579659
vn 0.0742051 0.277119 -0.9579659
vn -0.2484201 0.1434116 -0.9579774
vn 0 0.2868249 -0.957983
vn -0.2028175 0.2028175 -0.9579824
vn -0.0742051 0.277119 -0.9579659
vn -0.1434116 0.2484201 -0.9579774
g default_0
f 3/3/3 2/2/2 1/1/1
f 4/4/4 3/3/3 1/1/1
f 1/1/1 2/2/2 5/5/5
f 6/6/6 3/3/3 4/4/4
f 7/7/7 6/6/6 4/4/4
f 2/2/2 8/8/8 5/5/5
f 5/5/5 8/8/8 9/9/9
f 10/10/10 6/6/6 7/7/7
f 11/11/11 10/10/10 7/7/7
f 8/8/8 12/12/12 9/9/9
f 9/9/9 12/12/12 13/13/13
f 14/14/14 10/10/10 11/11/11
f 15/15/15 14/14/14 11/11/11
f 12/12/12 16/16/16 13/13/13
f 13/13/13 16/16/16 17/17/17
f 18/18/18 14/14/14 15/15/15
f 19/19/19 18/18/18 15/15/15
f 16/16/16 20/20/20 17/17/17
f 17/17/17 20/20/20 21/21/21
f 22/22/22 18/18/18 19/19/19
f 23/23/23 22/22/22 19/19/19
f 20/20/20 24/24/24 21/21/21
f 21/21/21 24/24/24 25/25/25
f 26/26/26 22/22/22 23/23/23
f 27/27/27 26/26/26 23/23/23
f 24/24/24 28/28/28 25/25/25
f 25/25/25 28/28/28 29/29/29
f 30/30/30 26/26/26 27/27/27
f 31/31/31 30/30/30 27/27/27
f 28/28/28 32/32/32 29/29/29
f 29/29/29 32/32/32 33/33/33
f 34/34/34 30/30/30 31/31/31
f 35/35/35 34/34/34 31/31/31
f 32/32/32 36/36/36 33/33/33
f 33/33/33 36/36/36 37/37/37
f 38/38/38 34/34/34 35/35/35
f 39/39/39 38/38/38 35/35/35
f 36/36/36 40/40/40 37/37/37
f 37/37/37 40/40/40 41/41/41
f 42/42/42 38/38/38 39/39/39
f 43/43/43 42/42/42 39/39/39
f 40/40/40 44/44/44 41/41/41
f 41/41/41 44/44/44 45/45/45
f 46/46/46 42/42/42 43/43/43
f 47/47/47 46/46/46 43/43/43
f 45/45/45 48/48/48 47/47/47
f 44/44/44 48/48/48 45/45/45
f 48/48/48 46/46/46 47/47/47
f 49/49/49 34/34/34 38/38/38
f 50/50/50 38/38/38 42/42/42
f 50/50/50 49/49/49 38/38/38
f 51/51/51 49/49/49 50/50/50
f 49/49/49 52/52/52 34/34/34
f 51/51/51 52/52/52 49/49/49
f 52/52/52 30/30/30 34/34/34
f 53/53/53 50/50/50 42/42/42
f 53/53/53 42/42/42 46/46/46
f 51/51/51 50/50/50 53/53/53
f 52/52/52 54/54/54 30/30/30
f 51/51/51 54/54/54 52/52/52
f 54/54/54 26/26/26 30/30/30
f 55/55/55 53/53/53 46/46/46
f 55/55/55 46/46/46 48/48/48
f 51/51/51 53/53/53 55/55/55
f 54/54/54 56/56/56 26/26/26
f 51/51/51 56/56/56 54/54/54
f 56/56/56 22/22/22 26/26/26
f 57/57/57 55/55/55 48/48/48
f 51/51/51 55/55/55 57/57/57
f 51/51/51 58/58/58 56/56/56
f 56/56/56 58/58/58 22/22/22
f 51/51/51 57/57/57 59/59/59
f 57/57/57 48/48/48 44/44/44
f 59/59/59 57/57/57 44/44/44
f 58/58/58 18/18/18 22/22/22
f 59/59/59 44/44/44 40/40/40
f 58/58/58 60/60/60 18/18/18
f 51/51/51 60/60/60 58/58/58
f 60/60/60 14/14/14 18/18/18
f 61/61/61 59/59/59 40/40/40
f 51/51/51 59/59/59 61/61/61
f 61/61/61 40/40/40 36/36/36
f 60/60/60 62/62/62 14/14/14
f 51/51/51 62/62/62 60/60/60
f 62/62/62 10/10/10 14/14/14
f 63/63/63 61/61/61 36/36/36
f 51/51/51 61/61/61 63/63/63
f 63/63/63 36/36/36 32/32/32
f 62/62/62 64/64/64 10/10/10
f 51/51/51 64/64/64 62/62/62
f 64/64/64 6/6/6 10/10/10
f 65/65/65 63/63/63 32/32/32
f 51/51/51 63/63/63 65/65/65
f 51/51/51 66/66/66 64/64/64
f 64/64/64 66/66/66 6/6/6
f 51/51/51 65/65/65 67/67/67
f 65/65/65 32/32/32 28/28/28
f 67/67/67 65/65/65 28/28/28
f 66/66/66 3/3/3 6/6/6
f 67/67/67 28/28/28 24/24/24
f 66/66/66 68/68/68 3/3/3
f 51/51/51 68/68/68 66/66/66
f 68/68/68 2/2/2 3/3/3
f 69/69/69 67/67/67 24/24/24
f 51/51/51 67/67/67 69/69/69
f 69/69/69 24/24/24 20/20/20
f 68/68/68 70/70/70 2/2/2
f 51/51/51 70/70/70 68/68/68
f 70/70/70 8/8/8 2/2/2
f 71/71/71 69/69/69 20/20/20
f 51/51/51 69/69/69 71/71/71
f 71/71/71 20/20/20 16/16/16
f 70/70/70 72/72/72 8/8/8
f 51/51/51 72/72/72 70/70/70
f 72/72/72 12/12/12 8/8/8
f 73/73/73 71/71/71 16/16/16
f 51/51/51 71/71/71 73/73/73
f 73/73/73 16/16/16 12/12/12
f 72/72/72 73/73/73 12/12/12
f 51/51/51 73/73/73 72/72/72
