g default
v -0.4499005 -0.4499012 -0.039431
v -0.3181276 -0.5510141 -0.5293316
v -0.4499005 -0.4499012 -0.5293316
v -0.3181276 -0.5510141 -0.039431
v -0.164675 -0.6145762 -0.5293316
v -0.164675 -0.6145762 -0.039431
v 0 -0.6362559 -0.5293316
v 0 -0.6362559 -0.039431
v 0.164675 -0.6145762 -0.5293316
v 0.164675 -0.6145762 -0.039431
v 0.3181283 -0.5510134 -0.5293316
v 0.3181283 -0.5510134 -0.039431
v 0.4499005 -0.4499005 -0.5293316
v 0.4499005 -0.4499005 -0.039431
v 0.5510134 -0.3181276 -0.5293316
v 0.5510134 -0.3181276 -0.039431
v 0.6145754 -0.164675 -0.5293316
v 0.6145754 -0.164675 -0.039431
v 0.6362559 0 -0.5293316
v 0.6362559 0 -0.039431
v 0.6145754 0.164675 -0.5293316
v 0.6145754 0.164675 -0.039431
v 0.5510134 0.3181276 -0.5293316
v 0.5510134 0.3181276 -0.039431
v 0.4499005 0.4499005 -0.5293316
v 0.4499005 0.4499005 -0.039431
v 0.3181276 0.5510134 -0.5293316
v 0.3181276 0.5510134 -0.039431
v 0.164675 0.6145762 -0.5293316
v 0.164675 0.6145762 -0.039431
v 0 0.6362559 -0.5293316
v 0 0.6362559 -0.039431
v -0.1646757 0.6145754 -0.5293316
v -0.1646757 0.6145754 -0.039431
v -0.3181283 0.5510134 -0.5293316
v -0.3181283 0.5510134 -0.039431
v -0.4499012 0.4499005 -0.5293316
v -0.4499012 0.4499005 -0.039431
v -0.5510141 0.3181276 -0.5293316
v -0.5510141 0.3181276 -0.039431
v -0.6145762 0.164675 -0.5293316
v -0.6145762 0.164675 -0.039431
v -0.6362559 0 -0.5293316
v -0.6362559 0 -0.039431
v -0.6145754 -0.1646757 -0.5293316
v -0.6145754 -0.1646757 -0.039431
v -0.5510134 -0.3181283 -0.5293316
v -0.5510134 -0.3181283 -0.039431
v -0.4499005 -0.4499012 -0.5293316
v -0.4499005 -0.4499012 -0.039431
v -0.6145754 -0.1646757 -0.5293316
v -0.5510134 -0.3181283 -0.5293316
v 0 0 -0.5293316
v -0.6362559 0 -0.5293316
v -0.4499005 -0.4499012 -0.5293316
v -0.6145762 0.164675 -0.5293316
v -0.3181276 -0.5510141 -0.5293316
v -0.5510141 0.3181276 -0.5293316
v -0.164675 -0.6145762 -0.5293316
v -0.4499012 0.4499005 -0.5293316
v 0 -0.6362559 -0.5293316
v -0.3181283 0.5510134 -0.5293316
v 0.164675 -0.6145762 -0.5293316
v -0.1646757 0.6145754 -0.5293316
v 0.3181283 -0.5510134 -0.5293316
v 0 0.6362559 -0.5293316
v 0.4499005 -0.4499005 -0.5293316
v 0.164675 0.6145762 -0.5293316
v 0.5510134 -0.3181276 -0.5293316
v 0.3181276 0.5510134 -0.5293316
v 0.6145754 -0.164675 -0.5293316
v 0.4499005 0.4499005 -0.5293316
v 0.6362559 0 -0.5293316
v 0.5510134 0.3181276 -0.5293316
v 0.6145754 0.164675 -0.5293316
v 0.4499005 0.4499005 -0.039431
v 0.5510134 0.3181276 -0.039431
v 0 0 -0.039431
v 0.3181276 0.5510134 -0.039431
v 0.6145754 0.164675 -0.039431
v 0.164675 0.6145762 -0.039431
v 0.6362559 0 -0.039431
v 0 0.6362559 -0.039431
v 0.6145754 -0.164675 -0.039431
v -0.1646757 0.6145754 -0.039431
v 0.5510134 -0.3181276 -0.039431
v -0.3181283 0.5510134 -0.039431
v 0.4499005 -0.4499005 -0.039431
v -0.4499012 0.4499005 -0.039431
v 0.3181283 -0.5510134 -0.039431
v -0.5510141 0.3181276 -0.039431
v 0.164675 -0.6145762 -0.039431
v -0.6145762 0.164675 -0.039431
v 0 -0.6362559 -0.039431
v -0.6362559 0 -0.039431
v -0.164675 -0.6145762 -0.039431
v -0.6145754 -0.1646757 -0.039431
v -0.3181276 -0.5510141 -0.039431
v -0.5510134 -0.3181283 -0.039431
v -0.4499005 -0.4499012 -0.039431
vt 0.928594 0.032259
vt 0.990122 0.05312
vt 0.990122 0.032259
vt 0.928594 0.05312
vt 0.990122 0.07398
vt 0.928594 0.07398
vt 0.990122 0.094841
vt 0.928594 0.094841
vt 0.990122 0.115701
vt 0.928594 0.115701
vt 0.990122 0.136562
vt 0.928594 0.136562
vt 0.990122 0.157422
vt 0.928594 0.157422
vt 0.990122 0.178283
vt 0.928594 0.178283
vt 0.990122 0.199143
vt 0.928594 0.199143
vt 0.990122 0.220004
vt 0.928594 0.220004
vt 0.990122 0.240864
vt 0.928594 0.240864
vt 0.990122 0.261725
vt 0.928594 0.261725
vt 0.990122 0.282586
vt 0.928594 0.282586
vt 0.990122 0.303446
vt 0.928594 0.303446
vt 0.990122 0.324307
vt 0.928594 0.324307
vt 0.990122 0.345167
vt 0.928594 0.345167
vt 0.990122 0.366028
vt 0.928594 0.366028
vt 0.990122 0.386888
vt 0.928594 0.386888
vt 0.990122 0.407749
vt 0.928594 0.407749
vt 0.990122 0.428609
vt 0.928594 0.428609
vt 0.990122 0.44947
vt 0.928594 0.44947
vt 0.990122 0.47033
vt 0.928594 0.47033
vt 0.990122 0.491191
vt 0.928594 0.491191
vt 0.990122 0.512051
vt 0.928594 0.512051
vt 0.990122 0.532912
vt 0.928594 0.532912
vt 0.403374 0.829363
vt 0.385309 0.818932
vt 0.354729 0.892759
vt 0.418125 0.844113
vt 0.365159 0.813533
vt 0.428555 0.862179
vt 0.344298 0.813533
vt 0.433954 0.882329
vt 0.324149 0.818932
vt 0.433954 0.903189
vt 0.306083 0.829363
vt 0.428555 0.923339
vt 0.291332 0.844113
vt 0.418125 0.941405
vt 0.280902 0.862179
vt 0.403374 0.956155
vt 0.275503 0.882329
vt 0.385309 0.966586
vt 0.275503 0.903189
vt 0.365159 0.971985
vt 0.280902 0.923339
vt 0.344298 0.971985
vt 0.291332 0.941405
vt 0.324149 0.966586
vt 0.306083 0.956155
vt 0.616286 0.937961
vt 0.626716 0.919895
vt 0.55289 0.889315
vt 0.601535 0.952711
vt 0.632115 0.899745
vt 0.58347 0.963142
vt 0.632115 0.878885
vt 0.56332 0.968541
vt 0.626716 0.858735
vt 0.542459 0.968541
vt 0.616286 0.840669
vt 0.52231 0.963142
vt 0.601535 0.825919
vt 0.504244 0.952711
vt 0.58347 0.815488
vt 0.489493 0.937961
vt 0.56332 0.810089
vt 0.479063 0.919895
vt 0.542459 0.810089
vt 0.473664 0.899745
vt 0.52231 0.815488
vt 0.473664 0.878885
vt 0.504244 0.825919
vt 0.479063 0.858735
vt 0.489493 0.840669
vn -0.519189 -0.519189 0.6788856
vn -0.3670934 -0.6358885 -0.6788877
vn -0.519189 -0.519189 -0.6788856
vn -0.3670934 -0.6358885 0.6788877
vn -0.1900029 -0.7092107 -0.6789102
vn -0.1900029 -0.7092107 0.6789102
vn 0 -0.7342166 -0.6789153
vn 0 -0.7342166 0.6789153
vn 0.1900029 -0.7092107 -0.6789102
vn 0.1900029 -0.7092107 0.6789102
vn 0.3670934 -0.6358885 -0.6788877
vn 0.3670934 -0.6358885 0.6788877
vn 0.519189 -0.519189 -0.6788856
vn 0.519189 -0.519189 0.6788856
vn 0.6358885 -0.3670934 -0.6788877
vn 0.6358885 -0.3670934 0.6788877
vn 0.7092107 -0.1900029 -0.6789102
vn 0.7092107 -0.1900029 0.6789102
vn 0.7342166 0 -0.6789153
vn 0.7342166 0 0.6789153
vn 0.7092107 0.1900029 -0.6789102
vn 0.7092107 0.1900029 0.6789102
vn 0.6358885 0.3670934 -0.6788877
vn 0.6358885 0.3670934 0.6788877
vn 0.519189 0.519189 -0.6788856
vn 0.519189 0.519189 0.6788856
vn 0.3670934 0.6358885 -0.6788877
vn 0.3670934 0.6358885 0.6788877
vn 0.1900029 0.7092107 -0.6789102
vn 0.1900029 0.7092107 0.6789102
vn 0 0.7342166 -0.6789153
vn 0 0.7342166 0.6789153
vn -0.1900029 0.7092107 -0.6789102
vn -0.1900029 0.7092107 0.6789102
vn -0.3670934 0.6358885 -0.6788877
vn -0.3670934 0.6358885 0.6788877
vn -0.519189 0.519189 -0.6788856
vn -0.519189 0.519189 0.6788856
vn -0.6358885 0.3670934 -0.6788877
vn -0.6358885 0.3670934 0.6788877
vn -0.7092107 0.1900029 -0.6789102
vn -0.7092107 0.1900029 0.6789102
vn -0.7342166 0 -0.6789153
vn -0.7342166 0 0.6789153
vn -0.7092107 -0.1900029 -0.6789102
vn -0.7092107 -0.1900029 0.6789102
vn -0.6358885 -0.3670934 -0.6788877
vn -0.6358885 -0.3670934 0.6788877
vn -0.519189 -0.519189 -0.6788856
vn -0.519189 -0.519189 0.6788856
vn -0.7092107 -0.1900029 -0.6789102
vn -0.6358885 -0.3670934 -0.6788877
vn 0 0 -1
vn -0.7342166 0 -0.6789153
vn -0.519189 -0.519189 -0.6788856
vn -0.7092107 0.1900029 -0.6789102
vn -0.3670934 -0.6358885 -0.6788877
vn -0.6358885 0.3670934 -0.6788877
vn -0.1900029 -0.7092107 -0.6789102
vn -0.519189 0.519189 -0.6788856
vn 0 -0.7342166 -0.6789153
vn -0.3670934 0.6358885 -0.6788877
vn 0.1900029 -0.7092107 -0.6789102
vn -0.1900029 0.7092107 -0.6789102
vn 0.3670934 -0.6358885 -0.6788877
vn 0 0.7342166 -0.6789153
vn 0.519189 -0.519189 -0.6788856
vn 0.1900029 0.7092107 -0.6789102
vn 0.6358885 -0.3670934 -0.6788877
vn 0.3670934 0.6358885 -0.6788877
vn 0.7092107 -0.1900029 -0.6789102
vn 0.519189 0.519189 -0.6788856
vn 0.7342166 0 -0.6789153
vn 0.6358885 0.3670934 -0.6788877
vn 0.7092107 0.1900029 -0.6789102
vn 0.519189 0.519189 0.6788856
vn 0.6358885 0.3670934 0.6788877
vn 0 0 1
vn 0.3670934 0.6358885 0.6788877
vn 0.7092107 0.1900029 0.6789102
vn 0.1900029 0.7092107 0.6789102
vn 0.7342166 0 0.6789153
vn 0 0.7342166 0.6789153
vn 0.7092107 -0.1900029 0.6789102
vn -0.1900029 0.7092107 0.6789102
vn 0.6358885 -0.3670934 0.6788877
vn -0.3670934 0.6358885 0.6788877
vn 0.519189 -0.519189 0.6788856
vn -0.519189 0.519189 0.6788856
vn 0.3670934 -0.6358885 0.6788877
vn -0.6358885 0.3670934 0.6788877
vn 0.1900029 -0.7092107 0.6789102
vn -0.7092107 0.1900029 0.6789102
vn 0 -0.7342166 0.6789153
vn -0.7342166 0 0.6789153
vn -0.1900029 -0.7092107 0.6789102
vn -0.7092107 -0.1900029 0.6789102
vn -0.3670934 -0.6358885 0.6788877
vn -0.6358885 -0.3670934 0.6788877
vn -0.519189 -0.519189 0.6788856
g default_0
f 3/3/3 2/2/2 1/1/1
f 2/2/2 4/4/4 1/1/1
f 2/2/2 5/5/5 4/4/4
f 5/5/5 6/6/6 4/4/4
f 5/5/5 7/7/7 6/6/6
f 7/7/7 8/8/8 6/6/6
f 7/7/7 9/9/9 8/8/8
f 9/9/9 10/10/10 8/8/8
f 9/9/9 11/11/11 10/10/10
f 11/11/11 12/12/12 10/10/10
f 11/11/11 13/13/13 12/12/12
f 13/13/13 14/14/14 12/12/12
f 13/13/13 15/15/15 14/14/14
f 15/15/15 16/16/16 14/14/14
f 15/15/15 17/17/17 16/16/16
f 17/17/17 18/18/18 16/16/16
f 17/17/17 19/19/19 18/18/18
f 19/19/19 20/20/20 18/18/18
f 19/19/19 21/21/21 20/20/20
f 21/21/21 22/22/22 20/20/20
f 21/21/21 23/23/23 22/22/22
f 23/23/23 24/24/24 22/22/22
f 23/23/23 25/25/25 24/24/24
f 25/25/25 26/26/26 24/24/24
f 25/25/25 27/27/27 26/26/26
f 27/27/27 28/28/28 26/26/26
f 27/27/27 29/29/29 28/28/28
f 29/29/29 30/30/30 28/28/28
f 29/29/29 31/31/31 30/30/30
f 31/31/31 32/32/32 30/30/30
f 31/31/31 33/33/33 32/32/32
f 33/33/33 34/34/34 32/32/32
f 33/33/33 35/35/35 34/34/34
f 35/35/35 36/36/36 34/34/34
f 35/35/35 37/37/37 36/36/36
f 37/37/37 38/38/38 36/36/36
f 37/37/37 39/39/39 38/38/38
f 39/39/39 40/40/40 38/38/38
f 39/39/39 41/41/41 40/40/40
f 41/41/41 42/42/42 40/40/40
f 41/41/41 43/43/43 42/42/42
f 43/43/43 44/44/44 42/42/42
f 43/43/43 45/45/45 44/44/44
f 45/45/45 46/46/46 44/44/44
f 45/45/45 47/47/47 46/46/46
f 47/47/47 48/48/48 46/46/46
f 47/47/47 49/49/49 48/48/48
f 49/49/49 50/50/50 48/48/48
f 53/53/53 52/52/52 51/51/51
f 53/53/53 51/51/51 54/54/54
f 53/53/53 55/55/55 52/52/52
f 53/53/53 54/54/54 56/56/56
f 53/53/53 57/57/57 55/55/55
f 53/53/53 56/56/56 58/58/58
f 53/53/53 59/59/59 57/57/57
f 53/53/53 58/58/58 60/60/60
f 53/53/53 61/61/61 59/59/59
f 53/53/53 60/60/60 62/62/62
f 53/53/53 63/63/63 61/61/61
f 53/53/53 62/62/62 64/64/64
f 53/53/53 65/65/65 63/63/63
f 53/53/53 64/64/64 66/66/66
f 53/53/53 67/67/67 65/65/65
f 53/53/53 66/66/66 68/68/68
f 53/53/53 69/69/69 67/67/67
f 53/53/53 68/68/68 70/70/70
f 53/53/53 71/71/71 69/69/69
f 53/53/53 70/70/70 72/72/72
f 53/53/53 73/73/73 71/71/71
f 53/53/53 72/72/72 74/74/74
f 53/53/53 75/75/75 73/73/73
f 53/53/53 74/74/74 75/75/75
f 78/78/78 77/77/77 76/76/76
f 78/78/78 76/76/76 79/79/79
f 78/78/78 80/80/80 77/77/77
f 78/78/78 79/79/79 81/81/81
f 78/78/78 82/82/82 80/80/80
f 78/78/78 81/81/81 83/83/83
f 78/78/78 84/84/84 82/82/82
f 78/78/78 83/83/83 85/85/85
f 78/78/78 86/86/86 84/84/84
f 78/78/78 85/85/85 87/87/87
f 78/78/78 88/88/88 86/86/86
f 78/78/78 87/87/87 89/89/89
f 78/78/78 90/90/90 88/88/88
f 78/78/78 89/89/89 91/91/91
f 78/78/78 92/92/92 90/90/90
f 78/78/78 91/91/91 93/93/93
f 78/78/78 94/94/94 92/92/92
f 78/78/78 93/93/93 95/95/95
f 78/78/78 96/96/96 94/94/94
f 78/78/78 95/95/95 97/97/97
f 78/78/78 98/98/98 96/96/96
f 78/78/78 97/97/97 99/99/99
f 78/78/78 100/100/100 98/98/98
f 78/78/78 99/99/99 100/100/100
