g eightblades_blade5
v 0.0002808154 -0.0006953651 -0.02447041
v 0.0002808165 -0.0004127182 -0.02802668
v 0.0002704859 -0.002362044 -0.02760118
v 0.0002704871 -0.002663482 -0.02445956
v 0.0002398956 -0.00406696 -0.02653041
v 0.0002398944 -0.004419853 -0.02439956
v -0.0002567852 -0.00406696 -0.02653041
v -0.0002567863 -0.004419852 -0.02439956
v 0.0002704859 -0.002362044 -0.02760118
v -0.0002567863 -0.002362058 -0.02760118
v 0.0002808165 -0.0004127182 -0.02802668
v -0.0002567852 -0.002663502 -0.02445956
v -0.0002567863 -0.000412742 -0.02802668
v -0.0002567852 -0.000695398 -0.02447041
v 0.0002808165 -0.0004127182 -0.02802668
v 0.0002808154 -0.0006953651 -0.02447041
v -0.0002235872 -0.0008347078 -0.004428414
v 0.0002676821 -0.0009154859 -0.008924561
v 0.0002454385 -0.0008347022 -0.004428414
v -0.0002444607 -0.000915501 -0.008924561
v -0.0002235872 -0.001894298 -0.004428414
v 0.000280816 -0.0009234177 -0.01386772
v -0.0002444851 -0.002416509 -0.008925002
v -0.0002235868 -0.002811504 -0.004428415
v -0.0002567857 -0.0009234481 -0.01386772
v 0.0002808165 -0.000921745 -0.01858737
v -0.0002445197 -0.003574461 -0.00892564
v 0.0002097371 -0.002811503 -0.004428415
v -0.0002567852 -0.0009217862 -0.01858737
v 0.0002808165 -0.0007990575 -0.02330702
v -0.0002567863 -0.0007990935 -0.02330702
v -0.0002567857 -0.002694162 -0.01386772
v -0.0002567852 -0.002975543 -0.01858737
v -0.0002567863 -0.00277409 -0.02330702
v 0.0002287519 -0.00357446 -0.008925641
v 0.0002364263 -0.001894295 -0.004428414
v -0.0002567846 -0.004356552 -0.01386772
v -0.0002567852 -0.00479165 -0.01858737
v -0.0002567863 -0.004549315 -0.02330702
v 0.0002578664 -0.002416499 -0.008925002
v 0.0002454385 -0.0008347022 -0.004428414
v 0.0002676821 -0.0009154859 -0.008924561
v 0.0002398938 -0.004356552 -0.01386772
v 0.0002398956 -0.004791651 -0.01858737
v 0.0002398944 -0.004549315 -0.02330703
v 0.0002704859 -0.002694147 -0.01386772
v 0.000280816 -0.0009234177 -0.01386772
v 0.0002704871 -0.002975517 -0.01858737
v 0.0002704859 -0.002774068 -0.02330702
v 0.0002808165 -0.000921745 -0.01858737
v 0.0002808165 -0.0007990575 -0.02330702
vt 0.4200021 0.003047187
vt 0.3327347 0.009818811
vt 0.3458035 0.0315993
vt 0.4223573 0.02630855
vt 0.3743364 0.04864777
vt 0.4255604 0.04648788
vt 0.3783387 0.06035514
vt 0.4257708 0.05826415
vt 0.3460531 0.06618257
vt 0.354324 0.07527991
vt 0.3291378 0.08501585
vt 0.4230503 0.07898463
vt 0.3390291 0.09372242
vt 0.4210425 0.1018306
vt 0.3377507 0.1061862
vt 0.4202602 0.1146487
vt 0.9151421 0.08502974
vt 0.8050318 0.104718
vt 0.9159315 0.09659184
vt 0.8041863 0.09208436
vt 0.9142314 0.07242419
vt 0.6830935 0.1130061
vt 0.802959 0.07422377
vt 0.9134419 0.06150688
vt 0.682422 0.09975297
vt 0.5662875 0.1172227
vt 0.8019993 0.0604691
vt 0.9135904 0.05078508
vt 0.5661212 0.1039609
vt 0.4492278 0.1159185
vt 0.4495994 0.1026259
vt 0.6813737 0.07876755
vt 0.565969 0.0796196
vt 0.4508875 0.07921572
vt 0.8021575 0.04877688
vt 0.9146762 0.0398729
vt 0.6803743 0.05914522
vt 0.5658256 0.05824954
vt 0.4518478 0.05832232
vt 0.8034823 0.03502949
vt 0.9159315 0.0272838
vt 0.8051904 0.01720067
vt 0.6805039 0.04695274
vt 0.5658771 0.04620083
vt 0.4517908 0.04630317
vt 0.681901 0.02730997
vt 0.6833895 0.006253976
vt 0.5661398 0.02475597
vt 0.4506025 0.02551927
vt 0.5664324 0.0002511335
vt 0.4491985 0.001997669
vn 0.7078891 0.70383 0.05929849
vn 0.5648861 0.5421795 -0.6220492
vn 0.6699662 -0.2852361 -0.6854091
vn 0.9999319 -0.01159731 -0.001281807
vn 0.6184062 -0.6561887 -0.4324235
vn 0.6956286 -0.7113155 -0.100653
vn -0.6253436 -0.6496982 -0.4322471
vn -0.7019508 -0.7051554 -0.1001043
vn 0.6699662 -0.2852361 -0.6854091
vn -0.6703568 -0.2806251 -0.6869288
vn 0.5648861 0.5421795 -0.6220492
vn -1 0 0
vn -0.5634526 0.5432486 -0.6224164
vn -0.7060531 0.7056564 0.0594812
vn 0.5648861 0.5421795 -0.6220492
vn 0.7078891 0.70383 0.05929849
vn -0.7020057 0.7121077 -0.009522033
vn 0.7115884 0.7025852 -0.00399803
vn 0.7045095 0.7096367 -0.009064257
vn -0.7092028 0.7049912 -0.004333712
vn -0.9999893 0 0.004638905
vn 0.7096353 0.704569 0.0005798671
vn -0.9999938 0 0.003540233
vn -0.7407966 -0.6616904 0.1156989
vn -0.7076253 0.7065877 0.0004272731
vn 0.7118515 0.7022687 0.009277723
vn -0.7059072 -0.6985827 0.1169493
vn 0.7307592 -0.6725585 0.1168592
vn -0.7100307 0.7041099 0.009247337
vn 0.7160728 0.6968762 0.04004123
vn -0.7142758 0.698711 0.04016352
vn -0.9999993 0 0.001220777
vn -1 0 0
vn -1 0 0
vn 0.6973932 -0.7069762 0.1175903
vn 0.9998431 -0.01638887 0.006714249
vn -0.7000824 -0.7084447 0.08939105
vn -0.691357 -0.7223647 0.01464933
vn -0.699687 -0.7118947 -0.0603673
vn 0.9998643 -0.01559522 0.005310311
vn 0.7045095 0.7096367 -0.009064257
vn 0.7115884 0.7025852 -0.00399803
vn 0.693275 -0.7150657 0.08972656
vn 0.6853439 -0.728071 0.01471036
vn 0.6936421 -0.7177523 -0.06076388
vn 0.9999185 -0.01257375 0.002227874
vn 0.7096353 0.704569 0.0005798671
vn 0.9999342 -0.01147525 0.0001220772
vn 0.999936 -0.01129216 -0.0008240225
vn 0.7118515 0.7022687 0.009277723
vn 0.7160728 0.6968762 0.04004123
g eightblades_blade5_0
f 3/3/3 2/2/2 1/1/1
f 4/4/4 3/3/3 1/1/1
f 5/5/5 3/3/3 4/4/4
f 6/6/6 5/5/5 4/4/4
f 7/7/7 5/5/5 6/6/6
f 8/8/8 7/7/7 6/6/6
f 5/5/5 7/7/7 9/9/9
f 10/10/10 7/7/7 8/8/8
f 7/7/7 10/10/10 9/9/9
f 9/9/9 10/10/10 11/11/11
f 12/12/12 10/10/10 8/8/8
f 10/10/10 13/13/13 11/11/11
f 13/13/13 10/10/10 12/12/12
f 14/14/14 13/13/13 12/12/12
f 15/15/15 13/13/13 14/14/14
f 16/16/16 15/15/15 14/14/14
f 19/19/19 18/18/18 17/17/17
f 18/18/18 20/20/20 17/17/17
f 17/17/17 20/20/20 21/21/21
f 18/18/18 22/22/22 20/20/20
f 20/20/20 23/23/23 21/21/21
f 21/21/21 23/23/23 24/24/24
f 22/22/22 25/25/25 20/20/20
f 20/20/20 25/25/25 23/23/23
f 22/22/22 26/26/26 25/25/25
f 23/23/23 27/27/27 24/24/24
f 24/24/24 27/27/27 28/28/28
f 26/26/26 29/29/29 25/25/25
f 26/26/26 30/30/30 29/29/29
f 30/30/30 31/31/31 29/29/29
f 25/25/25 32/32/32 23/23/23
f 25/25/25 29/29/29 32/32/32
f 23/23/23 32/32/32 27/27/27
f 29/29/29 31/31/31 33/33/33
f 29/29/29 33/33/33 32/32/32
f 31/31/31 34/34/34 33/33/33
f 27/27/27 35/35/35 28/28/28
f 28/28/28 35/35/35 36/36/36
f 32/32/32 37/37/37 27/27/27
f 32/32/32 33/33/33 37/37/37
f 27/27/27 37/37/37 35/35/35
f 33/33/33 34/34/34 38/38/38
f 33/33/33 38/38/38 37/37/37
f 34/34/34 39/39/39 38/38/38
f 35/35/35 40/40/40 36/36/36
f 36/36/36 40/40/40 41/41/41
f 40/40/40 42/42/42 41/41/41
f 37/37/37 43/43/43 35/35/35
f 37/37/37 38/38/38 43/43/43
f 35/35/35 43/43/43 40/40/40
f 38/38/38 39/39/39 44/44/44
f 38/38/38 44/44/44 43/43/43
f 39/39/39 45/45/45 44/44/44
f 40/40/40 46/46/46 42/42/42
f 43/43/43 46/46/46 40/40/40
f 43/43/43 44/44/44 46/46/46
f 46/46/46 47/47/47 42/42/42
f 44/44/44 45/45/45 48/48/48
f 44/44/44 48/48/48 46/46/46
f 46/46/46 48/48/48 47/47/47
f 45/45/45 49/49/49 48/48/48
f 48/48/48 50/50/50 47/47/47
f 48/48/48 49/49/49 50/50/50
f 49/49/49 51/51/51 50/50/50
g eightblades_blade5_1
f 30/30/30 16/16/16 31/31/31
f 16/16/16 14/14/14 31/31/31
f 31/31/31 14/14/14 34/34/34
f 14/14/14 12/12/12 34/34/34
f 34/34/34 12/12/12 39/39/39
f 12/12/12 8/8/8 39/39/39
f 39/39/39 8/8/8 45/45/45
f 8/8/8 6/6/6 45/45/45
f 45/45/45 6/6/6 49/49/49
f 6/6/6 4/4/4 49/49/49
f 49/49/49 4/4/4 51/51/51
f 4/4/4 1/1/1 51/51/51
