g eightblades_blade3
v 0.02447041 -0.0006953685 0.0002808154
v 0.02802668 -0.000412722 0.0002808165
v 0.02760118 -0.002362048 0.000270487
v 0.02445956 -0.002663486 0.000270487
v 0.02653041 -0.004066963 0.0002398954
v 0.02439956 -0.004419856 0.0002398954
v 0.02653041 -0.004066963 -0.0002567853
v 0.02439956 -0.004419855 -0.0002567853
v 0.02760118 -0.002362048 0.000270487
v 0.02760118 -0.002362062 -0.0002567852
v 0.02802668 -0.000412722 0.0002808165
v 0.02445956 -0.002663506 -0.0002567852
v 0.02802668 -0.0004127458 -0.0002567852
v 0.02447041 -0.0006954013 -0.0002567852
v 0.02802668 -0.000412722 0.0002808165
v 0.02447041 -0.0006953685 0.0002808154
v 0.004428414 -0.0008347084 -0.0002235875
v 0.008924561 -0.0009154871 0.000267682
v 0.004428414 -0.0008347029 0.0002454385
v 0.008924561 -0.0009155021 -0.0002444613
v 0.004428414 -0.001894298 -0.0002235875
v 0.01386772 -0.0009234197 0.0002808159
v 0.008925001 -0.00241651 -0.0002444858
v 0.004428414 -0.002811504 -0.0002235873
v 0.01386772 -0.0009234499 -0.0002567858
v 0.01858737 -0.0009217474 0.0002808154
v 0.00892564 -0.003574462 -0.0002445205
v 0.004428414 -0.002811504 0.0002097367
v 0.01858737 -0.0009217888 -0.0002567864
v 0.02330702 -0.0007990606 0.0002808154
v 0.02330702 -0.0007990967 -0.0002567852
v 0.01386772 -0.002694164 -0.0002567859
v 0.01858737 -0.002975546 -0.0002567865
v 0.02330702 -0.002774093 -0.0002567852
v 0.008925641 -0.003574461 0.0002287517
v 0.004428414 -0.001894295 0.0002364262
v 0.01386772 -0.004356554 -0.0002567847
v 0.01858737 -0.004791653 -0.0002567866
v 0.02330702 -0.004549318 -0.0002567853
v 0.008925002 -0.002416501 0.0002578663
v 0.004428414 -0.0008347029 0.0002454385
v 0.008924561 -0.0009154871 0.000267682
v 0.01386772 -0.004356554 0.0002398936
v 0.01858737 -0.004791654 0.0002398942
v 0.02330703 -0.004549318 0.0002398942
v 0.01386772 -0.002694149 0.0002704858
v 0.01386772 -0.0009234197 0.0002808159
v 0.01858737 -0.00297552 0.0002704857
v 0.02330702 -0.002774071 0.000270487
v 0.01858737 -0.0009217474 0.0002808154
v 0.02330702 -0.0007990606 0.0002808154
vt 0.4200021 0.1205207
vt 0.3327348 0.1272924
vt 0.3458035 0.149073
vt 0.4223574 0.1437823
vt 0.3743364 0.1661214
vt 0.4255605 0.1639616
vt 0.3783386 0.1778287
vt 0.4257707 0.1757377
vt 0.3460532 0.1836563
vt 0.354324 0.1927533
vt 0.3291378 0.2024893
vt 0.4230503 0.1964583
vt 0.3390291 0.2111959
vt 0.4210424 0.2193044
vt 0.3377506 0.2236598
vt 0.42026 0.2321225
vt 0.9151421 0.2025038
vt 0.8050315 0.2221921
vt 0.9159315 0.2140659
vt 0.8041862 0.2095583
vt 0.9142314 0.1898982
vt 0.6830933 0.2304801
vt 0.8029585 0.1916979
vt 0.9134419 0.1789809
vt 0.682422 0.2172269
vt 0.5662876 0.2346965
vt 0.8019992 0.1779431
vt 0.9135904 0.1682592
vt 0.566121 0.2214345
vt 0.4492277 0.2333923
vt 0.4495992 0.2200997
vt 0.6813735 0.1962413
vt 0.5659689 0.1970935
vt 0.4508875 0.1966895
vt 0.8021573 0.1662509
vt 0.9146762 0.1573468
vt 0.6803741 0.1766192
vt 0.5658256 0.1757233
vt 0.4518478 0.175796
vt 0.8034821 0.1525035
vt 0.9159315 0.1447577
vt 0.8051901 0.1346746
vt 0.6805038 0.1644267
vt 0.565877 0.1636746
vt 0.4517907 0.1637767
vt 0.6819009 0.1447839
vt 0.6833893 0.1237278
vt 0.5661396 0.1422298
vt 0.4506024 0.1429929
vt 0.5664324 0.1177249
vt 0.4491986 0.1194712
vn -0.05929849 0.70383 0.7078891
vn 0.6220679 0.5421693 0.5648754
vn 0.6854091 -0.2852361 0.6699662
vn 0.001251288 -0.01159731 0.9999319
vn 0.4324235 -0.6561887 0.6184062
vn 0.100653 -0.7113155 0.6956286
vn 0.4322471 -0.6496982 -0.6253436
vn 0.1001043 -0.7051554 -0.7019508
vn 0.6854091 -0.2852361 0.6699662
vn 0.6869288 -0.2806251 -0.6703568
vn 0.6220679 0.5421693 0.5648754
vn 0 0 -1
vn 0.6224164 0.5432486 -0.5634526
vn -0.0594812 0.7056564 -0.7060531
vn 0.6220679 0.5421693 0.5648754
vn -0.05929849 0.70383 0.7078891
vn 0.009522033 0.7121077 -0.7020057
vn 0.00399803 0.7025852 0.7115884
vn 0.009064257 0.7096367 0.7045095
vn 0.004333712 0.7049912 -0.7092028
vn -0.004638905 0 -0.9999893
vn -0.0005798671 0.704569 0.7096353
vn -0.003540233 0 -0.9999938
vn -0.1156989 -0.6616904 -0.7407966
vn -0.0004272731 0.7065877 -0.7076253
vn -0.009277723 0.7022687 0.7118515
vn -0.1169493 -0.6985827 -0.7059072
vn -0.1168592 -0.6725585 0.7307592
vn -0.009247337 0.7041099 -0.7100307
vn -0.04004123 0.6968762 0.7160728
vn -0.04016352 0.698711 -0.7142758
vn -0.001220777 0 -0.9999993
vn 0 0 -1
vn 0 0 -1
vn -0.1175903 -0.7069762 0.6973932
vn -0.006714249 -0.01638887 0.9998431
vn -0.08939105 -0.7084447 -0.7000824
vn -0.01464933 -0.7223647 -0.691357
vn 0.0603673 -0.7118947 -0.699687
vn -0.005310311 -0.01559522 0.9998643
vn 0.009064257 0.7096367 0.7045095
vn 0.00399803 0.7025852 0.7115884
vn -0.08972656 -0.7150657 0.693275
vn -0.01471036 -0.728071 0.6853439
vn 0.06076388 -0.7177523 0.6936421
vn -0.002227874 -0.01257375 0.9999185
vn -0.0005798671 0.704569 0.7096353
vn -0.0001220772 -0.01147525 0.9999342
vn 0.0008240225 -0.01129216 0.999936
vn -0.009277723 0.7022687 0.7118515
vn -0.04004123 0.6968762 0.7160728
g eightblades_blade3_0
f 3/3/3 2/2/2 1/1/1
f 4/4/4 3/3/3 1/1/1
f 5/5/5 3/3/3 4/4/4
f 6/6/6 5/5/5 4/4/4
f 7/7/7 5/5/5 6/6/6
f 8/8/8 7/7/7 6/6/6
f 5/5/5 7/7/7 9/9/9
f 10/10/10 7/7/7 8/8/8
f 7/7/7 10/10/10 9/9/9
f 9/9/9 10/10/10 11/11/11
f 12/12/12 10/10/10 8/8/8
f 10/10/10 13/13/13 11/11/11
f 13/13/13 10/10/10 12/12/12
f 14/14/14 13/13/13 12/12/12
f 15/15/15 13/13/13 14/14/14
f 16/16/16 15/15/15 14/14/14
f 19/19/19 18/18/18 17/17/17
f 18/18/18 20/20/20 17/17/17
f 17/17/17 20/20/20 21/21/21
f 18/18/18 22/22/22 20/20/20
f 20/20/20 23/23/23 21/21/21
f 21/21/21 23/23/23 24/24/24
f 22/22/22 25/25/25 20/20/20
f 20/20/20 25/25/25 23/23/23
f 22/22/22 26/26/26 25/25/25
f 23/23/23 27/27/27 24/24/24
f 24/24/24 27/27/27 28/28/28
f 26/26/26 29/29/29 25/25/25
f 26/26/26 30/30/30 29/29/29
f 30/30/30 31/31/31 29/29/29
f 25/25/25 32/32/32 23/23/23
f 25/25/25 29/29/29 32/32/32
f 23/23/23 32/32/32 27/27/27
f 29/29/29 31/31/31 33/33/33
f 29/29/29 33/33/33 32/32/32
f 31/31/31 34/34/34 33/33/33
f 27/27/27 35/35/35 28/28/28
f 28/28/28 35/35/35 36/36/36
f 32/32/32 37/37/37 27/27/27
f 32/32/32 33/33/33 37/37/37
f 27/27/27 37/37/37 35/35/35
f 33/33/33 34/34/34 38/38/38
f 33/33/33 38/38/38 37/37/37
f 34/34/34 39/39/39 38/38/38
f 35/35/35 40/40/40 36/36/36
f 36/36/36 40/40/40 41/41/41
f 40/40/40 42/42/42 41/41/41
f 37/37/37 43/43/43 35/35/35
f 37/37/37 38/38/38 43/43/43
f 35/35/35 43/43/43 40/40/40
f 38/38/38 39/39/39 44/44/44
f 38/38/38 44/44/44 43/43/43
f 39/39/39 45/45/45 44/44/44
f 40/40/40 46/46/46 42/42/42
f 43/43/43 46/46/46 40/40/40
f 43/43/43 44/44/44 46/46/46
f 46/46/46 47/47/47 42/42/42
f 44/44/44 45/45/45 48/48/48
f 44/44/44 48/48/48 46/46/46
f 46/46/46 48/48/48 47/47/47
f 45/45/45 49/49/49 48/48/48
f 48/48/48 50/50/50 47/47/47
f 48/48/48 49/49/49 50/50/50
f 49/49/49 51/51/51 50/50/50
g eightblades_blade3_1
f 30/30/30 16/16/16 31/31/31
f 16/16/16 14/14/14 31/31/31
f 31/31/31 14/14/14 34/34/34
f 14/14/14 12/12/12 34/34/34
f 34/34/34 12/12/12 39/39/39
f 12/12/12 8/8/8 39/39/39
f 39/39/39 8/8/8 45/45/45
f 8/8/8 6/6/6 45/45/45
f 45/45/45 6/6/6 49/49/49
f 6/6/6 4/4/4 49/49/49
f 49/49/49 4/4/4 51/51/51
f 4/4/4 1/1/1 51/51/51
