g Fan
v 0.1361488 0.0786058 -0.4999999
v 1.266599E-06 -7.947285E-07 -0.5620779
v 0.1361488 -0.07860549 -0.4999999
v 0.1361488 -0.07860549 -0.4999999
v 1.266599E-06 -7.947285E-07 -0.5620779
v 7.45058E-08 -0.1572111 -0.4999999
v 7.45058E-08 -0.1572111 -0.4999999
v 1.266599E-06 -7.947285E-07 -0.5620779
v -0.1361488 -0.07860549 -0.4999999
v -0.1361488 -0.07860549 -0.4999999
v 1.266599E-06 -7.947285E-07 -0.5620779
v -0.1361488 0.0786058 -0.4999999
v -0.1361488 0.0786058 -0.4999999
v 1.266599E-06 -7.947285E-07 -0.5620779
v 7.45058E-08 0.1572105 -0.4999999
v 7.45058E-08 0.1572105 -0.4999999
v 1.266599E-06 -7.947285E-07 -0.5620779
v 0.1361488 0.0786058 -0.4999999
v -0.126145 -0.07282908 -0.4327049
v 0.1261504 -0.07282908 -0.4327049
v 2.69711E-06 0.1456615 -0.4327049
v -0.1361488 0.0786058 -0.4999999
v -0.1361488 0.0786058 0
v -0.1361488 -0.07860549 0
v -0.1361488 -0.07860549 -0.4999999
v 7.45058E-08 -0.1572111 -0.4999999
v 7.45058E-08 -0.1572111 0
v 0.1361488 -0.07860549 0
v 0.1361488 -0.07860549 -0.4999999
v 0.1361488 0.0786058 -0.4999999
v 0.1361488 0.0786058 0
v 7.45058E-08 0.1572105 0
v 7.45058E-08 0.1572105 -0.4999999
v 7.45058E-08 0.1572105 -0.4999999
v 7.45058E-08 0.1572105 0
v -0.1361488 0.0786058 0
v -0.1361488 0.0786058 -0.4999999
v -0.1361488 -0.07860549 -0.4999999
v -0.1361488 -0.07860549 0
v 7.45058E-08 -0.1572111 0
v 7.45058E-08 -0.1572111 -0.4999999
v 0.1361488 -0.07860549 -0.4999999
v 0.1361488 -0.07860549 0
v 0.1361488 0.0786058 0
v 0.1361488 0.0786058 -0.4999999
v 0.0937143 -0.457855 -0.4729885
v 0.1261504 -0.07282908 -0.4327049
v -0.126145 -0.07282908 -0.4327049
v 2.69711E-06 -0.4812229 -0.4729885
v -0.09370891 -0.457855 -0.4729885
v 0.1261504 -0.07282908 -0.4327049
v 0.4433706 0.1477691 -0.4729885
v 0.4167521 0.2406103 -0.4729885
v 0.3496592 0.3100835 -0.4729885
v 2.69711E-06 0.1456615 -0.4327049
v -0.126145 -0.07282908 -0.4327049
v 2.69711E-06 0.1456615 -0.4327049
v -0.3496534 0.3100835 -0.4729885
v -0.4433652 0.1477691 -0.4729885
v -0.4167463 0.2406103 -0.4729885
vt 0.9113744 0.4216368
vt 0.882728 0.4722214
vt 0.9113744 0.4216368
vt 0.9113744 0.4216368
vt 0.882728 0.4722214
vt 0.8827277 0.4216368
vt 0.8827277 0.4216368
vt 0.882728 0.4722214
vt 0.8540808 0.4216368
vt 0.8540808 0.4216368
vt 0.882728 0.4722214
vt 0.8540808 0.4216368
vt 0.8540808 0.4216368
vt 0.882728 0.4722214
vt 0.8827277 0.4216368
vt 0.8827277 0.4216368
vt 0.882728 0.4722214
vt 0.9113744 0.4216368
vt 0.9304385 0.2917627
vt 0.9304385 0.2917627
vt 0.9304385 0.2917627
vt 0.8540808 0.3784855
vt 0.8540808 0.2732817
vt 0.8540808 0.2732817
vt 0.8540808 0.3784855
vt 0.8827277 0.3784855
vt 0.8827277 0.2732817
vt 0.9113746 0.2732817
vt 0.9113744 0.3784855
vt 0.9113744 0.3784855
vt 0.9113746 0.2732817
vt 0.8827277 0.2732817
vt 0.8827277 0.3784855
vt 0.8827277 0.3784855
vt 0.8827277 0.2732817
vt 0.8540808 0.2732817
vt 0.8540808 0.3784855
vt 0.8540808 0.3784855
vt 0.8540808 0.2732817
vt 0.8827277 0.2732817
vt 0.8827277 0.3784855
vt 0.9113744 0.3784855
vt 0.9113746 0.2732817
vt 0.9113746 0.2732817
vt 0.9113744 0.3784855
vt 0.810858 0.4400602
vt 0.9654446 0.4116508
vt 0.9304389 0.2917616
vt 0.7867513 0.3987713
vt 0.7848532 0.3509979
vt 0.9304385 0.2917627
vt 0.7848548 0.3509971
vt 0.7867529 0.3987705
vt 0.8108592 0.4400602
vt 0.9654447 0.4116504
vt 0.9654436 0.4116498
vt 0.9304389 0.2917616
vt 0.7848542 0.3509965
vt 0.8108596 0.4400593
vt 0.7867529 0.3987705
vn 0.4148703 0 -0.9098805
vn 0.4148703 0 -0.9098805
vn 0.4148703 0 -0.9098805
vn 0.2074355 -0.3592879 -0.9098806
vn 0.2074355 -0.3592879 -0.9098806
vn 0.2074355 -0.3592879 -0.9098806
vn -0.2074336 -0.3592854 -0.909882
vn -0.2074336 -0.3592854 -0.909882
vn -0.2074336 -0.3592854 -0.909882
vn -0.4148637 0 -0.9098836
vn -0.4148637 0 -0.9098836
vn -0.4148637 0 -0.9098836
vn -0.2074303 0.3592838 -0.9098835
vn -0.2074303 0.3592838 -0.9098835
vn -0.2074303 0.3592838 -0.9098835
vn 0.2074321 0.3592863 -0.909882
vn 0.2074321 0.3592863 -0.909882
vn 0.2074321 0.3592863 -0.909882
vn 0 0 -1
vn 0 0 -1
vn 0 0 -1
vn -1 0 0
vn -1 0 0
vn -1 0 0
vn -1 0 0
vn 0.5000007 -0.866025 0
vn 0.5000007 -0.866025 0
vn 0.5000007 -0.866025 0
vn 0.5000007 -0.866025 0
vn 0.4999963 0.8660275 0
vn 0.4999963 0.8660275 0
vn 0.4999963 0.8660275 0
vn 0.4999963 0.8660275 0
vn -0.4999956 0.866028 0
vn -0.4999956 0.866028 0
vn -0.4999956 0.866028 0
vn -0.4999956 0.866028 0
vn -0.5000001 -0.8660253 0
vn -0.5000001 -0.8660253 0
vn -0.5000001 -0.8660253 0
vn -0.5000001 -0.8660253 0
vn 1 0 0
vn 1 0 0
vn 1 0 0
vn 1 0 0
vn 0 0.1014612 -0.9948395
vn 0 0.1014612 -0.9948395
vn 0 0.1014612 -0.9948395
vn 0 0.1014612 -0.9948395
vn 0 0.1014612 -0.9948395
vn -0.08786893 -0.05073158 -0.9948394
vn -0.08786893 -0.05073158 -0.9948394
vn -0.08786893 -0.05073158 -0.9948394
vn -0.08786893 -0.05073158 -0.9948394
vn -0.08786893 -0.05073158 -0.9948394
vn 0.08786894 -0.05073145 -0.9948394
vn 0.08786894 -0.05073145 -0.9948394
vn 0.08786894 -0.05073145 -0.9948394
vn 0.08786894 -0.05073145 -0.9948394
vn 0.08786894 -0.05073145 -0.9948394
g Fan_0
f 3/3/3 2/2/2 1/1/1
f 6/6/6 5/5/5 4/4/4
f 9/9/9 8/8/8 7/7/7
f 12/12/12 11/11/11 10/10/10
f 15/15/15 14/14/14 13/13/13
f 18/18/18 17/17/17 16/16/16
f 21/21/21 20/20/20 19/19/19
f 24/24/24 23/23/23 22/22/22
f 25/25/25 24/24/24 22/22/22
f 28/28/28 27/27/27 26/26/26
f 29/29/29 28/28/28 26/26/26
f 32/32/32 31/31/31 30/30/30
f 33/33/33 32/32/32 30/30/30
f 36/36/36 35/35/35 34/34/34
f 37/37/37 36/36/36 34/34/34
f 40/40/40 39/39/39 38/38/38
f 41/41/41 40/40/40 38/38/38
f 44/44/44 43/43/43 42/42/42
f 45/45/45 44/44/44 42/42/42
f 48/48/48 47/47/47 46/46/46
f 46/46/46 49/49/49 48/48/48
f 49/49/49 50/50/50 48/48/48
f 53/53/53 52/52/52 51/51/51
f 51/51/51 54/54/54 53/53/53
f 51/51/51 55/55/55 54/54/54
f 58/58/58 57/57/57 56/56/56
f 56/56/56 59/59/59 58/58/58
f 59/59/59 60/60/60 58/58/58
