g FX_Sphere_Puff_01
v 0.338017 0.3780291 -0.4852168
v 0.505745 0.1230614 -0.4828541
v 0.5591123 0.3662206 -0.245019
v 0.505745 0.1230614 -0.4828541
v 0.338017 0.3780291 -0.4852168
v 0.2489797 0.1345908 -0.609962
v 0.5591123 0.3662206 -0.245019
v 0.505745 0.1230614 -0.4828541
v 0.6755069 0.1305238 -0.1747023
v -0.5567572 0.3124295 -0.235571
v -0.3386264 0.5202364 -0.1677736
v -0.5038089 0.4511818 0.02080768
v 0.5130154 0.008476694 0.55093
v 0.528444 0.3475514 0.4603343
v 0.6695046 0.03986964 0.2365977
v 0.1890853 -0.2848095 0.6256082
v 0.5130154 0.008476694 0.55093
v 0.5804092 -0.2774393 0.318186
v -0.5038089 0.4511818 0.02080768
v -0.5165696 0.2684645 0.2680295
v -0.6537457 0.2683248 0.02431696
v -0.502939 -0.3527941 -0.2748451
v -0.3613929 -0.540384 -0.002624104
v -0.1837645 -0.5598692 -0.3090262
v -0.04508858 0.4025075 -0.3377036
v -0.3215345 0.1128907 -0.401626
v -0.0225065 0.131216 -0.6484944
v -0.5038089 0.4511818 0.02080768
v -0.3386264 0.5202364 -0.1677736
v -0.3025396 0.4800245 0.1771403
v -0.5165696 0.2684645 0.2680295
v -0.5038089 0.4511818 0.02080768
v -0.3025396 0.4800245 0.1771403
v -0.1096616 0.003233558 0.5758238
v 0.1481295 0.3588232 0.6100469
v 0.1245343 0.04500439 0.6775873
v -0.3613929 -0.540384 -0.002624104
v -0.1861263 -0.6077243 0.2707694
v 0.1605396 -0.6008406 -0.02242972
v -0.4982305 -0.364203 0.3006927
v -0.3613929 -0.540384 -0.002624104
v -0.6141511 -0.3107241 -0.0005863573
v -0.1096616 0.003233558 0.5758238
v 0.1245343 0.04500439 0.6775873
v 0.1890853 -0.2848095 0.6256082
v 0.5130154 0.008476694 0.55093
v 0.1890853 -0.2848095 0.6256082
v 0.1245343 0.04500439 0.6775873
v 0.5130154 0.008476694 0.55093
v 0.6695046 0.03986964 0.2365977
v 0.5804092 -0.2774393 0.318186
v 0.505745 0.1230614 -0.4828541
v 0.5835817 -0.1899995 -0.247227
v 0.6755069 0.1305238 -0.1747023
v 0.3503485 -0.1551017 -0.5995862
v 0.505745 0.1230614 -0.4828541
v 0.2489797 0.1345908 -0.609962
v -0.3215345 0.1128907 -0.401626
v -0.001898223 -0.337113 -0.5135714
v -0.0225065 0.131216 -0.6484944
v -0.502939 -0.3527941 -0.2748451
v -0.6141511 -0.3107241 -0.0005863573
v -0.3613929 -0.540384 -0.002624104
v 0.2933672 0.5215529 0.3291989
v 0.528444 0.3475514 0.4603343
v 0.1481295 0.3588232 0.6100469
v -0.5567572 0.3124295 -0.235571
v -0.5038089 0.4511818 0.02080768
v -0.6537457 0.2683248 0.02431696
v 0.3503485 -0.1551017 -0.5995862
v 0.5835817 -0.1899995 -0.247227
v 0.505745 0.1230614 -0.4828541
v -0.3613929 -0.540384 -0.002624104
v 0.1605396 -0.6008406 -0.02242972
v -0.1837645 -0.5598692 -0.3090262
v -0.3613929 -0.540384 -0.002624104
v -0.4982305 -0.364203 0.3006927
v -0.1861263 -0.6077243 0.2707694
v -0.3386264 0.5202364 -0.1677736
v -0.04508858 0.4025075 -0.3377036
v -0.01537685 0.4581931 -0.05072831
v -0.2836289 -0.01426064 0.4658245
v -0.4982305 -0.364203 0.3006927
v -0.5119423 0.006775802 0.3252566
v -0.5165696 0.2684645 0.2680295
v -0.2836289 -0.01426064 0.4658245
v -0.5119423 0.006775802 0.3252566
v 0.1481295 0.3588232 0.6100469
v 0.528444 0.3475514 0.4603343
v 0.5130154 0.008476694 0.55093
v 0.1245343 0.04500439 0.6775873
v -0.04508858 0.4025075 -0.3377036
v -0.3386264 0.5202364 -0.1677736
v -0.5567572 0.3124295 -0.235571
v -0.3215345 0.1128907 -0.401626
v -0.6256903 -0.001939694 0.01143778
v -0.6537457 0.2683248 0.02431696
v -0.5165696 0.2684645 0.2680295
v -0.5119423 0.006775802 0.3252566
v -0.4982305 -0.364203 0.3006927
v -0.6141511 -0.3107241 -0.0005863573
v -0.09124107 0.3929295 0.3977212
v -0.3025396 0.4800245 0.1771403
v -0.3386264 0.5202364 -0.1677736
v -0.01537685 0.4581931 -0.05072831
v -0.2836289 -0.01426064 0.4658245
v -0.5165696 0.2684645 0.2680295
v -0.3025396 0.4800245 0.1771403
v -0.09124107 0.3929295 0.3977212
v -0.3215345 0.1128907 -0.401626
v -0.5567572 0.3124295 -0.235571
v -0.5090765 0.009736419 -0.2850122
v -0.502939 -0.3527941 -0.2748451
v 0.338017 0.3780291 -0.4852168
v 0.5591123 0.3662206 -0.245019
v 0.4697829 0.4223309 0.04692515
v 0.2408464 0.4352168 -0.1504944
v -0.0225065 0.131216 -0.6484944
v 0.2489797 0.1345908 -0.609962
v 0.338017 0.3780291 -0.4852168
v -0.04508858 0.4025075 -0.3377036
v 0.4697829 0.4223309 0.04692515
v 0.5591123 0.3662206 -0.245019
v 0.6755069 0.1305238 -0.1747023
v 0.6658291 0.1241164 0.03549282
v 0.528444 0.3475514 0.4603343
v 0.6695046 0.03986964 0.2365977
v 0.6658291 0.1241164 0.03549282
v 0.6755069 0.1305238 -0.1747023
v 0.5835817 -0.1899995 -0.247227
v 0.4853644 -0.3970401 -0.03079768
v -0.001898223 -0.337113 -0.5135714
v 0.3503485 -0.1551017 -0.5995862
v 0.2489797 0.1345908 -0.609962
v -0.0225065 0.131216 -0.6484944
v 0.4853644 -0.3970401 -0.03079768
v 0.5835817 -0.1899995 -0.247227
v 0.3503485 -0.1551017 -0.5995862
v -0.001898223 -0.337113 -0.5135714
v -0.3215345 0.1128907 -0.401626
v -0.502939 -0.3527941 -0.2748451
v -0.1837645 -0.5598692 -0.3090262
v -0.001898223 -0.337113 -0.5135714
v 0.4853644 -0.3970401 -0.03079768
v 0.1605396 -0.6008406 -0.02242972
v -0.1861263 -0.6077243 0.2707694
v -0.006224152 -0.4325757 0.4022405
v -0.001898223 -0.337113 -0.5135714
v -0.1837645 -0.5598692 -0.3090262
v 0.1605396 -0.6008406 -0.02242972
v 0.4853644 -0.3970401 -0.03079768
v -0.006224152 -0.4325757 0.4022405
v -0.1861263 -0.6077243 0.2707694
v -0.4982305 -0.364203 0.3006927
v -0.2836289 -0.01426064 0.4658245
v -0.006224152 -0.4325757 0.4022405
v 0.1890853 -0.2848095 0.6256082
v 0.5804092 -0.2774393 0.318186
v 0.4853644 -0.3970401 -0.03079768
v -0.09124107 0.3929295 0.3977212
v 0.1481295 0.3588232 0.6100469
v -0.1096616 0.003233558 0.5758238
v -0.2836289 -0.01426064 0.4658245
v -0.2836289 -0.01426064 0.4658245
v -0.1096616 0.003233558 0.5758238
v 0.1890853 -0.2848095 0.6256082
v -0.006224152 -0.4325757 0.4022405
v 0.4853644 -0.3970401 -0.03079768
v 0.5804092 -0.2774393 0.318186
v 0.6695046 0.03986964 0.2365977
v 0.6658291 0.1241164 0.03549282
v 0.2933672 0.5215529 0.3291989
v 0.1481295 0.3588232 0.6100469
v -0.09124107 0.3929295 0.3977212
v -0.01537685 0.4581931 -0.05072831
v 0.4697829 0.4223309 0.04692515
v 0.528444 0.3475514 0.4603343
v 0.2933672 0.5215529 0.3291989
v 0.2408464 0.4352168 -0.1504944
v -0.04508858 0.4025075 -0.3377036
v 0.338017 0.3780291 -0.4852168
v 0.2408464 0.4352168 -0.1504944
v -0.01537685 0.4581931 -0.05072831
v 0.2933672 0.5215529 0.3291989
v -0.6256903 -0.001939694 0.01143778
v -0.6141511 -0.3107241 -0.0005863573
v -0.502939 -0.3527941 -0.2748451
v -0.5090765 0.009736419 -0.2850122
v -0.5567572 0.3124295 -0.235571
v -0.6537457 0.2683248 0.02431696
vt 0.316949 0.3072462
vt 0.316949 0.3072462
vt 0.316949 0.3072462
vt 0.316949 0.3072462
vt 0.316949 0.3072462
vt 0.316949 0.3072462
vt 0.316949 0.3072462
vt 0.316949 0.3072462
vt 0.316949 0.3072462
vt 0.316949 0.3072462
vt 0.316949 0.3072462
vt 0.316949 0.3072462
vt 0.316949 0.3072462
vt 0.316949 0.3072462
vt 0.316949 0.3072462
vt 0.316949 0.3072462
vt 0.316949 0.3072462
vt 0.316949 0.3072462
vt 0.316949 0.3072462
vt 0.316949 0.3072462
vt 0.316949 0.3072462
vt 0.316949 0.3072462
vt 0.316949 0.3072462
vt 0.316949 0.3072462
vt 0.316949 0.3072462
vt 0.316949 0.3072462
vt 0.316949 0.3072462
vt 0.316949 0.3072462
vt 0.316949 0.3072462
vt 0.316949 0.3072462
vt 0.316949 0.3072462
vt 0.316949 0.3072462
vt 0.316949 0.3072462
vt 0.316949 0.3072462
vt 0.316949 0.3072462
vt 0.316949 0.3072462
vt 0.316949 0.3072462
vt 0.316949 0.3072462
vt 0.316949 0.3072462
vt 0.316949 0.3072462
vt 0.316949 0.3072462
vt 0.316949 0.3072462
vt 0.316949 0.3072462
vt 0.316949 0.3072462
vt 0.316949 0.3072462
vt 0.316949 0.3072462
vt 0.316949 0.3072462
vt 0.316949 0.3072462
vt 0.316949 0.3072462
vt 0.316949 0.3072462
vt 0.316949 0.3072462
vt 0.316949 0.3072462
vt 0.316949 0.3072462
vt 0.316949 0.3072462
vt 0.316949 0.3072462
vt 0.316949 0.3072462
vt 0.316949 0.3072462
vt 0.316949 0.3072462
vt 0.316949 0.3072462
vt 0.316949 0.3072462
vt 0.316949 0.3072462
vt 0.316949 0.3072462
vt 0.316949 0.3072462
vt 0.316949 0.3072462
vt 0.316949 0.3072462
vt 0.316949 0.3072462
vt 0.316949 0.3072462
vt 0.316949 0.3072462
vt 0.316949 0.3072462
vt 0.316949 0.3072462
vt 0.316949 0.3072462
vt 0.316949 0.3072462
vt 0.316949 0.3072462
vt 0.316949 0.3072462
vt 0.316949 0.3072462
vt 0.316949 0.3072462
vt 0.316949 0.3072462
vt 0.316949 0.3072462
vt 0.316949 0.3072462
vt 0.316949 0.3072462
vt 0.316949 0.3072462
vt 0.316949 0.3072462
vt 0.316949 0.3072462
vt 0.316949 0.3072462
vt 0.316949 0.3072462
vt 0.316949 0.3072462
vt 0.316949 0.3072462
vt 0.316949 0.3072462
vt 0.316949 0.3072462
vt 0.316949 0.3072462
vt 0.316949 0.3072462
vt 0.316949 0.3072462
vt 0.316949 0.3072462
vt 0.316949 0.3072462
vt 0.316949 0.3072462
vt 0.316949 0.3072462
vt 0.316949 0.3072462
vt 0.316949 0.3072462
vt 0.316949 0.3072462
vt 0.316949 0.3072462
vt 0.316949 0.3072462
vt 0.316949 0.3072462
vt 0.316949 0.3072462
vt 0.316949 0.3072462
vt 0.316949 0.3072462
vt 0.316949 0.3072462
vt 0.316949 0.3072462
vt 0.316949 0.3072462
vt 0.316949 0.3072462
vt 0.316949 0.3072462
vt 0.316949 0.3072462
vt 0.316949 0.3072462
vt 0.316949 0.3072462
vt 0.316949 0.3072462
vt 0.316949 0.3072462
vt 0.316949 0.3072462
vt 0.316949 0.3072462
vt 0.316949 0.3072462
vt 0.316949 0.3072462
vt 0.316949 0.3072462
vt 0.316949 0.3072462
vt 0.316949 0.3072462
vt 0.316949 0.3072462
vt 0.316949 0.3072462
vt 0.316949 0.3072462
vt 0.316949 0.3072462
vt 0.316949 0.3072462
vt 0.316949 0.3072462
vt 0.316949 0.3072462
vt 0.316949 0.3072462
vt 0.316949 0.3072462
vt 0.316949 0.3072462
vt 0.316949 0.3072462
vt 0.316949 0.3072462
vt 0.316949 0.3072462
vt 0.316949 0.3072462
vt 0.316949 0.3072462
vt 0.316949 0.3072462
vt 0.316949 0.3072462
vt 0.316949 0.3072462
vt 0.316949 0.3072462
vt 0.316949 0.3072462
vt 0.316949 0.3072462
vt 0.316949 0.3072462
vt 0.316949 0.3072462
vt 0.316949 0.3072462
vt 0.316949 0.3072462
vt 0.316949 0.3072462
vt 0.316949 0.3072462
vt 0.316949 0.3072462
vt 0.316949 0.3072462
vt 0.316949 0.3072462
vt 0.316949 0.3072462
vt 0.316949 0.3072462
vt 0.316949 0.3072462
vt 0.316949 0.3072462
vt 0.316949 0.3072462
vt 0.316949 0.3072462
vt 0.316949 0.3072462
vt 0.316949 0.3072462
vt 0.316949 0.3072462
vt 0.316949 0.3072462
vt 0.316949 0.3072462
vt 0.316949 0.3072462
vt 0.316949 0.3072462
vt 0.316949 0.3072462
vt 0.316949 0.3072462
vt 0.316949 0.3072462
vt 0.316949 0.3072462
vt 0.316949 0.3072462
vt 0.316949 0.3072462
vt 0.316949 0.3072462
vt 0.316949 0.3072462
vt 0.316949 0.3072462
vt 0.316949 0.3072462
vt 0.316949 0.3072462
vt 0.316949 0.3072462
vt 0.316949 0.3072462
vt 0.316949 0.3072462
vt 0.316949 0.3072462
vt 0.316949 0.3072462
vt 0.316949 0.3072462
vt 0.316949 0.3072462
vt 0.316949 0.3072462
vt 0.316949 0.3072462
vt 0.316949 0.3072462
vt 0.316949 0.3072462
vt 0.316949 0.3072462
vt 0.316949 0.3072462
vt 0.316949 0.3072462
vn 0.6724468 0.4368259 -0.5974935
vn 0.6724468 0.4368259 -0.5974935
vn 0.6724468 0.4368259 -0.5974934
vn 0.4360726 0.2789377 -0.8555902
vn 0.4360726 0.2789377 -0.8555902
vn 0.4360726 0.2789376 -0.8555902
vn 0.8393915 0.2745771 -0.4690729
vn 0.8393915 0.2745771 -0.4690729
vn 0.8393915 0.2745771 -0.4690729
vn -0.6182863 0.7375757 -0.2714855
vn -0.6182863 0.7375757 -0.2714855
vn -0.6182862 0.7375756 -0.2714854
vn 0.8891234 0.07994509 0.4506311
vn 0.8891234 0.07994509 0.4506311
vn 0.8891234 0.07994509 0.4506311
vn 0.5599598 -0.4396578 0.7022436
vn 0.5599598 -0.4396578 0.7022436
vn 0.5599598 -0.4396578 0.7022436
vn -0.7059714 0.586493 0.3970268
vn -0.7059715 0.5864929 0.3970268
vn -0.7059715 0.586493 0.3970268
vn -0.5446151 -0.7956774 -0.2651263
vn -0.5446151 -0.7956774 -0.2651263
vn -0.5446152 -0.7956773 -0.2651262
vn -0.5195797 0.6246253 -0.5829924
vn -0.5195797 0.6246254 -0.5829924
vn -0.5195797 0.6246254 -0.5829924
vn -0.2443376 0.9598959 0.1374734
vn -0.2443376 0.9598959 0.1374734
vn -0.2443376 0.9598959 0.1374734
vn -0.4913315 0.7123616 0.5011331
vn -0.4913315 0.7123616 0.5011331
vn -0.4913315 0.7123616 0.5011331
vn -0.42156 0.2209749 0.8794643
vn -0.42156 0.2209749 0.8794643
vn -0.42156 0.2209749 0.8794643
vn -0.119652 -0.9791 -0.1644584
vn -0.119652 -0.9791 -0.1644584
vn -0.119652 -0.9791 -0.1644584
vn -0.6665593 -0.7347177 0.1260495
vn -0.6665593 -0.7347177 0.1260495
vn -0.6665593 -0.7347177 0.1260495
vn -0.357124 -0.213218 0.9093957
vn -0.357124 -0.213218 0.9093957
vn -0.357124 -0.213218 0.9093957
vn 0.300976 -0.09070525 0.9493082
vn 0.300976 -0.09070525 0.9493082
vn 0.300976 -0.09070525 0.9493082
vn 0.8919012 -0.1398518 0.4300624
vn 0.8919012 -0.1398518 0.4300624
vn 0.8919012 -0.1398518 0.4300625
vn 0.8685016 -0.1415984 -0.4750314
vn 0.8685016 -0.1415984 -0.4750314
vn 0.8685016 -0.1415984 -0.4750314
vn 0.4446964 0.1238354 -0.8870794
vn 0.4446964 0.1238354 -0.8870794
vn 0.4446964 0.1238354 -0.8870794
vn -0.6084051 -0.2443086 -0.7550872
vn -0.6084051 -0.2443085 -0.7550871
vn -0.608405 -0.2443086 -0.7550872
vn -0.6647765 -0.7302393 -0.1575522
vn -0.6647765 -0.7302393 -0.1575522
vn -0.6647766 -0.7302393 -0.1575522
vn 0.2509885 0.7755914 0.5791914
vn 0.2509885 0.7755914 0.5791914
vn 0.2509885 0.7755914 0.5791913
vn -0.7624684 0.6217635 -0.1790307
vn -0.7624685 0.6217634 -0.1790307
vn -0.7624685 0.6217635 -0.1790307
vn 0.8040166 -0.2168172 -0.5536675
vn 0.8040166 -0.2168172 -0.5536675
vn 0.8040166 -0.2168172 -0.5536674
vn -0.1151975 -0.9933361 -0.003613077
vn -0.1151975 -0.9933361 -0.003613077
vn -0.1151974 -0.9933361 -0.003613076
vn -0.5930451 -0.7830799 0.1873056
vn -0.5930451 -0.7830799 0.1873056
vn -0.5930451 -0.7830799 0.1873056
vn 0.2569899 0.9433961 -0.2096668
vn 0.2569899 0.9433961 -0.2096668
vn 0.2569899 0.9433961 -0.2096668
vn -0.5278191 -0.07552516 0.8459923
vn -0.5278191 -0.07552516 0.8459923
vn -0.5278191 -0.07552516 0.8459923
vn -0.5042923 0.1759614 0.8454152
vn -0.5042923 0.1759614 0.8454152
vn -0.5042923 0.1759614 0.8454152
vn 0.342417 0.2017892 0.9176229
vn 0.342417 0.2017893 0.9176229
vn 0.342417 0.2017892 0.9176229
vn 0.342417 0.2017892 0.9176229
vn -0.2518534 0.4738583 -0.8438177
vn -0.2518534 0.4738583 -0.8438177
vn -0.2518534 0.4738583 -0.8438177
vn -0.2518534 0.4738582 -0.8438177
vn -0.9271293 -0.04053782 0.3725426
vn -0.9115545 -0.02177379 0.4106024
vn -0.9115545 -0.02177379 0.4106024
vn -0.9272478 -0.04068971 0.3722307
vn -0.9367557 -0.05341463 0.3458837
vn -0.9367557 -0.05341463 0.3458837
vn 0.1839589 0.9731137 0.138596
vn 0.1839589 0.9731137 0.138596
vn 0.1839589 0.9731137 0.138596
vn 0.1839589 0.9731137 0.138596
vn -0.3789653 0.4558576 0.805344
vn -0.3789654 0.4558576 0.805344
vn -0.3789653 0.4558575 0.805344
vn -0.3789653 0.4558576 0.805344
vn -0.5341551 0.01560434 -0.8452424
vn -0.5471738 0.05027833 -0.8355076
vn -0.5276597 -0.0009675989 -0.8494554
vn -0.5147116 -0.03274097 -0.856738
vn 0.1747372 0.976702 -0.1245797
vn 0.1747372 0.9767021 -0.1245797
vn 0.1747372 0.976702 -0.1245798
vn 0.1747372 0.976702 -0.1245797
vn -0.1043252 0.6502287 -0.7525417
vn -0.1043252 0.6502287 -0.7525417
vn -0.1043252 0.6502287 -0.7525417
vn -0.1043252 0.6502287 -0.7525417
vn 0.8694333 0.4896874 0.0655131
vn 0.8514311 0.5111856 0.1172788
vn 0.8514311 0.5111856 0.1172788
vn 0.8696876 0.4893422 0.06471223
vn 0.8788924 0.4758084 0.0339763
vn 0.8788925 0.4758084 0.0339763
vn 0.944505 -0.3187599 0.07938781
vn 0.944505 -0.3187599 0.07938781
vn 0.944505 -0.3187599 0.0793878
vn 0.944505 -0.3187599 0.07938781
vn -0.01794075 -0.191008 -0.9814246
vn -0.01794075 -0.191008 -0.9814246
vn -0.01794075 -0.191008 -0.9814246
vn -0.01794075 -0.191008 -0.9814246
vn 0.401243 -0.804715 -0.4375362
vn 0.401243 -0.804715 -0.4375362
vn 0.401243 -0.804715 -0.4375362
vn 0.401243 -0.804715 -0.4375362
vn -0.4155283 -0.2070042 -0.8857118
vn -0.4155283 -0.2070042 -0.8857118
vn -0.4155283 -0.2070042 -0.8857118
vn -0.4155283 -0.2070042 -0.8857118
vn 0.4507475 -0.7550421 0.4761704
vn 0.4507475 -0.7550421 0.4761704
vn 0.4507474 -0.7550421 0.4761704
vn 0.4507475 -0.7550421 0.4761704
vn 0.4026705 -0.7442768 -0.5328307
vn 0.4026705 -0.7442768 -0.5328306
vn 0.4026705 -0.7442768 -0.5328306
vn 0.4026706 -0.7442768 -0.5328306
vn -0.2350706 -0.3381295 0.9112685
vn -0.2350705 -0.3381295 0.9112685
vn -0.2350705 -0.3381294 0.9112685
vn -0.2350706 -0.3381295 0.9112685
vn 0.2829818 -0.9160073 0.2843449
vn 0.2829818 -0.9160073 0.2843449
vn 0.2829818 -0.9160073 0.2843449
vn 0.2829818 -0.9160073 0.2843449
vn -0.5632551 0.3653415 0.741127
vn -0.5632551 0.3653414 0.741127
vn -0.5632551 0.3653415 0.741127
vn -0.5632551 0.3653415 0.741127
vn -0.4971402 -0.4203292 0.7590618
vn -0.4971402 -0.4203292 0.7590618
vn -0.4971403 -0.4203292 0.7590618
vn -0.4971403 -0.4203292 0.7590619
vn 0.9405607 -0.3051048 -0.1491863
vn 0.9405607 -0.3051048 -0.1491863
vn 0.9405607 -0.3051048 -0.1491863
vn 0.9405607 -0.3051048 -0.1491863
vn -0.2763636 0.9379546 0.2094383
vn -0.2763637 0.9379546 0.2094383
vn -0.2763636 0.9379545 0.2094383
vn -0.2763636 0.9379545 0.2094383
vn 0.4108715 0.9095196 -0.06291821
vn 0.4108715 0.9095197 -0.06291821
vn 0.4108715 0.9095197 -0.06291822
vn 0.4108715 0.9095196 -0.06291821
vn 0.00380946 0.9840673 -0.1777553
vn -0.002098187 0.9856134 -0.1690024
vn 0.009794733 0.9840224 -0.1777751
vn 0.01653447 0.9828099 -0.1838782
vn 0.018485 0.9836634 -0.1790655
vn -0.9286756 -0.05122516 -0.3673386
vn -0.9289072 -0.02343722 -0.36957
vn -0.9289072 -0.02343722 -0.36957
vn -0.9287103 -0.04953724 -0.3674824
vn -0.9275255 -0.08296481 -0.3644357
vn -0.9275255 -0.08296481 -0.3644357
g FX_Sphere_Puff_01_0
f 3/3/3 2/2/2 1/1/1
f 6/6/6 5/5/5 4/4/4
f 9/9/9 8/8/8 7/7/7
f 12/12/12 11/11/11 10/10/10
f 15/15/15 14/14/14 13/13/13
f 18/18/18 17/17/17 16/16/16
f 21/21/21 20/20/20 19/19/19
f 24/24/24 23/23/23 22/22/22
f 27/27/27 26/26/26 25/25/25
f 30/30/30 29/29/29 28/28/28
f 33/33/33 32/32/32 31/31/31
f 36/36/36 35/35/35 34/34/34
f 39/39/39 38/38/38 37/37/37
f 42/42/42 41/41/41 40/40/40
f 45/45/45 44/44/44 43/43/43
f 48/48/48 47/47/47 46/46/46
f 51/51/51 50/50/50 49/49/49
f 54/54/54 53/53/53 52/52/52
f 57/57/57 56/56/56 55/55/55
f 60/60/60 59/59/59 58/58/58
f 63/63/63 62/62/62 61/61/61
f 66/66/66 65/65/65 64/64/64
f 69/69/69 68/68/68 67/67/67
f 72/72/72 71/71/71 70/70/70
f 75/75/75 74/74/74 73/73/73
f 78/78/78 77/77/77 76/76/76
f 81/81/81 80/80/80 79/79/79
f 84/84/84 83/83/83 82/82/82
f 87/87/87 86/86/86 85/85/85
f 90/90/90 89/89/89 88/88/88
f 91/91/91 90/90/90 88/88/88
f 94/94/94 93/93/93 92/92/92
f 95/95/95 94/94/94 92/92/92
f 98/98/98 97/97/97 96/96/96
f 99/99/99 98/98/98 96/96/96
f 99/99/99 96/96/96 100/100/100
f 96/96/96 101/101/101 100/100/100
f 104/104/104 103/103/103 102/102/102
f 105/105/105 104/104/104 102/102/102
f 108/108/108 107/107/107 106/106/106
f 109/109/109 108/108/108 106/106/106
f 112/112/112 111/111/111 110/110/110
f 112/112/112 110/110/110 113/113/113
f 116/116/116 115/115/115 114/114/114
f 117/117/117 116/116/116 114/114/114
f 120/120/120 119/119/119 118/118/118
f 121/121/121 120/120/120 118/118/118
f 124/124/124 123/123/123 122/122/122
f 125/125/125 124/124/124 122/122/122
f 122/122/122 126/126/126 125/125/125
f 126/126/126 127/127/127 125/125/125
f 130/130/130 129/129/129 128/128/128
f 131/131/131 130/130/130 128/128/128
f 134/134/134 133/133/133 132/132/132
f 135/135/135 134/134/134 132/132/132
f 138/138/138 137/137/137 136/136/136
f 139/139/139 138/138/138 136/136/136
f 142/142/142 141/141/141 140/140/140
f 143/143/143 142/142/142 140/140/140
f 146/146/146 145/145/145 144/144/144
f 147/147/147 146/146/146 144/144/144
f 150/150/150 149/149/149 148/148/148
f 151/151/151 150/150/150 148/148/148
f 154/154/154 153/153/153 152/152/152
f 155/155/155 154/154/154 152/152/152
f 158/158/158 157/157/157 156/156/156
f 159/159/159 158/158/158 156/156/156
f 162/162/162 161/161/161 160/160/160
f 163/163/163 162/162/162 160/160/160
f 166/166/166 165/165/165 164/164/164
f 167/167/167 166/166/166 164/164/164
f 170/170/170 169/169/169 168/168/168
f 171/171/171 170/170/170 168/168/168
f 174/174/174 173/173/173 172/172/172
f 175/175/175 174/174/174 172/172/172
f 178/178/178 177/177/177 176/176/176
f 179/179/179 178/178/178 176/176/176
f 182/182/182 181/181/181 180/180/180
f 182/182/182 180/180/180 183/183/183
f 182/182/182 183/183/183 184/184/184
f 187/187/187 186/186/186 185/185/185
f 188/188/188 187/187/187 185/185/185
f 188/188/188 185/185/185 189/189/189
f 185/185/185 190/190/190 189/189/189
