g Grass_Patch_1A
v 1.286919 0.3999999 -1.58296
v 1.23337 0.9341542 -1.479005
v 1.17623 0.3999999 -1.573851
v -1.07103 0.3999999 -1.391607
v -0.8818122 1.018757 -1.440573
v -0.9759429 0.3999999 -1.282817
v 0.6763349 0.3999999 -1.039621
v 0.495532 1.136281 -1.068154
v 0.6084349 0.3999999 -1.199661
v 1.25265 0.3999999 -1.340083
v 1.351328 0.3999999 -1.289117
v 1.353171 0.9341542 -1.399829
v -1.726968 0.3999999 -1.474923
v -1.649177 0.3999999 -1.580604
v -1.778022 1.031122 -1.603308
v 0.5388138 0.3999999 -1.589835
v 0.5455546 0.3999999 -1.478977
v 0.6416001 0.9341542 -1.534078
v -1.407483 0.3999999 -1.267193
v -1.498938 0.9341542 -1.194323
v -1.512179 0.3999999 -1.304256
v -0.2076834 0.3999999 -1.619794
v -0.243547 0.9341542 -1.731094
v -0.1360236 0.3999999 -1.704646
v 0.6740304 0.3999999 -1.040238
v 0.6061303 0.3999999 -1.200278
v 0.4932273 1.136281 -1.068772
v 1.249602 0.3999999 -1.337928
v 1.350123 0.9341542 -1.397673
v 1.34828 0.3999999 -1.286961
v -1.726968 0.3999999 -1.472537
v -1.778022 1.031122 -1.600922
v -1.649177 0.3999999 -1.578218
v 0.5365093 0.3999999 -1.589218
v 0.6392954 0.9341542 -1.53346
v 0.5432498 0.3999999 -1.47836
v -1.407483 0.3999999 -1.264807
v -1.512179 0.3999999 -1.30187
v -1.498938 0.9341542 -1.191937
v -0.2099881 0.3999999 -1.619177
v -0.1383283 0.3999999 -1.704029
v -0.2458517 0.9341542 -1.730477
v 1.695089 0.3999999 0.399853
v 1.51205 1.136281 0.4008044
v 1.602305 0.3999999 0.2528348
v -1.067203 0.3999999 -1.391607
v -0.9721167 0.3999999 -1.282817
v -0.877986 1.018757 -1.440573
v 1.691775 0.3999999 0.4017662
v 1.598991 0.3999999 0.2547477
v 1.508737 1.136281 0.4027175
v 1.287909 0.3999999 -1.579264
v 1.177221 0.3999999 -1.570155
v 1.23436 0.9341542 -1.475309
v -1.658366 0.3999999 -1.86397
v -1.636973 0.3999999 -1.972953
v -1.743799 0.9341542 -1.943815
v -1.318421 0.3999999 -0.5106946
v -1.41196 0.3999999 -0.6208178
v -1.508312 1.018757 -0.4644084
v 1.174412 0.3999999 -0.4501954
v 1.170025 0.3999999 -0.6239883
v 1.016719 1.136281 -0.5431291
v -1.314595 0.3999999 -0.5106946
v -1.504485 1.018757 -0.4644084
v -1.408134 0.3999999 -0.6208178
v 1.178238 0.3999999 -0.4501954
v 1.020545 1.136281 -0.5431291
v 1.173851 0.3999999 -0.6239883
v -1.65454 0.3999999 -1.86397
v -1.739973 0.9341542 -1.943815
v -1.633147 0.3999999 -1.972953
v -1.716116 0.3999999 -0.07581515
v -1.694723 0.3999999 -0.184798
v -1.801549 0.9341542 -0.1556605
v -1.71229 0.3999999 -0.07581515
v -1.797723 0.9341542 -0.1556605
v -1.690897 0.3999999 -0.184798
v -0.223462 0.3999999 -1.190055
v -0.2660793 0.3999999 -1.292616
v -0.3388298 0.9341542 -1.20914
v -0.2224716 0.3999999 -1.186359
v -0.3378395 0.9341542 -1.205445
v -0.2650891 0.3999999 -1.28892
v -0.3941516 0.3999999 -0.2221316
v -0.3075987 0.9341542 -0.1435019
v -0.4140018 0.3999999 -0.1128572
v 0.9289703 0.3999999 0.5075021
v 1.118188 1.018757 0.4585365
v 1.024057 0.3999999 0.6162923
v -0.606887 0.3999999 -0.328306
v -0.7777337 1.136281 -0.2626151
v -0.7457098 0.3999999 -0.4329544
v 0.381369 0.3999999 1.035982
v 0.4050595 0.3999999 0.9274752
v 0.2976422 0.9341542 0.9543495
v 0.2730319 0.3999999 0.4241868
v 0.3508225 0.3999999 0.3185052
v 0.2219781 1.031122 0.2958015
v -1.090493 0.3999999 0.3328951
v -1.140084 0.3999999 0.4322711
v -1.029356 0.9341542 0.4325757
v -0.4570298 0.3999999 0.7358789
v -0.5510874 0.9341542 0.6664011
v -0.4483268 0.3999999 0.6251574
v 0.381646 0.3999999 1.680482
v 0.2648563 0.9341542 1.686317
v 0.3182325 0.3999999 1.589303
v -0.6091916 0.3999999 -0.3276885
v -0.7480144 0.3999999 -0.4323369
v -0.7800382 1.136281 -0.2619976
v 0.3842403 0.3999999 1.038368
v 0.3005135 0.9341542 0.9567356
v 0.4079308 0.3999999 0.929861
v 0.2730319 0.3999999 0.4265727
v 0.2219781 1.031122 0.2981875
v 0.3508225 0.3999999 0.3208912
v -1.092798 0.3999999 0.3322777
v -1.031661 0.9341542 0.4319582
v -1.142389 0.3999999 0.4316535
v -0.4593346 0.3999999 0.7364964
v -0.4506314 0.3999999 0.625775
v -0.553392 0.9341542 0.6670187
v 0.381646 0.3999999 1.682868
v 0.3182325 0.3999999 1.591689
v 0.2648563 0.9341542 1.688703
v -0.06979757 0.3999999 1.014042
v -0.0370764 1.136281 1.194135
v -0.1984708 0.3999999 1.130946
v 0.9327964 0.3999999 0.5075021
v 1.027883 0.3999999 0.6162924
v 1.122014 1.018757 0.4585365
v -0.06733818 0.3999999 1.016973
v -0.1960113 0.3999999 1.133877
v -0.03461703 1.136281 1.197066
v -0.3903255 0.3999999 -0.2221316
v -0.4101757 0.3999999 -0.1128572
v -0.3037726 0.9341542 -0.1435019
v 0.3416336 0.3999999 0.03513969
v 0.3630266 0.3999999 -0.07384308
v 0.2562009 0.9341542 -0.04470558
v 0.6815789 0.3999999 1.388415
v 0.5880394 0.3999999 1.278292
v 0.4916883 1.018757 1.434701
v 1.282503 0.3999999 1.638105
v 1.278116 0.3999999 1.464312
v 1.124809 1.136281 1.545171
v 0.6854051 0.3999999 1.388415
v 0.4955145 1.018757 1.434701
v 0.5918655 0.3999999 1.278292
v 1.286329 0.3999999 1.638105
v 1.128636 1.136281 1.545171
v 1.281942 0.3999999 1.464312
v 0.3454599 0.3999999 0.03513969
v 0.2600271 0.9341542 -0.04470558
v 0.3668527 0.3999999 -0.07384308
v -1.214247 0.3999999 1.389459
v -1.11701 0.3999999 1.335793
v -1.207997 0.9341542 1.27269
v -1.211788 0.3999999 1.39239
v -1.205538 0.9341542 1.275621
v -1.114551 0.3999999 1.338725
v -1.639439 0.4 1.728394
v -1.805006 1.018757 1.624527
v -1.625701 0.4 1.584561
v -1.635613 0.4 1.728394
v -1.621875 0.4 1.584561
v -1.80118 1.018757 1.624527
v -2 0 -2
v -2 0.2666666 -2
v -2 0.2666666 2
v -1.999999 0 2
v 2 0.2666666 -2
v 2 0.3999999 -2
v -2 0.3999999 -2
v -2 0.2666666 -2
v -2 0.2666666 2
v -2 0.3999999 2
v 2 0.3999999 2
v 2 0.2666666 2
v 2 0.2666666 2
v 2 0.3999999 2
v 2 0.3999999 -2
v 2 0.2666666 -2
v 2 0.3999999 -2
v 2 0.3999999 2
v -2 0.3999999 2
v -2 0.3999999 -2
v 2 0 -2
v 2 0.2666666 -2
v -2 0.2666666 -2
v -2 0 -2
v 2 0 2
v 2 0.2666666 2
v 2 0.2666666 -2
v 2 0 -2
v -2 0.2666666 -2
v -2 0.3999999 -2
v -2 0.3999999 2
v -2 0.2666666 2
v -1.999999 0 2
v -2 0.2666666 2
v 2 0.2666666 2
v 2 0 2
vt 0.8258865 0.8392049
vt 0.8294474 0.9533359
vt 0.8260185 0.8392049
vt 0.8308349 0.8392049
vt 0.827989 0.9714127
vt 0.8324113 0.8392049
vt 0.8360755 0.8392049
vt 0.8367262 0.9965239
vt 0.8337566 0.8392049
vt 0.831585 0.8392049
vt 0.8323235 0.8392049
vt 0.8289576 0.9533359
vt 0.8286231 0.8392049
vt 0.8270918 0.8392049
vt 0.8252011 0.9740548
vt 0.8265189 0.8392049
vt 0.8281251 0.8392049
vt 0.8273335 0.9533359
vt 0.8318177 0.8392049
vt 0.8347631 0.9533359
vt 0.8312806 0.8392049
vt 0.825885 0.8392049
vt 0.8228486 0.9533359
vt 0.8246554 0.8392049
vt 0.8360637 0.8392049
vt 0.8337447 0.8392049
vt 0.8367146 0.9965239
vt 0.8316261 0.8392049
vt 0.8289986 0.9533359
vt 0.8323646 0.8392049
vt 0.8286682 0.8392049
vt 0.8252465 0.9740548
vt 0.827137 0.8392049
vt 0.8265306 0.8392049
vt 0.8273453 0.9533359
vt 0.8281369 0.8392049
vt 0.831863 0.8392049
vt 0.831326 0.8392049
vt 0.8348083 0.9533359
vt 0.8258965 0.8392049
vt 0.8246671 0.8392049
vt 0.8228601 0.9533359
vt 0.863294 0.8392049
vt 0.8648471 0.9965239
vt 0.8611637 0.8392049
vt 0.8308349 0.8392049
vt 0.8324113 0.8392049
vt 0.827989 0.9714127
vt 0.8633304 0.8392049
vt 0.8612002 0.8392049
vt 0.8648833 0.9965239
vt 0.8259566 0.8392049
vt 0.8260887 0.8392049
vt 0.8295177 0.9533359
vt 0.8209628 0.8392049
vt 0.8193837 0.8392049
vt 0.8192818 0.9533359
vt 0.8459545 0.8392049
vt 0.8443588 0.8392049
vt 0.8487201 0.9714127
vt 0.8475391 0.8392049
vt 0.8450207 0.8392049
vt 0.8460677 0.9965239
vt 0.8459545 0.8392049
vt 0.8487201 0.9714127
vt 0.8443588 0.8392049
vt 0.8475391 0.8392049
vt 0.8460677 0.9965239
vt 0.8450207 0.8392049
vt 0.8209628 0.8392049
vt 0.8192818 0.9533359
vt 0.8193837 0.8392049
vt 0.8548923 0.8392049
vt 0.8533132 0.8392049
vt 0.8532112 0.9533359
vt 0.8548923 0.8392049
vt 0.8532112 0.9533359
vt 0.8533132 0.8392049
vt 0.833454 0.8392049
vt 0.8319679 0.8392049
vt 0.8338431 0.9533359
vt 0.8335242 0.8392049
vt 0.833913 0.9533359
vt 0.8320379 0.8392049
vt 0.8523391 0.8392049
vt 0.8539744 0.9533359
vt 0.8539225 0.8392049
vt 0.8668697 0.8392049
vt 0.8640236 0.9714127
vt 0.868446 0.8392049
vt 0.8780496 0.8392049
vt 0.8814408 0.9965239
vt 0.8765332 0.8392049
vt 0.8760002 0.8392049
vt 0.8744278 0.8392049
vt 0.8742514 0.9533359
vt 0.8646578 0.8392049
vt 0.8631265 0.8392049
vt 0.861236 0.9740548
vt 0.8627081 0.8392049
vt 0.864148 0.8392049
vt 0.8651858 0.9533359
vt 0.8702294 0.8392049
vt 0.8689307 0.9533359
vt 0.8686249 0.8392049
vt 0.8878429 0.8392049
vt 0.8889906 0.9533359
vt 0.8865218 0.8392049
vt 0.8780611 0.8392049
vt 0.8765448 0.8392049
vt 0.8814525 0.9965239
vt 0.8760453 0.8392049
vt 0.8742966 0.9533359
vt 0.8744732 0.8392049
vt 0.8647031 0.8392049
vt 0.8612812 0.9740548
vt 0.8631718 0.8392049
vt 0.8626962 0.8392049
vt 0.8651741 0.9533359
vt 0.8641363 0.8392049
vt 0.870241 0.8392049
vt 0.8686367 0.8392049
vt 0.8689426 0.9533359
vt 0.8878881 0.8392049
vt 0.8865671 0.8392049
vt 0.8890356 0.9533359
vt 0.8752853 0.8392049
vt 0.8804092 0.9965239
vt 0.8769792 0.8392049
vt 0.8668697 0.8392049
vt 0.868446 0.8392049
vt 0.8640236 0.9714127
vt 0.8753409 0.8392049
vt 0.8770347 0.8392049
vt 0.8804649 0.9965239
vt 0.8523391 0.8392049
vt 0.8539225 0.8392049
vt 0.8539744 0.9533359
vt 0.8569977 0.8392049
vt 0.8554185 0.8392049
vt 0.8553166 0.9533359
vt 0.8819892 0.8392049
vt 0.8803936 0.8392049
vt 0.8847549 0.9714127
vt 0.8871636 0.8392049
vt 0.8846453 0.8392049
vt 0.8856922 0.9965239
vt 0.8819892 0.8392049
vt 0.8847549 0.9714127
vt 0.8803936 0.8392049
vt 0.8871636 0.8392049
vt 0.8856922 0.9965239
vt 0.8846453 0.8392049
vt 0.8569977 0.8392049
vt 0.8553166 0.9533359
vt 0.8554185 0.8392049
vt 0.8831677 0.8392049
vt 0.8823901 0.8392049
vt 0.8796167 0.9533359
vt 0.8832232 0.8392049
vt 0.8796723 0.9533359
vt 0.8824457 0.8392049
vt 0.8668697 0.8392049
vt 0.8640236 0.9714127
vt 0.868446 0.8392049
vt 0.8668697 0.8392049
vt 0.868446 0.8392049
vt 0.8640236 0.9714127
vt 0.92902 0.03595206
vt 0.92902 0.1999478
vt 0.8168297 0.1999478
vt 0.8168297 0.03595202
vt 0.9088154 0.355538
vt 0.9088154 0.5680043
vt 0.9088154 0.5680043
vt 0.9088154 0.355538
vt 0.8202184 0.355538
vt 0.8202184 0.5680043
vt 0.8202184 0.5680043
vt 0.8202184 0.355538
vt 0.8202184 0.355538
vt 0.8202184 0.5680043
vt 0.9088154 0.5680043
vt 0.9088154 0.355538
vt 0.9708217 0.6356334
vt 0.7947751 0.6356334
vt 0.7947751 0.6356334
vt 0.9708217 0.6356334
vt 0.92902 0.03595206
vt 0.92902 0.1999478
vt 0.92902 0.1999478
vt 0.92902 0.03595206
vt 0.8168297 0.03595202
vt 0.8168297 0.1999478
vt 0.92902 0.1999478
vt 0.92902 0.03595206
vt 0.9088154 0.355538
vt 0.9088154 0.5680043
vt 0.8202184 0.5680043
vt 0.8202184 0.355538
vt 0.8168297 0.03595202
vt 0.8168297 0.1999478
vt 0.8168297 0.1999478
vt 0.8168297 0.03595202
vn -0.08063142 0.1825957 -0.9798763
vn -0.08063142 0.1825957 -0.9798763
vn -0.08063142 0.1825957 -0.9798763
vn -0.7246136 0.271711 0.6333311
vn -0.7246136 0.271711 0.6333311
vn -0.7246136 0.271711 0.6333311
vn 0.9007605 0.2063677 -0.3821556
vn 0.9007605 0.2063677 -0.3821556
vn 0.9007605 0.2063677 -0.3821556
vn 0.4511691 -0.1825979 -0.8735585
vn 0.4511691 -0.1825979 -0.8735585
vn 0.4511691 -0.1825979 -0.8735585
vn -0.7918181 -0.1825958 -0.5828232
vn -0.7918181 -0.1825958 -0.5828232
vn -0.7918181 -0.1825958 -0.5828232
vn 0.9813759 -0.1825965 -0.05966507
vn 0.9813759 -0.1825965 -0.05966507
vn 0.9813759 -0.1825965 -0.05966507
vn 0.3280803 0.1825957 -0.9268345
vn 0.3280803 0.1825957 -0.9268345
vn 0.3280803 0.1825957 -0.9268345
vn 0.7511466 0.1825983 0.6343789
vn 0.7511466 0.1825983 0.6343789
vn 0.7511466 0.1825983 0.6343789
vn -0.9007605 -0.2063677 0.3821556
vn -0.9007605 -0.2063677 0.3821556
vn -0.9007605 -0.2063677 0.3821556
vn -0.4511691 0.1825979 0.8735585
vn -0.4511691 0.1825979 0.8735585
vn -0.4511691 0.1825979 0.8735585
vn 0.7918181 0.1825958 0.5828232
vn 0.7918181 0.1825958 0.5828232
vn 0.7918181 0.1825958 0.5828232
vn -0.9813759 0.1825965 0.05966507
vn -0.9813759 0.1825965 0.05966507
vn -0.9813759 0.1825965 0.05966507
vn -0.3280803 -0.1825957 0.9268345
vn -0.3280803 -0.1825957 0.9268345
vn -0.3280803 -0.1825957 0.9268345
vn -0.7511466 -0.1825983 -0.6343789
vn -0.7511466 -0.1825983 -0.6343789
vn -0.7511466 -0.1825983 -0.6343789
vn 0.8274679 0.206371 -0.5222145
vn 0.8274679 0.206371 -0.5222145
vn 0.8274679 0.206371 -0.5222145
vn 0.7246136 -0.271711 -0.6333311
vn 0.7246136 -0.271711 -0.6333311
vn 0.7246136 -0.271711 -0.6333311
vn -0.8274679 -0.206371 0.5222145
vn -0.8274679 -0.206371 0.5222145
vn -0.8274679 -0.206371 0.5222145
vn 0.08063142 -0.1825957 0.9798763
vn 0.08063142 -0.1825957 0.9798763
vn 0.08063142 -0.1825957 0.9798763
vn -0.9647778 -0.1825973 -0.1893726
vn -0.9647778 -0.1825973 -0.1893726
vn -0.9647778 -0.1825973 -0.1893726
vn -0.7334984 -0.2717124 0.6230189
vn -0.7334984 -0.2717124 0.6230189
vn -0.7334984 -0.2717124 0.6230189
vn -0.9781626 -0.2063691 0.02468982
vn -0.9781626 -0.2063691 0.02468982
vn -0.9781626 -0.2063691 0.02468982
vn 0.7334984 0.2717124 -0.6230189
vn 0.7334984 0.2717124 -0.6230189
vn 0.7334984 0.2717124 -0.6230189
vn 0.9781626 0.2063691 -0.02468982
vn 0.9781626 0.2063691 -0.02468982
vn 0.9781626 0.2063691 -0.02468982
vn 0.9647778 0.1825973 0.1893726
vn 0.9647778 0.1825973 0.1893726
vn 0.9647778 0.1825973 0.1893726
vn -0.9647778 -0.1825973 -0.1893726
vn -0.9647778 -0.1825973 -0.1893726
vn -0.9647778 -0.1825973 -0.1893726
vn 0.9647778 0.1825973 0.1893726
vn 0.9647778 0.1825973 0.1893726
vn 0.9647778 0.1825973 0.1893726
vn -0.9079196 -0.1825972 0.37728
vn -0.9079196 -0.1825972 0.37728
vn -0.9079196 -0.1825972 0.37728
vn 0.9079196 0.1825972 -0.37728
vn 0.9079196 0.1825972 -0.37728
vn 0.9079196 0.1825972 -0.37728
vn -0.967362 0.1825954 -0.1756981
vn -0.967362 0.1825954 -0.1756981
vn -0.967362 0.1825954 -0.1756981
vn -0.7246136 0.271711 0.6333311
vn -0.7246136 0.271711 0.6333311
vn -0.7246136 0.271711 0.6333311
vn 0.5889871 0.2063698 -0.7813486
vn 0.5889871 0.2063698 -0.7813486
vn 0.5889871 0.2063698 -0.7813486
vn -0.960565 -0.1825971 -0.2096982
vn -0.960565 -0.1825971 -0.2096982
vn -0.960565 -0.1825971 -0.2096982
vn -0.7918181 -0.1825958 -0.5828232
vn -0.7918181 -0.1825958 -0.5828232
vn -0.7918181 -0.1825958 -0.5828232
vn 0.8797438 -0.1825958 0.4389869
vn 0.8797438 -0.1825958 0.4389869
vn 0.8797438 -0.1825958 0.4389869
vn 0.9801654 0.1825984 0.07703131
vn 0.9801654 0.1825984 0.07703131
vn 0.9801654 0.1825984 0.07703131
vn 0.8071702 0.182596 -0.5613689
vn 0.8071702 0.182596 -0.5613689
vn 0.8071702 0.182596 -0.5613689
vn -0.5889871 -0.2063698 0.7813486
vn -0.5889871 -0.2063698 0.7813486
vn -0.5889871 -0.2063698 0.7813486
vn 0.960565 0.1825971 0.2096982
vn 0.960565 0.1825971 0.2096982
vn 0.960565 0.1825971 0.2096982
vn 0.7918181 0.1825958 0.5828232
vn 0.7918181 0.1825958 0.5828232
vn 0.7918181 0.1825958 0.5828232
vn -0.8797438 0.1825958 -0.4389869
vn -0.8797438 0.1825958 -0.4389869
vn -0.8797438 0.1825958 -0.4389869
vn -0.9801654 -0.1825984 -0.07703131
vn -0.9801654 -0.1825984 -0.07703131
vn -0.9801654 -0.1825984 -0.07703131
vn -0.8071702 -0.182596 0.5613689
vn -0.8071702 -0.182596 0.5613689
vn -0.8071702 -0.182596 0.5613689
vn -0.6579633 0.2063708 -0.7242205
vn -0.6579633 0.2063708 -0.7242205
vn -0.6579633 0.2063708 -0.7242205
vn 0.7246136 -0.271711 -0.6333311
vn 0.7246136 -0.271711 -0.6333311
vn 0.7246136 -0.271711 -0.6333311
vn 0.6579633 -0.2063708 0.7242205
vn 0.6579633 -0.2063708 0.7242205
vn 0.6579633 -0.2063708 0.7242205
vn 0.967362 -0.1825954 0.1756981
vn 0.967362 -0.1825954 0.1756981
vn 0.967362 -0.1825954 0.1756981
vn -0.9647778 -0.1825973 -0.1893726
vn -0.9647778 -0.1825973 -0.1893726
vn -0.9647778 -0.1825973 -0.1893726
vn -0.7334984 -0.2717124 0.6230189
vn -0.7334984 -0.2717124 0.6230189
vn -0.7334984 -0.2717124 0.6230189
vn -0.9781626 -0.2063691 0.02468982
vn -0.9781626 -0.2063691 0.02468982
vn -0.9781626 -0.2063691 0.02468982
vn 0.7334984 0.2717124 -0.6230189
vn 0.7334984 0.2717124 -0.6230189
vn 0.7334984 0.2717124 -0.6230189
vn 0.9781626 0.2063691 -0.02468982
vn 0.9781626 0.2063691 -0.02468982
vn 0.9781626 0.2063691 -0.02468982
vn 0.9647778 0.1825973 0.1893726
vn 0.9647778 0.1825973 0.1893726
vn 0.9647778 0.1825973 0.1893726
vn -0.4750638 -0.1825971 -0.8607976
vn -0.4750638 -0.1825971 -0.8607976
vn -0.4750638 -0.1825971 -0.8607976
vn 0.4750638 0.1825971 0.8607976
vn 0.4750638 0.1825971 0.8607976
vn 0.4750638 0.1825971 0.8607976
vn 0.9580199 0.2717101 0.09149577
vn 0.9580199 0.2717101 0.09149577
vn 0.9580199 0.2717101 0.09149577
vn -0.9580199 -0.2717101 -0.09149577
vn -0.9580199 -0.2717101 -0.09149577
vn -0.9580199 -0.2717101 -0.09149577
vn -1 0 0
vn -1 0 0
vn -1 0 0
vn -1 0 0
vn 0 0 -1
vn 0 0 -1
vn 0 0 -1
vn 0 0 -1
vn 0 0 1
vn 0 0 1
vn 0 0 1
vn 0 0 1
vn 1 0 0
vn 1 0 0
vn 1 0 0
vn 1 0 0
vn 0 1 0
vn 0 1 0
vn 0 1 0
vn 0 1 0
vn 0 0 -1
vn 0 0 -1
vn 0 0 -1
vn 0 0 -1
vn 1 0 0
vn 1 0 0
vn 1 0 0
vn 1 0 0
vn -1 0 0
vn -1 0 0
vn -1 0 0
vn -1 0 0
vn 0 0 1
vn 0 0 1
vn 0 0 1
vn 0 0 1
g Grass_Patch_1A_0
f 3/3/3 2/2/2 1/1/1
f 6/6/6 5/5/5 4/4/4
f 9/9/9 8/8/8 7/7/7
f 12/12/12 11/11/11 10/10/10
f 15/15/15 14/14/14 13/13/13
f 18/18/18 17/17/17 16/16/16
f 21/21/21 20/20/20 19/19/19
f 24/24/24 23/23/23 22/22/22
f 27/27/27 26/26/26 25/25/25
f 30/30/30 29/29/29 28/28/28
f 33/33/33 32/32/32 31/31/31
f 36/36/36 35/35/35 34/34/34
f 39/39/39 38/38/38 37/37/37
f 42/42/42 41/41/41 40/40/40
f 45/45/45 44/44/44 43/43/43
f 48/48/48 47/47/47 46/46/46
f 51/51/51 50/50/50 49/49/49
f 54/54/54 53/53/53 52/52/52
f 57/57/57 56/56/56 55/55/55
f 60/60/60 59/59/59 58/58/58
f 63/63/63 62/62/62 61/61/61
f 66/66/66 65/65/65 64/64/64
f 69/69/69 68/68/68 67/67/67
f 72/72/72 71/71/71 70/70/70
f 75/75/75 74/74/74 73/73/73
f 78/78/78 77/77/77 76/76/76
f 81/81/81 80/80/80 79/79/79
f 84/84/84 83/83/83 82/82/82
f 87/87/87 86/86/86 85/85/85
f 90/90/90 89/89/89 88/88/88
f 93/93/93 92/92/92 91/91/91
f 96/96/96 95/95/95 94/94/94
f 99/99/99 98/98/98 97/97/97
f 102/102/102 101/101/101 100/100/100
f 105/105/105 104/104/104 103/103/103
f 108/108/108 107/107/107 106/106/106
f 111/111/111 110/110/110 109/109/109
f 114/114/114 113/113/113 112/112/112
f 117/117/117 116/116/116 115/115/115
f 120/120/120 119/119/119 118/118/118
f 123/123/123 122/122/122 121/121/121
f 126/126/126 125/125/125 124/124/124
f 129/129/129 128/128/128 127/127/127
f 132/132/132 131/131/131 130/130/130
f 135/135/135 134/134/134 133/133/133
f 138/138/138 137/137/137 136/136/136
f 141/141/141 140/140/140 139/139/139
f 144/144/144 143/143/143 142/142/142
f 147/147/147 146/146/146 145/145/145
f 150/150/150 149/149/149 148/148/148
f 153/153/153 152/152/152 151/151/151
f 156/156/156 155/155/155 154/154/154
f 159/159/159 158/158/158 157/157/157
f 162/162/162 161/161/161 160/160/160
f 165/165/165 164/164/164 163/163/163
f 168/168/168 167/167/167 166/166/166
f 171/171/171 170/170/170 169/169/169
f 172/172/172 171/171/171 169/169/169
f 175/175/175 174/174/174 173/173/173
f 176/176/176 175/175/175 173/173/173
f 179/179/179 178/178/178 177/177/177
f 180/180/180 179/179/179 177/177/177
f 183/183/183 182/182/182 181/181/181
f 184/184/184 183/183/183 181/181/181
f 187/187/187 186/186/186 185/185/185
f 188/188/188 187/187/187 185/185/185
f 191/191/191 190/190/190 189/189/189
f 192/192/192 191/191/191 189/189/189
f 195/195/195 194/194/194 193/193/193
f 196/196/196 195/195/195 193/193/193
f 199/199/199 198/198/198 197/197/197
f 200/200/200 199/199/199 197/197/197
f 203/203/203 202/202/202 201/201/201
f 204/204/204 203/203/203 201/201/201
