g Logo_17B
v 0.2520094 -0.5600004 0.5599975
v 0.2520094 -1.680001 0.5599975
v -0.2519922 -1.680001 0.5599975
v -0.2519922 -0.5600004 0.5599975
v 0.2520094 1.679997 -0.5600023
v 0.2520094 1.679997 0.5599975
v -0.2519922 1.679997 0.5599975
v -0.2519922 1.679997 -0.5600023
v 0.2520094 0.5599985 -1.680001
v 0.2520094 0.5599985 -0.5600023
v -0.2519922 0.5599985 -0.5600023
v -0.2519922 0.5599985 -1.680001
v 0.2520094 -1.680001 0.5599975
v 0.2520094 -1.680001 -0.5600023
v -0.2519922 -1.680001 -0.5600023
v -0.2519922 -1.680001 0.5599975
v 0.2520094 0.5599985 0.5599975
v 0.2520094 0.5599985 1.679998
v -0.2519922 0.5599985 1.679998
v -0.2519922 0.5599985 0.5599975
v 0.2520094 -0.5600004 1.679998
v 0.2520094 -0.5600004 0.5599975
v -0.2519922 -0.5600004 0.5599975
v -0.2519922 -0.5600004 1.679998
v -0.2519922 0.5599985 -1.680001
v -0.2519922 -0.5600004 -0.5600023
v -0.2519922 -0.5600004 -1.680001
v -0.2519922 0.5599985 -0.5600023
v -0.2519922 -0.5600004 0.5599975
v -0.2519922 -1.680001 0.5599975
v -0.2519922 -1.680001 -0.5600023
v -0.2519922 0.5599985 0.5599975
v -0.2519922 1.679997 -0.5600023
v -0.2519922 1.679997 0.5599975
v -0.2519922 -0.5600004 1.679998
v -0.2519922 0.5599985 1.679998
v 0.2520094 0.5599985 -0.5600023
v 0.2520094 1.679997 -0.5600023
v -0.2519922 1.679997 -0.5600023
v -0.2519922 0.5599985 -0.5600023
v 0.2520094 0.5599985 1.679998
v 0.2520094 -0.5600004 1.679998
v -0.2519922 -0.5600004 1.679998
v -0.2519922 0.5599985 1.679998
v 0.2520094 -0.5600004 -0.5600023
v 0.2520094 -0.5600004 -1.680001
v -0.2519922 -0.5600004 -1.680001
v -0.2519922 -0.5600004 -0.5600023
v -0.5879917 1.511996 -0.3920011
v -0.5879917 1.511996 0.3919982
v -0.5879917 0.3919973 0.3919982
v -0.5879917 0.3919973 -0.3920011
v -0.5879917 -0.3919992 0.3919982
v -0.5879917 -0.3919992 1.511998
v -0.5879917 0.3919973 1.511998
v -0.5879917 -0.3919992 -0.3920011
v -0.5879917 0.3919973 -1.512002
v -0.5879917 -0.3919992 -1.512002
v -0.5879917 -1.512003 0.3919982
v -0.5879917 -1.512003 -0.3920011
v 0.2520094 -0.5600004 -1.680001
v 0.2520094 0.5599985 -1.680001
v -0.2519922 0.5599985 -1.680001
v -0.2519922 -0.5600004 -1.680001
v 0.2520094 1.679997 0.5599975
v 0.2520094 0.5599985 0.5599975
v -0.2519922 0.5599985 0.5599975
v -0.2519922 1.679997 0.5599975
v 0.2520094 -1.680001 -0.5600023
v 0.2520094 -0.5600004 -0.5600023
v -0.2519922 -0.5600004 -0.5600023
v -0.2519922 -1.680001 -0.5600023
v -0.5879917 1.511996 -0.3920011
v -0.5879917 0.3919973 -0.3920011
v 0.5880145 0.3919973 -0.3920001
v 0.5880145 1.511996 -0.3920001
v -0.5879917 0.3919973 -0.3920011
v -0.5879917 0.3919973 -1.512002
v 0.5880145 0.3919973 -1.512
v 0.5880145 0.3919973 -0.3920001
v -0.5879917 -0.3919992 1.511998
v -0.5879917 0.3919973 1.511998
v 0.5880145 0.3919973 1.512
v 0.5880145 -0.3919992 1.512
v -0.5879917 1.511996 0.3919982
v -0.5879917 1.511996 -0.3920011
v 0.5880145 1.511996 -0.3920001
v 0.5880145 1.511996 0.3919992
v -0.5879917 -0.3919992 -0.3920011
v -0.5879917 -1.512003 -0.3920011
v 0.5880145 -1.512003 -0.3920001
v 0.5880145 -0.3919992 -0.3920001
v -0.5879917 0.3919973 0.3919982
v -0.5879917 1.511996 0.3919982
v 0.5880145 1.511996 0.3919992
v 0.5880145 0.3919973 0.3919992
v -0.5879917 0.3919973 -1.512002
v -0.5879917 -0.3919992 -1.512002
v 0.5880145 -0.3919992 -1.512002
v 0.5880145 0.3919973 -1.512
v -0.5879917 -0.3919992 0.3919982
v -0.5879917 -0.3919992 1.511998
v 0.5880145 -0.3919992 1.512
v 0.5880145 -0.3919992 0.3919982
v -0.5879917 -0.3919992 -1.512002
v -0.5879917 -0.3919992 -0.3920011
v 0.5880145 -0.3919992 -0.3920001
v 0.5880145 -0.3919992 -1.512002
v -0.5879917 -1.512003 0.3919982
v -0.5879917 -0.3919992 0.3919982
v 0.5880145 -0.3919992 0.3919982
v 0.5880145 -1.512003 0.3919992
v -0.5879917 0.3919973 1.511998
v -0.5879917 0.3919973 0.3919982
v 0.5880145 0.3919973 0.3919992
v 0.5880145 0.3919973 1.512
v -0.5879917 -1.512003 -0.3920011
v -0.5879917 -1.512003 0.3919982
v 0.5880145 -1.512003 0.3919992
v 0.5880145 -1.512003 -0.3920001
v 0.2520094 0.5599985 -1.680001
v 0.2520094 -0.5600004 -1.680001
v 0.2520094 -0.5600004 -0.5600023
v 0.2520094 0.5599985 -0.5600023
v 0.2520094 -0.5600004 0.5599975
v 0.2520094 -1.680001 0.5599975
v 0.2520094 -1.680001 -0.5600023
v 0.2520094 0.5599985 0.5599975
v 0.2520094 1.679997 -0.5600023
v 0.2520094 1.679997 0.5599975
v 0.2520094 -0.5600004 1.679998
v 0.2520094 0.5599985 1.679998
v 0.5880145 1.511996 0.3919992
v 0.5880145 1.511996 -0.3920001
v 0.5880145 0.3919973 -0.3920001
v 0.5880145 0.3919973 0.3919992
v 0.5880145 -0.3919992 -0.3920001
v 0.5880145 -0.3919992 -1.512002
v 0.5880145 0.3919973 -1.512
v 0.5880145 -0.3919992 0.3919982
v 0.5880145 0.3919973 1.512
v 0.5880145 -0.3919992 1.512
v 0.5880145 -1.512003 -0.3920001
v 0.5880145 -1.512003 0.3919992
vt 0.8361559 0.4468028
vt 0.8361559 0.4334317
vt 0.8361559 0.4334317
vt 0.8361559 0.4468028
vt 0.8495269 0.4949232
vt 0.8361559 0.4949232
vt 0.8361559 0.4949232
vt 0.8495269 0.4949232
vt 0.862898 0.4815522
vt 0.8495269 0.4815522
vt 0.8495269 0.4815522
vt 0.862898 0.4815522
vt 0.8361559 0.4198273
vt 0.8495269 0.4198273
vt 0.8495269 0.4198273
vt 0.8361559 0.4198273
vt 0.8361559 0.4815522
vt 0.8227848 0.4815522
vt 0.8227848 0.4815522
vt 0.8361559 0.4815522
vt 0.8227848 0.4331984
vt 0.8361559 0.4331984
vt 0.8361559 0.4331984
vt 0.8227848 0.4331984
vt 0.8486323 0.4742057
vt 0.8447717 0.4703451
vt 0.8486323 0.4703451
vt 0.8447717 0.4742057
vt 0.8409111 0.4703451
vt 0.8409111 0.4664844
vt 0.8447717 0.4664844
vt 0.8409111 0.4742057
vt 0.8447717 0.4780663
vt 0.8409111 0.4780663
vt 0.8370504 0.4703451
vt 0.8370504 0.4742057
vt 0.8495269 0.4601738
vt 0.8495269 0.4735448
vt 0.8495269 0.4735448
vt 0.8495269 0.4601738
vt 0.8227848 0.4601738
vt 0.8227848 0.4468028
vt 0.8227848 0.4468028
vt 0.8227848 0.4601738
vt 0.8495269 0.4331984
vt 0.862898 0.4331984
vt 0.862898 0.4331984
vt 0.8495269 0.4331984
vt 0.3831997 0.4120935
vt 0.3625605 0.4120935
vt 0.3625605 0.382609
vt 0.3831997 0.382609
vt 0.3625605 0.3619698
vt 0.333076 0.3619698
vt 0.333076 0.382609
vt 0.3831997 0.3619698
vt 0.4126843 0.382609
vt 0.4126843 0.3619698
vt 0.3625605 0.3324853
vt 0.3831997 0.3324853
vt 0.862898 0.4468028
vt 0.862898 0.4601738
vt 0.862898 0.4601738
vt 0.862898 0.4468028
vt 0.8361559 0.4735448
vt 0.8361559 0.4601738
vt 0.8361559 0.4601738
vt 0.8361559 0.4735448
vt 0.8495269 0.4334317
vt 0.8495269 0.4468028
vt 0.8495269 0.4468028
vt 0.8495269 0.4334317
vt 0.3884073 0.4321799
vt 0.3884073 0.3878166
vt 0.3884073 0.3878166
vt 0.3884073 0.4321799
vt 0.3884073 0.4645423
vt 0.4327708 0.4645423
vt 0.4327708 0.4645423
vt 0.3884073 0.4645423
vt 0.3129896 0.3567623
vt 0.3129896 0.3878166
vt 0.3129896 0.3878166
vt 0.3129896 0.3567623
vt 0.3573529 0.4798974
vt 0.3884073 0.4798974
vt 0.3884073 0.4798974
vt 0.3573529 0.4798974
vt 0.3884073 0.3567623
vt 0.3884073 0.3123988
vt 0.3884073 0.3123988
vt 0.3884073 0.3567623
vt 0.3573529 0.3878166
vt 0.3573529 0.4321799
vt 0.3573529 0.4321799
vt 0.3573529 0.3878166
vt 0.4327708 0.3878166
vt 0.4327708 0.3567623
vt 0.4327708 0.3567623
vt 0.4327708 0.3878166
vt 0.3573529 0.2761275
vt 0.3129896 0.2761275
vt 0.3129896 0.2761275
vt 0.3573529 0.2761275
vt 0.4327708 0.2761275
vt 0.3884073 0.2761275
vt 0.3884073 0.2761275
vt 0.4327708 0.2761275
vt 0.3573529 0.3123988
vt 0.3573529 0.3567623
vt 0.3573529 0.3567623
vt 0.3573529 0.3123988
vt 0.3129896 0.4645423
vt 0.3573529 0.4645423
vt 0.3573529 0.4645423
vt 0.3129896 0.4645423
vt 0.3884073 0.2577347
vt 0.3573529 0.2577347
vt 0.3573529 0.2577347
vt 0.3884073 0.2577347
vt 0.8486323 0.4742057
vt 0.8486323 0.4703451
vt 0.8447717 0.4703451
vt 0.8447717 0.4742057
vt 0.8409111 0.4703451
vt 0.8409111 0.4664844
vt 0.8447717 0.4664844
vt 0.8409111 0.4742057
vt 0.8447717 0.4780663
vt 0.8409111 0.4780663
vt 0.8370504 0.4703451
vt 0.8370504 0.4742057
vt 0.3831997 0.4120935
vt 0.3625605 0.4120935
vt 0.3625605 0.382609
vt 0.3831997 0.382609
vt 0.3625605 0.3619698
vt 0.333076 0.3619698
vt 0.333076 0.382609
vt 0.3831997 0.3619698
vt 0.4126843 0.382609
vt 0.4126843 0.3619698
vt 0.3625605 0.3324853
vt 0.3831997 0.3324853
vn 0 0 1
vn 0 0 1
vn 0 0 1
vn 0 0 1
vn 0 1 0
vn 0 1 0
vn 0 1 0
vn 0 1 0
vn 0 1 0
vn 0 1 0
vn 0 1 0
vn 0 1 0
vn 0 -1 0
vn 0 -1 0
vn 0 -1 0
vn 0 -1 0
vn 0 1 0
vn 0 1 0
vn 0 1 0
vn 0 1 0
vn 0 -1 0
vn 0 -1 0
vn 0 -1 0
vn 0 -1 0
vn -1 0 0
vn -1 0 0
vn -1 0 0
vn -1 0 0
vn -1 0 0
vn -1 0 0
vn -1 0 0
vn -1 0 0
vn -1 0 0
vn -1 0 0
vn -1 0 0
vn -1 0 0
vn 0 0 -1
vn 0 0 -1
vn 0 0 -1
vn 0 0 -1
vn 0 0 1
vn 0 0 1
vn 0 0 1
vn 0 0 1
vn 0 -1 0
vn 0 -1 0
vn 0 -1 0
vn 0 -1 0
vn -1 0 0
vn -1 0 0
vn -1 0 0
vn -1 0 0
vn -1 0 0
vn -1 0 0
vn -1 0 0
vn -1 0 0
vn -1 0 0
vn -1 0 0
vn -1 0 0
vn -1 0 0
vn 0 0 -1
vn 0 0 -1
vn 0 0 -1
vn 0 0 -1
vn 0 0 1
vn 0 0 1
vn 0 0 1
vn 0 0 1
vn 0 0 -1
vn 0 0 -1
vn 0 0 -1
vn 0 0 -1
vn 0 0 -1
vn 0 0 -1
vn 0 0 -1
vn 0 0 -1
vn 0 1 0
vn 0 1 0
vn 0 1 0
vn 0 1 0
vn 0 0 1
vn 0 0 1
vn 0 0 1
vn 0 0 1
vn 0 1 0
vn 0 1 0
vn 0 1 0
vn 0 1 0
vn 0 0 -1
vn 0 0 -1
vn 0 0 -1
vn 0 0 -1
vn 0 0 1
vn 0 0 1
vn 0 0 1
vn 0 0 1
vn 0 0 -1
vn 0 0 -1
vn 0 0 -1
vn 0 0 -1
vn 0 -1 0
vn 0 -1 0
vn 0 -1 0
vn 0 -1 0
vn 0 -1 0
vn 0 -1 0
vn 0 -1 0
vn 0 -1 0
vn 0 0 1
vn 0 0 1
vn 0 0 1
vn 0 0 1
vn 0 1 0
vn 0 1 0
vn 0 1 0
vn 0 1 0
vn 0 -1 0
vn 0 -1 0
vn 0 -1 0
vn 0 -1 0
vn 1 0 0
vn 1 0 0
vn 1 0 0
vn 1 0 0
vn 1 0 0
vn 1 0 0
vn 1 0 0
vn 1 0 0
vn 1 0 0
vn 1 0 0
vn 1 0 0
vn 1 0 0
vn 1 0 0
vn 1 0 0
vn 1 0 0
vn 1 0 0
vn 1 0 0
vn 1 0 0
vn 1 0 0
vn 1 0 0
vn 1 0 0
vn 1 0 0
vn 1 0 0
vn 1 0 0
g Logo_17B_0
f 3/3/3 2/2/2 1/1/1
f 4/4/4 3/3/3 1/1/1
f 7/7/7 6/6/6 5/5/5
f 8/8/8 7/7/7 5/5/5
f 11/11/11 10/10/10 9/9/9
f 12/12/12 11/11/11 9/9/9
f 15/15/15 14/14/14 13/13/13
f 16/16/16 15/15/15 13/13/13
f 19/19/19 18/18/18 17/17/17
f 20/20/20 19/19/19 17/17/17
f 23/23/23 22/22/22 21/21/21
f 24/24/24 23/23/23 21/21/21
f 27/27/27 26/26/26 25/25/25
f 26/26/26 28/28/28 25/25/25
f 26/26/26 29/29/29 28/28/28
f 30/30/30 29/29/29 26/26/26
f 31/31/31 30/30/30 26/26/26
f 29/29/29 32/32/32 28/28/28
f 28/28/28 32/32/32 33/33/33
f 32/32/32 34/34/34 33/33/33
f 29/29/29 35/35/35 32/32/32
f 35/35/35 36/36/36 32/32/32
f 39/39/39 38/38/38 37/37/37
f 40/40/40 39/39/39 37/37/37
f 43/43/43 42/42/42 41/41/41
f 44/44/44 43/43/43 41/41/41
f 47/47/47 46/46/46 45/45/45
f 48/48/48 47/47/47 45/45/45
f 51/51/51 50/50/50 49/49/49
f 52/52/52 51/51/51 49/49/49
f 53/53/53 51/51/51 52/52/52
f 53/53/53 54/54/54 51/51/51
f 54/54/54 55/55/55 51/51/51
f 56/56/56 53/53/53 52/52/52
f 56/56/56 52/52/52 57/57/57
f 58/58/58 56/56/56 57/57/57
f 59/59/59 53/53/53 56/56/56
f 60/60/60 59/59/59 56/56/56
f 63/63/63 62/62/62 61/61/61
f 64/64/64 63/63/63 61/61/61
f 67/67/67 66/66/66 65/65/65
f 68/68/68 67/67/67 65/65/65
f 71/71/71 70/70/70 69/69/69
f 72/72/72 71/71/71 69/69/69
f 75/75/75 74/74/74 73/73/73
f 76/76/76 75/75/75 73/73/73
f 79/79/79 78/78/78 77/77/77
f 80/80/80 79/79/79 77/77/77
f 83/83/83 82/82/82 81/81/81
f 84/84/84 83/83/83 81/81/81
f 87/87/87 86/86/86 85/85/85
f 88/88/88 87/87/87 85/85/85
f 91/91/91 90/90/90 89/89/89
f 92/92/92 91/91/91 89/89/89
f 95/95/95 94/94/94 93/93/93
f 96/96/96 95/95/95 93/93/93
f 99/99/99 98/98/98 97/97/97
f 100/100/100 99/99/99 97/97/97
f 103/103/103 102/102/102 101/101/101
f 104/104/104 103/103/103 101/101/101
f 107/107/107 106/106/106 105/105/105
f 108/108/108 107/107/107 105/105/105
f 111/111/111 110/110/110 109/109/109
f 112/112/112 111/111/111 109/109/109
f 115/115/115 114/114/114 113/113/113
f 116/116/116 115/115/115 113/113/113
f 119/119/119 118/118/118 117/117/117
f 120/120/120 119/119/119 117/117/117
f 123/123/123 122/122/122 121/121/121
f 124/124/124 123/123/123 121/121/121
f 125/125/125 123/123/123 124/124/124
f 125/125/125 126/126/126 123/123/123
f 126/126/126 127/127/127 123/123/123
f 128/128/128 125/125/125 124/124/124
f 128/128/128 124/124/124 129/129/129
f 130/130/130 128/128/128 129/129/129
f 131/131/131 125/125/125 128/128/128
f 132/132/132 131/131/131 128/128/128
f 135/135/135 134/134/134 133/133/133
f 136/136/136 135/135/135 133/133/133
f 137/137/137 135/135/135 136/136/136
f 137/137/137 138/138/138 135/135/135
f 138/138/138 139/139/139 135/135/135
f 140/140/140 137/137/137 136/136/136
f 140/140/140 136/136/136 141/141/141
f 142/142/142 140/140/140 141/141/141
f 143/143/143 137/137/137 140/140/140
f 144/144/144 143/143/143 140/140/140
