g Logo_10B
v -5.464032 4.179668 2.302168
v -5.126523 4.609878 1.919942
v -5.464032 4.609878 1.919942
v -5.126523 4.179668 2.302168
v -5.464032 4.179668 2.703483
v -5.126523 4.179668 2.703483
v -5.464032 4.179668 1.589187
v -5.464032 5.575569 1.589187
v -5.464032 5.575568 1.919942
v -5.464032 4.179668 1.919942
v -5.464032 5.575569 1.272442
v -5.464032 5.575569 0.9416862
v -5.126523 5.575569 0.9416862
v -5.126523 5.575569 1.272442
v -5.464032 4.179668 1.272441
v -5.464032 5.575569 0.9416862
v -5.464032 5.575569 1.272442
v -5.464032 4.179668 0.9416862
v -5.464032 4.902355 0.9416862
v -5.464032 4.877619 0.4934228
v -5.464032 5.575569 0.4934233
v -5.464032 5.575569 0.1626678
v -5.464032 4.179668 0.4934228
v -5.464032 4.179668 0.1626678
v -5.464032 5.575569 0.4934233
v -5.126523 4.902355 0.9416862
v -5.464032 4.902355 0.9416862
v -5.126523 5.575569 0.4934233
v -5.126523 5.575569 0.1626678
v -5.464032 5.575569 0.1626678
v -5.464032 4.722179 -1.031149
v -5.464032 4.72218 -0.35747
v -5.464032 4.430027 -0.35747
v -5.464032 4.430026 -1.031149
v -5.464032 4.179668 -0.3783821
v -5.464032 5.575569 -0.5289317
v -5.464032 4.179668 -0.04762723
v -5.464032 5.575569 -0.8596873
v -5.464032 4.179668 -1.010237
v -5.464032 4.179668 -1.340992
v -5.464032 5.575569 0.1626678
v -5.464032 4.179668 0.1626678
v -5.126523 4.179668 0.1626678
v -5.126523 5.575569 0.1626678
v -5.464032 4.179668 0.1626678
v -5.464032 4.179668 0.4934228
v -5.126523 4.179668 0.4934228
v -5.126523 4.179668 0.1626678
v -5.464032 4.179668 0.4934228
v -5.464032 4.877619 0.4934228
v -5.126523 4.877619 0.4934228
v -5.126523 4.179668 0.4934228
v -5.464032 4.722179 -1.031149
v -5.464032 4.430026 -1.031149
v -5.126523 4.430026 -1.031149
v -5.126523 4.722179 -1.031149
v -5.464032 4.430027 -0.35747
v -5.464032 4.72218 -0.35747
v -5.126523 4.72218 -0.35747
v -5.126523 4.430027 -0.35747
v -5.464032 4.430026 -1.031149
v -5.464032 4.430027 -0.35747
v -5.126523 4.430027 -0.35747
v -5.126523 4.430026 -1.031149
v -5.464032 4.72218 -0.35747
v -5.464032 4.722179 -1.031149
v -5.126523 4.722179 -1.031149
v -5.126523 4.72218 -0.35747
v -5.464032 4.179668 -0.3783821
v -5.464032 4.179668 -0.04762723
v -5.126523 4.179668 -0.04762723
v -5.126523 4.179668 -0.3783821
v -5.464032 5.575569 -0.8596873
v -5.126523 5.575569 -0.8596873
v -5.464032 4.179668 -0.04762723
v -5.464032 5.575569 -0.5289317
v -5.126523 5.575569 -0.5289317
v -5.126523 4.179668 -0.04762723
v -5.464032 5.575569 -0.8596873
v -5.464032 4.179668 -1.340992
v -5.126523 4.179668 -1.340992
v -5.126523 5.575569 -0.8596873
v -5.464032 4.179668 1.272441
v -5.464032 5.575569 1.272442
v -5.126523 5.575569 1.272442
v -5.126523 4.179668 1.272441
v -5.464032 4.179668 -1.010237
v -5.464032 5.575569 -0.5289317
v -5.126523 5.575569 -0.5289317
v -5.126523 4.179668 -1.010237
v -5.464032 4.179668 -1.340992
v -5.126523 4.179668 -1.340992
v -5.464032 4.877619 0.4934228
v -5.126523 4.179668 0.9416862
v -5.126523 4.877619 0.4934228
v -5.464032 4.179668 0.9416862
v -5.126523 4.179668 1.272441
v -5.464032 4.179668 1.272441
v -5.464032 5.575569 -0.5289317
v -5.464032 5.575569 -0.8596873
v -5.126523 5.575569 -0.8596873
v -5.126523 5.575569 -0.5289317
v -5.464032 4.179668 1.919942
v -5.126523 5.575568 1.919942
v -5.126523 4.179668 1.919942
v -5.464032 5.575568 1.919942
v -5.126523 5.244813 1.919943
v -5.464032 5.244813 1.919943
v -5.464032 5.575568 1.919942
v -5.464032 5.575569 1.589187
v -5.126523 5.575569 1.589187
v -5.126523 5.575568 1.919942
v -5.464032 4.179668 1.589187
v -5.464032 4.179668 1.919942
v -5.126523 4.179668 1.919942
v -5.126523 4.179668 1.589187
v -5.464032 5.575569 1.589187
v -5.464032 4.179668 1.589187
v -5.126523 4.179668 1.589187
v -5.126523 5.575569 1.589187
v -5.464032 4.510424 1.919942
v -5.464032 4.179668 1.919942
v -5.126523 4.179668 1.919942
v -5.126523 4.510424 1.919942
v -5.464032 5.10758 1.919943
v -5.126523 5.10758 1.919943
v -5.126523 4.179668 2.703483
v -5.464032 4.179668 2.703483
v -5.464032 4.609878 1.919942
v -5.464032 5.10758 1.919943
v -5.464032 4.179668 2.703483
v -5.464032 4.179668 2.302168
v -5.464032 4.733009 -1.898696
v -5.464032 4.733009 -2.247587
v -5.464032 5.04745 -2.247587
v -5.464032 5.04745 -1.905076
v -5.464032 4.941771 -1.639859
v -5.464032 4.707788 -1.817557
v -5.464032 5.113481 -1.854928
v -5.464032 4.731131 -1.479889
v -5.464032 5.024107 -1.567408
v -5.464032 4.641757 -1.767409
v -5.464032 5.195098 -1.854928
v -5.464032 4.470766 -1.479889
v -5.464032 5.284472 -1.567408
v -5.464032 4.56014 -1.767409
v -5.464032 5.261129 -1.905076
v -5.464032 4.260127 -1.639859
v -5.464032 5.495112 -1.727379
v -5.464032 4.494109 -1.817557
v -5.464032 5.28635 -1.986215
v -5.464032 5.575569 -1.986215
v -5.464032 5.575569 -2.247587
v -5.464032 5.28635 -2.247587
v -5.464032 4.179668 -1.898696
v -5.464032 4.468887 -1.898696
v -5.464032 4.468887 -2.247587
v -5.464032 4.179668 -2.247587
v -5.464032 5.575569 -2.572157
v -5.464032 4.179668 -2.572157
v -5.464032 5.04745 -1.905076
v -5.464032 5.04745 -2.247587
v -5.126523 5.04745 -2.247588
v -5.126524 5.04745 -1.905076
v -5.464032 5.113481 -1.854928
v -5.126524 5.113481 -1.854929
v -5.464032 5.195098 -1.854928
v -5.126524 5.195098 -1.854929
v -5.464032 5.261129 -1.905076
v -5.126524 5.261129 -1.905076
v -5.464032 5.28635 -1.986215
v -5.126524 5.28635 -1.986215
v -5.464032 5.28635 -2.247587
v -5.126523 5.28635 -2.247588
v -5.464032 4.733009 -2.247587
v -5.126524 4.733009 -1.898696
v -5.126523 4.733009 -2.247588
v -5.464032 4.733009 -1.898696
v -5.126524 4.707788 -1.817557
v -5.464032 4.707788 -1.817557
v -5.126524 4.641757 -1.767409
v -5.464032 4.641757 -1.767409
v -5.126524 4.56014 -1.767409
v -5.464032 4.56014 -1.767409
v -5.126524 4.494109 -1.817557
v -5.464032 4.494109 -1.817557
v -5.126524 4.468887 -1.898696
v -5.464032 4.468887 -1.898696
v -5.126523 4.468887 -2.247588
v -5.464032 4.468887 -2.247587
v -5.464032 5.575569 -2.247587
v -5.464032 5.575569 -2.572157
v -5.126524 5.575569 -2.572156
v -5.126523 5.575569 -2.247588
v -5.464032 5.575569 -1.986215
v -5.126524 5.575569 -1.986215
v -5.464032 5.495112 -1.727379
v -5.126524 5.495112 -1.727378
v -5.464032 5.284472 -1.567408
v -5.126524 5.284472 -1.567408
v -5.464032 5.024107 -1.567408
v -5.126524 5.024107 -1.567408
v -5.464032 4.941771 -1.639859
v -5.126524 4.941771 -1.639859
v -5.464032 4.731131 -1.479889
v -5.126524 4.731131 -1.479889
v -5.464032 4.470766 -1.479889
v -5.126524 4.470766 -1.479889
v -5.464032 4.260127 -1.639859
v -5.126523 4.260127 -1.639858
v -5.464032 4.179668 -1.898696
v -5.126524 4.179668 -1.898696
v -5.464032 4.179668 -2.247587
v -5.126523 4.179668 -2.247588
v -5.464032 4.179668 -2.572157
v -5.126524 4.179668 -2.572156
v -5.464032 4.179668 -2.247587
v -5.464032 5.575569 -2.247587
v -5.126523 5.575569 -2.247588
v -5.126523 4.179668 -2.247588
v -5.464032 5.575569 -2.572157
v -5.464032 4.179668 -2.572157
v -5.126524 4.179668 -2.572156
v -5.126524 5.575569 -2.572156
v -5.464032 5.575569 0.9416862
v -5.464032 4.902355 0.9416862
v -5.126523 4.902355 0.9416862
v -5.126523 5.575569 0.9416862
v -5.464032 5.145358 1.919942
v -5.464032 5.575568 2.302168
v -5.464032 5.575568 2.703483
v -5.464032 4.647656 1.919943
v -5.464032 5.575568 2.703483
v -5.126523 5.575568 2.302168
v -5.126523 5.575568 2.703483
v -5.464032 5.575568 2.302168
v -5.126523 5.145358 1.919942
v -5.464032 5.145358 1.919942
v -5.464032 4.647656 1.919943
v -5.464032 5.575568 2.703483
v -5.126523 5.575568 2.703483
v -5.126523 4.647656 1.919943
vt 0.9312569 0.5087233
vt 0.9201327 0.5567986
vt 0.9201327 0.5567986
vt 0.9312569 0.5087233
vt 0.9429367 0.5087233
vt 0.9429367 0.5087233
vt 0.903867 0.6213034
vt 0.903867 0.7254905
vt 0.9102965 0.7254905
vt 0.9102965 0.6213034
vt 0.9012879 0.664713
vt 0.8916618 0.664713
vt 0.8916618 0.664713
vt 0.9012879 0.664713
vt 0.8977098 0.6213034
vt 0.8912804 0.7254905
vt 0.8977098 0.7254905
vt 0.8912804 0.6213034
vt 0.8912804 0.6752433
vt 0.8825668 0.6733969
vt 0.8825668 0.7254905
vt 0.8761373 0.7254905
vt 0.8825668 0.6213034
vt 0.8761373 0.6213034
vt 0.8786156 0.664713
vt 0.8916618 0.5894824
vt 0.8916618 0.5894824
vt 0.8786156 0.664713
vt 0.8689893 0.664713
vt 0.8689893 0.664713
vt 0.852931 0.6617953
vt 0.8660265 0.6617954
vt 0.8660265 0.6399896
vt 0.852931 0.6399896
vt 0.86562 0.6213034
vt 0.8626935 0.7254905
vt 0.8720495 0.6213034
vt 0.856264 0.7254905
vt 0.8533375 0.6213034
vt 0.8469081 0.6213034
vt 0.8689893 0.664713
vt 0.8689893 0.5087233
vt 0.8689893 0.5087233
vt 0.8689893 0.664713
vt 0.8689893 0.5087233
vt 0.8786156 0.5087233
vt 0.8786156 0.5087233
vt 0.8689893 0.5087233
vt 0.8786156 0.5087233
vt 0.8786156 0.5867181
vt 0.8786156 0.5867181
vt 0.8786156 0.5087233
vt 0.8342447 0.569348
vt 0.8342447 0.5367003
vt 0.8342447 0.5367003
vt 0.8342447 0.569348
vt 0.8538513 0.5367004
vt 0.8538513 0.5693481
vt 0.8538513 0.5693481
vt 0.8538513 0.5367004
vt 0.8342447 0.5367003
vt 0.8538513 0.5367004
vt 0.8538513 0.5367004
vt 0.8342447 0.5367003
vt 0.8538513 0.5693481
vt 0.8342447 0.569348
vt 0.8342447 0.569348
vt 0.8538513 0.5693481
vt 0.8532428 0.5087233
vt 0.8628689 0.5087233
vt 0.8628689 0.5087233
vt 0.8532428 0.5087233
vt 0.8392349 0.664713
vt 0.8392349 0.664713
vt 0.8628689 0.5087233
vt 0.8488612 0.664713
vt 0.8488612 0.664713
vt 0.8628689 0.5087233
vt 0.8392349 0.664713
vt 0.8252271 0.5087233
vt 0.8252271 0.5087233
vt 0.8392349 0.664713
vt 0.9012879 0.5087233
vt 0.9012879 0.664713
vt 0.9012879 0.664713
vt 0.9012879 0.5087233
vt 0.8348533 0.5087233
vt 0.8488612 0.664713
vt 0.8488612 0.664713
vt 0.8348533 0.5087233
vt 0.8252271 0.5087233
vt 0.8252271 0.5087233
vt 0.8786156 0.5867181
vt 0.8916618 0.5087233
vt 0.8786156 0.5867181
vt 0.8916618 0.5087233
vt 0.9012879 0.5087233
vt 0.9012879 0.5087233
vt 0.8488612 0.664713
vt 0.8392349 0.664713
vt 0.8392349 0.664713
vt 0.8488612 0.664713
vt 0.9201327 0.5087233
vt 0.9201327 0.6647129
vt 0.9201327 0.5087233
vt 0.9201327 0.6647129
vt 0.9201327 0.6277516
vt 0.9201327 0.6277516
vt 0.9201327 0.6647129
vt 0.9105065 0.664713
vt 0.9105065 0.664713
vt 0.9201327 0.6647129
vt 0.9105065 0.5087233
vt 0.9201327 0.5087233
vt 0.9201327 0.5087233
vt 0.9105065 0.5087233
vt 0.9105065 0.664713
vt 0.9105065 0.5087233
vt 0.9105065 0.5087233
vt 0.9105065 0.664713
vt 0.9201327 0.5456848
vt 0.9201327 0.5087233
vt 0.9201327 0.5087233
vt 0.9201327 0.5456848
vt 0.9201327 0.612416
vt 0.9201327 0.612416
vt 0.9429367 0.5087233
vt 0.9429367 0.5087233
vt 0.9102965 0.6534134
vt 0.9102965 0.6905608
vt 0.9255275 0.6213034
vt 0.9177265 0.6213034
vt 0.836067 0.6626036
vt 0.829285 0.6626036
vt 0.829285 0.6860728
vt 0.835943 0.6860728
vt 0.8410985 0.6781852
vt 0.8376443 0.6607212
vt 0.8369178 0.6910013
vt 0.8442081 0.6624634
vt 0.8425069 0.6843305
vt 0.8386191 0.6557928
vt 0.8369178 0.697093
vt 0.8442081 0.6430303
vt 0.8425069 0.7037637
vt 0.8386191 0.649701
vt 0.835943 0.7020214
vt 0.8410985 0.6273087
vt 0.8393972 0.7194854
vt 0.8376443 0.6447726
vt 0.8343657 0.7039039
vt 0.8343657 0.7254905
vt 0.829285 0.7254905
vt 0.829285 0.7039039
vt 0.836067 0.6213034
vt 0.836067 0.6428901
vt 0.829285 0.6428901
vt 0.829285 0.6213034
vt 0.8229758 0.7254905
vt 0.8229758 0.6213034
vt 0.8088101 0.6056966
vt 0.7988417 0.6056966
vt 0.7988417 0.6056966
vt 0.8088101 0.6056966
vt 0.8102696 0.6130754
vt 0.8102696 0.6130754
vt 0.8102696 0.6221961
vt 0.8102696 0.6221961
vt 0.8088101 0.6295749
vt 0.8088101 0.6295749
vt 0.8064487 0.6323933
vt 0.8064487 0.6323933
vt 0.7988417 0.6323933
vt 0.7988417 0.6323933
vt 0.7988417 0.5705582
vt 0.8089958 0.5705582
vt 0.7988417 0.5705582
vt 0.8089958 0.5705582
vt 0.8113573 0.5677398
vt 0.8113573 0.5677398
vt 0.8128167 0.560361
vt 0.8128167 0.560361
vt 0.8128167 0.5512404
vt 0.8128167 0.5512404
vt 0.8113573 0.5438616
vt 0.8113573 0.5438616
vt 0.8089958 0.541043
vt 0.8089958 0.541043
vt 0.7988417 0.541043
vt 0.7988417 0.541043
vt 0.7988417 0.664713
vt 0.7893955 0.664713
vt 0.7893956 0.664713
vt 0.7988417 0.664713
vt 0.8064487 0.664713
vt 0.8064487 0.664713
vt 0.8139818 0.655722
vt 0.8139818 0.655722
vt 0.8186375 0.6321834
vt 0.8186375 0.6321834
vt 0.8186375 0.6030879
vt 0.8186375 0.6030879
vt 0.8165289 0.5938871
vt 0.816529 0.5938871
vt 0.8211847 0.5703484
vt 0.8211847 0.5703484
vt 0.8211847 0.541253
vt 0.8211847 0.541253
vt 0.816529 0.5177144
vt 0.816529 0.5177144
vt 0.8089958 0.5087233
vt 0.8089958 0.5087233
vt 0.7988417 0.5087233
vt 0.7988417 0.5087233
vt 0.7893955 0.5087233
vt 0.7893956 0.5087233
vt 0.7988417 0.5087233
vt 0.7988417 0.664713
vt 0.7988417 0.664713
vt 0.7988417 0.5087233
vt 0.7893955 0.664713
vt 0.7893955 0.5087233
vt 0.7893956 0.5087233
vt 0.7893956 0.664713
vt 0.8916618 0.664713
vt 0.8916618 0.5894824
vt 0.8916618 0.5894824
vt 0.8916618 0.664713
vt 0.9102965 0.6933805
vt 0.9177265 0.7254905
vt 0.9255275 0.7254905
vt 0.9102965 0.6562331
vt 0.9429367 0.6647129
vt 0.9312569 0.6647129
vt 0.9429367 0.6647129
vt 0.9312569 0.6647129
vt 0.9201327 0.6166376
vt 0.9201327 0.6166376
vt 0.9201327 0.5610203
vt 0.9429367 0.6647129
vt 0.9429367 0.6647129
vt 0.9201327 0.5610203
vn 0 -0.9121917 -0.4097638
vn 0 -0.6641873 -0.7475662
vn 0 -0.6641873 -0.7475662
vn 0 -0.9121917 -0.4097638
vn 0 -1 0
vn 0 -1 0
vn -1 0 0
vn -1 0 0
vn -1 0 0
vn -1 0 0
vn 0 1 0
vn 0 1 0
vn 0 1 0
vn 0 1 0
vn -1 0 0
vn -1 0 0
vn -1 0 0
vn -1 0 0
vn -1 0 0
vn -1 0 0
vn -1 0 0
vn -1 0 0
vn -1 0 0
vn -1 0 0
vn 0 0.881542 0.4721057
vn 0 0.5542325 0.8323619
vn 0 0.5542325 0.8323619
vn 0 0.881542 0.4721057
vn 0 1 0
vn 0 1 0
vn -1 0 0
vn -1 0 0
vn -1 0 0
vn -1 0 0
vn -1 0 0
vn -1 0 0
vn -1 0 0
vn -1 0 0
vn -1 0 0
vn -1 0 0
vn 0 0 -1
vn 0 0 -1
vn 0 0 -1
vn 0 0 -1
vn 0 -1 0
vn 0 -1 0
vn 0 -1 0
vn 0 -1 0
vn 0 0 1
vn 0 0 1
vn 0 0 1
vn 0 0 1
vn 0 0 -1
vn 0 0 -1
vn 0 0 -1
vn 0 0 -1
vn 0 0 1
vn 0 0 1
vn 0 0 1
vn 0 0 1
vn 0 -1 0
vn 0 -1 0
vn 0 -1 0
vn 0 -1 0
vn 0 1 0
vn 0 1 0
vn 0 1 0
vn 0 1 0
vn 0 -0.8142378 -0.5805314
vn 0 -1 0
vn 0 -1 0
vn 0 -0.8142378 -0.5805314
vn 0 -0.3259664 -0.9453813
vn 0 -0.3259664 -0.9453813
vn 0 0.3259659 0.9453815
vn 0 0.3259659 0.9453815
vn 0 0.3259659 0.9453815
vn 0 0.3259659 0.9453815
vn 0 0.3259659 -0.9453815
vn 0 0.3259659 -0.9453815
vn 0 0.3259659 -0.9453815
vn 0 0.3259659 -0.9453815
vn 0 0 1
vn 0 0 1
vn 0 0 1
vn 0 0 1
vn 0 -0.8142378 0.5805314
vn 0 -0.3259667 0.9453813
vn 0 -0.3259667 0.9453813
vn 0 -0.8142378 0.5805314
vn 0 -1 0
vn 0 -1 0
vn 0 -0.5403999 -0.8414083
vn 0 -0.8776104 -0.4793747
vn 0 -0.5403999 -0.8414083
vn 0 -0.8776104 -0.4793747
vn 0 -1 0
vn 0 -1 0
vn 0 1 0
vn 0 1 0
vn 0 1 0
vn 0 1 0
vn 0 0 1
vn 0 0 1
vn 0 0 1
vn 0 0 1
vn 0 0 1
vn 0 0 1
vn 0 1 0
vn 0 1 0
vn 0 1 0
vn 0 1 0
vn 0 -1 0
vn 0 -1 0
vn 0 -1 0
vn 0 -1 0
vn 0 0 -1
vn 0 0 -1
vn 0 0 -1
vn 0 0 -1
vn 0 0 -1
vn 0 0 -1
vn 0 0 -1
vn 0 0 -1
vn 0 0.6451663 0.7640421
vn 0 0.6451663 0.7640421
vn 0 0.6451663 0.7640421
vn 0 0.6451663 0.7640421
vn -1 0 0
vn -1 0 0
vn -1 0 0
vn -1 0 0
vn -1 0 0
vn -1 0 0
vn -1 0 0
vn -1 0 0
vn -1 0 0
vn -1 0 0
vn -1 0 0
vn -1 0 0
vn -1 0 0
vn -1 0 0
vn -1 0 0
vn -1 0 0
vn -1 0 0
vn -1 0 0
vn -1 0 0
vn -1 0 0
vn -1 0 0
vn -1 0 0
vn -1 0 0
vn -1 0 0
vn -1 0 0
vn -1 0 0
vn -1 0 0
vn -1 0 0
vn -1 0 0
vn -1 0 0
vn -1 0 0
vn -1 0 0
vn 0 0.8957703 -0.4445174
vn 0 1 0
vn 0 1 0
vn 0 0.8957704 -0.4445168
vn 0 0.3190838 -0.9477265
vn 0 0.319084 -0.9477264
vn 0 -0.3190828 -0.9477268
vn 0 -0.319083 -0.9477268
vn 0 -0.8188909 -0.5739492
vn 0 -0.8188908 -0.5739494
vn 0 -0.9886686 -0.1501145
vn 0 -0.9886686 -0.1501142
vn 0 -1 0
vn 0 -1 0
vn 0 -1 0
vn 0 -0.9886687 -0.1501134
vn 0 -1 0
vn 0 -0.9886687 -0.1501136
vn 0 -0.8188917 -0.573948
vn 0 -0.8188919 -0.5739478
vn 0 -0.3190837 -0.9477265
vn 0 -0.3190837 -0.9477265
vn 0 0.3190855 -0.9477259
vn 0 0.3190855 -0.9477259
vn 0 0.8188899 -0.5739507
vn 0 0.81889 -0.5739506
vn 0 0.988668 -0.1501185
vn 0 0.988668 -0.1501187
vn 0 1 0
vn 0 1 0
vn 0 1 0
vn 0 1 0
vn 0 1 0
vn 0 1 0
vn 0 0.9886683 0.1501173
vn 0 0.9886683 0.150117
vn 0 0.8188891 0.5739517
vn 0 0.818889 0.5739519
vn 0 0.3190827 0.9477268
vn 0 0.3190827 0.9477268
vn 0 -0.3530363 0.9356097
vn 0 -0.3530363 0.9356097
vn 0 -0.03604635 0.9993501
vn 0 -0.03604636 0.9993501
vn 0 0.3190815 0.9477273
vn 0 0.3190815 0.9477273
vn 0 -0.319082 0.9477271
vn 0 -0.3190823 0.947727
vn 0 -0.8188882 0.573953
vn 0 -0.8188879 0.5739534
vn 0 -0.988668 0.1501182
vn 0 -0.988668 0.1501182
vn 0 -1 0
vn 0 -1 0
vn 0 -1 0
vn 0 -1 0
vn 0 0 1
vn 0 0 1
vn 0 0 1
vn 0 0 1
vn 0 0 -1
vn 0 0 -1
vn 0 0 -1
vn 0 0 -1
vn 0 0 -1
vn 0 0 -1
vn 0 0 -1
vn 0 0 -1
vn -1 0 0
vn -1 0 0
vn -1 0 0
vn -1 0 0
vn 0 1 0
vn 0 0.9121915 -0.4097642
vn 0 1 0
vn 0 0.9121915 -0.4097642
vn 0 0.6641867 -0.7475668
vn 0 0.6641867 -0.7475668
vn 0 -0.6451663 0.7640421
vn 0 -0.6451663 0.7640421
vn 0 -0.6451663 0.7640421
vn 0 -0.6451663 0.7640421
g Logo_10B_0
f 3/3/3 2/2/2 1/1/1
f 2/2/2 4/4/4 1/1/1
f 1/1/1 4/4/4 5/5/5
f 4/4/4 6/6/6 5/5/5
f 9/9/9 8/8/8 7/7/7
f 10/10/10 9/9/9 7/7/7
f 13/13/13 12/12/12 11/11/11
f 14/14/14 13/13/13 11/11/11
f 17/17/17 16/16/16 15/15/15
f 18/18/18 15/15/15 16/16/16
f 19/19/19 18/18/18 16/16/16
f 20/20/20 18/18/18 19/19/19
f 21/21/21 20/20/20 19/19/19
f 21/21/21 22/22/22 20/20/20
f 23/23/23 20/20/20 22/22/22
f 24/24/24 23/23/23 22/22/22
f 27/27/27 26/26/26 25/25/25
f 26/26/26 28/28/28 25/25/25
f 28/28/28 29/29/29 25/25/25
f 29/29/29 30/30/30 25/25/25
f 33/33/33 32/32/32 31/31/31
f 34/34/34 33/33/33 31/31/31
f 37/37/37 36/36/36 35/35/35
f 36/36/36 38/38/38 35/35/35
f 36/36/36 38/38/38 39/39/39
f 38/38/38 40/40/40 39/39/39
f 43/43/43 42/42/42 41/41/41
f 44/44/44 43/43/43 41/41/41
f 47/47/47 46/46/46 45/45/45
f 48/48/48 47/47/47 45/45/45
f 51/51/51 50/50/50 49/49/49
f 52/52/52 51/51/51 49/49/49
f 55/55/55 54/54/54 53/53/53
f 56/56/56 55/55/55 53/53/53
f 59/59/59 58/58/58 57/57/57
f 60/60/60 59/59/59 57/57/57
f 63/63/63 62/62/62 61/61/61
f 64/64/64 63/63/63 61/61/61
f 67/67/67 66/66/66 65/65/65
f 68/68/68 67/67/67 65/65/65
f 71/71/71 70/70/70 69/69/69
f 72/72/72 71/71/71 69/69/69
f 72/72/72 69/69/69 73/73/73
f 74/74/74 72/72/72 73/73/73
f 77/77/77 76/76/76 75/75/75
f 78/78/78 77/77/77 75/75/75
f 81/81/81 80/80/80 79/79/79
f 82/82/82 81/81/81 79/79/79
f 85/85/85 84/84/84 83/83/83
f 86/86/86 85/85/85 83/83/83
f 89/89/89 88/88/88 87/87/87
f 90/90/90 89/89/89 87/87/87
f 90/90/90 87/87/87 91/91/91
f 92/92/92 90/90/90 91/91/91
f 95/95/95 94/94/94 93/93/93
f 94/94/94 96/96/96 93/93/93
f 94/94/94 97/97/97 96/96/96
f 97/97/97 98/98/98 96/96/96
f 101/101/101 100/100/100 99/99/99
f 102/102/102 101/101/101 99/99/99
f 105/105/105 104/104/104 103/103/103
f 104/104/104 106/106/106 103/103/103
f 107/107/107 104/104/104 106/106/106
f 108/108/108 107/107/107 106/106/106
f 111/111/111 110/110/110 109/109/109
f 112/112/112 111/111/111 109/109/109
f 115/115/115 114/114/114 113/113/113
f 116/116/116 115/115/115 113/113/113
f 119/119/119 118/118/118 117/117/117
f 120/120/120 119/119/119 117/117/117
f 123/123/123 122/122/122 121/121/121
f 124/124/124 123/123/123 121/121/121
f 127/127/127 126/126/126 125/125/125
f 128/128/128 127/127/127 125/125/125
f 131/131/131 130/130/130 129/129/129
f 132/132/132 131/131/131 129/129/129
f 135/135/135 134/134/134 133/133/133
f 136/136/136 135/135/135 133/133/133
f 136/136/136 133/133/133 137/137/137
f 133/133/133 138/138/138 137/137/137
f 139/139/139 136/136/136 137/137/137
f 137/137/137 138/138/138 140/140/140
f 141/141/141 139/139/139 137/137/137
f 138/138/138 142/142/142 140/140/140
f 143/143/143 139/139/139 141/141/141
f 140/140/140 142/142/142 144/144/144
f 145/145/145 143/143/143 141/141/141
f 142/142/142 146/146/146 144/144/144
f 147/147/147 143/143/143 145/145/145
f 144/144/144 146/146/146 148/148/148
f 149/149/149 147/147/147 145/145/145
f 146/146/146 150/150/150 148/148/148
f 151/151/151 147/147/147 149/149/149
f 152/152/152 151/151/151 149/149/149
f 152/152/152 153/153/153 151/151/151
f 153/153/153 154/154/154 151/151/151
f 148/148/148 150/150/150 155/155/155
f 150/150/150 156/156/156 155/155/155
f 156/156/156 157/157/157 155/155/155
f 157/157/157 158/158/158 155/155/155
f 158/158/158 153/153/153 159/159/159
f 160/160/160 158/158/158 159/159/159
f 163/163/163 162/162/162 161/161/161
f 164/164/164 163/163/163 161/161/161
f 164/164/164 161/161/161 165/165/165
f 166/166/166 164/164/164 165/165/165
f 166/166/166 165/165/165 167/167/167
f 168/168/168 166/166/166 167/167/167
f 168/168/168 167/167/167 169/169/169
f 170/170/170 168/168/168 169/169/169
f 170/170/170 169/169/169 171/171/171
f 172/172/172 170/170/170 171/171/171
f 172/172/172 171/171/171 173/173/173
f 174/174/174 172/172/172 173/173/173
f 177/177/177 176/176/176 175/175/175
f 176/176/176 178/178/178 175/175/175
f 176/176/176 179/179/179 178/178/178
f 179/179/179 180/180/180 178/178/178
f 179/179/179 181/181/181 180/180/180
f 181/181/181 182/182/182 180/180/180
f 181/181/181 183/183/183 182/182/182
f 183/183/183 184/184/184 182/182/182
f 183/183/183 185/185/185 184/184/184
f 185/185/185 186/186/186 184/184/184
f 185/185/185 187/187/187 186/186/186
f 187/187/187 188/188/188 186/186/186
f 187/187/187 189/189/189 188/188/188
f 189/189/189 190/190/190 188/188/188
f 193/193/193 192/192/192 191/191/191
f 194/194/194 193/193/193 191/191/191
f 194/194/194 191/191/191 195/195/195
f 196/196/196 194/194/194 195/195/195
f 196/196/196 195/195/195 197/197/197
f 198/198/198 196/196/196 197/197/197
f 198/198/198 197/197/197 199/199/199
f 200/200/200 198/198/198 199/199/199
f 200/200/200 199/199/199 201/201/201
f 202/202/202 200/200/200 201/201/201
f 202/202/202 201/201/201 203/203/203
f 204/204/204 202/202/202 203/203/203
f 204/204/204 203/203/203 205/205/205
f 206/206/206 204/204/204 205/205/205
f 206/206/206 205/205/205 207/207/207
f 208/208/208 206/206/206 207/207/207
f 208/208/208 207/207/207 209/209/209
f 210/210/210 208/208/208 209/209/209
f 210/210/210 209/209/209 211/211/211
f 212/212/212 210/210/210 211/211/211
f 212/212/212 211/211/211 213/213/213
f 214/214/214 212/212/212 213/213/213
f 214/214/214 213/213/213 215/215/215
f 216/216/216 214/214/214 215/215/215
f 219/219/219 218/218/218 217/217/217
f 220/220/220 219/219/219 217/217/217
f 223/223/223 222/222/222 221/221/221
f 224/224/224 223/223/223 221/221/221
f 227/227/227 226/226/226 225/225/225
f 228/228/228 227/227/227 225/225/225
f 231/231/231 230/230/230 229/229/229
f 232/232/232 231/231/231 229/229/229
f 235/235/235 234/234/234 233/233/233
f 234/234/234 236/236/236 233/233/233
f 234/234/234 237/237/237 236/236/236
f 237/237/237 238/238/238 236/236/236
f 241/241/241 240/240/240 239/239/239
f 242/242/242 241/241/241 239/239/239
