g Pavement_1B_4x4
v 1 0.3 2
v 0.83812 0.3565008 1.16188
v 1 0.3 1
v 0.83812 0.3565008 1.83812
v 0 0.3 2
v 0.16188 0.3565008 1.83812
v 0.16188 0.3565008 1.16188
v 0 0.3 1
v 1 0.3 1
v 0.83812 0.3565008 1.16188
v 0.16188 0.3565008 1.16188
v 0 0.3 1
v -2 0.3 2
v -2 0.3 -2
v 2 0.3 -2
v 2 0.3 2
v -2 0.3 -2
v -2 0 -2
v 2 0 -2
v 2 0.3 -2
v 2 0.3 2
v 2 0 2
v -2 0 2
v -2 0.3 2
v -2 0.3 2
v -2 0 2
v -2 0 -2
v -2 0.3 -2
v 2 0.3 -2
v 2 0 -2
v 2 0 2
v 2 0.3 2
v 0 0.3 0
v -0.16188 0.3565008 -0.8381195
v 0 0.3 -1
v -0.16188 0.3565008 -0.1618805
v -1 0.3 0
v -0.83812 0.3565008 -0.1618805
v -0.83812 0.3565008 -0.8381195
v -1 0.3 -1
v 0 0.3 -1
v -0.16188 0.3565008 -0.8381195
v -0.83812 0.3565008 -0.8381195
v -1 0.3 -1
v -2 0 2
v 2 0 2
v 2 0 -2
v -2 0 -2
vt 0.5539101 0.8601767
vt 0.5511371 0.9240555
vt 0.5539101 0.8601767
vt 0.5511371 0.9240555
vt 0.5196502 0.8601767
vt 0.5224231 0.9240555
vt 0.5224231 0.9240555
vt 0.5196502 0.8601767
vt 0.5539101 0.8601767
vt 0.5511371 0.9240555
vt 0.5224231 0.9240555
vt 0.5196502 0.8601767
vt 0.5102261 0.8577623
vt 0.6246206 0.8577623
vt 0.6246206 0.8577623
vt 0.5102261 0.8577623
vt 0.6246206 0.9245282
vt 0.6246206 0.5125945
vt 0.6246206 0.5125945
vt 0.6246206 0.9245282
vt 0.5102261 0.9245282
vt 0.5102261 0.5125945
vt 0.5102261 0.5125945
vt 0.5102261 0.9245282
vt 0.5102261 0.9245282
vt 0.5102261 0.5125945
vt 0.6246206 0.5125945
vt 0.6246206 0.9245282
vt 0.6246206 0.9245282
vt 0.6246206 0.5125945
vt 0.5102261 0.5125945
vt 0.5102261 0.9245282
vt 0.5539101 0.8601767
vt 0.5511371 0.9240555
vt 0.5539101 0.8601767
vt 0.5511371 0.9240555
vt 0.5196502 0.8601767
vt 0.5224231 0.9240555
vt 0.5224231 0.9240555
vt 0.5196502 0.8601767
vt 0.5539101 0.8601767
vt 0.5511371 0.9240555
vt 0.5224231 0.9240555
vt 0.5196502 0.8601767
vt 0.5102261 0.5125945
vt 0.5102261 0.5125945
vt 0.6246206 0.5125945
vt 0.6246206 0.5125945
vn 0.1694119 0.9708755 0.1694119
vn 0.1264712 0.983875 -0.1264712
vn 0.1694119 0.9708755 -0.1694119
vn 0.1264712 0.983875 0.1264712
vn -0.1694119 0.9708755 0.1694119
vn -0.1264712 0.983875 0.1264712
vn -0.1264712 0.983875 -0.1264712
vn -0.1694119 0.9708755 -0.1694119
vn 0.1694119 0.9708755 -0.1694119
vn 0.1264712 0.983875 -0.1264712
vn -0.1264712 0.983875 -0.1264712
vn -0.1694119 0.9708755 -0.1694119
vn 0 1 0
vn 0 1 0
vn 0 1 0
vn 0 1 0
vn 0 0 -1
vn 0 0 -1
vn 0 0 -1
vn 0 0 -1
vn 0 0 1
vn 0 0 1
vn 0 0 1
vn 0 0 1
vn -1 0 0
vn -1 0 0
vn -1 0 0
vn -1 0 0
vn 1 0 0
vn 1 0 0
vn 1 0 0
vn 1 0 0
vn 0.1694119 0.9708755 0.1694119
vn 0.1264712 0.983875 -0.1264712
vn 0.1694119 0.9708755 -0.1694119
vn 0.1264712 0.983875 0.1264712
vn -0.1694119 0.9708755 0.1694119
vn -0.1264712 0.983875 0.1264712
vn -0.1264712 0.983875 -0.1264712
vn -0.1694119 0.9708755 -0.1694119
vn 0.1694119 0.9708755 -0.1694119
vn 0.1264712 0.983875 -0.1264712
vn -0.1264712 0.983875 -0.1264712
vn -0.1694119 0.9708755 -0.1694119
vn 0 -1 0
vn 0 -1 0
vn 0 -1 0
vn 0 -1 0
g Pavement_1B_4x4_0
f 3/3/3 2/2/2 1/1/1
f 2/2/2 4/4/4 1/1/1
f 1/1/1 4/4/4 5/5/5
f 4/4/4 2/2/2 6/6/6
f 4/4/4 6/6/6 5/5/5
f 2/2/2 7/7/7 6/6/6
f 5/5/5 6/6/6 8/8/8
f 6/6/6 7/7/7 8/8/8
f 11/11/11 10/10/10 9/9/9
f 12/12/12 11/11/11 9/9/9
f 15/15/15 14/14/14 13/13/13
f 16/16/16 15/15/15 13/13/13
f 19/19/19 18/18/18 17/17/17
f 20/20/20 19/19/19 17/17/17
f 23/23/23 22/22/22 21/21/21
f 24/24/24 23/23/23 21/21/21
f 27/27/27 26/26/26 25/25/25
f 28/28/28 27/27/27 25/25/25
f 31/31/31 30/30/30 29/29/29
f 32/32/32 31/31/31 29/29/29
f 35/35/35 34/34/34 33/33/33
f 34/34/34 36/36/36 33/33/33
f 33/33/33 36/36/36 37/37/37
f 36/36/36 34/34/34 38/38/38
f 36/36/36 38/38/38 37/37/37
f 34/34/34 39/39/39 38/38/38
f 37/37/37 38/38/38 40/40/40
f 38/38/38 39/39/39 40/40/40
f 43/43/43 42/42/42 41/41/41
f 44/44/44 43/43/43 41/41/41
f 47/47/47 46/46/46 45/45/45
f 48/48/48 47/47/47 45/45/45
