g SF_Bld_Castle_Banner_01
v 2.670166 12.83273 -0.1051025
v 1.335144 12.83273 -0.1051025
v 1.335144 12.1152 -0.1051025
v -1.335144 12.1152 -0.1051025
v -1.335144 12.83273 -0.1051025
v -2.670166 12.83273 -0.1051025
v -2.670166 12.83273 -0.1051025
v -2.670166 12.83273 0.1051025
v -2.670166 2.135368 0.1051025
v -2.670166 2.135368 -0.1051025
v 1.335144 1.067684 0.1051025
v 2.670166 2.135368 0.1051025
v 2.670166 2.135368 -0.1051025
v 1.335144 1.067684 -0.1051025
v -1.335144 1.067684 -0.1051025
v -2.670166 2.135368 -0.1051025
v -2.670166 2.135368 0.1051025
v -1.335144 1.067684 0.1051025
v 1.335144 12.1152 0.1051025
v -1.335144 12.1152 0.1051025
v -1.335144 12.1152 -0.1051025
v 1.335144 12.1152 -0.1051025
v 1.335144 12.1152 -0.1051025
v 1.335144 12.83273 -0.1051025
v 1.335144 12.83273 0.1051025
v 1.335144 12.1152 0.1051025
v 1.335144 12.1152 0.1051025
v 1.335144 12.83273 0.1051025
v 2.670166 12.83273 0.1051025
v 1.335144 9.35339 0.1051025
v 2.670166 2.135368 0.1051025
v 1.335144 6.591442 0.1051025
v 1.335144 1.067684 0.1051025
v 2.670166 2.135368 -0.1051025
v 2.670166 2.135368 0.1051025
v 2.670166 12.83273 0.1051025
v 2.670166 12.83273 -0.1051025
v -1.335144 12.1152 0.1051025
v -1.335144 12.83273 0.1051025
v -1.335144 12.83273 -0.1051025
v -1.335144 12.1152 -0.1051025
v -1.335144 12.1152 0.1051025
v 1.335144 12.1152 0.1051025
v 1.335144 9.35339 0.1051025
v -1.335144 9.35339 0.1051025
v -0.0001831055 0 -0.1051025
v -0.0001831055 0 0.1051025
v 1.335144 1.067684 0.1051025
v 1.335144 1.067684 -0.1051025
v -0.0001831055 0 -0.1051025
v 1.335144 1.067684 -0.1051025
v 1.335144 12.1152 -0.1051025
v -1.335144 12.1152 -0.1051025
v -1.335144 1.067684 -0.1051025
v -0.0001831055 0 -0.1051025
v -1.335144 1.067684 -0.1051025
v -1.335144 1.067684 0.1051025
v -0.0001831055 0 0.1051025
v -1.335144 6.591442 0.1051025
v 1.335144 6.591442 0.1051025
v 1.335144 1.067684 0.1051025
v -0.0001831055 0 0.1051025
v -1.335144 1.067684 0.1051025
v 1.335144 9.35339 0.1051025
v 1.335144 6.591442 0.1051025
v -1.335144 6.591442 0.1051025
v -1.335144 9.35339 0.1051025
v -1.335144 12.1152 -0.1051025
v -2.670166 12.83273 -0.1051025
v -2.670166 2.135368 -0.1051025
v -1.335144 1.067684 -0.1051025
v -1.335144 12.1152 0.1051025
v -2.670166 12.83273 0.1051025
v -1.335144 12.83273 0.1051025
v -1.335144 9.35339 0.1051025
v -2.670166 2.135368 0.1051025
v -1.335144 6.591442 0.1051025
v -1.335144 1.067684 0.1051025
v 2.670166 2.135368 -0.1051025
v 2.670166 12.83273 -0.1051025
v 1.335144 12.1152 -0.1051025
v 1.335144 1.067684 -0.1051025
v 2.670166 12.83273 -0.1051025
v 2.670166 12.83273 0.1051025
v 1.335144 12.83273 0.1051025
v 1.335144 12.83273 -0.1051025
v -1.335144 12.83273 -0.1051025
v -1.335144 12.83273 0.1051025
v -2.670166 12.83273 0.1051025
v -2.670166 12.83273 -0.1051025
vt 0.3933105 0.4760742
vt 0.3933105 0.4760742
vt 0.3933105 0.4760742
vt 0.3933105 0.4760742
vt 0.3933105 0.4760742
vt 0.3933105 0.4760742
vt 0.3588867 0.4755859
vt 0.3588867 0.4755859
vt 0.3588867 0.4755859
vt 0.3588867 0.4755859
vt 0.3254395 0.4750977
vt 0.3254395 0.4750977
vt 0.3254395 0.4750977
vt 0.3254395 0.4750977
vt 0.3254395 0.4750977
vt 0.3254395 0.4750977
vt 0.3254395 0.4750977
vt 0.3254395 0.4750977
vt 0.2178955 0.5385742
vt 0.2178955 0.5385742
vt 0.2178955 0.5385742
vt 0.2178955 0.5385742
vt 0.3588867 0.4755859
vt 0.3588867 0.4755859
vt 0.3588867 0.4755859
vt 0.3588867 0.4755859
vt 0.3886719 0.4755859
vt 0.3886719 0.4755859
vt 0.3886719 0.4755859
vt 0.3886719 0.4755859
vt 0.3886719 0.4755859
vt 0.3886719 0.4755859
vt 0.3886719 0.4755859
vt 0.3588867 0.4755859
vt 0.3588867 0.4755859
vt 0.3588867 0.4755859
vt 0.3588867 0.4755859
vt 0.3588867 0.4755859
vt 0.3588867 0.4755859
vt 0.3588867 0.4755859
vt 0.3588867 0.4755859
vt 0.3000488 0.5302734
vt 0.3000488 0.5302734
vt 0.3000488 0.5302734
vt 0.3000488 0.5302734
vt 0.21875 0.550293
vt 0.21875 0.550293
vt 0.21875 0.550293
vt 0.21875 0.550293
vt 0.3000488 0.5302734
vt 0.3000488 0.5302734
vt 0.3000488 0.5302734
vt 0.3000488 0.5302734
vt 0.3000488 0.5302734
vt 0.21875 0.550293
vt 0.21875 0.550293
vt 0.21875 0.550293
vt 0.21875 0.550293
vt 0.3000488 0.5302734
vt 0.3000488 0.5302734
vt 0.3000488 0.5302734
vt 0.3000488 0.5302734
vt 0.3000488 0.5302734
vt 0.3037109 0.6040039
vt 0.3037109 0.5268555
vt 0.2265625 0.5268555
vt 0.2265625 0.6040039
vt 0.3886719 0.4755859
vt 0.3886719 0.4755859
vt 0.3886719 0.4755859
vt 0.3886719 0.4755859
vt 0.3886719 0.4755859
vt 0.3886719 0.4755859
vt 0.3886719 0.4755859
vt 0.3886719 0.4755859
vt 0.3886719 0.4755859
vt 0.3886719 0.4755859
vt 0.3886719 0.4755859
vt 0.3886719 0.4755859
vt 0.3886719 0.4755859
vt 0.3886719 0.4755859
vt 0.3886719 0.4755859
vt 0.4250488 0.4760742
vt 0.4250488 0.4760742
vt 0.4250488 0.4760742
vt 0.4250488 0.4760742
vt 0.4250488 0.4760742
vt 0.4250488 0.4760742
vt 0.4250488 0.4760742
vt 0.4250488 0.4760742
vn 0 0 -1
vn 0 0 -1
vn 0 0 -1
vn 0 0 -1
vn 0 0 -1
vn 0 0 -1
vn -1 0 0
vn -1 0 0
vn -1 0 0
vn -1 0 0
vn 0.6245117 -0.7807617 0
vn 0.6245117 -0.7807617 0
vn 0.6245117 -0.7807617 0
vn 0.6245117 -0.7807617 0
vn -0.6245117 -0.7807617 0
vn -0.6245117 -0.7807617 0
vn -0.6245117 -0.7807617 0
vn -0.6245117 -0.7807617 0
vn 0 1 0
vn 0 1 0
vn 0 1 0
vn 0 1 0
vn -1 0 0
vn -1 0 0
vn -1 0 0
vn -1 0 0
vn 0 0 1
vn 0 0 1
vn 0 0 1
vn 0 0 1
vn 0 0 1
vn 0 0 1
vn 0 0 1
vn 1 0 0
vn 1 0 0
vn 1 0 0
vn 1 0 0
vn 1 0 0
vn 1 0 0
vn 1 0 0
vn 1 0 0
vn 0 0 1
vn 0 0 1
vn 0 0 1
vn 0 0 1
vn 0.6245117 -0.78125 0
vn 0.6245117 -0.78125 0
vn 0.6245117 -0.7807617 0
vn 0.6245117 -0.7807617 0
vn 0 0 -1
vn 0 0 -1
vn 0 0 -1
vn 0 0 -1
vn 0 0 -1
vn -0.6245117 -0.7807617 0
vn -0.6245117 -0.7807617 0
vn -0.6245117 -0.7807617 0
vn -0.6245117 -0.7807617 0
vn 0 0 1
vn 0 0 1
vn 0 0 1
vn 0 0 1
vn 0 0 1
vn 0 0 1
vn 0 0 1
vn 0 0 1
vn 0 0 1
vn 0 0 -1
vn 0 0 -1
vn 0 0 -1
vn 0 0 -1
vn 0 0 1
vn 0 0 1
vn 0 0 1
vn 0 0 1
vn 0 0 1
vn 0 0 1
vn 0 0 1
vn 0 0 -1
vn 0 0 -1
vn 0 0 -1
vn 0 0 -1
vn 0 1 0
vn 0 1 0
vn 0 1 0
vn 0 1 0
vn 0 1 0
vn 0 1 0
vn 0 1 0
vn 0 1 0
g SF_Bld_Castle_Banner_01_0
f 3/3/3 2/2/2 1/1/1
f 6/6/6 5/5/5 4/4/4
f 9/9/9 8/8/8 7/7/7
f 10/10/10 9/9/9 7/7/7
f 13/13/13 12/12/12 11/11/11
f 14/14/14 13/13/13 11/11/11
f 17/17/17 16/16/16 15/15/15
f 18/18/18 17/17/17 15/15/15
f 21/21/21 20/20/20 19/19/19
f 22/22/22 21/21/21 19/19/19
f 25/25/25 24/24/24 23/23/23
f 26/26/26 25/25/25 23/23/23
f 29/29/29 28/28/28 27/27/27
f 29/29/29 27/27/27 30/30/30
f 29/29/29 30/30/30 31/31/31
f 30/30/30 32/32/32 31/31/31
f 32/32/32 33/33/33 31/31/31
f 36/36/36 35/35/35 34/34/34
f 37/37/37 36/36/36 34/34/34
f 40/40/40 39/39/39 38/38/38
f 41/41/41 40/40/40 38/38/38
f 44/44/44 43/43/43 42/42/42
f 45/45/45 44/44/44 42/42/42
f 48/48/48 47/47/47 46/46/46
f 49/49/49 48/48/48 46/46/46
f 52/52/52 51/51/51 50/50/50
f 50/50/50 53/53/53 52/52/52
f 50/50/50 54/54/54 53/53/53
f 57/57/57 56/56/56 55/55/55
f 58/58/58 57/57/57 55/55/55
f 61/61/61 60/60/60 59/59/59
f 59/59/59 62/62/62 61/61/61
f 59/59/59 63/63/63 62/62/62
f 66/66/66 65/65/65 64/64/64
f 67/67/67 66/66/66 64/64/64
f 70/70/70 69/69/69 68/68/68
f 71/71/71 70/70/70 68/68/68
f 74/74/74 73/73/73 72/72/72
f 73/73/73 75/75/75 72/72/72
f 73/73/73 76/76/76 75/75/75
f 76/76/76 77/77/77 75/75/75
f 76/76/76 78/78/78 77/77/77
f 81/81/81 80/80/80 79/79/79
f 82/82/82 81/81/81 79/79/79
f 85/85/85 84/84/84 83/83/83
f 86/86/86 85/85/85 83/83/83
f 89/89/89 88/88/88 87/87/87
f 90/90/90 89/89/89 87/87/87
