g SM_Env_Background_Island_02
v 27.51996 0 2.142054
v 17.22165 3.056944 0.5094182
v 23.96312 2.602578 1.518582
v 17.6815 0 0.546857
v 7.737797 0 -1.09492
v 15.87121 5.161035 0.3773174
v 11.69699 3.584181 -0.2782524
v 12.53478 5.752679 -0.1351302
v 4.500895 0 -1.621757
v 4.104748 2.806512 -1.616606
v 7.742899 2.175161 -1.062679
v 11.69699 3.584181 -0.2782524
v -27.51996 1.66893E-06 -0.8511989
v -26.44659 3.367592 -0.8944116
v -21.38006 4.060769 -1.213379
v -17.42712 0 -1.546669
v -17.41617 2.283806 -1.546669
v -12.76637 5.939316 -1.802806
v -6.740732 5.397016 -2.106971
v -6.286718 0 -2.142055
v -6.286718 0 -2.142055
v -2.975271 9.858572 -1.93383
v -0.2100887 9.330168 -1.856051
v 4.104748 2.806512 -1.616606
v 4.500895 0 -1.621757
vt 0.4851074 0.2524414
vt 0.4851074 0.2524414
vt 0.4851074 0.2524414
vt 0.4851074 0.2524414
vt 0.4851074 0.2524414
vt 0.4851074 0.2524414
vt 0.4851074 0.2524414
vt 0.4851074 0.2524414
vt 0.4851074 0.2524414
vt 0.4851074 0.2524414
vt 0.4851074 0.2524414
vt 0.4851074 0.2524414
vt 0.4851074 0.2524414
vt 0.4851074 0.2524414
vt 0.4851074 0.2524414
vt 0.4851074 0.2524414
vt 0.4851074 0.2524414
vt 0.4851074 0.2524414
vt 0.4851074 0.2524414
vt 0.4851074 0.2524414
vt 0.4851074 0.2524414
vt 0.4851074 0.2524414
vt 0.4851074 0.2524414
vt 0.4851074 0.2524414
vt 0.4851074 0.2524414
vn -0.1550293 0.005336761 0.987793
vn -0.1575928 -0.0148468 0.9873047
vn -0.1550293 0.005336761 0.987793
vn -0.1589355 -0.003541946 0.9873047
vn -0.1571045 -0.03521729 0.9868164
vn -0.1428223 -0.0453186 0.9887695
vn -0.1368408 -0.04925537 0.9892578
vn -0.152832 -0.006160736 0.9882813
vn -0.1569824 -0.01974487 0.9873047
vn -0.1569824 -0.01974487 0.9873047
vn -0.1734619 -0.016922 0.9848633
vn -0.1713867 -0.01013184 0.9853516
vn 0.06628418 -0.01125336 0.9975586
vn 0.06384277 -0.007549286 0.9980469
vn 0.07208252 -0.007637024 0.9975586
vn 0.06231689 -0.00287056 0.9980469
vn 0.06939697 -0.0003328323 0.9975586
vn 0.052948 0.001506805 0.9985352
vn 0.02311707 -0.002717972 0.9995117
vn -0.003879547 -0.007469177 1
vn -0.04110718 -0.006565094 0.9990234
vn -0.03250122 -0.01019287 0.9995117
vn -0.04074097 -0.0041008 0.9990234
vn -0.04971313 -0.00293541 0.9985352
vn -0.04818726 -0.008636475 0.9990234
g SM_Env_Background_Island_02_0
f 3/3/3 2/2/2 1/1/1
f 2/2/2 4/4/4 1/1/1
f 5/5/5 4/4/4 2/2/2
f 2/2/2 6/6/6 5/5/5
f 6/6/6 7/7/7 5/5/5
f 6/6/6 8/8/8 7/7/7
f 10/10/10 9/9/9 5/5/5
f 11/11/11 10/10/10 5/5/5
f 12/12/12 11/11/11 5/5/5
f 15/15/15 14/14/14 13/13/13
f 15/15/15 13/13/13 16/16/16
f 16/16/16 17/17/17 15/15/15
f 18/18/18 17/17/17 16/16/16
f 19/19/19 18/18/18 16/16/16
f 16/16/16 20/20/20 19/19/19
f 22/22/22 19/19/19 21/21/21
f 23/23/23 22/22/22 21/21/21
f 24/24/24 23/23/23 21/21/21
f 21/21/21 25/25/25 24/24/24
