g Star
v -0.002462948 -0.04666962 0.01654515
v 0.03418737 -0.02194866 0.01654511
v 0.04014577 -0.07031099 0.01654515
v -0.03729957 -0.01945229 0.01654518
v -0.04661693 -0.06728118 0.01654518
v -0.002776582 -0.05565094 0.008516269
v 0.04014577 -0.07031099 0.01654515
v 0.0500145 -0.08494198 0.008516271
v -0.003046401 -0.06337757 -1.027489E-08
v 0.05850457 -0.09752901 -1.027489E-08
v -0.05748226 -0.08118815 0.008516271
v -0.06682969 -0.09315229 -3.082466E-08
v -0.05337008 -0.02406041 -1.027489E-08
v -0.04593825 -0.02192938 0.00851628
v -0.08713049 0.02220744 0.008516247
v -0.1013976 0.02740026 -3.082466E-08
v -0.03152814 0.03594991 -1.027489E-08
v -0.0705466 0.01617138 0.01654511
v -0.02720483 0.02954032 0.00851628
v -0.02217947 0.0220899 0.01654518
v 0.002042758 0.08235554 0.00851629
v 0.002572626 0.09752901 1.027489E-08
v 0.03229469 0.03372114 3.082466E-08
v 0.001426845 0.06471808 0.01654518
v 0.02753478 0.02762876 0.008516301
v 0.02200192 0.02054706 0.01654518
v 0.08680303 0.01613354 0.008516314
v 0.1013976 0.02031846 3.082466E-08
v 0.04989729 -0.02766659 -3.082466E-08
v 0.0698385 0.01126904 0.01654522
v 0.04263221 -0.02502232 0.008516247
v 0.04014577 -0.07031099 0.01654515
v 0.0500145 -0.08494198 0.008516271
v 0.05850457 -0.09752901 -1.027489E-08
v -0.02217947 0.02208992 -0.01654521
v 0.02200196 0.02054704 -0.01654517
v 0.001426845 0.06471808 -0.01654517
v -0.002462948 -0.04666962 -0.01654521
v -0.03729957 -0.01945228 -0.01654521
v -0.0705466 0.01617138 -0.01654521
v -0.02720483 0.02954033 -0.008516301
v 0.001426845 0.06471808 -0.01654517
v 0.002042758 0.08235554 -0.008516279
v -0.03152814 0.03594991 -1.027489E-08
v 0.002572626 0.09752901 1.027489E-08
v -0.08713049 0.02220744 -0.008516311
v -0.1013976 0.02740026 -3.082466E-08
v -0.05337008 -0.02406041 -1.027489E-08
v -0.04593825 -0.02192937 -0.008516301
v -0.04661696 -0.06728118 -0.01654517
v -0.05748228 -0.08118815 -0.008516301
v -0.06682969 -0.09315229 -3.082466E-08
v -0.003046401 -0.06337757 -1.027489E-08
v -0.002776582 -0.05565094 -0.008516301
v 0.0500145 -0.08494198 -0.008516301
v 0.05850457 -0.09752901 -1.027489E-08
v 0.04989729 -0.02766659 -3.082466E-08
v 0.04014577 -0.07031099 -0.01654521
v 0.04263222 -0.02502232 -0.008516311
v 0.03418739 -0.02194866 -0.01654521
v 0.08680303 0.01613354 -0.008516246
v 0.1013976 0.02031846 3.082466E-08
v 0.03229469 0.03372114 3.082466E-08
v 0.0698385 0.01126904 -0.01654509
v 0.0275348 0.02762876 -0.008516268
v 0.001426845 0.06471808 -0.01654517
v 0.002042758 0.08235554 -0.008516279
v 0.002572626 0.09752901 1.027489E-08
vt 0.7555172 0.3669665
vt 0.6199589 0.3667493
vt 0.6875247 0.5000179
vt 0.7976134 0.23811
vt 0.9031417 0.34389
vt 0.7702627 0.3873306
vt 0.6875247 0.5000179
vt 0.6874566 0.5424449
vt 0.7850083 0.4076948
vt 0.6873885 0.5848721
vt 0.9434713 0.3570654
vt 0.9838008 0.3702407
vt 0.8454616 0.2226478
vt 0.8215375 0.2303789
vt 0.8462774 0.05629513
vt 0.8712703 0.02201075
vt 0.6881525 0.1079706
vt 0.8212845 0.09057952
vt 0.6881123 0.1331128
vt 0.6880721 0.1582551
vt 0.5301937 0.05578911
vt 0.5053106 0.02142498
vt 0.5304769 0.2221435
vt 0.5550767 0.09015324
vt 0.5543761 0.2299511
vt 0.5782754 0.2377587
vt 0.4320371 0.3562461
vt 0.3916655 0.3692922
vt 0.5903371 0.407383
vt 0.4724086 0.3432
vt 0.605148 0.3870662
vt 0.6875247 0.5000179
vt 0.6874566 0.5424449
vt 0.6873885 0.5848721
vt 0.3794904 0.7688696
vt 0.2439509 0.7665825
vt 0.309474 0.9008671
vt 0.3152396 0.5591525
vt 0.4235491 0.6406707
vt 0.52745 0.7480493
vt 0.3939234 0.7894566
vt 0.309474 0.9008671
vt 0.3087583 0.9432882
vt 0.4083564 0.8100436
vt 0.3080426 0.9857093
vt 0.5675737 0.7618389
vt 0.6076975 0.7756285
vt 0.471628 0.6259409
vt 0.4475886 0.6333058
vt 0.44947 0.4935187
vt 0.4749835 0.4596201
vt 0.500497 0.4257213
vt 0.316088 0.5088753
vt 0.3156638 0.5340139
vt 0.1589445 0.4542878
vt 0.134589 0.4195478
vt 0.1566876 0.6206271
vt 0.1832999 0.4890278
vt 0.1804648 0.6287987
vt 0.204242 0.6369703
vt 0.05621158 0.7532108
vt 0.01564555 0.7656389
vt 0.2137123 0.8067591
vt 0.0967776 0.7407827
vt 0.2288316 0.7866708
vt 0.309474 0.9008671
vt 0.3087583 0.9432882
vt 0.3080426 0.9857093
vn -0.008964374 -0.2567303 0.9664415
vn 0.2413941 -0.08786105 0.9664416
vn 0.18925 -0.2805747 0.94099
vn -0.246936 -0.07080757 0.9664414
vn -0.2083596 -0.2666916 0.9409898
vn -0.02430216 -0.6959379 0.7176906
vn 0.18925 -0.2805747 0.94099
vn 0.264714 -0.392455 0.880855
vn -0.03489905 -0.9993908 6.632897E-07
vn 0.559193 -0.8290375 4.966666E-07
vn -0.2914446 -0.3730347 0.8808548
vn -0.6156612 -0.788011 -5.587505E-07
vn -0.9612615 -0.2756379 1.372323E-07
vn -0.6693866 -0.1919437 0.7176902
vn -0.4448368 0.1619066 0.8808555
vn -0.9396926 0.3420205 0
vn -0.5591925 0.8290378 3.88825E-07
vn -0.3180239 0.1157509 0.9409901
vn -0.3894006 0.5773101 0.7176909
vn -0.1436497 0.2129689 0.9664414
vn 0.01652146 0.4730973 0.8808553
vn 0.03489979 0.9993908 0
vn 0.6156615 0.7880108 1.166476E-06
vn 0.01181212 0.3382282 0.94099
vn 0.4287226 0.5487401 0.7176915
vn 0.1581549 0.2024284 0.9664419
vn 0.4550481 0.130482 0.8808551
vn 0.9612618 0.2756371 -1.862505E-07
vn 0.9396924 -0.3420207 0
vn 0.3253246 0.09328444 0.9409899
vn 0.6543654 -0.2381703 0.7176914
vn 0.18925 -0.2805747 0.94099
vn 0.264714 -0.392455 0.880855
vn 0.559193 -0.8290375 4.966666E-07
vn -0.1436491 0.2129697 -0.9664413
vn 0.1581562 0.2024299 -0.9664413
vn 0.01181258 0.3382282 -0.94099
vn -0.00896537 -0.2567309 -0.9664413
vn -0.2469362 -0.07080808 -0.9664413
vn -0.3180246 0.1157508 -0.9409899
vn -0.3894002 0.5773109 -0.7176905
vn 0.01181258 0.3382282 -0.94099
vn 0.01652215 0.4730976 -0.8808551
vn -0.5591925 0.8290378 3.88825E-07
vn 0.03489979 0.9993908 0
vn -0.4448372 0.1619068 -0.8808553
vn -0.9396926 0.3420205 0
vn -0.9612615 -0.2756379 1.372323E-07
vn -0.6693866 -0.1919442 -0.7176901
vn -0.2083601 -0.2666905 -0.9409901
vn -0.2914441 -0.3730336 -0.8808554
vn -0.6156612 -0.788011 -5.587505E-07
vn -0.03489905 -0.9993908 6.632897E-07
vn -0.02430259 -0.6959388 -0.7176898
vn 0.2647142 -0.3924557 -0.8808547
vn 0.559193 -0.8290375 4.966666E-07
vn 0.9396924 -0.3420207 0
vn 0.1892505 -0.2805758 -0.9409896
vn 0.6543669 -0.2381696 -0.7176903
vn 0.2413954 -0.0878597 -0.9664414
vn 0.4550471 0.1304829 -0.8808554
vn 0.9612618 0.2756371 -1.862505E-07
vn 0.6156615 0.7880108 1.166476E-06
vn 0.3253234 0.09328526 -0.9409901
vn 0.4287237 0.5487405 -0.7176907
vn 0.01181258 0.3382282 -0.94099
vn 0.01652215 0.4730976 -0.8808551
vn 0.03489979 0.9993908 0
g Star_0
f 3/3/3 2/2/2 1/1/1
f 2/2/2 4/4/4 1/1/1
f 4/4/4 5/5/5 1/1/1
f 1/1/1 5/5/5 6/6/6
f 1/1/1 6/6/6 7/7/7
f 8/8/8 7/7/7 6/6/6
f 6/6/6 9/9/9 8/8/8
f 10/10/10 8/8/8 9/9/9
f 6/6/6 11/11/11 9/9/9
f 11/11/11 6/6/6 5/5/5
f 12/12/12 9/9/9 11/11/11
f 12/12/12 11/11/11 13/13/13
f 11/11/11 5/5/5 14/14/14
f 14/14/14 13/13/13 11/11/11
f 4/4/4 14/14/14 5/5/5
f 14/14/14 15/15/15 13/13/13
f 16/16/16 13/13/13 15/15/15
f 16/16/16 15/15/15 17/17/17
f 4/4/4 18/18/18 14/14/14
f 15/15/15 14/14/14 18/18/18
f 19/19/19 17/17/17 15/15/15
f 15/15/15 18/18/18 19/19/19
f 18/18/18 4/4/4 20/20/20
f 20/20/20 19/19/19 18/18/18
f 20/20/20 4/4/4 2/2/2
f 19/19/19 21/21/21 17/17/17
f 22/22/22 17/17/17 21/21/21
f 22/22/22 21/21/21 23/23/23
f 20/20/20 24/24/24 19/19/19
f 21/21/21 19/19/19 24/24/24
f 25/25/25 23/23/23 21/21/21
f 21/21/21 24/24/24 25/25/25
f 24/24/24 20/20/20 26/26/26
f 26/26/26 20/20/20 2/2/2
f 26/26/26 25/25/25 24/24/24
f 25/25/25 27/27/27 23/23/23
f 28/28/28 23/23/23 27/27/27
f 28/28/28 27/27/27 29/29/29
f 26/26/26 30/30/30 25/25/25
f 30/30/30 26/26/26 2/2/2
f 27/27/27 25/25/25 30/30/30
f 2/2/2 31/31/31 30/30/30
f 27/27/27 30/30/30 31/31/31
f 31/31/31 29/29/29 27/27/27
f 2/2/2 32/32/32 31/31/31
f 33/33/33 31/31/31 32/32/32
f 31/31/31 33/33/33 29/29/29
f 34/34/34 29/29/29 33/33/33
f 37/37/37 36/36/36 35/35/35
f 36/36/36 38/38/38 35/35/35
f 38/38/38 39/39/39 35/35/35
f 39/39/39 40/40/40 35/35/35
f 35/35/35 40/40/40 41/41/41
f 35/35/35 41/41/41 42/42/42
f 43/43/43 42/42/42 41/41/41
f 41/41/41 44/44/44 43/43/43
f 45/45/45 43/43/43 44/44/44
f 41/41/41 46/46/46 44/44/44
f 46/46/46 41/41/41 40/40/40
f 47/47/47 44/44/44 46/46/46
f 47/47/47 46/46/46 48/48/48
f 46/46/46 40/40/40 49/49/49
f 39/39/39 49/49/49 40/40/40
f 49/49/49 48/48/48 46/46/46
f 39/39/39 50/50/50 49/49/49
f 50/50/50 39/39/39 38/38/38
f 49/49/49 51/51/51 48/48/48
f 51/51/51 49/49/49 50/50/50
f 52/52/52 48/48/48 51/51/51
f 52/52/52 51/51/51 53/53/53
f 51/51/51 50/50/50 54/54/54
f 54/54/54 53/53/53 51/51/51
f 38/38/38 54/54/54 50/50/50
f 54/54/54 55/55/55 53/53/53
f 56/56/56 53/53/53 55/55/55
f 56/56/56 55/55/55 57/57/57
f 38/38/38 58/58/58 54/54/54
f 55/55/55 54/54/54 58/58/58
f 59/59/59 57/57/57 55/55/55
f 55/55/55 58/58/58 59/59/59
f 58/58/58 38/38/38 60/60/60
f 60/60/60 59/59/59 58/58/58
f 60/60/60 38/38/38 36/36/36
f 59/59/59 61/61/61 57/57/57
f 62/62/62 57/57/57 61/61/61
f 62/62/62 61/61/61 63/63/63
f 60/60/60 64/64/64 59/59/59
f 64/64/64 60/60/60 36/36/36
f 61/61/61 59/59/59 64/64/64
f 36/36/36 65/65/65 64/64/64
f 61/61/61 64/64/64 65/65/65
f 65/65/65 63/63/63 61/61/61
f 36/36/36 66/66/66 65/65/65
f 67/67/67 65/65/65 66/66/66
f 65/65/65 67/67/67 63/63/63
f 68/68/68 63/63/63 67/67/67
