g Title_Addon_1A
v -2.026282 0.05101281 0.05101281
v -2.026282 -0.05101281 0.05101281
v -2.026282 -0.05101281 -0.05101281
v -2.026282 0.05101281 -0.05101281
v -2.026282 0.05101281 -0.05101281
v -2.026282 -0.05101281 -0.05101281
v 2.026282 -0.05101281 -0.05101281
v 2.026282 0.05101281 -0.05101281
v 2.026282 0.05101281 -0.05101281
v 2.026282 -0.05101281 -0.05101281
v 2.026282 -0.05101281 0.05101281
v 2.026282 0.05101281 0.05101281
v 2.026282 0.05101281 0.05101281
v 2.026282 -0.05101281 0.05101281
v -2.026282 -0.05101281 0.05101281
v -2.026282 0.05101281 0.05101281
v -2.026282 -0.05101281 0.05101281
v 2.026282 -0.05101281 0.05101281
v 2.026282 -0.05101281 -0.05101281
v -2.026282 -0.05101281 -0.05101281
v 2.026282 0.05101281 0.05101281
v -2.026282 0.05101281 0.05101281
v -2.026282 0.05101281 -0.05101281
v 2.026282 0.05101281 -0.05101281
v -0.9457433 -0.03657912 -0.05425672
v -1.054257 -0.03657913 -0.05425671
v -1.051013 -1.014434 -0.05101281
v -0.9489869 -1.014434 -0.05101281
v -0.9489869 -1.014434 -0.05101281
v -1.051013 -1.014434 -0.05101281
v -1.051013 -1.014434 0.05101281
v -0.9489869 -1.014434 0.05101281
v -0.9489869 -1.014434 0.05101281
v -1.051013 -1.014434 0.05101281
v -1.054257 -0.03657913 0.05425671
v -0.9457433 -0.03657912 0.05425672
v -1.054257 -0.03657913 0.05425671
v -1.051013 -1.014434 0.05101281
v -1.051013 -1.014434 -0.05101281
v -1.054257 -0.03657913 -0.05425671
v -0.9489869 -1.014434 0.05101281
v -0.9457433 -0.03657912 0.05425672
v -0.9457433 -0.03657912 -0.05425672
v -0.9489869 -1.014434 -0.05101281
v 1.054256 -0.03657912 -0.05425672
v 0.9457431 -0.03657913 -0.05425671
v 0.9457433 -0.9999999 -0.05425672
v 1.054257 -0.9999999 -0.05425672
v 1.054257 -0.9999999 0.05425672
v 0.9457433 -0.9999999 0.05425672
v 0.9457431 -0.03657913 0.05425671
v 1.054256 -0.03657912 0.05425672
v 0.9457431 -0.03657913 0.05425671
v 0.9457433 -0.9999999 0.05425672
v 0.9457433 -0.9999999 -0.05425672
v 0.9457431 -0.03657913 -0.05425671
v 1.054257 -0.9999999 0.05425672
v 1.054256 -0.03657912 0.05425672
v 1.054256 -0.03657912 -0.05425672
v 1.054257 -0.9999999 -0.05425672
vt 0.5981077 0.3703487
vt 0.5981077 0.3113721
vt 0.6570842 0.3113721
vt 0.6570842 0.3703487
vt 0.6796312 0.3928956
vt 0.6796312 0.2888251
vt 0.6796312 0.2888251
vt 0.6796312 0.3928956
vt 0.6570842 0.3703487
vt 0.6570842 0.3113721
vt 0.5981077 0.3113721
vt 0.5981077 0.3703487
vt 0.5755607 0.3533547
vt 0.5755607 0.2622895
vt 0.5755607 0.2622895
vt 0.5755607 0.3533547
vt 0.5538853 0.2671497
vt 0.5538853 0.2671497
vt 0.7013066 0.2671497
vt 0.7013066 0.2671497
vt 0.5538853 0.414571
vt 0.5538853 0.414571
vt 0.7013066 0.414571
vt 0.7013066 0.414571
vt 0.6151901 0.2972918
vt 0.6151901 0.2972918
vt 0.6151901 0.3294011
vt 0.6151901 0.3294011
vt 0.6193296 0.2618203
vt 0.6193296 0.2618203
vt 0.6045875 0.2618203
vt 0.6045875 0.2618203
vt 0.6230807 0.3294011
vt 0.6230807 0.3294011
vt 0.6230807 0.2972918
vt 0.6230807 0.2972918
vt 0.6230807 0.2631142
vt 0.6230807 0.2952236
vt 0.6151901 0.2952236
vt 0.6151901 0.2631142
vt 0.6230807 0.2952236
vt 0.6230807 0.2631142
vt 0.6151901 0.2631142
vt 0.6151901 0.2952236
vt 0.6151901 0.2972918
vt 0.6151901 0.2972918
vt 0.6151901 0.3294011
vt 0.6151901 0.3294011
vt 0.6230807 0.3294011
vt 0.6230807 0.3294011
vt 0.6230807 0.2972918
vt 0.6230807 0.2972918
vt 0.6230807 0.2631142
vt 0.6230807 0.2952236
vt 0.6151901 0.2952236
vt 0.6151901 0.2631142
vt 0.6230807 0.2952236
vt 0.6230807 0.2631142
vt 0.6151901 0.2631142
vt 0.6151901 0.2952236
vn -1 0 0
vn -1 0 0
vn -1 0 0
vn -1 0 0
vn 0 0 -1
vn 0 0 -1
vn 0 0 -1
vn 0 0 -1
vn 1 0 0
vn 1 0 0
vn 1 0 0
vn 1 0 0
vn 0 0 1
vn 0 0 1
vn 0 0 1
vn 0 0 1
vn 0 -1 0
vn 0 -1 0
vn 0 -1 0
vn 0 -1 0
vn 0 1 0
vn 0 1 0
vn 0 1 0
vn 0 1 0
vn 0 -0.003317357 -0.9999945
vn 0 -0.003317357 -0.9999945
vn 0 -0.003317357 -0.9999945
vn 0 -0.003317357 -0.9999945
vn 0 -1 0
vn 0 -1 0
vn 0 -1 0
vn 0 -1 0
vn 0 -0.003317357 0.9999945
vn 0 -0.003317357 0.9999945
vn 0 -0.003317357 0.9999945
vn 0 -0.003317357 0.9999945
vn -0.9999945 -0.003317614 0
vn -0.9999945 -0.003317614 0
vn -0.9999945 -0.003317614 0
vn -0.9999945 -0.003317614 0
vn 0.9999945 -0.003317004 0
vn 0.9999945 -0.003317004 0
vn 0.9999945 -0.003317004 0
vn 0.9999945 -0.003317004 0
vn 0 0 -1
vn 0 0 -1
vn 0 0 -1
vn 0 0 -1
vn 0 0 1
vn 0 0 1
vn 0 0 1
vn 0 0 1
vn -1 0 0
vn -1 0 0
vn -1 0 0
vn -1 0 0
vn 1 0 0
vn 1 0 0
vn 1 0 0
vn 1 0 0
g Title_Addon_1A_0
f 3/3/3 2/2/2 1/1/1
f 4/4/4 3/3/3 1/1/1
f 7/7/7 6/6/6 5/5/5
f 8/8/8 7/7/7 5/5/5
f 11/11/11 10/10/10 9/9/9
f 12/12/12 11/11/11 9/9/9
f 15/15/15 14/14/14 13/13/13
f 16/16/16 15/15/15 13/13/13
f 19/19/19 18/18/18 17/17/17
f 20/20/20 19/19/19 17/17/17
f 23/23/23 22/22/22 21/21/21
f 24/24/24 23/23/23 21/21/21
f 27/27/27 26/26/26 25/25/25
f 28/28/28 27/27/27 25/25/25
f 31/31/31 30/30/30 29/29/29
f 32/32/32 31/31/31 29/29/29
f 35/35/35 34/34/34 33/33/33
f 36/36/36 35/35/35 33/33/33
f 39/39/39 38/38/38 37/37/37
f 40/40/40 39/39/39 37/37/37
f 43/43/43 42/42/42 41/41/41
f 44/44/44 43/43/43 41/41/41
f 47/47/47 46/46/46 45/45/45
f 48/48/48 47/47/47 45/45/45
f 51/51/51 50/50/50 49/49/49
f 52/52/52 51/51/51 49/49/49
f 55/55/55 54/54/54 53/53/53
f 56/56/56 55/55/55 53/53/53
f 59/59/59 58/58/58 57/57/57
f 60/60/60 59/59/59 57/57/57
