g Traffic_Cone_1B
v -0.2715406 0 0.4399999
v 0.2715406 0.11 0.4399999
v 0.2715406 0 0.4399999
v -0.2715406 0.11 0.4399999
v -0.3906594 0.11 0.3906594
v -0.3906594 0 0.3906594
v -0.4399999 0.11 0.2715406
v -0.4399999 0 0.2715406
v -0.4399999 0 -0.2715406
v -0.4399999 0.11 -0.2715406
v -0.3906594 0.11 -0.3906594
v -0.3906594 0 -0.3906594
v -0.2715406 0.11 -0.4399999
v -0.2715406 0 -0.4399999
v 0.2715406 0 -0.4399999
v 0.2715406 0.11 -0.4399999
v -0.3906594 0.11 -0.3906594
v -0.2715406 0.11 -0.4399999
v 0.2715406 0.11 -0.4399999
v 0.3906594 0.11 -0.3906594
v -0.4399999 0.11 -0.2715406
v 0.4399999 0.11 -0.2715406
v -0.4399999 0.11 0.2715406
v 0.4399999 0.11 0.2715406
v -0.3906594 0.11 0.3906594
v 0.3906594 0.11 0.3906594
v -0.2715406 0.11 0.4399999
v 0.2715406 0.11 0.4399999
v 2.419371E-08 0.1132364 0.2746159
v -0.04910879 1.07871 0.06759247
v 8.501111E-09 1.07871 0.08354886
v -0.1614152 0.1132364 0.222169
v -0.07945971 1.07871 0.02581802
v -0.2611752 0.1132364 0.084861
v -0.07945971 1.07871 -0.02581804
v -0.2611752 0.1132364 -0.08486099
v -0.04910879 1.07871 -0.06759246
v -0.1614152 0.1132364 -0.2221689
v 1.197037E-09 1.07871 -0.08354887
v 1.860241E-10 0.1132364 -0.2746159
v 0.1614152 0.1132364 0.2221689
v 2.419371E-08 0.1132364 0.2746159
v 8.501111E-09 1.07871 0.08354886
v 0.04910881 1.07871 0.06759246
v 0.2611752 0.1132364 0.08486101
v 0.07945971 1.07871 0.02581803
v 0.2611752 0.1132364 -0.08486101
v 0.07945971 1.07871 -0.02581804
v 0.1614151 0.1132364 -0.2221691
v 0.04910877 1.07871 -0.0675925
v 1.860241E-10 0.1132364 -0.2746159
v 1.197037E-09 1.07871 -0.08354887
v -0.04910879 1.07871 -0.06759246
v 1.197037E-09 1.07871 -0.08354887
v 0.04910877 1.07871 -0.0675925
v 0.07945971 1.07871 -0.02581804
v -0.07945971 1.07871 -0.02581804
v 0.07945971 1.07871 0.02581803
v -0.07945971 1.07871 0.02581802
v -0.04910879 1.07871 0.06759247
v 0.04910881 1.07871 0.06759246
v 8.501111E-09 1.07871 0.08354886
v 0.3906594 0.11 -0.3906594
v 0.2715406 0.11 -0.4399999
v 0.2715406 0 -0.4399999
v 0.3906594 0 -0.3906594
v 0.4399999 0.11 -0.2715406
v 0.4399999 0 -0.2715406
v 0.4399999 0 0.2715406
v 0.4399999 0.11 0.2715406
v 0.3906594 0.11 0.3906594
v 0.3906594 0 0.3906594
v 0.2715406 0.11 0.4399999
v 0.2715406 0 0.4399999
v 0.3906594 0 -0.3906594
v 0.2715406 0 -0.4399999
v -0.2715406 0 -0.4399999
v -0.3906594 0 -0.3906594
v 0.4399999 0 -0.2715406
v -0.4399999 0 -0.2715406
v 0.4399999 0 0.2715406
v -0.4399999 0 0.2715406
v 0.3906594 0 0.3906594
v -0.3906594 0 0.3906594
v 0.2715406 0 0.4399999
v -0.2715406 0 0.4399999
v -0.136757 0.3422952 -0.1882299
v 4.080036E-10 0.3422952 -0.2326649
v 7.626297E-10 0.6809477 -0.1656456
v -0.09736405 0.6809478 -0.1340101
v -0.2212775 0.3422952 -0.07189742
v -0.1575384 0.6809477 -0.05118733
v -0.2212775 0.3422952 0.07189743
v -0.1575384 0.6809477 0.05118732
v -0.136757 0.3422952 0.1882299
v -0.09736405 0.6809478 0.1340102
v 2.074822E-08 0.3422952 0.2326649
v 1.524383E-08 0.6809477 0.1656456
v 4.080036E-10 0.3422952 -0.2326649
v 0.09736401 0.6809477 -0.1340102
v 7.626297E-10 0.6809477 -0.1656456
v 0.136757 0.3422952 -0.18823
v 0.1575384 0.6809477 -0.05118734
v 0.2212775 0.3422952 -0.07189745
v 0.1575384 0.6809478 0.05118733
v 0.2212775 0.3422952 0.07189745
v 0.09736408 0.6809477 0.1340101
v 0.136757 0.3422952 0.1882299
v 1.524383E-08 0.6809477 0.1656456
v 2.074822E-08 0.3422952 0.2326649
vt 0.3385853 0.2602246
vt 0.3385853 0.30911
vt 0.3385853 0.2602246
vt 0.3385853 0.30911
vt 0.3429034 0.30911
vt 0.3429034 0.2602246
vt 0.3533283 0.30911
vt 0.3533283 0.2602246
vt 0.4008566 0.2602246
vt 0.4008566 0.30911
vt 0.4112814 0.30911
vt 0.4112814 0.2602246
vt 0.4155995 0.30911
vt 0.4155995 0.2602246
vt 0.4155995 0.2602246
vt 0.4155995 0.30911
vt 0.4112814 0.3543489
vt 0.4155995 0.3543489
vt 0.4155995 0.3543489
vt 0.4112814 0.3543489
vt 0.4008566 0.3543489
vt 0.4008566 0.3543489
vt 0.3533283 0.3543489
vt 0.3533283 0.3543489
vt 0.3429034 0.3543489
vt 0.3429034 0.3543489
vt 0.3385853 0.3543489
vt 0.3385853 0.3543489
vt 0.3530591 0.252906
vt 0.371177 0.3374005
vt 0.3697806 0.3374005
vt 0.3576491 0.252906
vt 0.374833 0.3374005
vt 0.3696657 0.252906
vt 0.3793519 0.3374005
vt 0.3845192 0.252906
vt 0.3830079 0.3374005
vt 0.3965358 0.252906
vt 0.3844043 0.3374005
vt 0.4011258 0.252906
vt 0.3576491 0.252906
vt 0.3530591 0.252906
vt 0.3697806 0.3374005
vt 0.371177 0.3374005
vt 0.3696657 0.252906
vt 0.374833 0.3374005
vt 0.3845192 0.252906
vt 0.3793519 0.3374005
vt 0.3965358 0.252906
vt 0.3830079 0.3374005
vt 0.4011258 0.252906
vt 0.3844043 0.3374005
vt 0.3830079 0.3543489
vt 0.3844043 0.3543489
vt 0.3830079 0.3543489
vt 0.3793519 0.3543489
vt 0.3793519 0.3543489
vt 0.374833 0.3543489
vt 0.374833 0.3543489
vt 0.371177 0.3543489
vt 0.371177 0.3543489
vt 0.3697806 0.3543489
vt 0.4112814 0.30911
vt 0.4155995 0.30911
vt 0.4155995 0.2602246
vt 0.4112814 0.2602246
vt 0.4008566 0.30911
vt 0.4008566 0.2602246
vt 0.3533283 0.2602246
vt 0.3533283 0.30911
vt 0.3429034 0.30911
vt 0.3429034 0.2602246
vt 0.3385853 0.30911
vt 0.3385853 0.2602246
vt 0.1610921 0.1883005
vt 0.1654103 0.1883005
vt 0.1654103 0.1883005
vt 0.1610921 0.1883005
vt 0.1506673 0.1883005
vt 0.1506673 0.1883005
vt 0.103139 0.1883005
vt 0.103139 0.1883005
vt 0.09271416 0.1883005
vt 0.09271416 0.1883005
vt 0.08839607 0.1883005
vt 0.08839607 0.1883005
vt 0.956945 0.7275424
vt 0.977486 0.7275425
vt 0.9465054 0.8840888
vt 0.9318815 0.8840887
vt 0.9031691 0.7275425
vt 0.8935954 0.8840888
vt 0.8366976 0.7275423
vt 0.8462713 0.8840888
vt 0.7829217 0.7275423
vt 0.8079856 0.8840888
vt 0.7623811 0.7275425
vt 0.7933615 0.8840888
vt 0.977486 0.7275425
vt 0.9318815 0.8840888
vt 0.9465054 0.8840888
vt 0.9569451 0.7275425
vt 0.8935954 0.8840886
vt 0.903169 0.7275424
vt 0.8462713 0.8840887
vt 0.8366976 0.7275423
vt 0.8079856 0.8840887
vt 0.7829217 0.7275423
vt 0.7933615 0.8840888
vt 0.7623811 0.7275425
vn -0.1950772 0 0.9807879
vn 0.1950772 0 0.9807879
vn 0.1950772 0 0.9807879
vn -0.1950772 0 0.9807879
vn -0.7071068 0 0.7071068
vn -0.7071068 0 0.7071068
vn -0.9807879 0 0.1950772
vn -0.9807879 0 0.1950772
vn -0.9807879 0 -0.1950772
vn -0.9807879 0 -0.1950772
vn -0.7071068 0 -0.7071068
vn -0.7071068 0 -0.7071068
vn -0.1950772 0 -0.9807879
vn -0.1950772 0 -0.9807879
vn 0.1950772 0 -0.9807879
vn 0.1950772 0 -0.9807879
vn 0 1 0
vn 0 1 0
vn 0 1 0
vn 0 1 0
vn 0 1 0
vn 0 1 0
vn 0 1 0
vn 0 1 0
vn 0 1 0
vn 0 1 0
vn 0 1 0
vn 0 1 0
vn 0 0.194132 0.9809754
vn -0.5766024 0.1941337 0.7936257
vn 0 0.194132 0.9809754
vn -0.5766024 0.1941337 0.7936257
vn -0.9329702 0.1941323 0.3031161
vn -0.9329702 0.1941323 0.3031161
vn -0.9329702 0.1941323 -0.3031161
vn -0.9329702 0.1941323 -0.3031161
vn -0.5766024 0.1941337 -0.7936257
vn -0.5766024 0.1941337 -0.7936257
vn 0 0.194132 -0.9809754
vn 0 0.194132 -0.9809754
vn 0.5766024 0.1941337 0.7936257
vn 0 0.194132 0.9809754
vn 0 0.194132 0.9809754
vn 0.5766024 0.1941337 0.7936257
vn 0.9329702 0.1941323 0.3031161
vn 0.9329702 0.1941323 0.3031161
vn 0.9329702 0.1941323 -0.3031161
vn 0.9329702 0.1941323 -0.3031161
vn 0.5766024 0.1941337 -0.7936257
vn 0.5766024 0.1941337 -0.7936257
vn 0 0.194132 -0.9809754
vn 0 0.194132 -0.9809754
vn 0 1 0
vn 0 1 0
vn 0 1 0
vn 0 1 0
vn 0 1 0
vn 0 1 0
vn 0 1 0
vn 0 1 0
vn 0 1 0
vn 0 1 0
vn 0.7071068 0 -0.7071068
vn 0.1950772 0 -0.9807879
vn 0.1950772 0 -0.9807879
vn 0.7071068 0 -0.7071068
vn 0.9807879 0 -0.1950772
vn 0.9807879 0 -0.1950772
vn 0.9807879 0 0.1950772
vn 0.9807879 0 0.1950772
vn 0.7071068 0 0.7071068
vn 0.7071068 0 0.7071068
vn 0.1950772 0 0.9807879
vn 0.1950772 0 0.9807879
vn 0 -1 0
vn 0 -1 0
vn 0 -1 0
vn 0 -1 0
vn 0 -1 0
vn 0 -1 0
vn 0 -1 0
vn 0 -1 0
vn 0 -1 0
vn 0 -1 0
vn 0 -1 0
vn 0 -1 0
vn -0.5766024 0.1941337 -0.7936257
vn 0 0.194132 -0.9809754
vn 0 0.194132 -0.9809754
vn -0.5766024 0.1941337 -0.7936257
vn -0.9329702 0.1941323 -0.3031161
vn -0.9329702 0.1941323 -0.3031161
vn -0.9329702 0.1941323 0.3031161
vn -0.9329702 0.1941323 0.3031161
vn -0.5766024 0.1941337 0.7936257
vn -0.5766024 0.1941337 0.7936257
vn 0 0.194132 0.9809754
vn 0 0.194132 0.9809754
vn 0 0.194132 -0.9809754
vn 0.5766024 0.1941337 -0.7936257
vn 0 0.194132 -0.9809754
vn 0.5766024 0.1941337 -0.7936257
vn 0.9329702 0.1941323 -0.3031161
vn 0.9329702 0.1941323 -0.3031161
vn 0.9329702 0.1941323 0.3031161
vn 0.9329702 0.1941323 0.3031161
vn 0.5766024 0.1941337 0.7936257
vn 0.5766024 0.1941337 0.7936257
vn 0 0.194132 0.9809754
vn 0 0.194132 0.9809754
g Traffic_Cone_1B_0
f 3/3/3 2/2/2 1/1/1
f 2/2/2 4/4/4 1/1/1
f 4/4/4 5/5/5 1/1/1
f 5/5/5 6/6/6 1/1/1
f 5/5/5 7/7/7 6/6/6
f 7/7/7 8/8/8 6/6/6
f 8/8/8 7/7/7 9/9/9
f 7/7/7 10/10/10 9/9/9
f 9/9/9 10/10/10 11/11/11
f 12/12/12 9/9/9 11/11/11
f 12/12/12 11/11/11 13/13/13
f 14/14/14 12/12/12 13/13/13
f 14/14/14 13/13/13 15/15/15
f 13/13/13 16/16/16 15/15/15
f 19/19/19 18/18/18 17/17/17
f 17/17/17 20/20/20 19/19/19
f 17/17/17 21/21/21 20/20/20
f 21/21/21 22/22/22 20/20/20
f 21/21/21 23/23/23 22/22/22
f 23/23/23 24/24/24 22/22/22
f 23/23/23 25/25/25 24/24/24
f 25/25/25 26/26/26 24/24/24
f 25/25/25 27/27/27 26/26/26
f 27/27/27 28/28/28 26/26/26
f 31/31/31 30/30/30 29/29/29
f 30/30/30 32/32/32 29/29/29
f 30/30/30 33/33/33 32/32/32
f 33/33/33 34/34/34 32/32/32
f 33/33/33 35/35/35 34/34/34
f 35/35/35 36/36/36 34/34/34
f 35/35/35 37/37/37 36/36/36
f 37/37/37 38/38/38 36/36/36
f 37/37/37 39/39/39 38/38/38
f 39/39/39 40/40/40 38/38/38
f 43/43/43 42/42/42 41/41/41
f 44/44/44 43/43/43 41/41/41
f 44/44/44 41/41/41 45/45/45
f 46/46/46 44/44/44 45/45/45
f 46/46/46 45/45/45 47/47/47
f 48/48/48 46/46/46 47/47/47
f 48/48/48 47/47/47 49/49/49
f 50/50/50 48/48/48 49/49/49
f 50/50/50 49/49/49 51/51/51
f 52/52/52 50/50/50 51/51/51
f 55/55/55 54/54/54 53/53/53
f 53/53/53 56/56/56 55/55/55
f 53/53/53 57/57/57 56/56/56
f 57/57/57 58/58/58 56/56/56
f 57/57/57 59/59/59 58/58/58
f 59/59/59 60/60/60 58/58/58
f 60/60/60 61/61/61 58/58/58
f 60/60/60 62/62/62 61/61/61
f 65/65/65 64/64/64 63/63/63
f 66/66/66 65/65/65 63/63/63
f 66/66/66 63/63/63 67/67/67
f 68/68/68 66/66/66 67/67/67
f 68/68/68 67/67/67 69/69/69
f 67/67/67 70/70/70 69/69/69
f 70/70/70 71/71/71 69/69/69
f 71/71/71 72/72/72 69/69/69
f 71/71/71 73/73/73 72/72/72
f 73/73/73 74/74/74 72/72/72
f 77/77/77 76/76/76 75/75/75
f 75/75/75 78/78/78 77/77/77
f 75/75/75 79/79/79 78/78/78
f 79/79/79 80/80/80 78/78/78
f 79/79/79 81/81/81 80/80/80
f 81/81/81 82/82/82 80/80/80
f 81/81/81 83/83/83 82/82/82
f 83/83/83 84/84/84 82/82/82
f 83/83/83 85/85/85 84/84/84
f 85/85/85 86/86/86 84/84/84
f 89/89/89 88/88/88 87/87/87
f 90/90/90 89/89/89 87/87/87
f 90/90/90 87/87/87 91/91/91
f 92/92/92 90/90/90 91/91/91
f 92/92/92 91/91/91 93/93/93
f 94/94/94 92/92/92 93/93/93
f 94/94/94 93/93/93 95/95/95
f 96/96/96 94/94/94 95/95/95
f 96/96/96 95/95/95 97/97/97
f 98/98/98 96/96/96 97/97/97
f 101/101/101 100/100/100 99/99/99
f 100/100/100 102/102/102 99/99/99
f 100/100/100 103/103/103 102/102/102
f 103/103/103 104/104/104 102/102/102
f 103/103/103 105/105/105 104/104/104
f 105/105/105 106/106/106 104/104/104
f 105/105/105 107/107/107 106/106/106
f 107/107/107 108/108/108 106/106/106
f 107/107/107 109/109/109 108/108/108
f 109/109/109 110/110/110 108/108/108
