g TSP_Wall_Lamp_01A_Light
v -0.2500272 2.601874 -0.1297885
v -0.17 2.405 -0.08000003
v -0.1582529 2.601874 -0.09177438
v -0.33 1.995 -0.08000003
v -0.3798158 1.798126 0
v -0.3418016 1.798126 -0.09177437
v -0.3798158 2.601874 0
v -0.33 2.405 -0.08000003
v -0.3418016 2.601874 -0.09177437
v -0.17 1.995 0.08000003
v -0.1202387 1.798126 0
v -0.1582529 1.798126 0.09177437
v -0.33 1.995 0.08000003
v -0.2500272 1.798126 0.1297885
v -0.3418016 1.798126 0.09177437
v -0.1202387 2.601874 0
v -0.17 2.405 0.08000003
v -0.1582529 2.601874 0.09177438
v -0.2500272 2.601874 0.1297885
v -0.33 2.405 0.08000003
v -0.3418016 2.601874 0.09177437
v -0.17 1.995 -0.08000003
v -0.2500272 1.798126 -0.1297885
v -0.1582529 1.798126 -0.09177437
v -0.1697427 2.405 -0.07987897
v -0.2495944 2.601874 -0.1295922
v -0.157959 2.601874 -0.0916355
v -0.3791866 1.798126 0
v -0.3295006 1.995 -0.07987897
v -0.3412299 1.798126 -0.0916355
v -0.3295006 2.405 -0.07987897
v -0.3791866 2.601874 0
v -0.3412299 2.601874 -0.0916355
v -0.1200023 1.798126 0
v -0.1697427 1.995 0.07987897
v -0.157959 1.798126 0.09163553
v -0.2495944 1.798126 0.1295922
v -0.3295006 1.995 0.07987897
v -0.3412299 1.798126 0.0916355
v -0.1697427 2.405 0.07987897
v -0.1200023 2.601874 0
v -0.157959 2.601874 0.0916355
v -0.3295006 2.405 0.07987897
v -0.2495944 2.601874 0.1295922
v -0.3412299 2.601874 0.0916355
v -0.2495944 1.798126 -0.1295922
v -0.1697427 1.995 -0.07987897
v -0.157959 1.798126 -0.09163553
v -0.315 2.365 -0.105
v -0.315 2.035 -0.105
v -0.185 2.035 -0.105
v -0.17 2.405 -0.08000003
v -0.2500272 2.601874 -0.1297885
v -0.33 2.405 -0.08000003
v -0.33 2.405 -0.08000003
v -0.2500272 2.601874 -0.1297885
v -0.3418016 2.601874 -0.09177437
v -0.3418016 1.798126 0.09177437
v -0.3798158 1.798126 0
v -0.33 1.995 0.08000003
v -0.33 1.995 0.08000003
v -0.3798158 1.798126 0
v -0.33 1.995 -0.08000003
v -0.33 2.405 -0.08000003
v -0.3798158 2.601874 0
v -0.33 2.405 0.08000003
v -0.33 2.405 0.08000003
v -0.3798158 2.601874 0
v -0.3418016 2.601874 0.09177437
v -0.1582529 1.798126 -0.09177437
v -0.1202387 1.798126 0
v -0.17 1.995 -0.08000003
v -0.17 1.995 -0.08000003
v -0.1202387 1.798126 0
v -0.17 1.995 0.08000003
v -0.1582529 1.798126 0.09177437
v -0.2500272 1.798126 0.1297885
v -0.17 1.995 0.08000003
v -0.17 1.995 0.08000003
v -0.2500272 1.798126 0.1297885
v -0.33 1.995 0.08000003
v -0.17 2.405 0.08000003
v -0.1202387 2.601874 0
v -0.17 2.405 -0.08000003
v -0.17 2.405 -0.08000003
v -0.1202387 2.601874 0
v -0.1582529 2.601874 -0.09177438
v -0.33 2.405 0.08000003
v -0.2500272 2.601874 0.1297885
v -0.17 2.405 0.08000003
v -0.17 2.405 0.08000003
v -0.2500272 2.601874 0.1297885
v -0.1582529 2.601874 0.09177438
v -0.3418016 1.798126 -0.09177437
v -0.2500272 1.798126 -0.1297885
v -0.33 1.995 -0.08000003
v -0.33 1.995 -0.08000003
v -0.2500272 1.798126 -0.1297885
v -0.17 1.995 -0.08000003
v -0.3412299 2.601874 -0.0916355
v -0.2495944 2.601874 -0.1295922
v -0.3295006 2.405 -0.07987897
v -0.3295006 2.405 -0.07987897
v -0.2495944 2.601874 -0.1295922
v -0.1697427 2.405 -0.07987897
v -0.3295006 1.995 -0.07987897
v -0.3791866 1.798126 0
v -0.3295006 1.995 0.07987897
v -0.3295006 1.995 0.07987897
v -0.3791866 1.798126 0
v -0.3412299 1.798126 0.0916355
v -0.3412299 2.601874 0.0916355
v -0.3791866 2.601874 0
v -0.3295006 2.405 0.07987897
v -0.3295006 2.405 0.07987897
v -0.3791866 2.601874 0
v -0.3295006 2.405 -0.07987897
v -0.1697427 1.995 0.07987897
v -0.1200023 1.798126 0
v -0.1697427 1.995 -0.07987897
v -0.1697427 1.995 -0.07987897
v -0.1200023 1.798126 0
v -0.157959 1.798126 -0.09163553
v -0.3295006 1.995 0.07987897
v -0.2495944 1.798126 0.1295922
v -0.1697427 1.995 0.07987897
v -0.1697427 1.995 0.07987897
v -0.2495944 1.798126 0.1295922
v -0.157959 1.798126 0.09163553
v -0.157959 2.601874 -0.0916355
v -0.1200023 2.601874 0
v -0.1697427 2.405 -0.07987897
v -0.1697427 2.405 -0.07987897
v -0.1200023 2.601874 0
v -0.1697427 2.405 0.07987897
v -0.157959 2.601874 0.0916355
v -0.2495944 2.601874 0.1295922
v -0.1697427 2.405 0.07987897
v -0.1697427 2.405 0.07987897
v -0.2495944 2.601874 0.1295922
v -0.3295006 2.405 0.07987897
v -0.1697427 1.995 -0.07987897
v -0.2495944 1.798126 -0.1295922
v -0.3295006 1.995 -0.07987897
v -0.3295006 1.995 -0.07987897
v -0.2495944 1.798126 -0.1295922
v -0.3412299 1.798126 -0.0916355
v -0.315 2.365 -0.105
v -0.185 2.035 -0.105
v -0.185 2.365 -0.105
v -0.33 1.995 -0.08000003
v -0.33 1.995 0.08000003
v -0.17 1.995 0.08000003
v -0.17 1.995 -0.08000003
v -0.17 2.405 0.08000003
v -0.33 2.405 0.08000003
v -0.33 2.405 -0.08000003
v -0.17 2.405 -0.08000003
v -0.185 2.365 0.105
v -0.185 2.035 0.105
v -0.315 2.035 0.105
v -0.315 2.365 0.105
v -0.355 2.365 0.06500003
v -0.355 2.035 0.06500003
v -0.355 2.035 -0.06500003
v -0.355 2.365 -0.06500003
vt 0.1080453 0.001518458
vt 0.1054456 0.05452835
vt 0.1080453 0.001518458
vt 0.07570897 0.05452853
vt 0.0905773 0.001518458
vt 0.07310931 0.001518458
vt 0.09057729 0.001518458
vt 0.1054456 0.05452835
vt 0.1080453 0.001518458
vt 0.1054457 0.05452853
vt 0.0905773 0.001518458
vt 0.1080453 0.001518458
vt 0.1054457 0.05452853
vt 0.1080453 0.001518458
vt 0.1080453 0.001518458
vt 0.09057729 0.001518458
vt 0.07570887 0.05452836
vt 0.07310931 0.001518458
vt 0.07310931 0.001518458
vt 0.07570887 0.05452836
vt 0.07310931 0.001518458
vt 0.07570897 0.05452853
vt 0.07310931 0.001518458
vt 0.07310931 0.001518458
vt 0.1054456 0.05452835
vt 0.1080453 0.001518458
vt 0.1080453 0.001518458
vt 0.0905773 0.001518458
vt 0.07570897 0.05452853
vt 0.07310931 0.001518458
vt 0.1054456 0.05452835
vt 0.09057729 0.001518458
vt 0.1080453 0.001518458
vt 0.0905773 0.001518458
vt 0.1054457 0.05452853
vt 0.1080453 0.001518458
vt 0.1080453 0.001518458
vt 0.1054457 0.05452853
vt 0.1080453 0.001518458
vt 0.07570887 0.05452836
vt 0.09057729 0.001518458
vt 0.07310931 0.001518458
vt 0.07570887 0.05452836
vt 0.07310931 0.001518458
vt 0.07310931 0.001518458
vt 0.07310931 0.001518458
vt 0.07570897 0.05452853
vt 0.07310931 0.001518458
vt 0.08865947 0.08359927
vt 0.08865946 0.07356191
vt 0.08865946 0.07356191
vt 0.1054456 0.05452835
vt 0.1080453 0.001518458
vt 0.1054456 0.05452835
vt 0.1054456 0.05452835
vt 0.1080453 0.001518458
vt 0.1080453 0.001518458
vt 0.1080453 0.001518458
vt 0.0905773 0.001518458
vt 0.1054457 0.05452853
vt 0.1054457 0.05452853
vt 0.0905773 0.001518458
vt 0.07570897 0.05452853
vt 0.1054456 0.05452835
vt 0.09057729 0.001518458
vt 0.07570887 0.05452836
vt 0.07570887 0.05452836
vt 0.09057729 0.001518458
vt 0.07310931 0.001518458
vt 0.07310931 0.001518458
vt 0.0905773 0.001518458
vt 0.07570897 0.05452853
vt 0.07570897 0.05452853
vt 0.0905773 0.001518458
vt 0.1054457 0.05452853
vt 0.1080453 0.001518458
vt 0.1080453 0.001518458
vt 0.1054457 0.05452853
vt 0.1054457 0.05452853
vt 0.1080453 0.001518458
vt 0.1054457 0.05452853
vt 0.07570887 0.05452836
vt 0.09057729 0.001518458
vt 0.1054456 0.05452835
vt 0.1054456 0.05452835
vt 0.09057729 0.001518458
vt 0.1080453 0.001518458
vt 0.07570887 0.05452836
vt 0.07310931 0.001518458
vt 0.07570887 0.05452836
vt 0.07570887 0.05452836
vt 0.07310931 0.001518458
vt 0.07310931 0.001518458
vt 0.07310931 0.001518458
vt 0.07310931 0.001518458
vt 0.07570897 0.05452853
vt 0.07570897 0.05452853
vt 0.07310931 0.001518458
vt 0.07570897 0.05452853
vt 0.1080453 0.001518458
vt 0.1080453 0.001518458
vt 0.1054456 0.05452835
vt 0.1054456 0.05452835
vt 0.1080453 0.001518458
vt 0.1054456 0.05452835
vt 0.07570897 0.05452853
vt 0.0905773 0.001518458
vt 0.1054457 0.05452853
vt 0.1054457 0.05452853
vt 0.0905773 0.001518458
vt 0.1080453 0.001518458
vt 0.07310931 0.001518458
vt 0.09057729 0.001518458
vt 0.07570887 0.05452836
vt 0.07570887 0.05452836
vt 0.09057729 0.001518458
vt 0.1054456 0.05452835
vt 0.1054457 0.05452853
vt 0.0905773 0.001518458
vt 0.07570897 0.05452853
vt 0.07570897 0.05452853
vt 0.0905773 0.001518458
vt 0.07310931 0.001518458
vt 0.1054457 0.05452853
vt 0.1080453 0.001518458
vt 0.1054457 0.05452853
vt 0.1054457 0.05452853
vt 0.1080453 0.001518458
vt 0.1080453 0.001518458
vt 0.1080453 0.001518458
vt 0.09057729 0.001518458
vt 0.1054456 0.05452835
vt 0.1054456 0.05452835
vt 0.09057729 0.001518458
vt 0.07570887 0.05452836
vt 0.07310931 0.001518458
vt 0.07310931 0.001518458
vt 0.07570887 0.05452836
vt 0.07570887 0.05452836
vt 0.07310931 0.001518458
vt 0.07570887 0.05452836
vt 0.07570897 0.05452853
vt 0.07310931 0.001518458
vt 0.07570897 0.05452853
vt 0.07570897 0.05452853
vt 0.07310931 0.001518458
vt 0.07310931 0.001518458
vt 0.08865947 0.08359927
vt 0.08865946 0.07356191
vt 0.08865946 0.08359927
vt 0.08926779 0.0724974
vt 0.09413442 0.0724974
vt 0.09413442 0.0724974
vt 0.08926779 0.0724974
vt 0.09413442 0.08466396
vt 0.09413442 0.08466396
vt 0.08926779 0.08466396
vt 0.08926779 0.08466396
vt 0.09474274 0.08359927
vt 0.09474274 0.07356191
vt 0.09474274 0.07356191
vt 0.09474274 0.08359927
vt 0.09367818 0.08359927
vt 0.09367818 0.07356192
vt 0.08972403 0.07356191
vt 0.08972404 0.08359927
vn 0.3815223 -0.07785109 -0.9210755
vn 0.3815223 -0.07785109 -0.9210755
vn 0.3815223 -0.07785109 -0.9210755
vn -0.9210624 0.07803006 -0.3815173
vn -0.9210624 0.07803006 -0.3815173
vn -0.9210624 0.07803006 -0.3815173
vn -0.921063 -0.07803002 -0.3815156
vn -0.921063 -0.07803002 -0.3815156
vn -0.921063 -0.07803002 -0.3815156
vn 0.9210808 0.07777688 0.3815245
vn 0.9210808 0.07777688 0.3815245
vn 0.9210808 0.07777688 0.3815245
vn -0.3815187 0.07795586 0.9210681
vn -0.3815187 0.07795586 0.9210681
vn -0.3815187 0.07795586 0.9210681
vn 0.9210809 -0.07777689 0.3815241
vn 0.9210809 -0.07777689 0.3815241
vn 0.9210809 -0.07777689 0.3815241
vn -0.3815188 -0.07795593 0.9210681
vn -0.3815188 -0.07795593 0.9210681
vn -0.3815188 -0.07795593 0.9210681
vn 0.3815217 0.07785097 -0.9210756
vn 0.3815217 0.07785097 -0.9210756
vn 0.3815217 0.07785097 -0.9210756
vn -0.381523 0.07783879 0.9210762
vn -0.381523 0.07783879 0.9210762
vn -0.381523 0.07783879 0.9210762
vn 0.9210898 -0.0776595 0.3815265
vn 0.9210898 -0.0776595 0.3815265
vn 0.9210898 -0.0776595 0.3815265
vn 0.9210897 0.07765956 0.3815269
vn 0.9210897 0.07765956 0.3815269
vn 0.9210897 0.07765956 0.3815269
vn -0.9210711 -0.07791314 -0.3815201
vn -0.9210711 -0.07791314 -0.3815201
vn -0.9210711 -0.07791314 -0.3815201
vn 0.3815258 -0.07773367 -0.9210838
vn 0.3815258 -0.07773367 -0.9210838
vn 0.3815258 -0.07773367 -0.9210838
vn -0.9210715 0.07791297 -0.3815192
vn -0.9210715 0.07791297 -0.3815192
vn -0.9210715 0.07791297 -0.3815192
vn 0.3815263 0.07773389 -0.9210836
vn 0.3815263 0.07773389 -0.9210836
vn 0.3815263 0.07773389 -0.9210836
vn -0.3815222 -0.07783877 0.9210765
vn -0.3815222 -0.07783877 0.9210765
vn -0.3815222 -0.07783877 0.9210765
vn 0 0 -1
vn 0 0 -1
vn 0 0 -1
vn 0 -0.2451767 -0.9694784
vn 0 -0.2451767 -0.9694784
vn 0 -0.2451767 -0.9694784
vn -0.381519 -0.07795591 -0.921068
vn -0.381519 -0.07795591 -0.921068
vn -0.381519 -0.07795591 -0.921068
vn -0.9210624 0.07803006 0.3815173
vn -0.9210624 0.07803006 0.3815173
vn -0.9210624 0.07803006 0.3815173
vn -0.9694466 0.2453025 0
vn -0.9694466 0.2453025 0
vn -0.9694466 0.2453025 0
vn -0.9694465 -0.245303 0
vn -0.9694465 -0.245303 0
vn -0.9694465 -0.245303 0
vn -0.9210631 -0.07802998 0.3815154
vn -0.9210631 -0.07802998 0.3815154
vn -0.9210631 -0.07802998 0.3815154
vn 0.9210808 0.07777688 -0.3815245
vn 0.9210808 0.07777688 -0.3815245
vn 0.9210808 0.07777688 -0.3815245
vn 0.9695103 0.2450506 0
vn 0.9695103 0.2450506 0
vn 0.9695103 0.2450506 0
vn 0.3815217 0.07785106 0.9210756
vn 0.3815217 0.07785106 0.9210756
vn 0.3815217 0.07785106 0.9210756
vn 0 0.2451765 0.9694784
vn 0 0.2451765 0.9694784
vn 0 0.2451765 0.9694784
vn 0.9695101 -0.2450511 0
vn 0.9695101 -0.2450511 0
vn 0.9695101 -0.2450511 0
vn 0.9210808 -0.07777693 -0.3815243
vn 0.9210808 -0.07777693 -0.3815243
vn 0.9210808 -0.07777693 -0.3815243
vn 0 -0.2451767 0.9694784
vn 0 -0.2451767 0.9694784
vn 0 -0.2451767 0.9694784
vn 0.3815221 -0.07785106 0.9210755
vn 0.3815221 -0.07785106 0.9210755
vn 0.3815221 -0.07785106 0.9210755
vn -0.3815187 0.07795586 -0.9210681
vn -0.3815187 0.07795586 -0.9210681
vn -0.3815187 0.07795586 -0.9210681
vn 0 0.2451765 -0.9694784
vn 0 0.2451765 -0.9694784
vn 0 0.2451765 -0.9694784
vn 0.3815263 0.07773389 0.9210836
vn 0.3815263 0.07773389 0.9210836
vn 0.3815263 0.07773389 0.9210836
vn 0 0.2448279 0.9695665
vn 0 0.2448279 0.9695665
vn 0 0.2448279 0.9695665
vn 0.9695985 -0.2447017 0
vn 0.9695985 -0.2447017 0
vn 0.9695985 -0.2447017 0
vn 0.92109 -0.07765944 -0.3815263
vn 0.92109 -0.07765944 -0.3815263
vn 0.92109 -0.07765944 -0.3815263
vn 0.9210895 0.07765968 -0.3815275
vn 0.9210895 0.07765968 -0.3815275
vn 0.9210895 0.07765968 -0.3815275
vn 0.9695984 0.2447023 0
vn 0.9695984 0.2447023 0
vn 0.9695984 0.2447023 0
vn -0.9695346 -0.2449543 0
vn -0.9695346 -0.2449543 0
vn -0.9695346 -0.2449543 0
vn -0.9210711 -0.07791316 0.3815202
vn -0.9210711 -0.07791316 0.3815202
vn -0.9210711 -0.07791316 0.3815202
vn 0 -0.2448277 -0.9695666
vn 0 -0.2448277 -0.9695666
vn 0 -0.2448277 -0.9695666
vn -0.3815225 -0.07783878 -0.9210764
vn -0.3815225 -0.07783878 -0.9210764
vn -0.3815225 -0.07783878 -0.9210764
vn -0.9210713 0.07791309 0.3815197
vn -0.9210713 0.07791309 0.3815197
vn -0.9210713 0.07791309 0.3815197
vn -0.9695346 0.2449546 0
vn -0.9695346 0.2449546 0
vn -0.9695346 0.2449546 0
vn -0.381523 0.07783879 -0.9210762
vn -0.381523 0.07783879 -0.9210762
vn -0.381523 0.07783879 -0.9210762
vn 0 0.2448279 -0.9695665
vn 0 0.2448279 -0.9695665
vn 0 0.2448279 -0.9695665
vn 0 -0.2448277 0.9695666
vn 0 -0.2448277 0.9695666
vn 0 -0.2448277 0.9695666
vn 0.3815258 -0.07773362 0.9210838
vn 0.3815258 -0.07773362 0.9210838
vn 0.3815258 -0.07773362 0.9210838
vn 0 0 -1
vn 0 0 -1
vn 0 0 -1
vn 0 -1 0
vn 0 -1 0
vn 0 -1 0
vn 0 -1 0
vn 0 1 0
vn 0 1 0
vn 0 1 0
vn 0 1 0
vn 0 0 1
vn 0 0 1
vn 0 0 1
vn 0 0 1
vn -1 0 0
vn -1 0 0
vn -1 0 0
vn -1 0 0
g TSP_Wall_Lamp_01A_Light_0
f 3/3/3 2/2/2 1/1/1
f 6/6/6 5/5/5 4/4/4
f 9/9/9 8/8/8 7/7/7
f 12/12/12 11/11/11 10/10/10
f 15/15/15 14/14/14 13/13/13
f 18/18/18 17/17/17 16/16/16
f 21/21/21 20/20/20 19/19/19
f 24/24/24 23/23/23 22/22/22
f 27/27/27 26/26/26 25/25/25
f 30/30/30 29/29/29 28/28/28
f 33/33/33 32/32/32 31/31/31
f 36/36/36 35/35/35 34/34/34
f 39/39/39 38/38/38 37/37/37
f 42/42/42 41/41/41 40/40/40
f 45/45/45 44/44/44 43/43/43
f 48/48/48 47/47/47 46/46/46
f 51/51/51 50/50/50 49/49/49
f 54/54/54 53/53/53 52/52/52
f 57/57/57 56/56/56 55/55/55
f 60/60/60 59/59/59 58/58/58
f 63/63/63 62/62/62 61/61/61
f 66/66/66 65/65/65 64/64/64
f 69/69/69 68/68/68 67/67/67
f 72/72/72 71/71/71 70/70/70
f 75/75/75 74/74/74 73/73/73
f 78/78/78 77/77/77 76/76/76
f 81/81/81 80/80/80 79/79/79
f 84/84/84 83/83/83 82/82/82
f 87/87/87 86/86/86 85/85/85
f 90/90/90 89/89/89 88/88/88
f 93/93/93 92/92/92 91/91/91
f 96/96/96 95/95/95 94/94/94
f 99/99/99 98/98/98 97/97/97
f 102/102/102 101/101/101 100/100/100
f 105/105/105 104/104/104 103/103/103
f 108/108/108 107/107/107 106/106/106
f 111/111/111 110/110/110 109/109/109
f 114/114/114 113/113/113 112/112/112
f 117/117/117 116/116/116 115/115/115
f 120/120/120 119/119/119 118/118/118
f 123/123/123 122/122/122 121/121/121
f 126/126/126 125/125/125 124/124/124
f 129/129/129 128/128/128 127/127/127
f 132/132/132 131/131/131 130/130/130
f 135/135/135 134/134/134 133/133/133
f 138/138/138 137/137/137 136/136/136
f 141/141/141 140/140/140 139/139/139
f 144/144/144 143/143/143 142/142/142
f 147/147/147 146/146/146 145/145/145
f 150/150/150 149/149/149 148/148/148
f 153/153/153 152/152/152 151/151/151
f 154/154/154 153/153/153 151/151/151
f 157/157/157 156/156/156 155/155/155
f 158/158/158 157/157/157 155/155/155
f 161/161/161 160/160/160 159/159/159
f 162/162/162 161/161/161 159/159/159
f 165/165/165 164/164/164 163/163/163
f 166/166/166 165/165/165 163/163/163
