g TSP_House_Wall_Short_04B
v 0.0749998 -1.937151E-07 2.075
v 0.07499985 -1.937151E-07 -2.075
v -0.07499985 -1.788139E-07 -2.075
v -0.0750002 -1.937151E-07 2.075
v 0.12 2.825 -0.02499986
v 0.12 0.1749998 -0.02499986
v 0.1200001 0.1749998 0.0250001
v 0.1200001 2.825 0.0250001
v -0.12 2.825 -0.02499986
v -0.12 2.825 0.0250001
v -0.12 0.1749998 0.0250001
v -0.12 0.1749998 -0.02499986
v 0.1200001 0.1749998 0.0250001
v -0.12 0.1749998 0.0250001
v -0.12 2.825 0.0250001
v 0.1200001 2.825 0.0250001
v 0.12 2.825 -0.02499986
v -0.12 2.825 -0.02499986
v -0.12 0.1749998 -0.02499986
v 0.12 0.1749998 -0.02499986
v 0.0749998 -1.937151E-07 1.925
v 0.07500001 0.09999996 1.925
v 0.07500008 0.09999996 -1.925
v 0.07499985 -1.937151E-07 -1.925
v 0.07499961 3 2.074999
v 0.0749998 3 1.925
v 0.0749998 -1.937151E-07 2.075
v 0.07499961 3 -1.925
v 0.07499985 -1.937151E-07 -2.075
v 0.07499961 3 -2.075
v 0.0749998 2.95 1.925
v 0.07499985 2.95 -1.925
v 0.07500008 2.9 -1.925
v 0.07500002 2.9 1.925
v -0.07499985 3 -2.075
v 0.07499961 3 -2.075
v 0.07499961 3 2.074999
v -0.0750002 3 2.075
v -0.1699997 2.9 -1.925
v -0.1699997 0.09999993 -1.925
v 0.1199998 0.09999993 -1.925
v 0.1199998 2.9 -1.925
v -0.1700003 2.9 1.925
v 0.1199998 2.9 1.925
v 0.1199998 0.09999993 1.925
v -0.1700003 0.09999993 1.925
v 0.1199998 2.9 1.925
v -0.1700003 2.9 1.925
v -0.1699997 2.9 -1.925
v 0.1199998 2.9 -1.925
v -0.1700003 2.825 1.85
v -0.1700003 0.1749999 1.85
v 0.1199998 0.1749999 1.85
v 0.1199998 2.825 1.85
v -0.1700003 2.825 1.85
v -0.1700003 2.9 1.925
v -0.1700003 0.09999993 1.925
v -0.1700003 0.1749999 1.85
v -0.1699997 0.1749999 -1.85
v -0.1699997 0.09999993 -1.925
v -0.1699997 2.9 -1.925
v -0.1699997 2.825 -1.85
v 0.1199998 0.1749999 1.85
v 0.1199998 0.09999993 1.925
v 0.1199998 2.9 1.925
v 0.1199998 2.825 1.85
v 0.1199998 2.9 -1.925
v 0.1199998 2.825 -1.85
v 0.1199998 0.09999993 -1.925
v 0.1199998 0.1749999 -1.85
v -0.1699997 2.825 -1.85
v -0.1699997 2.9 -1.925
v -0.1700003 2.9 1.925
v -0.1700003 2.825 1.85
v -0.1699997 2.825 -1.85
v 0.1199998 2.825 -1.85
v 0.1199998 0.1749999 -1.85
v -0.1699997 0.1749999 -1.85
v -0.1699997 2.825 -1.85
v -0.1700003 2.825 1.85
v 0.1199998 2.825 1.85
v 0.1199998 2.825 -1.85
v 0.1200001 2.825 -1.025
v 0.1200001 0.1749998 -1.025
v 0.1200002 0.1749998 -0.9749997
v 0.1200002 2.825 -0.9749997
v -0.1199999 2.825 -1.025
v -0.1199999 2.825 -0.9749997
v -0.1199999 0.1749998 -0.9749997
v -0.1199999 0.1749998 -1.025
v 0.1200002 0.1749998 -0.9749997
v -0.1199999 0.1749998 -0.9749997
v -0.1199999 2.825 -0.9749997
v 0.1200002 2.825 -0.9749997
v 0.1200001 2.825 -1.025
v -0.1199999 2.825 -1.025
v -0.1199999 0.1749998 -1.025
v 0.1200001 0.1749998 -1.025
v 0.1199996 2.825 0.9749999
v 0.1199996 0.1749998 0.9749999
v 0.1199996 0.1749998 1.025
v 0.1199996 2.825 1.025
v -0.1200004 2.825 0.9749999
v -0.1200004 2.825 1.025
v -0.1200004 0.1749998 1.025
v -0.1200004 0.1749998 0.9749999
v 0.1199996 0.1749998 1.025
v -0.1200004 0.1749998 1.025
v -0.1200004 2.825 1.025
v 0.1199996 2.825 1.025
v 0.1199996 2.825 0.9749999
v -0.1200004 2.825 0.9749999
v -0.1200004 0.1749998 0.9749999
v 0.1199996 0.1749998 0.9749999
v -0.07499985 3 -2.075
v -0.07499985 -1.788139E-07 -2.075
v 0.07499985 -1.937151E-07 -2.075
v 0.07499961 3 -2.075
v -0.0750002 3 2.075
v 0.07499961 3 2.074999
v 0.0749998 -1.937151E-07 2.075
v -0.0750002 -1.937151E-07 2.075
v 0.1699998 0.09999993 1.975
v 0.1699998 0.09999993 -1.975
v -0.2699997 0.09999993 -1.975
v -0.2700003 0.09999993 1.975
v -0.2699997 0.1749999 -1.975
v 0.1699998 0.1749999 -1.975
v 0.1699998 0.1749999 1.975
v -0.2700003 0.1749999 1.975
v -0.2700003 0.1749999 1.975
v -0.2700003 0.09999993 1.975
v -0.2699997 0.09999993 -1.975
v -0.2699997 0.1749999 -1.975
v 0.1699998 0.1749999 -1.975
v 0.1699998 0.09999993 -1.975
v 0.1699998 0.09999993 1.975
v 0.1699998 0.1749999 1.975
v 0.1699998 0.09999993 1.975
v -0.2700003 0.09999993 1.975
v -0.2700003 0.1749999 1.975
v 0.1699998 0.1749999 1.975
v 0.1699998 0.09999993 -1.975
v 0.1699998 0.1749999 -1.975
v -0.2699997 0.1749999 -1.975
v -0.2699997 0.09999993 -1.975
v 0.0749998 2.95 1.925
v 0.0749998 3 1.925
v 0.07499961 3 -1.925
v 0.07499985 2.95 -1.925
v -0.0750002 -1.937151E-07 2.075
v -0.0750002 0.09999979 1.925
v -0.0750002 2.89995 1.925
v -0.07499985 0.0999999 -1.925
v -0.0750002 3 2.075
v -0.07499985 -1.788139E-07 -2.075
v -0.07499985 3 -2.075
v -0.07499985 2.89995 -1.925
v -0.02500017 2.825 -1.025
v -0.02500017 0.1749999 -1.025
v -0.025 0.1749999 -1.85
v -0.025 2.825 -1.85
v 0.02499983 2.825 -1.025
v 0.025 2.825 -1.85
v 0.025 0.1749999 -1.85
v 0.02499983 0.1749999 -1.025
v -0.02500017 2.825 1.849999
v -0.02500017 0.1749999 1.849999
v -0.025 0.1749999 1.025
v -0.025 2.825 1.025
v 0.02499983 2.825 1.849999
v 0.025 2.825 1.025
v 0.025 0.1749999 1.025
v 0.02499983 0.1749999 1.849999
vt 0.1717818 0.7155169
vt 0.1717818 0.7155169
vt 0.1717818 0.7155169
vt 0.1717818 0.7155169
vt 0.103837 0.8004714
vt 0.103837 0.7866036
vt 0.1041254 0.7866036
vt 0.1041254 0.8004714
vt 0.103837 0.8004714
vt 0.1041254 0.8004714
vt 0.1041254 0.7866036
vt 0.103837 0.7866036
vt 0.1209916 0.7970042
vt 0.1209916 0.7970042
vt 0.1209916 0.7900703
vt 0.1209916 0.7900703
vt 0.1215682 0.7900703
vt 0.1215682 0.7900703
vt 0.1215682 0.7970042
vt 0.1215682 0.7970042
vt 0.1717818 0.7155169
vt 0.1717818 0.7155169
vt 0.1717818 0.7155169
vt 0.1717818 0.7155169
vt 0.1717818 0.7155169
vt 0.1717818 0.7155169
vt 0.1717818 0.7155169
vt 0.1717818 0.7155169
vt 0.1717818 0.7155169
vt 0.1717818 0.7155169
vt 0.1717818 0.7155169
vt 0.1717818 0.7155169
vt 0.1717818 0.7155169
vt 0.1717818 0.7155169
vt 0.1717818 0.7155169
vt 0.1717818 0.7155169
vt 0.1717818 0.7155169
vt 0.1717818 0.7155169
vt 0.09821498 0.8010336
vt 0.09821498 0.7860413
vt 0.09821498 0.7860413
vt 0.09821498 0.8010336
vt 0.1212799 0.8010336
vt 0.1212799 0.8010336
vt 0.1212799 0.7860413
vt 0.1212799 0.7860413
vt 0.1212799 0.8111898
vt 0.1212799 0.8111898
vt 0.09821498 0.8111898
vt 0.09821498 0.8111898
vt 0.09864742 0.7900705
vt 0.09864742 0.7970044
vt 0.09864742 0.7970044
vt 0.09864742 0.7900705
vt 0.1208474 0.8004714
vt 0.1212799 0.8010336
vt 0.1212799 0.7860413
vt 0.1208474 0.7866036
vt 0.09864742 0.7866036
vt 0.09821498 0.7860413
vt 0.09821498 0.8010336
vt 0.09864742 0.8004714
vt 0.1208474 0.7866036
vt 0.1212799 0.7860413
vt 0.1212799 0.8010336
vt 0.1208474 0.8004714
vt 0.09821498 0.8010336
vt 0.09864742 0.8004714
vt 0.09821498 0.7860413
vt 0.09864742 0.7866036
vt 0.09864742 0.8004714
vt 0.09821498 0.8010336
vt 0.1212799 0.8010336
vt 0.1208474 0.8004714
vt 0.1208475 0.7900705
vt 0.1208475 0.7900705
vt 0.1208475 0.7970044
vt 0.1208475 0.7970044
vt 0.1208474 0.7796695
vt 0.09864742 0.7796695
vt 0.09864742 0.7796695
vt 0.1208474 0.7796695
vt 0.103837 0.8004714
vt 0.103837 0.7866036
vt 0.1041254 0.7866036
vt 0.1041254 0.8004714
vt 0.103837 0.8004714
vt 0.1041254 0.8004714
vt 0.1041254 0.7866036
vt 0.103837 0.7866036
vt 0.1209916 0.7970042
vt 0.1209916 0.7970042
vt 0.1209916 0.7900703
vt 0.1209916 0.7900703
vt 0.1215682 0.7900703
vt 0.1215682 0.7900703
vt 0.1215682 0.7970042
vt 0.1215682 0.7970042
vt 0.1153695 0.8004714
vt 0.1153695 0.7866036
vt 0.1156578 0.7866036
vt 0.1156578 0.8004714
vt 0.1153695 0.8004714
vt 0.1156578 0.8004714
vt 0.1156578 0.7866036
vt 0.1153695 0.7866036
vt 0.09792668 0.7970042
vt 0.09792668 0.7970042
vt 0.09792668 0.7900703
vt 0.09792668 0.7900703
vt 0.09850326 0.7900703
vt 0.09850326 0.7900703
vt 0.09850326 0.7970042
vt 0.09850326 0.7970042
vt 0.1717818 0.7155169
vt 0.1717818 0.7155169
vt 0.1717818 0.7155169
vt 0.1717818 0.7155169
vt 0.1717818 0.7155169
vt 0.1717818 0.7155169
vt 0.1717818 0.7155169
vt 0.1717818 0.7155169
vt 0.1212799 0.775885
vt 0.09821498 0.775885
vt 0.09821498 0.775885
vt 0.1212799 0.775885
vt 0.1208474 0.8074051
vt 0.1208474 0.8074051
vt 0.09864742 0.8074051
vt 0.09864742 0.8074051
vt 0.1208474 0.7866036
vt 0.1212799 0.7860413
vt 0.09821498 0.7860413
vt 0.09864742 0.7866036
vt 0.09864742 0.7866036
vt 0.09821498 0.7860413
vt 0.1212799 0.7860413
vt 0.1208474 0.7866036
vt 0.1212799 0.7860413
vt 0.1212799 0.7860413
vt 0.1208474 0.7866036
vt 0.1208474 0.7866036
vt 0.09821498 0.7860413
vt 0.09864742 0.7866036
vt 0.1208474 0.7866036
vt 0.1212799 0.7860413
vt 0.4217896 0.7837479
vt 0.4217896 0.7837479
vt 0.4217896 0.7837479
vt 0.4217896 0.7837479
vt 0.1717818 0.7155169
vt 0.1717818 0.7155169
vt 0.1717818 0.7155169
vt 0.1717818 0.7155169
vt 0.1717818 0.7155169
vt 0.1717818 0.7155169
vt 0.1717818 0.7155169
vt 0.1717818 0.7155169
vt 0.9866089 0.9810201
vt 0.9866089 0.01362601
vt 0.5 0.01362601
vt 0.5 0.9810201
vt 0.9866089 0.9810201
vt 0.5 0.9810201
vt 0.5 0.01362601
vt 0.9866089 0.01362601
vt 0.9866089 0.9810201
vt 0.9866089 0.01362601
vt 0.5 0.01362601
vt 0.5 0.9810201
vt 0.9866089 0.9810201
vt 0.5 0.9810201
vt 0.5 0.01362601
vt 0.9866089 0.01362601
vn 0 -1 0
vn 0 -1 0
vn 0 -1 0
vn 0 -1 0
vn 1 0 0
vn 1 0 0
vn 1 0 0
vn 1 0 0
vn -1 0 0
vn -1 0 0
vn -1 0 0
vn -1 0 0
vn 0 0 1
vn 0 0 1
vn 0 0 1
vn 0 0 1
vn 0 0 -1
vn 0 0 -1
vn 0 0 -1
vn 0 0 -1
vn 1 0 0
vn 1 0 0
vn 1 0 0
vn 1 0 0
vn 1 0 0
vn 1 0 0
vn 1 0 0
vn 1 0 0
vn 1 0 0
vn 1 0 0
vn 1 0 0
vn 1 0 0
vn 1 0 0
vn 1 0 0
vn 0 1 0
vn 0 1 0
vn 0 1 0
vn 0 1 0
vn 0 0 -1
vn 0 0 -1
vn 0 0 -1
vn 0 0 -1
vn 0 0 1
vn 0 0 1
vn 0 0 1
vn 0 0 1
vn 0 1 0
vn 0 1 0
vn 0 1 0
vn 0 1 0
vn 0 0 -1
vn 0 0 -1
vn 0 0 -1
vn 0 0 -1
vn -1 0 0
vn -1 0 0
vn -1 0 0
vn -1 0 0
vn -1 0 0
vn -1 0 0
vn -1 0 0
vn -1 0 0
vn 1 0 0
vn 1 0 0
vn 1 0 0
vn 1 0 0
vn 1 0 0
vn 1 0 0
vn 1 0 0
vn 1 0 0
vn -1 0 0
vn -1 0 0
vn -1 0 0
vn -1 0 0
vn 0 0 1
vn 0 0 1
vn 0 0 1
vn 0 0 1
vn 0 -1 0
vn 0 -1 0
vn 0 -1 0
vn 0 -1 0
vn 1 0 0
vn 1 0 0
vn 1 0 0
vn 1 0 0
vn -1 0 0
vn -1 0 0
vn -1 0 0
vn -1 0 0
vn 0 0 1
vn 0 0 1
vn 0 0 1
vn 0 0 1
vn 0 0 -1
vn 0 0 -1
vn 0 0 -1
vn 0 0 -1
vn 1 0 0
vn 1 0 0
vn 1 0 0
vn 1 0 0
vn -1 0 0
vn -1 0 0
vn -1 0 0
vn -1 0 0
vn 0 0 1
vn 0 0 1
vn 0 0 1
vn 0 0 1
vn 0 0 -1
vn 0 0 -1
vn 0 0 -1
vn 0 0 -1
vn 0 0 -1
vn 0 0 -1
vn 0 0 -1
vn 0 0 -1
vn 0 0 1
vn 0 0 1
vn 0 0 1
vn 0 0 1
vn 0 -1 0
vn 0 -1 0
vn 0 -1 0
vn 0 -1 0
vn 0 1 0
vn 0 1 0
vn 0 1 0
vn 0 1 0
vn -1 0 0
vn -1 0 0
vn -1 0 0
vn -1 0 0
vn 1 0 0
vn 1 0 0
vn 1 0 0
vn 1 0 0
vn 0 0 1
vn 0 0 1
vn 0 0 1
vn 0 0 1
vn 0 0 -1
vn 0 0 -1
vn 0 0 -1
vn 0 0 -1
vn 1 0 0
vn 1 0 0
vn 1 0 0
vn 1 0 0
vn -1 0 0
vn -1 0 0
vn -1 0 0
vn -1 0 0
vn -1 0 0
vn -1 0 0
vn -1 0 0
vn -1 0 0
vn -1 0 0
vn -1 0 0
vn -1 0 0
vn -1 0 0
vn 1 0 0
vn 1 0 0
vn 1 0 0
vn 1 0 0
vn -1 0 0
vn -1 0 0
vn -1 0 0
vn -1 0 0
vn 1 0 0
vn 1 0 0
vn 1 0 0
vn 1 0 0
g TSP_House_Wall_Short_04B_0
f 3/3/3 2/2/2 1/1/1
f 4/4/4 3/3/3 1/1/1
f 7/7/7 6/6/6 5/5/5
f 8/8/8 7/7/7 5/5/5
f 11/11/11 10/10/10 9/9/9
f 12/12/12 11/11/11 9/9/9
f 15/15/15 14/14/14 13/13/13
f 16/16/16 15/15/15 13/13/13
f 19/19/19 18/18/18 17/17/17
f 20/20/20 19/19/19 17/17/17
f 23/23/23 22/22/22 21/21/21
f 24/24/24 23/23/23 21/21/21
f 21/21/21 26/26/26 25/25/25
f 27/27/27 21/21/21 25/25/25
f 24/24/24 29/29/29 28/28/28
f 29/29/29 30/30/30 28/28/28
f 33/33/33 32/32/32 31/31/31
f 34/34/34 33/33/33 31/31/31
f 37/37/37 36/36/36 35/35/35
f 38/38/38 37/37/37 35/35/35
f 41/41/41 40/40/40 39/39/39
f 42/42/42 41/41/41 39/39/39
f 45/45/45 44/44/44 43/43/43
f 46/46/46 45/45/45 43/43/43
f 49/49/49 48/48/48 47/47/47
f 50/50/50 49/49/49 47/47/47
f 53/53/53 52/52/52 51/51/51
f 54/54/54 53/53/53 51/51/51
f 57/57/57 56/56/56 55/55/55
f 58/58/58 57/57/57 55/55/55
f 61/61/61 60/60/60 59/59/59
f 62/62/62 61/61/61 59/59/59
f 65/65/65 64/64/64 63/63/63
f 66/66/66 65/65/65 63/63/63
f 67/67/67 65/65/65 66/66/66
f 68/68/68 67/67/67 66/66/66
f 69/69/69 67/67/67 68/68/68
f 70/70/70 69/69/69 68/68/68
f 73/73/73 72/72/72 71/71/71
f 74/74/74 73/73/73 71/71/71
f 77/77/77 76/76/76 75/75/75
f 78/78/78 77/77/77 75/75/75
f 81/81/81 80/80/80 79/79/79
f 82/82/82 81/81/81 79/79/79
f 85/85/85 84/84/84 83/83/83
f 86/86/86 85/85/85 83/83/83
f 89/89/89 88/88/88 87/87/87
f 90/90/90 89/89/89 87/87/87
f 93/93/93 92/92/92 91/91/91
f 94/94/94 93/93/93 91/91/91
f 97/97/97 96/96/96 95/95/95
f 98/98/98 97/97/97 95/95/95
f 101/101/101 100/100/100 99/99/99
f 102/102/102 101/101/101 99/99/99
f 105/105/105 104/104/104 103/103/103
f 106/106/106 105/105/105 103/103/103
f 109/109/109 108/108/108 107/107/107
f 110/110/110 109/109/109 107/107/107
f 113/113/113 112/112/112 111/111/111
f 114/114/114 113/113/113 111/111/111
f 117/117/117 116/116/116 115/115/115
f 118/118/118 117/117/117 115/115/115
f 121/121/121 120/120/120 119/119/119
f 122/122/122 121/121/121 119/119/119
f 125/125/125 124/124/124 123/123/123
f 126/126/126 125/125/125 123/123/123
f 129/129/129 128/128/128 127/127/127
f 130/130/130 129/129/129 127/127/127
f 133/133/133 132/132/132 131/131/131
f 134/134/134 133/133/133 131/131/131
f 137/137/137 136/136/136 135/135/135
f 138/138/138 137/137/137 135/135/135
f 141/141/141 140/140/140 139/139/139
f 142/142/142 141/141/141 139/139/139
f 145/145/145 144/144/144 143/143/143
f 146/146/146 145/145/145 143/143/143
f 149/149/149 148/148/148 147/147/147
f 150/150/150 149/149/149 147/147/147
f 153/153/153 152/152/152 151/151/151
f 151/151/151 152/152/152 154/154/154
f 155/155/155 153/153/153 151/151/151
f 156/156/156 151/151/151 154/154/154
f 155/155/155 157/157/157 153/153/153
f 156/156/156 154/154/154 157/157/157
f 157/157/157 158/158/158 153/153/153
f 154/154/154 158/158/158 157/157/157
g TSP_House_Wall_Short_04B_1
f 161/161/161 160/160/160 159/159/159
f 162/162/162 161/161/161 159/159/159
f 165/165/165 164/164/164 163/163/163
f 166/166/166 165/165/165 163/163/163
f 169/169/169 168/168/168 167/167/167
f 170/170/170 169/169/169 167/167/167
f 173/173/173 172/172/172 171/171/171
f 174/174/174 173/173/173 171/171/171
