g TSP_House_Chimney_01A_Top
v -0.4749999 0.416666 0.3333334
v -0.4749997 0.8333333 1
v -0.4749997 0.416666 1
v -0.4750004 0.4166665 -0.9999998
v -0.4750004 0.8333333 -0.9999998
v -0.4750001 0.416666 -0.3333332
v 0.2850002 2.166666 0.7999998
v 0.2849999 1.833333 -9.286476E-08
v 0.2850002 1.833333 0.7999998
v -0.2850002 1.833333 -0.7999999
v -0.2850002 2.166666 -0.7999999
v -0.2850001 1.833333 -0.318733
v 0.285 2.499999 0.2666666
v 0.2850002 2.166666 0.7999998
v 0.2850002 2.499999 0.7999998
v 0.285 2.166666 0.2666666
v 0.2849999 1.833333 -9.286476E-08
v 0.2849998 2.166666 -0.2666667
v 0.2849998 2.499999 -0.2666667
v 0.285 2.833333 0.2666666
v 0.2849996 2.833333 -0.8000001
v 0.2849996 2.499999 -0.8000001
v 0.2849996 2.166666 -0.8000001
v 0.2849999 1.833333 -9.286476E-08
v 0.2849996 1.833333 -0.8000001
v -0.4749997 0.416666 1
v -0.4749997 0.8333333 1
v 0.4750003 0.8333333 0.9999998
v 0.4750003 0.4166665 0.9999998
v 0.4749996 0.416666 -1
v 0.4749996 0.8333333 -1
v -0.4750004 0.8333333 -0.9999998
v -0.4750004 0.4166665 -0.9999998
v 0.4749996 -4.768372E-07 -1
v 0.4749996 0.416666 -1
v -0.4750004 0.4166665 -0.9999998
v -0.4750004 0 -0.9999998
v -0.4749997 -4.768372E-07 1
v -0.4749997 0.416666 1
v 0.4750003 0.4166665 0.9999998
v 0.4750003 0 0.9999998
v -0.4749999 -4.768372E-07 0.3333334
v -0.4749999 0.416666 0.3333334
v -0.4749997 0.416666 1
v -0.4749997 -4.768372E-07 1
v -0.411667 1.166666 -0.9333332
v -0.4750004 0.8333333 -0.9999998
v 0.4749996 0.8333333 -1
v 0.4116664 1.166666 -0.9333335
v 0.411667 1.166666 0.9333333
v 0.4750003 0.8333333 0.9999998
v -0.4749997 0.8333333 1
v -0.4116665 1.166666 0.9333335
v 0.3483334 1.499999 0.8666666
v -0.3483332 1.5 0.8666668
v 0.2849996 2.499999 -0.8000001
v 0.2849996 2.833333 -0.8000001
v -0.2850002 2.833333 -0.7999999
v -0.2850002 2.5 -0.7999999
v -0.2849997 2.5 0.8000001
v -0.2849997 2.833333 0.8000001
v 0.2850002 2.833333 0.7999998
v 0.2850002 2.499999 0.7999998
v -0.2850002 2.5 -0.7999999
v -0.2850001 2.166666 -0.2666666
v -0.2850002 2.166666 -0.7999999
v -0.2850001 2.5 -0.2666666
v -0.2849999 2.166666 0.2666667
v -0.2849999 2.5 0.2666667
v -0.2850001 2.833333 -0.2666666
v -0.2850001 2.5 -0.2666666
v -0.2850002 2.5 -0.7999999
v -0.2850002 2.833333 -0.7999999
v -0.2849997 1.833333 0.8000001
v -0.3483332 1.5 0.8666668
v -0.3483336 1.5 -0.318733
v -0.2850001 1.833333 -0.318733
v -0.2850001 1.833333 -0.318733
v -0.2850002 2.166666 -0.7999999
v -0.2850001 2.166666 -0.2666666
v -0.2849999 2.166666 0.2666667
v -0.2849997 1.833333 0.8000001
v -0.2850001 1.833333 -0.318733
v -0.2849997 2.166666 0.8000001
v -0.2849999 2.5 0.2666667
v -0.2849997 2.166666 0.8000001
v -0.2849997 2.5 0.8000001
v -0.2849997 1.833333 0.8000001
v 0.2850002 2.166666 0.7999998
v 0.2850002 1.833333 0.7999998
v -0.2849997 2.166666 0.8000001
v 0.2850002 2.499999 0.7999998
v -0.2849997 2.5 0.8000001
v 0.3483332 1.5 -0.8666668
v 0.4116664 1.166666 -0.9333335
v 0.4116667 1.166666 -1.34138E-07
v 0.3483334 1.5 -1.135014E-07
v 0.2849996 2.166666 -0.8000001
v 0.2849996 2.499999 -0.8000001
v -0.2850002 2.5 -0.7999999
v -0.2850002 2.166666 -0.7999999
v 0.2849996 1.833333 -0.8000001
v 0.2849996 2.166666 -0.8000001
v -0.2850002 2.166666 -0.7999999
v -0.2850002 1.833333 -0.7999999
v -0.411667 1.166666 -0.9333332
v -0.475 0.8333333 1.547747E-07
v -0.4750004 0.8333333 -0.9999998
v -0.4116668 1.166666 1.341381E-07
v 0.411667 1.166666 0.9333333
v 0.475 0.8333333 -1.547746E-07
v 0.4750003 0.8333333 0.9999998
v 0.4116667 1.166666 -1.34138E-07
v 0.3483334 1.5 -1.135014E-07
v 0.3483334 1.499999 0.8666666
v 0.2849996 1.833333 -0.8000001
v 0.3483332 1.5 -0.8666668
v 0.2849999 1.833333 -9.286476E-08
v -0.4750004 0 -0.9999998
v -0.4750004 0.4166665 -0.9999998
v -0.4750001 0.416666 -0.3333332
v -0.4750001 0 -0.3333332
v -0.4750001 0 -0.3333332
v -0.4750001 0.416666 -0.3333332
v -0.4749999 0.416666 0.3333334
v -0.4749999 -4.768372E-07 0.3333334
v 0.4750003 0 0.9999998
v 0.4750003 0.4166665 0.9999998
v 0.4749996 0.416666 -1
v 0.4749996 -4.768372E-07 -1
v 0.4749996 0.416666 -1
v 0.475 0.8333333 -1.547746E-07
v 0.4749996 0.8333333 -1
v 0.4750003 0.4166665 0.9999998
v 0.4750003 0.8333333 0.9999998
v -0.4749999 0.416666 0.3333334
v -0.475 0.8333333 1.547747E-07
v -0.4749997 0.8333333 1
v -0.4750001 0.416666 -0.3333332
v -0.4750004 0.8333333 -0.9999998
v 0.2849999 1.833333 -9.286476E-08
v 0.3483334 1.5 -1.135014E-07
v 0.3483334 1.499999 0.8666666
v 0.2850002 1.833333 0.7999998
v -0.2850001 1.833333 -0.318733
v -0.3483337 1.5 -0.8666666
v -0.2850002 1.833333 -0.7999999
v -0.3483336 1.5 -0.318733
v -0.411667 1.166666 -0.9333332
v -0.3483337 1.5 -0.8666666
v -0.4116668 1.166666 1.341381E-07
v -0.3483332 1.5 0.8666668
v -0.4116665 1.166666 0.9333335
v -0.475 0.8333333 1.547747E-07
v -0.4749997 0.8333333 1
v 0.2850002 1.833333 0.7999998
v 0.3483334 1.499999 0.8666666
v -0.3483332 1.5 0.8666668
v -0.2849997 1.833333 0.8000001
v -0.2850002 1.833333 -0.7999999
v 0.3483332 1.5 -0.8666668
v 0.2849996 1.833333 -0.8000001
v -0.3483337 1.5 -0.8666666
v 0.4116664 1.166666 -0.9333335
v -0.411667 1.166666 -0.9333332
v 0.4749996 0.8333333 -1
v 0.475 0.8333333 -1.547746E-07
v 0.4116664 1.166666 -0.9333335
v 0.4116667 1.166666 -1.34138E-07
v 0.285 2.499999 0.2666666
v 0.2850002 2.499999 0.7999998
v 0.2850002 2.833333 0.7999998
v 0.285 2.833333 0.2666666
v -0.2850002 2.833333 -0.7999999
v -0.2850002 3.108536 -0.7999999
v -0.2849997 3.108536 0.8000001
v -0.2849997 2.833333 0.8000001
v -0.2849997 2.833333 0.8000001
v -0.2849997 2.5 0.8000001
v -0.2849999 2.5 0.2666667
v -0.2850001 2.5 -0.2666666
v -0.2850001 2.833333 -0.2666666
v 0.2849996 2.499999 -0.8000001
v 0.2849996 2.166666 -0.8000001
v 0.2849998 2.166666 -0.2666667
v 0.2849998 2.499999 -0.2666667
v 0.2849996 2.833333 -0.8000001
v 0.2849996 3.108536 -0.8000001
v -0.2850002 3.108536 -0.7999999
v -0.2850002 2.833333 -0.7999999
v -0.2849997 2.833333 0.8000001
v -0.2849997 3.108536 0.8000001
v 0.2850002 3.108536 0.7999998
v 0.2850002 2.833333 0.7999998
v 0.1425 3.133333 0.65
v 0.2850002 3.108536 0.7999998
v -0.2849997 3.108536 0.8000001
v -0.1424997 3.133333 0.6500002
v -0.1425001 3.133333 -0.65
v -0.2850002 3.108536 -0.7999999
v 0.2849996 3.108536 -0.8000001
v 0.1424996 3.133333 -0.6500001
v 0.1424996 3.133333 -0.6500001
v 0.1424996 2.833333 -0.6500001
v -0.1425001 2.833333 -0.65
v -0.1425001 3.133333 -0.65
v -0.1424997 3.133333 0.6500002
v -0.1424997 2.833333 0.6500002
v 0.1425 2.833333 0.65
v 0.1425 3.133333 0.65
v 0.1424996 3.133333 -0.6500001
v 0.2849996 3.108536 -0.8000001
v 0.2850002 3.108536 0.7999998
v 0.1425 3.133333 0.65
v 0.2850002 2.833333 0.7999998
v 0.2850002 3.108536 0.7999998
v 0.2849996 3.108536 -0.8000001
v 0.2849996 2.833333 -0.8000001
v -0.1425001 3.133333 -0.65
v -0.1425001 2.833333 -0.65
v -0.1424997 2.833333 0.6500002
v -0.1424997 3.133333 0.6500002
v -0.1424997 3.133333 0.6500002
v -0.2849997 3.108536 0.8000001
v -0.2850002 3.108536 -0.7999999
v -0.1425001 3.133333 -0.65
v 0.1425 2.833333 0.65
v -0.1424997 2.833333 0.6500002
v -0.1425001 2.833333 -0.65
v 0.1424996 2.833333 -0.6500001
v 0.1425 3.133333 0.65
v 0.1425 2.833333 0.65
v 0.1424996 2.833333 -0.6500001
v 0.1424996 3.133333 -0.6500001
v -0.4750004 0 -0.9999998
v -0.4749997 -4.768372E-07 1
v 0.4750003 0 0.9999998
v 0.4749996 -4.768372E-07 -1
vt 0.449493 0.4781462
vt 0.4519713 0.474104
vt 0.4519713 0.4773827
vt 0.4445363 0.4773827
vt 0.4445363 0.474104
vt 0.4470146 0.4781466
vt 0.4512277 0.4795993
vt 0.4482537 0.4807885
vt 0.4512277 0.4822223
vt 0.4452797 0.4822223
vt 0.4452797 0.4795993
vt 0.4482537 0.4807885
vt 0.449245 0.4769761
vt 0.4512277 0.4795993
vt 0.4512277 0.4769764
vt 0.449245 0.4795993
vt 0.4482537 0.4807885
vt 0.4472623 0.4795993
vt 0.4472623 0.4769764
vt 0.449245 0.4743534
vt 0.4452797 0.4743534
vt 0.4452797 0.4769764
vt 0.4452797 0.4795993
vt 0.4482537 0.4807884
vt 0.4452797 0.4822223
vt 0.4519713 0.4783067
vt 0.4519713 0.4750282
vt 0.4519713 0.4750282
vt 0.4519713 0.4783067
vt 0.4445363 0.4781708
vt 0.4445363 0.4748923
vt 0.4445363 0.4748923
vt 0.4445363 0.4781708
vt 0.4445363 0.4709859
vt 0.4445363 0.4677072
vt 0.4445363 0.4677072
vt 0.4445363 0.4709859
vt 0.4519713 0.4709859
vt 0.4519713 0.4677072
vt 0.4519713 0.4677072
vt 0.4519713 0.4709859
vt 0.449493 0.4739032
vt 0.449493 0.4701978
vt 0.4519713 0.4709614
vt 0.4519713 0.4742399
vt 0.4447841 0.4813461
vt 0.4445362 0.4839692
vt 0.4445362 0.4839692
vt 0.4447841 0.4813461
vt 0.4517234 0.477304
vt 0.4519713 0.479927
vt 0.4519713 0.479927
vt 0.4517234 0.4773038
vt 0.4514756 0.4746812
vt 0.4514756 0.4746811
vt 0.4452797 0.46968
vt 0.4452797 0.467057
vt 0.4452797 0.467057
vt 0.4452797 0.46968
vt 0.4512277 0.4656379
vt 0.4512277 0.4630148
vt 0.4512277 0.4630148
vt 0.4512277 0.4656379
vt 0.4452797 0.4850608
vt 0.4472623 0.4876837
vt 0.4452797 0.4876837
vt 0.4472623 0.4850608
vt 0.449245 0.4876837
vt 0.449245 0.4850608
vt 0.4472623 0.4743534
vt 0.4472623 0.4769765
vt 0.4452797 0.4769764
vt 0.4452797 0.4743534
vt 0.4512277 0.469249
vt 0.4514756 0.4718719
vt 0.4482537 0.4718719
vt 0.4482537 0.470683
vt 0.4482537 0.4807885
vt 0.4452797 0.4795993
vt 0.4472623 0.4795993
vt 0.449245 0.4795993
vt 0.4512277 0.4822223
vt 0.4482537 0.4807885
vt 0.4512277 0.4795993
vt 0.449245 0.4769765
vt 0.4512277 0.4795993
vt 0.4512277 0.4769765
vt 0.4512277 0.4749259
vt 0.4512277 0.4723029
vt 0.4512277 0.4749259
vt 0.4512277 0.4723029
vt 0.4512277 0.46968
vt 0.4512277 0.46968
vt 0.445032 0.4819773
vt 0.4447841 0.4846002
vt 0.4482537 0.487718
vt 0.4482538 0.4819773
vt 0.4452797 0.4803874
vt 0.4452797 0.4777645
vt 0.4452797 0.4777645
vt 0.4452797 0.4803873
vt 0.4452797 0.4749259
vt 0.4452797 0.4723029
vt 0.4452797 0.4723029
vt 0.4452797 0.4749259
vt 0.4447841 0.4886427
vt 0.4482538 0.4912656
vt 0.4445362 0.4912656
vt 0.4482538 0.4886428
vt 0.4517234 0.4846002
vt 0.4482538 0.4872234
vt 0.4519713 0.4872234
vt 0.4482538 0.4846005
vt 0.4482538 0.4819773
vt 0.4514756 0.4819773
vt 0.4452798 0.4793546
vt 0.445032 0.4819773
vt 0.4482537 0.4807884
vt 0.4445363 0.4782821
vt 0.4445363 0.4750036
vt 0.4470146 0.4742403
vt 0.4470146 0.4779454
vt 0.4470146 0.4739032
vt 0.4470146 0.4701981
vt 0.449493 0.4701978
vt 0.449493 0.4739032
vt 0.4519713 0.4698246
vt 0.4519713 0.4665461
vt 0.4445363 0.4665461
vt 0.4445363 0.4698246
vt 0.4445363 0.4799513
vt 0.4482538 0.4766727
vt 0.4445363 0.4766727
vt 0.4519713 0.4799513
vt 0.4519713 0.4766727
vt 0.449493 0.4781462
vt 0.4482538 0.474104
vt 0.4519713 0.474104
vt 0.4470146 0.4781466
vt 0.4445363 0.474104
vt 0.4482537 0.470683
vt 0.4482538 0.4718719
vt 0.4514756 0.4718719
vt 0.4512277 0.469249
vt 0.4482537 0.4807885
vt 0.4450319 0.4819773
vt 0.4452798 0.4793546
vt 0.4482537 0.4819773
vt 0.4447841 0.4846005
vt 0.4450319 0.4819773
vt 0.4482537 0.4846005
vt 0.4514756 0.4819773
vt 0.4517234 0.4846005
vt 0.4482538 0.4872234
vt 0.4519713 0.4872234
vt 0.4512277 0.4619528
vt 0.4514756 0.4645757
vt 0.4514756 0.4645756
vt 0.4512277 0.4619528
vt 0.4452798 0.4720582
vt 0.4450319 0.4746812
vt 0.4452798 0.4720582
vt 0.4450319 0.4746812
vt 0.4447841 0.4773038
vt 0.4447841 0.4773038
vt 0.4445362 0.4912656
vt 0.4482538 0.4912656
vt 0.4447841 0.4886424
vt 0.4482538 0.4886427
vt 0.449245 0.4729339
vt 0.4512277 0.4729342
vt 0.4512277 0.4703113
vt 0.449245 0.470311
vt 0.02661186 0.7031668
vt 0.02661186 0.7203002
vt 0.003347218 0.7203001
vt 0.003347218 0.7031668
vt 0.4512277 0.4703113
vt 0.4512277 0.4729342
vt 0.449245 0.4729342
vt 0.4472623 0.4729342
vt 0.4472623 0.470311
vt 0.4452797 0.4850608
vt 0.4452797 0.4876837
vt 0.4472623 0.4876837
vt 0.4472623 0.4850608
vt 0.02661186 0.7031668
vt 0.02661186 0.7203002
vt 0.02661186 0.7203002
vt 0.02661186 0.7031668
vt 0.003347218 0.7031668
vt 0.003347218 0.7203002
vt 0.003347218 0.7203002
vt 0.003347218 0.7031668
vt 0.005528271 0.7333987
vt 0.003347218 0.7333987
vt 0.003347218 0.7333987
vt 0.005528271 0.7333987
vt 0.02443081 0.7333987
vt 0.02661186 0.7333987
vt 0.02661186 0.7333987
vt 0.02443081 0.7333987
vt 0.02443081 0.7071074
vt 0.02443081 0.690502
vt 0.02443081 0.690502
vt 0.02443081 0.7071074
vt 0.005528271 0.7071074
vt 0.005528271 0.690502
vt 0.005528271 0.690502
vt 0.005528271 0.7071074
vt 0.02443081 0.7333987
vt 0.02661186 0.7333987
vt 0.003347218 0.7333987
vt 0.005528271 0.7333987
vt 0.003347218 0.7031668
vt 0.003347218 0.7203002
vt 0.02661186 0.7203002
vt 0.02661186 0.7031668
vt 0.02443081 0.7071074
vt 0.02443081 0.690502
vt 0.005528271 0.690502
vt 0.005528271 0.7071074
vt 0.005528271 0.7333987
vt 0.003347218 0.7333987
vt 0.02661186 0.7333987
vt 0.02443081 0.7333987
vt 0.007776618 0.6937843
vt 0.007776618 0.6937843
vt 0.01325309 0.6937843
vt 0.01325309 0.6937843
vt 0.005528271 0.7071073
vt 0.005528271 0.690502
vt 0.02443081 0.690502
vt 0.02443081 0.7071073
vt 0.4482538 0.4706956
vt 0.4482538 0.4706956
vt 0.4482538 0.4706956
vt 0.4482538 0.4706956
vn -1 0 0
vn -1 0 0
vn -1 0 0
vn -1 0 0
vn -1 0 0
vn -1 0 0
vn 1 0 0
vn 1 0 0
vn 1 0 0
vn -1 0 0
vn -1 0 0
vn -1 0 0
vn 1 0 0
vn 1 0 0
vn 1 0 0
vn 1 0 0
vn 1 0 0
vn 1 0 0
vn 1 0 0
vn 1 0 0
vn 1 0 0
vn 1 0 0
vn 1 0 0
vn 1 0 0
vn 1 0 0
vn 0 0 1
vn 0 0 1
vn 0 0 1
vn 0 0 1
vn 0 0 -1
vn 0 0 -1
vn 0 0 -1
vn 0 0 -1
vn 0 0 -1
vn 0 0 -1
vn 0 0 -1
vn 0 0 -1
vn 0 0 1
vn 0 0 1
vn 0 0 1
vn 0 0 1
vn -1 0 0
vn -1 0 0
vn -1 0 0
vn -1 0 0
vn 0 0.1961165 -0.9805806
vn 0 0.1961165 -0.9805806
vn 0 0.1961165 -0.9805806
vn 0 0.1961165 -0.9805806
vn 0 0.1961163 0.9805806
vn 0 0.1961163 0.9805806
vn 0 0.1961163 0.9805806
vn 0 0.1961163 0.9805806
vn 0 0.1961163 0.9805806
vn 0 0.1961163 0.9805806
vn 0 0 -1
vn 0 0 -1
vn 0 0 -1
vn 0 0 -1
vn 0 0 1
vn 0 0 1
vn 0 0 1
vn 0 0 1
vn -1 0 0
vn -1 0 0
vn -1 0 0
vn -1 0 0
vn -1 0 0
vn -1 0 0
vn -1 0 0
vn -1 0 0
vn -1 0 0
vn -1 0 0
vn -0.9824243 0.1866614 0
vn -0.9824243 0.1866614 0
vn -0.9824243 0.1866614 0
vn -0.9824243 0.1866614 0
vn -1 0 0
vn -1 0 0
vn -1 0 0
vn -1 0 0
vn -1 0 0
vn -1 0 0
vn -1 0 0
vn -1 0 0
vn -1 0 0
vn -1 0 0
vn 0 0 1
vn 0 0 1
vn 0 0 1
vn 0 0 1
vn 0 0 1
vn 0 0 1
vn 0.9824246 0.1866601 0
vn 0.9824246 0.1866601 0
vn 0.9824246 0.1866601 0
vn 0.9824246 0.1866601 0
vn 0 0 -1
vn 0 0 -1
vn 0 0 -1
vn 0 0 -1
vn 0 0 -1
vn 0 0 -1
vn 0 0 -1
vn 0 0 -1
vn -0.9824244 0.1866608 0
vn -0.9824244 0.1866608 0
vn -0.9824244 0.1866608 0
vn -0.9824244 0.1866608 0
vn 0.9824244 0.1866608 0
vn 0.9824244 0.1866608 0
vn 0.9824244 0.1866608 0
vn 0.9824244 0.1866608 0
vn 0.9824243 0.1866613 0
vn 0.9824244 0.1866608 0
vn 0.9824243 0.1866613 0
vn 0.9824243 0.1866613 0
vn 0.9824243 0.1866613 0
vn -1 0 0
vn -1 0 0
vn -1 0 0
vn -1 0 0
vn -1 0 0
vn -1 0 0
vn -1 0 0
vn -1 0 0
vn 1 0 0
vn 1 0 0
vn 1 0 0
vn 1 0 0
vn 1 0 0
vn 1 0 0
vn 1 0 0
vn 1 0 0
vn 1 0 0
vn -1 0 0
vn -1 0 0
vn -1 0 0
vn -1 0 0
vn -1 0 0
vn 0.9824244 0.1866607 0
vn 0.9824244 0.1866607 0
vn 0.9824244 0.1866607 0
vn 0.9824244 0.1866607 0
vn -0.9824243 0.1866613 0
vn -0.9824243 0.1866613 0
vn -0.9824243 0.1866613 0
vn -0.9824246 0.1866602 0
vn -0.9824246 0.1866601 0
vn -0.9824246 0.1866601 0
vn -0.9824246 0.1866602 0
vn -0.9824246 0.1866602 0
vn -0.9824246 0.1866602 0
vn -0.9824244 0.1866607 0
vn -0.9824244 0.1866607 0
vn 0 0.196116 0.9805807
vn 0 0.196116 0.9805807
vn 0 0.196116 0.9805807
vn 0 0.196116 0.9805807
vn 0 0.1961162 -0.9805806
vn 0 0.1961162 -0.9805806
vn 0 0.1961162 -0.9805806
vn 0 0.1961162 -0.9805806
vn 0 0.1961156 -0.9805808
vn 0 0.1961156 -0.9805808
vn 0.9824244 0.1866607 0
vn 0.9824244 0.1866607 0
vn 0.9824244 0.1866607 0
vn 0.9824244 0.1866607 0
vn 1 0 0
vn 1 0 0
vn 1 0 0
vn 1 0 0
vn -1 0 0
vn -1 0 0
vn -1 0 0
vn -1 0 0
vn -1 0 0
vn -1 0 0
vn -1 0 0
vn -1 0 0
vn -1 0 0
vn 1 0 0
vn 1 0 0
vn 1 0 0
vn 1 0 0
vn 0 0 -1
vn 0 0 -1
vn 0 0 -1
vn 0 0 -1
vn 0 0 1
vn 0 0 1
vn 0 0 1
vn 0 0 1
vn 0 0.986609 0.1631027
vn 0 0.986609 0.1631027
vn 0 0.986609 0.1631027
vn 0 0.986609 0.1631027
vn 0 0.9866092 -0.1631026
vn 0 0.9866092 -0.1631026
vn 0 0.9866092 -0.1631026
vn 0 0.9866092 -0.1631026
vn 0 0 1
vn 0 0 1
vn 0 0 1
vn 0 0 1
vn 0 0 -1
vn 0 0 -1
vn 0 0 -1
vn 0 0 -1
vn 0.171441 0.9851944 0
vn 0.171441 0.9851944 0
vn 0.171441 0.9851944 0
vn 0.171441 0.9851944 0
vn 1 0 0
vn 1 0 0
vn 1 0 0
vn 1 0 0
vn 1 0 0
vn 1 0 0
vn 1 0 0
vn 1 0 0
vn -0.1714433 0.985194 0
vn -0.1714433 0.985194 0
vn -0.1714433 0.985194 0
vn -0.1714433 0.985194 0
vn 0 1 0
vn 0 1 0
vn 0 1 0
vn 0 1 0
vn -1 0 0
vn -1 0 0
vn -1 0 0
vn -1 0 0
vn 0 -1 0
vn 0 -1 0
vn 0 -1 0
vn 0 -1 0
g TSP_House_Chimney_01A_Top_0
f 3/3/3 2/2/2 1/1/1
f 6/6/6 5/5/5 4/4/4
f 9/9/9 8/8/8 7/7/7
f 12/12/12 11/11/11 10/10/10
f 15/15/15 14/14/14 13/13/13
f 14/14/14 16/16/16 13/13/13
f 14/14/14 17/17/17 16/16/16
f 16/16/16 17/17/17 18/18/18
f 13/13/13 16/16/16 19/19/19
f 16/16/16 18/18/18 19/19/19
f 20/20/20 13/13/13 19/19/19
f 21/21/21 20/20/20 19/19/19
f 21/21/21 19/19/19 22/22/22
f 18/18/18 24/24/24 23/23/23
f 24/24/24 25/25/25 23/23/23
f 28/28/28 27/27/27 26/26/26
f 29/29/29 28/28/28 26/26/26
f 32/32/32 31/31/31 30/30/30
f 33/33/33 32/32/32 30/30/30
f 36/36/36 35/35/35 34/34/34
f 37/37/37 36/36/36 34/34/34
f 40/40/40 39/39/39 38/38/38
f 41/41/41 40/40/40 38/38/38
f 44/44/44 43/43/43 42/42/42
f 45/45/45 44/44/44 42/42/42
f 48/48/48 47/47/47 46/46/46
f 49/49/49 48/48/48 46/46/46
f 52/52/52 51/51/51 50/50/50
f 53/53/53 52/52/52 50/50/50
f 53/53/53 50/50/50 54/54/54
f 55/55/55 53/53/53 54/54/54
f 58/58/58 57/57/57 56/56/56
f 59/59/59 58/58/58 56/56/56
f 62/62/62 61/61/61 60/60/60
f 63/63/63 62/62/62 60/60/60
f 66/66/66 65/65/65 64/64/64
f 65/65/65 67/67/67 64/64/64
f 65/65/65 68/68/68 67/67/67
f 68/68/68 69/69/69 67/67/67
f 72/72/72 71/71/71 70/70/70
f 73/73/73 72/72/72 70/70/70
f 76/76/76 75/75/75 74/74/74
f 77/77/77 76/76/76 74/74/74
f 80/80/80 79/79/79 78/78/78
f 81/81/81 80/80/80 78/78/78
f 81/81/81 83/83/83 82/82/82
f 84/84/84 81/81/81 82/82/82
f 81/81/81 86/86/86 85/85/85
f 86/86/86 87/87/87 85/85/85
f 90/90/90 89/89/89 88/88/88
f 89/89/89 91/91/91 88/88/88
f 89/89/89 92/92/92 91/91/91
f 92/92/92 93/93/93 91/91/91
f 96/96/96 95/95/95 94/94/94
f 97/97/97 96/96/96 94/94/94
f 100/100/100 99/99/99 98/98/98
f 101/101/101 100/100/100 98/98/98
f 104/104/104 103/103/103 102/102/102
f 105/105/105 104/104/104 102/102/102
f 108/108/108 107/107/107 106/106/106
f 106/106/106 107/107/107 109/109/109
f 112/112/112 111/111/111 110/110/110
f 110/110/110 111/111/111 113/113/113
f 110/110/110 113/113/113 114/114/114
f 115/115/115 110/110/110 114/114/114
f 114/114/114 117/117/117 116/116/116
f 118/118/118 114/114/114 116/116/116
f 121/121/121 120/120/120 119/119/119
f 122/122/122 121/121/121 119/119/119
f 125/125/125 124/124/124 123/123/123
f 126/126/126 125/125/125 123/123/123
f 129/129/129 128/128/128 127/127/127
f 130/130/130 129/129/129 127/127/127
f 133/133/133 132/132/132 131/131/131
f 131/131/131 132/132/132 134/134/134
f 134/134/134 132/132/132 135/135/135
f 138/138/138 137/137/137 136/136/136
f 136/136/136 137/137/137 139/139/139
f 139/139/139 137/137/137 140/140/140
f 143/143/143 142/142/142 141/141/141
f 144/144/144 143/143/143 141/141/141
f 147/147/147 146/146/146 145/145/145
f 146/146/146 148/148/148 145/145/145
f 150/150/150 149/149/149 148/148/148
f 149/149/149 151/151/151 148/148/148
f 148/148/148 151/151/151 152/152/152
f 151/151/151 153/153/153 152/152/152
f 154/154/154 153/153/153 151/151/151
f 153/153/153 154/154/154 155/155/155
f 158/158/158 157/157/157 156/156/156
f 159/159/159 158/158/158 156/156/156
f 162/162/162 161/161/161 160/160/160
f 161/161/161 163/163/163 160/160/160
f 161/161/161 164/164/164 163/163/163
f 164/164/164 165/165/165 163/163/163
f 168/168/168 167/167/167 166/166/166
f 167/167/167 168/168/168 169/169/169
f 172/172/172 171/171/171 170/170/170
f 173/173/173 172/172/172 170/170/170
f 176/176/176 175/175/175 174/174/174
f 177/177/177 176/176/176 174/174/174
f 180/180/180 179/179/179 178/178/178
f 181/181/181 180/180/180 178/178/178
f 182/182/182 181/181/181 178/178/178
f 185/185/185 184/184/184 183/183/183
f 186/186/186 185/185/185 183/183/183
f 189/189/189 188/188/188 187/187/187
f 190/190/190 189/189/189 187/187/187
f 193/193/193 192/192/192 191/191/191
f 194/194/194 193/193/193 191/191/191
f 197/197/197 196/196/196 195/195/195
f 198/198/198 197/197/197 195/195/195
f 201/201/201 200/200/200 199/199/199
f 202/202/202 201/201/201 199/199/199
f 205/205/205 204/204/204 203/203/203
f 206/206/206 205/205/205 203/203/203
f 209/209/209 208/208/208 207/207/207
f 210/210/210 209/209/209 207/207/207
f 213/213/213 212/212/212 211/211/211
f 214/214/214 213/213/213 211/211/211
f 217/217/217 216/216/216 215/215/215
f 218/218/218 217/217/217 215/215/215
f 221/221/221 220/220/220 219/219/219
f 222/222/222 221/221/221 219/219/219
f 225/225/225 224/224/224 223/223/223
f 226/226/226 225/225/225 223/223/223
f 229/229/229 228/228/228 227/227/227
f 230/230/230 229/229/229 227/227/227
f 233/233/233 232/232/232 231/231/231
f 234/234/234 233/233/233 231/231/231
f 237/237/237 236/236/236 235/235/235
f 238/238/238 237/237/237 235/235/235
