g TSP_House_Wall_Regular_12B
v -0.0850002 2.775 3.975
v -0.0750002 3 4
v -0.0750002 2.75 4
v -0.0750002 2.5 4
v -0.0850002 2.525 3.975
v -0.0850002 2.275 3.975
v -0.0750002 2.25 4
v -0.0750002 2 4
v -0.0850002 2.025 3.975
v -0.0850002 1.775 3.975
v -0.0750002 1.75 4
v -0.0750002 1.5 4
v -0.0850002 1.525 3.975
v -0.0850002 1.275 3.975
v -0.0750002 1.25 4
v -0.0750002 1 4
v -0.0850002 1.025 3.975
v -0.0850002 0.775 3.975
v -0.0750002 0.75 4
v -0.0750002 0.4999999 4
v -0.0850002 0.5249999 3.975
v -0.0850002 0.2749999 3.975
v -0.0750002 0.2499999 4
v -0.0850002 0.0249999 3.975
v -0.0750002 -1.937151E-07 4
v -0.0850002 0.02499986 -3.975
v -0.0750002 -1.937151E-07 -4
v -0.0750002 0.2499999 -4
v -0.0850002 0.2749999 -3.975
v -0.0750002 0.4999999 -4
v -0.0850002 0.5249999 -3.975
v -0.0750002 0.75 -4
v -0.0850002 0.775 -3.975
v -0.0750002 1 -4
v -0.0850002 1.025 -3.975
v -0.0750002 1.25 -4
v -0.0850002 1.275 -3.975
v -0.0750002 1.5 -4
v -0.0850002 1.525 -3.975
v -0.0750002 1.75 -4
v -0.0850002 1.775 -3.975
v -0.0750002 2 -4
v -0.0850002 2.025 -3.975
v -0.0750002 2.25 -4
v -0.0850002 2.275 -3.975
v -0.0750002 2.5 -4
v -0.0850002 2.525 -3.975
v -0.0750002 2.75 -4
v -0.0850002 2.775 -3.975
v -0.0750002 3 -4
v 0.07499961 0 4.075
v 0.07499985 -1.937151E-07 -4.075
v -0.07499985 -1.937151E-07 -4.075
v -0.0750002 -1.937151E-07 4.075
v -0.0750002 3 4.075
v 0.07499961 3 4.075
v 0.07499961 0 4.075
v -0.0750002 -1.937151E-07 4.075
v -0.07499985 3 -4.075
v -0.07499985 -1.937151E-07 -4.075
v 0.07499985 -1.937151E-07 -4.075
v 0.07499961 3 -4.075
v -0.0750002 -1.937151E-07 4.075
v -0.0750002 -1.937151E-07 4
v -0.0750002 3 4
v -0.0750002 3 4.075
v -0.07499985 3 -4.075
v -0.0750002 3 -4
v -0.0750002 -1.937151E-07 -4
v -0.07499985 -1.937151E-07 -4.075
v -0.07499985 3 -4.075
v 0.07499961 3 -4.075
v 0.07499961 3 4.075
v -0.0750002 3 4.075
v 0.07499961 3 4.075
v 0.07499961 0 3.925
v 0.07499961 0 4.075
v 0.07499961 3 3.925
v 0.07499961 0 -3.925
v 0.07499961 3 -3.925
v 0.07499985 -1.937151E-07 -4.075
v 0.07499961 3 -4.075
v -0.0850002 0.0249999 3.975
v -0.0850002 0.02499986 -3.975
v -0.0750002 0.2499999 -4
v -0.0750002 0.2499999 4
v -0.0850002 2.525 3.975
v -0.0850002 2.525 -3.975
v -0.0750002 2.75 -4
v -0.0750002 2.75 4
v -0.0850002 2.775 3.975
v -0.0850002 2.775 -3.975
v -0.0750002 3 -4
v -0.0750002 3 4
v -0.0850002 0.2749999 3.975
v -0.0850002 0.2749999 -3.975
v -0.0750002 0.4999999 -4
v -0.0750002 0.4999999 4
v -0.0750002 2.75 -4
v -0.0850002 2.775 -3.975
v -0.0850002 2.775 3.975
v -0.0750002 2.75 4
v -0.0850002 2.525 -3.975
v -0.0850002 2.525 3.975
v -0.0750002 2.5 4
v -0.0750002 2.5 -4
v -0.0750002 0.2499999 -4
v -0.0850002 0.2749999 -3.975
v -0.0850002 0.2749999 3.975
v -0.0750002 0.2499999 4
v -0.0750002 -1.937151E-07 -4
v -0.0850002 0.02499986 -3.975
v -0.0850002 0.0249999 3.975
v -0.0750002 -1.937151E-07 4
v -0.0750002 2.25 -4
v -0.0850002 2.275 -3.975
v -0.0850002 2.275 3.975
v -0.0750002 2.25 4
v -0.0850002 2.025 -3.975
v -0.0850002 2.025 3.975
v -0.0750002 2 4
v -0.0750002 2 -4
v -0.0750002 1.75 -4
v -0.0850002 1.775 -3.975
v -0.0850002 1.775 3.975
v -0.0750002 1.75 4
v -0.0850002 1.525 -3.975
v -0.0850002 1.525 3.975
v -0.0750002 1.5 4
v -0.0750002 1.5 -4
v -0.0750002 1.25 -4
v -0.0850002 1.275 -3.975
v -0.0850002 1.275 3.975
v -0.0750002 1.25 4
v -0.0850002 1.025 -3.975
v -0.0850002 1.025 3.975
v -0.0750002 1 4
v -0.0750002 1 -4
v -0.0750002 0.75 -4
v -0.0850002 0.775 -3.975
v -0.0850002 0.775 3.975
v -0.0750002 0.75 4
v -0.0850002 0.5249999 -3.975
v -0.0850002 0.5249999 3.975
v -0.0750002 0.4999999 4
v -0.0750002 0.4999999 -4
v -0.0850002 2.275 3.975
v -0.0850002 2.275 -3.975
v -0.0750002 2.5 -4
v -0.0750002 2.5 4
v -0.0850002 1.775 3.975
v -0.0850002 1.775 -3.975
v -0.0750002 2 -4
v -0.0750002 2 4
v -0.0850002 1.275 3.975
v -0.0850002 1.275 -3.975
v -0.0750002 1.5 -4
v -0.0750002 1.5 4
v -0.0850002 0.775 3.975
v -0.0850002 0.775 -3.975
v -0.0750002 1 -4
v -0.0750002 1 4
v -0.0850002 2.025 3.975
v -0.0850002 2.025 -3.975
v -0.0750002 2.25 -4
v -0.0750002 2.25 4
v -0.0850002 1.525 3.975
v -0.0850002 1.525 -3.975
v -0.0750002 1.75 -4
v -0.0750002 1.75 4
v -0.0850002 1.025 3.975
v -0.0850002 1.025 -3.975
v -0.0750002 1.25 -4
v -0.0750002 1.25 4
v -0.0850002 0.5249999 3.975
v -0.0850002 0.5249999 -3.975
v -0.0750002 0.75 -4
v -0.0750002 0.75 4
vt 0.6511807 0.8247623
vt 0.6512461 0.8253274
vt 0.6512461 0.8246995
vt 0.6512461 0.8240716
vt 0.6511807 0.8241344
vt 0.6511807 0.8235065
vt 0.6512461 0.8234437
vt 0.6512461 0.8228158
vt 0.6511807 0.8228786
vt 0.6511807 0.8222507
vt 0.6512461 0.8221879
vt 0.6512461 0.8215599
vt 0.6511807 0.8216227
vt 0.6511807 0.8209949
vt 0.6512461 0.820932
vt 0.6512461 0.8203042
vt 0.6511807 0.8203669
vt 0.6511807 0.819739
vt 0.6512461 0.8196762
vt 0.6512461 0.8190483
vt 0.6511807 0.8191111
vt 0.6511807 0.8184832
vt 0.6512461 0.8184204
vt 0.6511807 0.8178552
vt 0.6512461 0.8177925
vt 0.6303615 0.8178552
vt 0.630296 0.8177925
vt 0.630296 0.8184204
vt 0.6303615 0.8184832
vt 0.630296 0.8190483
vt 0.6303615 0.8191111
vt 0.630296 0.8196762
vt 0.6303615 0.819739
vt 0.630296 0.8203042
vt 0.6303615 0.8203669
vt 0.630296 0.820932
vt 0.6303615 0.8209949
vt 0.630296 0.8215599
vt 0.6303615 0.8216227
vt 0.630296 0.8221879
vt 0.6303615 0.8222507
vt 0.630296 0.8228158
vt 0.6303615 0.8228786
vt 0.630296 0.8234437
vt 0.6303615 0.8235065
vt 0.630296 0.8240716
vt 0.6303615 0.8241344
vt 0.630296 0.8246995
vt 0.6303615 0.8247623
vt 0.630296 0.8253274
vt 0.1717818 0.7155169
vt 0.1717818 0.7155169
vt 0.1717818 0.7155169
vt 0.1717818 0.7155169
vt 0.1717818 0.7155169
vt 0.1717818 0.7155169
vt 0.1717818 0.7155169
vt 0.1717818 0.7155169
vt 0.1717818 0.7155169
vt 0.1717818 0.7155169
vt 0.1717818 0.7155169
vt 0.1717818 0.7155169
vt 0.1717818 0.7155169
vt 0.1717818 0.7155169
vt 0.1717818 0.7155169
vt 0.1717818 0.7155169
vt 0.1717818 0.7155169
vt 0.1717818 0.7155169
vt 0.1717818 0.7155169
vt 0.1717818 0.7155169
vt 0.1717818 0.7155169
vt 0.1717818 0.7155169
vt 0.1717818 0.7155169
vt 0.1717818 0.7155169
vt 0.1717818 0.7155169
vt 0.1717818 0.7155169
vt 0.1717818 0.7155169
vt 0.1717818 0.7155169
vt 0.1717818 0.7155169
vt 0.1717818 0.7155169
vt 0.1717818 0.7155169
vt 0.1717818 0.7155169
vt 0.6303614 0.8409406
vt 0.6511806 0.8409406
vt 0.6512461 0.8364197
vt 0.630296 0.8364197
vt 0.6303614 0.8421968
vt 0.6511806 0.8421968
vt 0.6512461 0.8376759
vt 0.630296 0.8376759
vt 0.6303614 0.8409406
vt 0.6511806 0.8409406
vt 0.6512461 0.8364197
vt 0.630296 0.8364197
vt 0.6303614 0.8421968
vt 0.6511806 0.8421968
vt 0.6512461 0.8376759
vt 0.630296 0.8376759
vt 0.599046 0.8289144
vt 0.5991115 0.82904
vt 0.6199307 0.82904
vt 0.6199961 0.8289144
vt 0.5991115 0.8277842
vt 0.6199307 0.8277842
vt 0.6199961 0.8276586
vt 0.599046 0.8276586
vt 0.599046 0.8163561
vt 0.5991115 0.8164817
vt 0.6199307 0.8164817
vt 0.6199961 0.8163561
vt 0.599046 0.8151003
vt 0.5991115 0.8152259
vt 0.6199307 0.8152259
vt 0.6199961 0.8151003
vt 0.6199961 0.8264028
vt 0.6199307 0.8265283
vt 0.6199307 0.8265283
vt 0.6199961 0.8264028
vt 0.6199307 0.8252725
vt 0.6199307 0.8252725
vt 0.6199961 0.8251469
vt 0.6199961 0.8251469
vt 0.6199961 0.8238911
vt 0.6199307 0.8240167
vt 0.6199307 0.8240167
vt 0.6199961 0.8238911
vt 0.6199307 0.8227609
vt 0.6199307 0.8227609
vt 0.6199961 0.8226352
vt 0.6199961 0.8226352
vt 0.6199961 0.8213794
vt 0.6199307 0.821505
vt 0.6199307 0.821505
vt 0.6199961 0.8213794
vt 0.6199307 0.8202492
vt 0.6199307 0.8202492
vt 0.6199961 0.8201236
vt 0.6199961 0.8201236
vt 0.6199961 0.8188678
vt 0.6199307 0.8189933
vt 0.6199307 0.8189933
vt 0.6199961 0.8188678
vt 0.6199307 0.8177375
vt 0.6199307 0.8177375
vt 0.6199961 0.8176119
vt 0.6199961 0.8176119
vt 0.6303614 0.8434528
vt 0.6303614 0.8434528
vt 0.630296 0.8389317
vt 0.630296 0.8389317
vt 0.6303614 0.8452109
vt 0.6303614 0.8452109
vt 0.630296 0.84069
vt 0.630296 0.84069
vt 0.6303614 0.8426988
vt 0.6303614 0.8426988
vt 0.630296 0.8381779
vt 0.630296 0.8381779
vt 0.6303614 0.8401871
vt 0.6303614 0.8401871
vt 0.630296 0.8356659
vt 0.630296 0.8356659
vt 0.6303614 0.8464667
vt 0.6303614 0.8464667
vt 0.630296 0.8419455
vt 0.630296 0.8419455
vt 0.6303614 0.8439547
vt 0.6303614 0.8439547
vt 0.630296 0.8394338
vt 0.630296 0.8394338
vt 0.6303614 0.8414434
vt 0.6303614 0.8414434
vt 0.630296 0.8369225
vt 0.630296 0.8369225
vt 0.6303614 0.8434528
vt 0.6303614 0.8434528
vt 0.630296 0.8389317
vt 0.630296 0.8389317
vn -0.9284771 0 0.3713896
vn -0.9284771 0 0.3713896
vn -0.9284771 0 0.3713896
vn -0.9284771 0 0.3713895
vn -0.9284771 0 0.3713895
vn -0.9284771 0 0.3713896
vn -0.9284771 0 0.3713896
vn -0.9284771 0 0.3713895
vn -0.9284771 0 0.3713895
vn -0.9284771 0 0.3713896
vn -0.9284771 0 0.3713896
vn -0.9284771 0 0.3713894
vn -0.9284771 0 0.3713894
vn -0.9284771 0 0.3713896
vn -0.9284771 0 0.3713896
vn -0.9284771 0 0.3713894
vn -0.9284771 0 0.3713894
vn -0.9284771 0 0.3713896
vn -0.9284771 0 0.3713896
vn -0.9284771 0 0.3713896
vn -0.9284771 0 0.3713896
vn -0.9284771 0 0.3713895
vn -0.9284771 0 0.3713895
vn -0.9284768 0 0.3713905
vn -0.9284768 0 0.3713905
vn -0.9284769 0 -0.37139
vn -0.9284769 0 -0.37139
vn -0.9284769 0 -0.37139
vn -0.9284771 0 -0.3713895
vn -0.9284771 0 -0.3713895
vn -0.9284771 0 -0.3713896
vn -0.9284771 0 -0.3713896
vn -0.9284771 0 -0.3713896
vn -0.9284771 0 -0.3713896
vn -0.9284771 0 -0.3713896
vn -0.9284771 0 -0.3713896
vn -0.9284773 0 -0.3713892
vn -0.9284773 0 -0.3713892
vn -0.9284771 0 -0.3713896
vn -0.9284771 0 -0.3713896
vn -0.9284771 0 -0.3713896
vn -0.9284771 0 -0.3713896
vn -0.9284771 0 -0.3713896
vn -0.9284771 0 -0.3713896
vn -0.9284771 0 -0.3713896
vn -0.9284771 0 -0.3713896
vn -0.9284771 0 -0.3713896
vn -0.9284771 0 -0.3713896
vn -0.9284771 0 -0.3713896
vn -0.9284771 0 -0.3713896
vn 0 -1 0
vn 0 -1 0
vn 0 -1 0
vn 0 -1 0
vn 0 0 1
vn 0 0 1
vn 0 0 1
vn 0 0 1
vn 0 0 -1
vn 0 0 -1
vn 0 0 -1
vn 0 0 -1
vn -1 0 0
vn -1 0 0
vn -1 0 0
vn -1 0 0
vn -1 0 0
vn -1 0 0
vn -1 0 0
vn -1 0 0
vn 0 1 0
vn 0 1 0
vn 0 1 0
vn 0 1 0
vn 1 0 0
vn 1 0 0
vn 1 0 0
vn 1 0 0
vn 1 0 0
vn 1 0 0
vn 1 0 0
vn 1 0 0
vn -0.9990138 0.0444006 0
vn -0.9990138 0.0444006 0
vn -0.9990138 0.0444006 0
vn -0.9990138 0.0444006 0
vn -0.9990138 0.04440063 0
vn -0.9990138 0.04440063 0
vn -0.9990138 0.04440063 0
vn -0.9990138 0.04440063 0
vn -0.9990138 0.04440062 0
vn -0.9990138 0.04440062 0
vn -0.9990138 0.04440062 0
vn -0.9990138 0.04440062 0
vn -0.9990138 0.0444006 0
vn -0.9990138 0.0444006 0
vn -0.9990138 0.0444006 0
vn -0.9990138 0.0444006 0
vn -0.9284781 -0.3713873 0
vn -0.9284781 -0.3713873 0
vn -0.9284781 -0.3713873 0
vn -0.9284781 -0.3713873 0
vn -0.9284779 -0.3713873 0
vn -0.9284779 -0.3713873 0
vn -0.9284779 -0.3713873 0
vn -0.9284779 -0.3713873 0
vn -0.9284768 -0.3713906 0
vn -0.9284768 -0.3713906 0
vn -0.9284768 -0.3713906 0
vn -0.9284768 -0.3713906 0
vn -0.9284771 -0.3713897 0
vn -0.9284771 -0.3713897 0
vn -0.9284771 -0.3713897 0
vn -0.9284771 -0.3713897 0
vn -0.9284768 -0.3713903 0
vn -0.9284768 -0.3713903 0
vn -0.9284768 -0.3713903 0
vn -0.9284768 -0.3713903 0
vn -0.9284766 -0.3713908 0
vn -0.9284766 -0.3713908 0
vn -0.9284766 -0.3713908 0
vn -0.9284766 -0.3713908 0
vn -0.9284768 -0.3713903 0
vn -0.9284768 -0.3713903 0
vn -0.9284768 -0.3713903 0
vn -0.9284768 -0.3713903 0
vn -0.9284764 -0.3713912 0
vn -0.9284764 -0.3713912 0
vn -0.9284764 -0.3713912 0
vn -0.9284764 -0.3713912 0
vn -0.9284768 -0.3713903 0
vn -0.9284768 -0.3713903 0
vn -0.9284768 -0.3713903 0
vn -0.9284768 -0.3713903 0
vn -0.9284772 -0.3713893 0
vn -0.9284772 -0.3713893 0
vn -0.9284772 -0.3713893 0
vn -0.9284772 -0.3713893 0
vn -0.9284765 -0.3713911 0
vn -0.9284765 -0.3713911 0
vn -0.9284765 -0.3713911 0
vn -0.9284765 -0.3713911 0
vn -0.9284768 -0.3713905 0
vn -0.9284768 -0.3713905 0
vn -0.9284768 -0.3713905 0
vn -0.9284768 -0.3713905 0
vn -0.9990138 0.04440064 0
vn -0.9990138 0.04440064 0
vn -0.9990138 0.04440064 0
vn -0.9990138 0.04440064 0
vn -0.9990138 0.04440061 0
vn -0.9990138 0.04440061 0
vn -0.9990138 0.04440061 0
vn -0.9990138 0.04440061 0
vn -0.9990138 0.04440061 0
vn -0.9990138 0.04440061 0
vn -0.9990138 0.04440061 0
vn -0.9990138 0.04440061 0
vn -0.9990138 0.0444006 0
vn -0.9990138 0.0444006 0
vn -0.9990138 0.0444006 0
vn -0.9990138 0.0444006 0
vn -0.9990138 0.04440065 0
vn -0.9990138 0.04440065 0
vn -0.9990138 0.04440065 0
vn -0.9990138 0.04440065 0
vn -0.9990138 0.0444006 0
vn -0.9990138 0.0444006 0
vn -0.9990138 0.0444006 0
vn -0.9990138 0.0444006 0
vn -0.9990138 0.04440064 0
vn -0.9990138 0.04440064 0
vn -0.9990138 0.04440064 0
vn -0.9990138 0.04440064 0
vn -0.9990138 0.04440058 0
vn -0.9990138 0.04440058 0
vn -0.9990138 0.04440058 0
vn -0.9990138 0.04440058 0
g TSP_House_Wall_Regular_12B_0
f 3/3/3 2/2/2 1/1/1
f 5/5/5 4/4/4 3/3/3
f 7/7/7 4/4/4 6/6/6
f 9/9/9 8/8/8 7/7/7
f 11/11/11 8/8/8 10/10/10
f 13/13/13 12/12/12 11/11/11
f 15/15/15 12/12/12 14/14/14
f 17/17/17 16/16/16 15/15/15
f 19/19/19 16/16/16 18/18/18
f 21/21/21 20/20/20 19/19/19
f 23/23/23 20/20/20 22/22/22
f 25/25/25 23/23/23 24/24/24
f 28/28/28 27/27/27 26/26/26
f 30/30/30 28/28/28 29/29/29
f 32/32/32 30/30/30 31/31/31
f 34/34/34 32/32/32 33/33/33
f 36/36/36 34/34/34 35/35/35
f 38/38/38 36/36/36 37/37/37
f 40/40/40 38/38/38 39/39/39
f 42/42/42 40/40/40 41/41/41
f 44/44/44 42/42/42 43/43/43
f 46/46/46 44/44/44 45/45/45
f 48/48/48 46/46/46 47/47/47
f 50/50/50 48/48/48 49/49/49
f 53/53/53 52/52/52 51/51/51
f 54/54/54 53/53/53 51/51/51
f 57/57/57 56/56/56 55/55/55
f 58/58/58 57/57/57 55/55/55
f 61/61/61 60/60/60 59/59/59
f 62/62/62 61/61/61 59/59/59
f 65/65/65 64/64/64 63/63/63
f 66/66/66 65/65/65 63/63/63
f 69/69/69 68/68/68 67/67/67
f 70/70/70 69/69/69 67/67/67
f 73/73/73 72/72/72 71/71/71
f 74/74/74 73/73/73 71/71/71
f 77/77/77 76/76/76 75/75/75
f 76/76/76 78/78/78 75/75/75
f 76/76/76 79/79/79 78/78/78
f 79/79/79 80/80/80 78/78/78
f 79/79/79 81/81/81 80/80/80
f 81/81/81 82/82/82 80/80/80
f 85/85/85 84/84/84 83/83/83
f 86/86/86 85/85/85 83/83/83
f 89/89/89 88/88/88 87/87/87
f 90/90/90 89/89/89 87/87/87
f 93/93/93 92/92/92 91/91/91
f 94/94/94 93/93/93 91/91/91
f 97/97/97 96/96/96 95/95/95
f 98/98/98 97/97/97 95/95/95
f 101/101/101 100/100/100 99/99/99
f 102/102/102 101/101/101 99/99/99
f 105/105/105 104/104/104 103/103/103
f 106/106/106 105/105/105 103/103/103
f 109/109/109 108/108/108 107/107/107
f 110/110/110 109/109/109 107/107/107
f 113/113/113 112/112/112 111/111/111
f 114/114/114 113/113/113 111/111/111
f 117/117/117 116/116/116 115/115/115
f 118/118/118 117/117/117 115/115/115
f 121/121/121 120/120/120 119/119/119
f 122/122/122 121/121/121 119/119/119
f 125/125/125 124/124/124 123/123/123
f 126/126/126 125/125/125 123/123/123
f 129/129/129 128/128/128 127/127/127
f 130/130/130 129/129/129 127/127/127
f 133/133/133 132/132/132 131/131/131
f 134/134/134 133/133/133 131/131/131
f 137/137/137 136/136/136 135/135/135
f 138/138/138 137/137/137 135/135/135
f 141/141/141 140/140/140 139/139/139
f 142/142/142 141/141/141 139/139/139
f 145/145/145 144/144/144 143/143/143
f 146/146/146 145/145/145 143/143/143
f 149/149/149 148/148/148 147/147/147
f 150/150/150 149/149/149 147/147/147
f 153/153/153 152/152/152 151/151/151
f 154/154/154 153/153/153 151/151/151
f 157/157/157 156/156/156 155/155/155
f 158/158/158 157/157/157 155/155/155
f 161/161/161 160/160/160 159/159/159
f 162/162/162 161/161/161 159/159/159
f 165/165/165 164/164/164 163/163/163
f 166/166/166 165/165/165 163/163/163
f 169/169/169 168/168/168 167/167/167
f 170/170/170 169/169/169 167/167/167
f 173/173/173 172/172/172 171/171/171
f 174/174/174 173/173/173 171/171/171
f 177/177/177 176/176/176 175/175/175
f 178/178/178 177/177/177 175/175/175
