g TSP_Wall_Lamp_02A_Light
v -0.175 2.233062 0.03306231
v -0.175 1.766938 0.03306231
v -0.2036328 1.766938 0.01653115
v -0.2036328 2.233062 0.01653115
v -0.2036328 1.766938 -0.01653116
v -0.2036328 2.233062 -0.01653116
v -0.175 1.766938 -0.03306231
v -0.175 2.233062 -0.03306231
v -0.175 2.233062 0.03306231
v -0.2036328 2.233062 0.01653115
v -0.2036328 2.233062 -0.01653116
v -0.175 2.233062 -0.03306231
v -0.175 1.766938 -0.03306231
v -0.2036328 1.766938 -0.01653116
v -0.2036328 1.766938 0.01653115
v -0.175 1.766938 0.03306231
vt 0.3500623 0.5850693
vt 0.3500623 0.5309772
vt 0.348144 0.5309772
vt 0.348144 0.5850693
vt 0.3443072 0.5309772
vt 0.3443072 0.5850693
vt 0.3423888 0.5309772
vt 0.3423888 0.5850693
vt 0.3500623 0.5850693
vt 0.348144 0.5850693
vt 0.3443072 0.5850693
vt 0.3423888 0.5850693
vt 0.3423888 0.5309772
vt 0.3443072 0.5309772
vt 0.348144 0.5309772
vt 0.3500623 0.5309772
vn -0.4999893 0 0.8660316
vn -0.4999893 0 0.8660316
vn -0.8660316 0 0.4999893
vn -0.8660316 0 0.4999893
vn -0.8660316 0 -0.4999893
vn -0.8660316 0 -0.4999893
vn -0.4999893 0 -0.8660316
vn -0.4999893 0 -0.8660316
vn 0 1 0
vn 0 1 0
vn 0 1 0
vn 0 1 0
vn 0 -1 0
vn 0 -1 0
vn 0 -1 0
vn 0 -1 0
g TSP_Wall_Lamp_02A_Light_0
f 3/3/3 2/2/2 1/1/1
f 4/4/4 3/3/3 1/1/1
f 5/5/5 3/3/3 4/4/4
f 6/6/6 5/5/5 4/4/4
f 7/7/7 5/5/5 6/6/6
f 8/8/8 7/7/7 6/6/6
f 11/11/11 10/10/10 9/9/9
f 12/12/12 11/11/11 9/9/9
f 15/15/15 14/14/14 13/13/13
f 16/16/16 15/15/15 13/13/13
