g TSP_House_Wall_Rail_02A
v -0.0850002 0.775 1.975
v -0.0750002 1 2
v -0.0750002 0.75 2
v -0.0750002 0.4999999 2
v -0.0850002 0.5249999 1.975
v -0.0850002 0.2749999 1.975
v -0.0750002 0.2499999 2
v -0.0850002 0.0249999 1.975
v -0.0750002 -1.937151E-07 2
v -0.0850002 0.02499986 -1.975
v -0.0750002 -1.937151E-07 -2
v -0.0750002 0.2499999 -2
v -0.0850002 0.2749999 -1.975
v -0.0750002 0.4999999 -2
v -0.0850002 0.5249999 -1.975
v -0.0750002 0.75 -2
v -0.0850002 0.775 -1.975
v -0.0750002 1 -2
v 0.07499961 0 2.075
v 0.07499985 -1.937151E-07 -2.075
v -0.07499985 -1.937151E-07 -2.075
v -0.0750002 -1.937151E-07 2.075
v -0.0750002 1 2.075
v 0.07499961 1 2.075
v 0.07499961 0 2.075
v -0.0750002 -1.937151E-07 2.075
v -0.07499985 1 -2.075
v -0.07499985 -1.937151E-07 -2.075
v 0.07499985 -1.937151E-07 -2.075
v 0.07499961 1 -2.075
v -0.0750002 -1.937151E-07 2.075
v -0.0750002 -1.937151E-07 2
v -0.0750002 1 2
v -0.0750002 1 2.075
v -0.07499985 1 -2.075
v -0.0750002 1 -2
v -0.0750002 -1.937151E-07 -2
v -0.07499985 -1.937151E-07 -2.075
v -0.07499985 1 -2.075
v 0.07499961 1 -2.075
v 0.07499961 1 2.075
v -0.0750002 1 2.075
v 0.07499961 1 2.075
v 0.07499961 0 2
v 0.07499961 0 2.075
v 0.07499961 1 2
v 0.07499961 0 -2
v 0.07499961 1 -2
v 0.07499985 -1.937151E-07 -2.075
v 0.07499961 1 -2.075
v -0.0850002 0.0249999 1.975
v -0.0850002 0.02499986 -1.975
v -0.0750002 0.2499999 -2
v -0.0750002 0.2499999 2
v -0.0850002 0.2749999 1.975
v -0.0850002 0.2749999 -1.975
v -0.0750002 0.4999999 -2
v -0.0750002 0.4999999 2
v -0.0750002 0.2499999 -2
v -0.0850002 0.2749999 -1.975
v -0.0850002 0.2749999 1.975
v -0.0750002 0.2499999 2
v -0.0750002 -1.937151E-07 -2
v -0.0850002 0.02499986 -1.975
v -0.0850002 0.0249999 1.975
v -0.0750002 -1.937151E-07 2
v -0.0750002 0.75 -2
v -0.0850002 0.775 -1.975
v -0.0850002 0.775 1.975
v -0.0750002 0.75 2
v -0.0850002 0.5249999 -1.975
v -0.0850002 0.5249999 1.975
v -0.0750002 0.4999999 2
v -0.0750002 0.4999999 -2
v -0.0850002 0.775 1.975
v -0.0850002 0.775 -1.975
v -0.0750002 1 -2
v -0.0750002 1 2
v -0.0850002 0.5249999 1.975
v -0.0850002 0.5249999 -1.975
v -0.0750002 0.75 -2
v -0.0750002 0.75 2
vt 0.05743067 0.757239
vt 0.05749612 0.7578042
vt 0.05749612 0.7571762
vt 0.05749612 0.7565483
vt 0.05743067 0.7566111
vt 0.05743067 0.7559832
vt 0.05749612 0.7559204
vt 0.05743067 0.7553552
vt 0.05749612 0.7552925
vt 0.03661148 0.7553552
vt 0.03654601 0.7552925
vt 0.03654601 0.7559204
vt 0.03661148 0.7559832
vt 0.03654601 0.7565483
vt 0.03661148 0.7566111
vt 0.03654601 0.7571762
vt 0.03661148 0.757239
vt 0.03654601 0.7578042
vt 0.1717818 0.7155169
vt 0.1717818 0.7155169
vt 0.1717818 0.7155169
vt 0.1717818 0.7155169
vt 0.1717818 0.7155169
vt 0.1717818 0.7155169
vt 0.1717818 0.7155169
vt 0.1717818 0.7155169
vt 0.1717818 0.7155169
vt 0.1717818 0.7155169
vt 0.1717818 0.7155169
vt 0.1717818 0.7155169
vt 0.1717818 0.7155169
vt 0.1717818 0.7155169
vt 0.1717818 0.7155169
vt 0.1717818 0.7155169
vt 0.1717818 0.7155169
vt 0.1717818 0.7155169
vt 0.1717818 0.7155169
vt 0.1717818 0.7155169
vt 0.1717818 0.7155169
vt 0.1717818 0.7155169
vt 0.1717818 0.7155169
vt 0.1717818 0.7155169
vt 0.1717818 0.7155169
vt 0.1717818 0.7155169
vt 0.1717818 0.7155169
vt 0.1717818 0.7155169
vt 0.1717818 0.7155169
vt 0.1717818 0.7155169
vt 0.1717818 0.7155169
vt 0.1717818 0.7155169
vt 0.03661147 0.7784406
vt 0.05743065 0.7784406
vt 0.05749613 0.7739197
vt 0.03654602 0.7739197
vt 0.03661147 0.7796968
vt 0.05743065 0.7796968
vt 0.05749613 0.7751759
vt 0.03654602 0.7751759
vt 0.09904601 0.7538561
vt 0.09911148 0.7539817
vt 0.1199307 0.7539817
vt 0.1199961 0.7538561
vt 0.09904601 0.7526003
vt 0.09911148 0.7527259
vt 0.1199307 0.7527259
vt 0.1199961 0.7526003
vt 0.1199961 0.7563678
vt 0.1199307 0.7564933
vt 0.1199307 0.7564933
vt 0.1199961 0.7563678
vt 0.1199307 0.7552375
vt 0.1199307 0.7552375
vt 0.1199961 0.7551119
vt 0.1199961 0.7551119
vt 0.03661147 0.7776871
vt 0.03661147 0.7776871
vt 0.03654602 0.7731659
vt 0.03654602 0.7731659
vt 0.03661147 0.7809528
vt 0.03661147 0.7809528
vt 0.03654602 0.7764317
vt 0.03654602 0.7764317
vn -0.9284771 0 0.3713896
vn -0.9284771 0 0.3713896
vn -0.9284771 0 0.3713896
vn -0.9284771 0 0.3713896
vn -0.9284771 0 0.3713896
vn -0.9284771 0 0.3713895
vn -0.9284771 0 0.3713895
vn -0.9284768 0 0.3713905
vn -0.9284768 0 0.3713905
vn -0.9284769 0 -0.37139
vn -0.9284769 0 -0.37139
vn -0.9284769 0 -0.37139
vn -0.9284771 0 -0.3713895
vn -0.9284771 0 -0.3713895
vn -0.9284771 0 -0.3713896
vn -0.9284771 0 -0.3713896
vn -0.9284771 0 -0.3713896
vn -0.9284771 0 -0.3713896
vn 6.45718E-07 -1 0
vn 6.45718E-07 -1 0
vn 6.45718E-07 -1 0
vn 6.45718E-07 -1 0
vn 0 0 1
vn 0 0 1
vn 0 0 1
vn 0 0 1
vn 0 0 -1
vn 0 0 -1
vn 0 0 -1
vn 0 0 -1
vn -1 0 0
vn -1 0 0
vn -1 0 0
vn -1 0 0
vn -1 0 -4.768368E-06
vn -1 0 -4.768368E-06
vn -1 0 -4.768368E-06
vn -1 0 -4.768368E-06
vn 0 1 0
vn 0 1 0
vn 0 1 0
vn 0 1 0
vn 1 0 0
vn 1 0 0
vn 1 0 0
vn 1 0 0
vn 1 1.192093E-07 1.589461E-06
vn 1 1.192093E-07 1.589461E-06
vn 1 1.192093E-07 1.589461E-06
vn 1 1.192093E-07 1.589461E-06
vn -0.9990138 0.0444006 0
vn -0.9990138 0.0444006 0
vn -0.9990138 0.0444006 0
vn -0.9990138 0.0444006 0
vn -0.9990138 0.0444006 0
vn -0.9990138 0.0444006 0
vn -0.9990138 0.0444006 0
vn -0.9990138 0.0444006 0
vn -0.9284768 -0.3713906 0
vn -0.9284768 -0.3713906 0
vn -0.9284768 -0.3713906 0
vn -0.9284768 -0.3713906 0
vn -0.9284771 -0.3713897 0
vn -0.9284771 -0.3713897 0
vn -0.9284771 -0.3713897 0
vn -0.9284771 -0.3713897 0
vn -0.9284768 -0.3713906 0
vn -0.9284768 -0.3713906 0
vn -0.9284768 -0.3713906 0
vn -0.9284768 -0.3713906 0
vn -0.9284768 -0.3713904 0
vn -0.9284768 -0.3713904 0
vn -0.9284768 -0.3713904 0
vn -0.9284768 -0.3713904 0
vn -0.9990138 0.0444006 0
vn -0.9990138 0.0444006 0
vn -0.9990138 0.0444006 0
vn -0.9990138 0.0444006 0
vn -0.9990138 0.0444006 0
vn -0.9990138 0.0444006 0
vn -0.9990138 0.0444006 0
vn -0.9990138 0.0444006 0
g TSP_House_Wall_Rail_02A_0
f 3/3/3 2/2/2 1/1/1
f 5/5/5 4/4/4 3/3/3
f 7/7/7 4/4/4 6/6/6
f 9/9/9 7/7/7 8/8/8
f 12/12/12 11/11/11 10/10/10
f 14/14/14 12/12/12 13/13/13
f 16/16/16 14/14/14 15/15/15
f 18/18/18 16/16/16 17/17/17
f 21/21/21 20/20/20 19/19/19
f 22/22/22 21/21/21 19/19/19
f 25/25/25 24/24/24 23/23/23
f 26/26/26 25/25/25 23/23/23
f 29/29/29 28/28/28 27/27/27
f 30/30/30 29/29/29 27/27/27
f 33/33/33 32/32/32 31/31/31
f 34/34/34 33/33/33 31/31/31
f 37/37/37 36/36/36 35/35/35
f 38/38/38 37/37/37 35/35/35
f 41/41/41 40/40/40 39/39/39
f 42/42/42 41/41/41 39/39/39
f 45/45/45 44/44/44 43/43/43
f 44/44/44 46/46/46 43/43/43
f 44/44/44 47/47/47 46/46/46
f 47/47/47 48/48/48 46/46/46
f 47/47/47 49/49/49 48/48/48
f 49/49/49 50/50/50 48/48/48
f 53/53/53 52/52/52 51/51/51
f 54/54/54 53/53/53 51/51/51
f 57/57/57 56/56/56 55/55/55
f 58/58/58 57/57/57 55/55/55
f 61/61/61 60/60/60 59/59/59
f 62/62/62 61/61/61 59/59/59
f 65/65/65 64/64/64 63/63/63
f 66/66/66 65/65/65 63/63/63
f 69/69/69 68/68/68 67/67/67
f 70/70/70 69/69/69 67/67/67
f 73/73/73 72/72/72 71/71/71
f 74/74/74 73/73/73 71/71/71
f 77/77/77 76/76/76 75/75/75
f 78/78/78 77/77/77 75/75/75
f 81/81/81 80/80/80 79/79/79
f 82/82/82 81/81/81 79/79/79
