g TSP_Ceiling_Fixture_02A_Lights
v -0.16 -0.1099999 -1
v -0.6974391 -0.1099999 -1
v -0.6974391 -0.1099999 0.9999999
v -0.16 -0.1099999 0.9999999
v -0.16 -0.1399999 0.9999999
v -0.16 -0.1949997 0.9999999
v -0.16 -0.1949997 -1
v -0.16 -0.1399999 -1
vt 0.2643925 0.1236649
vt 0.2590482 0.001108192
vt 0.3045643 0.001108192
vt 0.2992201 0.1236649
vt 0.2992201 0.1236649
vt 0.2992201 0.1236649
vt 0.2643925 0.1236649
vt 0.2643925 0.1236649
vn 0 -1 0
vn 0 -1 0
vn 0 -1 0
vn 0 -1 0
vn -1 0 0
vn -1 0 0
vn -1 0 0
vn -1 0 0
g TSP_Ceiling_Fixture_02A_Lights_0
f 3/3/3 2/2/2 1/1/1
f 4/4/4 3/3/3 1/1/1
f 7/7/7 6/6/6 5/5/5
f 8/8/8 7/7/7 5/5/5
