g TSP_Wall_Lamp_02A
v -0.175 1.758638 0.04136193
v -0.175 1.758638 -0.04136193
v -0.175 2.241362 -0.04136193
v -0.175 2.241362 0.04136193
v -0.175 1.75 -0.05000001
v 0 1.75 -0.05000001
v 0 2.25 -0.05000001
v -0.175 2.25 -0.05000001
v 0 1.75 -0.05000001
v 0 1.75 0.05000001
v 0 2.25 0.05000001
v 0 2.25 -0.05000001
v 0 1.75 0.05000001
v -0.175 1.75 0.05000001
v -0.175 2.25 0.05000001
v 0 2.25 0.05000001
v -0.175 1.75 -0.05000001
v -0.175 1.75 0.05000001
v 0 1.75 0.05000001
v 0 1.75 -0.05000001
v 0 2.25 -0.05000001
v 0 2.25 0.05000001
v -0.175 2.25 0.05000001
v -0.175 2.25 -0.05000001
v -0.175 1.758638 0.04136193
v -0.175 1.75 0.05000001
v -0.175 1.75 -0.05000001
v -0.175 1.758638 -0.04136193
v -0.175 2.241362 0.04136193
v -0.175 2.25 -0.05000001
v -0.175 2.25 0.05000001
v -0.175 2.241362 -0.04136193
vt 0.08160242 0.6884671
vt 0.076828 0.6884671
vt 0.076828 0.6953317
vt 0.08160242 0.6953317
vt 0.07632945 0.6941424
vt 0.07632945 0.6941424
vt 0.07632945 0.723
vt 0.07632945 0.723
vt 0.07632945 0.6941424
vt 0.08210097 0.6941424
vt 0.08210097 0.723
vt 0.07632945 0.723
vt 0.08210097 0.6941424
vt 0.08210097 0.6941424
vt 0.08210097 0.723
vt 0.08210097 0.723
vt 0.07632945 0.6902362
vt 0.08210097 0.6902362
vt 0.08210097 0.6902362
vt 0.07632945 0.6902362
vt 0.07632945 0.7308125
vt 0.08210097 0.7308125
vt 0.08210097 0.7308125
vt 0.07632945 0.7308125
vt 0.08040881 0.7016062
vt 0.08065809 0.7013568
vt 0.07777233 0.7013568
vt 0.0780216 0.7016062
vt 0.08040881 0.7155364
vt 0.07777233 0.7157856
vt 0.08065809 0.7157856
vt 0.0780216 0.7155364
vn -1 0 0
vn -1 0 0
vn -1 0 0
vn -1 0 0
vn 0 0 -1
vn 0 0 -1
vn 0 0 -1
vn 0 0 -1
vn 1 0 0
vn 1 0 0
vn 1 0 0
vn 1 0 0
vn 0 0 1
vn 0 0 1
vn 0 0 1
vn 0 0 1
vn 0 -1 0
vn 0 -1 0
vn 0 -1 0
vn 0 -1 0
vn 0 1 0
vn 0 1 0
vn 0 1 0
vn 0 1 0
vn -1 0 0
vn -1 0 0
vn -1 0 0
vn -1 0 0
vn -1 0 0
vn -1 0 0
vn -1 0 0
vn -1 0 0
g TSP_Wall_Lamp_02A_0
f 3/3/3 2/2/2 1/1/1
f 4/4/4 3/3/3 1/1/1
f 7/7/7 6/6/6 5/5/5
f 8/8/8 7/7/7 5/5/5
f 11/11/11 10/10/10 9/9/9
f 12/12/12 11/11/11 9/9/9
f 15/15/15 14/14/14 13/13/13
f 16/16/16 15/15/15 13/13/13
f 19/19/19 18/18/18 17/17/17
f 20/20/20 19/19/19 17/17/17
f 23/23/23 22/22/22 21/21/21
f 24/24/24 23/23/23 21/21/21
f 27/27/27 26/26/26 25/25/25
f 28/28/28 27/27/27 25/25/25
f 25/25/25 26/26/26 29/29/29
f 30/30/30 27/27/27 28/28/28
f 26/26/26 31/31/31 29/29/29
f 32/32/32 30/30/30 28/28/28
f 29/29/29 31/31/31 32/32/32
f 31/31/31 30/30/30 32/32/32
