g TSP_House_Wall_Short_11A_Blinds
v -0.1568899 0.7280502 1.85
v -0.03599024 0.8139663 1.075
v -0.03599024 0.8139663 1.85
v -0.1568899 0.7280502 1.075
v -0.1529405 0.7014184 1.85
v -0.1529405 0.7014184 1.075
v -0.1568899 0.9367783 1.85
v -0.03599024 1.022695 1.075
v -0.03599024 1.022695 1.85
v -0.1568899 0.9367783 1.075
v -0.1529405 0.9101465 1.85
v -0.1529405 0.9101465 1.075
v -0.1568899 1.145506 1.85
v -0.03599024 1.231422 1.075
v -0.03599024 1.231422 1.85
v -0.1568899 1.145506 1.075
v -0.1529405 1.118875 1.85
v -0.1529405 1.118875 1.075
v -0.1568899 1.354235 1.85
v -0.03599024 1.44015 1.075
v -0.03599024 1.44015 1.85
v -0.1568899 1.354235 1.075
v -0.1529405 1.327602 1.85
v -0.1529405 1.327602 1.075
v -0.1568899 1.562963 1.85
v -0.03599024 1.648878 1.075
v -0.03599024 1.648878 1.85
v -0.1568899 1.562963 1.075
v -0.1529405 1.536331 1.85
v -0.1529405 1.536331 1.075
v -0.1568899 1.77169 1.85
v -0.03599024 1.857606 1.075
v -0.03599024 1.857606 1.85
v -0.1568899 1.77169 1.075
v -0.1529405 1.745059 1.85
v -0.1529405 1.745059 1.075
v -0.1568899 1.980418 1.85
v -0.03599024 2.066334 1.075
v -0.03599024 2.066334 1.85
v -0.1568899 1.980418 1.075
v -0.1529405 1.953786 1.85
v -0.1529405 1.953786 1.075
v -0.1568899 2.189147 1.85
v -0.03599024 2.275063 1.075
v -0.03599024 2.275062 1.85
v -0.1568899 2.189147 1.075
v -0.1529405 2.162515 1.85
v -0.1529405 2.162515 1.075
v -0.1529405 1.118875 1.85
v -0.03599024 1.231422 1.85
v -0.03599024 1.231422 1.075
v -0.1529405 1.118875 1.075
v -0.1529405 0.9101465 1.85
v -0.03599024 1.022695 1.85
v -0.03599024 1.022695 1.075
v -0.1529405 0.9101465 1.075
v -0.1529405 0.7014184 1.85
v -0.03599024 0.8139663 1.85
v -0.03599024 0.8139663 1.075
v -0.1529405 0.7014184 1.075
v -0.1529405 1.327602 1.85
v -0.03599024 1.44015 1.85
v -0.03599024 1.44015 1.075
v -0.1529405 1.327602 1.075
v -0.1529405 1.536331 1.85
v -0.03599024 1.648878 1.85
v -0.03599024 1.648878 1.075
v -0.1529405 1.536331 1.075
v -0.1529405 1.745059 1.85
v -0.03599024 1.857606 1.85
v -0.03599024 1.857606 1.075
v -0.1529405 1.745059 1.075
v -0.1529405 1.953786 1.85
v -0.03599024 2.066334 1.85
v -0.03599024 2.066334 1.075
v -0.1529405 1.953786 1.075
v -0.1529405 2.162515 1.85
v -0.03599024 2.275062 1.85
v -0.03599024 2.275063 1.075
v -0.1529405 2.162515 1.075
v -0.1568899 0.7280502 -1.074999
v -0.03599024 0.8139663 -1.85
v -0.03599024 0.8139663 -1.074999
v -0.1568899 0.7280502 -1.85
v -0.1529405 0.7014184 -1.074999
v -0.1529405 0.7014184 -1.85
v -0.1568899 0.9367783 -1.074999
v -0.03599024 1.022695 -1.85
v -0.03599024 1.022695 -1.074999
v -0.1568899 0.9367783 -1.85
v -0.1529405 0.9101465 -1.074999
v -0.1529405 0.9101465 -1.85
v -0.1568899 1.145506 -1.074999
v -0.03599024 1.231422 -1.85
v -0.03599024 1.231422 -1.074999
v -0.1568899 1.145506 -1.85
v -0.1529405 1.118875 -1.074999
v -0.1529405 1.118875 -1.85
v -0.1568899 1.354235 -1.074999
v -0.03599024 1.44015 -1.85
v -0.03599024 1.44015 -1.074999
v -0.1568899 1.354235 -1.85
v -0.1529405 1.327602 -1.074999
v -0.1529405 1.327602 -1.85
v -0.1568899 1.562963 -1.074999
v -0.03599024 1.648878 -1.85
v -0.03599024 1.648878 -1.074999
v -0.1568899 1.562963 -1.85
v -0.1529405 1.536331 -1.074999
v -0.1529405 1.536331 -1.85
v -0.1568899 1.77169 -1.074999
v -0.03599024 1.857606 -1.85
v -0.03599024 1.857606 -1.074999
v -0.1568899 1.77169 -1.85
v -0.1529405 1.745059 -1.074999
v -0.1529405 1.745059 -1.85
v -0.1568899 1.980418 -1.074999
v -0.03599024 2.066334 -1.85
v -0.03599024 2.066334 -1.074999
v -0.1568899 1.980418 -1.85
v -0.1529405 1.953786 -1.074999
v -0.1529405 1.953786 -1.85
v -0.1568899 2.189147 -1.074999
v -0.03599024 2.275063 -1.85
v -0.03599024 2.275062 -1.074999
v -0.1568899 2.189147 -1.85
v -0.1529405 2.162515 -1.074999
v -0.1529405 2.162515 -1.85
v -0.1529405 1.118875 -1.074999
v -0.03599024 1.231422 -1.074999
v -0.03599024 1.231422 -1.85
v -0.1529405 1.118875 -1.85
v -0.1529405 0.9101465 -1.074999
v -0.03599024 1.022695 -1.074999
v -0.03599024 1.022695 -1.85
v -0.1529405 0.9101465 -1.85
v -0.1529405 0.7014184 -1.074999
v -0.03599024 0.8139663 -1.074999
v -0.03599024 0.8139663 -1.85
v -0.1529405 0.7014184 -1.85
v -0.1529405 1.327602 -1.074999
v -0.03599024 1.44015 -1.074999
v -0.03599024 1.44015 -1.85
v -0.1529405 1.327602 -1.85
v -0.1529405 1.536331 -1.074999
v -0.03599024 1.648878 -1.074999
v -0.03599024 1.648878 -1.85
v -0.1529405 1.536331 -1.85
v -0.1529405 1.745059 -1.074999
v -0.03599024 1.857606 -1.074999
v -0.03599024 1.857606 -1.85
v -0.1529405 1.745059 -1.85
v -0.1529405 1.953786 -1.074999
v -0.03599024 2.066334 -1.074999
v -0.03599024 2.066334 -1.85
v -0.1529405 1.953786 -1.85
v -0.1529405 2.162515 -1.074999
v -0.03599024 2.275062 -1.074999
v -0.03599024 2.275063 -1.85
v -0.1529405 2.162515 -1.85
v -0.1568899 2.397846 -1.074999
v -0.03599024 2.483763 -1.85
v -0.03599024 2.483762 -1.074999
v -0.1568899 2.397846 -1.85
v -0.1529405 2.371215 -1.074999
v -0.1529405 2.371215 -1.85
v -0.1529405 2.371215 -1.074999
v -0.03599024 2.483762 -1.074999
v -0.03599024 2.483763 -1.85
v -0.1529405 2.371215 -1.85
v -0.1568899 2.606546 -1.074999
v -0.03599024 2.692462 -1.85
v -0.03599024 2.692462 -1.074999
v -0.1568899 2.606546 -1.85
v -0.1529405 2.579915 -1.074999
v -0.1529405 2.579915 -1.85
v -0.1529405 2.579915 -1.074999
v -0.03599024 2.692462 -1.074999
v -0.03599024 2.692462 -1.85
v -0.1529405 2.579915 -1.85
v -0.1568899 2.397846 1.85
v -0.03599024 2.483763 1.075
v -0.03599024 2.483762 1.85
v -0.1568899 2.397846 1.075
v -0.1529405 2.371215 1.85
v -0.1529405 2.371215 1.075
v -0.1529405 2.371215 1.85
v -0.03599024 2.483762 1.85
v -0.03599024 2.483763 1.075
v -0.1529405 2.371215 1.075
v -0.1568899 2.606546 1.85
v -0.03599024 2.692462 1.075
v -0.03599024 2.692462 1.85
v -0.1568899 2.606546 1.075
v -0.1529405 2.579915 1.85
v -0.1529405 2.579915 1.075
v -0.1529405 2.579915 1.85
v -0.03599024 2.692462 1.85
v -0.03599024 2.692462 1.075
v -0.1529405 2.579915 1.075
v -0.1568899 0.5193502 1.85
v -0.03599024 0.6052663 1.075
v -0.03599024 0.6052663 1.85
v -0.1568899 0.5193502 1.075
v -0.1529405 0.4927184 1.85
v -0.1529405 0.4927184 1.075
v -0.1529405 0.4927184 1.85
v -0.03599024 0.6052663 1.85
v -0.03599024 0.6052663 1.075
v -0.1529405 0.4927184 1.075
v -0.1568899 0.5193502 -1.074999
v -0.03599024 0.6052663 -1.85
v -0.03599024 0.6052663 -1.074999
v -0.1568899 0.5193502 -1.85
v -0.1529405 0.4927184 -1.074999
v -0.1529405 0.4927184 -1.85
v -0.1529405 0.4927184 -1.074999
v -0.03599024 0.6052663 -1.074999
v -0.03599024 0.6052663 -1.85
v -0.1529405 0.4927184 -1.85
v -0.1568899 0.3106502 1.85
v -0.03599024 0.3965663 1.075
v -0.03599024 0.3965663 1.85
v -0.1568899 0.3106502 1.075
v -0.1529405 0.2840184 1.85
v -0.1529405 0.2840184 1.075
v -0.1529405 0.2840184 1.85
v -0.03599024 0.3965663 1.85
v -0.03599024 0.3965663 1.075
v -0.1529405 0.2840184 1.075
v -0.1568899 0.3106502 -1.074999
v -0.03599024 0.3965663 -1.85
v -0.03599024 0.3965663 -1.074999
v -0.1568899 0.3106502 -1.85
v -0.1529405 0.2840184 -1.074999
v -0.1529405 0.2840184 -1.85
v -0.1529405 0.2840184 -1.074999
v -0.03599024 0.3965663 -1.074999
v -0.03599024 0.3965663 -1.85
v -0.1529405 0.2840184 -1.85
vt 0.1999028 0.7116115
vt 0.2085503 0.6970312
vt 0.2085503 0.6970312
vt 0.1999028 0.7116115
vt 0.1958117 0.7138935
vt 0.1958117 0.7138935
vt 0.1999034 0.7130662
vt 0.2085491 0.6984869
vt 0.2085491 0.6984869
vt 0.1999034 0.7130662
vt 0.1958122 0.7153482
vt 0.1958122 0.7153482
vt 0.1999034 0.714521
vt 0.2085491 0.6999417
vt 0.2085491 0.6999417
vt 0.1999034 0.714521
vt 0.1958122 0.716803
vt 0.1958122 0.716803
vt 0.1999037 0.7159756
vt 0.2085495 0.7013964
vt 0.2085495 0.7013964
vt 0.1999037 0.7159756
vt 0.195811 0.7182588
vt 0.195811 0.7182588
vt 0.1999034 0.7174305
vt 0.2085491 0.7028512
vt 0.2085491 0.7028512
vt 0.1999034 0.7174305
vt 0.1958122 0.7197126
vt 0.1958122 0.7197126
vt 0.1999034 0.7188854
vt 0.2085491 0.7043061
vt 0.2085491 0.7043061
vt 0.1999034 0.7188854
vt 0.1958122 0.7211674
vt 0.1958122 0.7211674
vt 0.1999029 0.7203395
vt 0.2085504 0.7057591
vt 0.2085504 0.7057591
vt 0.1999029 0.7203395
vt 0.1958118 0.7226215
vt 0.1958118 0.7226215
vt 0.1999034 0.7217949
vt 0.2085491 0.7072156
vt 0.2085491 0.7072156
vt 0.1999034 0.7217949
vt 0.1958122 0.7240769
vt 0.1958122 0.7240769
vt 0.1958122 0.707052
vt 0.2085491 0.6949336
vt 0.2085491 0.6949336
vt 0.1958122 0.707052
vt 0.1958122 0.7055972
vt 0.2085491 0.6934788
vt 0.2085491 0.6934788
vt 0.1958122 0.7055972
vt 0.1958117 0.7041424
vt 0.2085503 0.6920233
vt 0.2085503 0.6920233
vt 0.1958117 0.7041424
vt 0.195811 0.7085077
vt 0.2085495 0.6963885
vt 0.2085495 0.6963885
vt 0.195811 0.7085077
vt 0.1958122 0.7099616
vt 0.2085491 0.6978431
vt 0.2085491 0.6978431
vt 0.1958122 0.7099616
vt 0.1958122 0.7114164
vt 0.2085491 0.699298
vt 0.2085491 0.699298
vt 0.1958122 0.7114164
vt 0.1958118 0.7128704
vt 0.2085504 0.7007512
vt 0.2085504 0.7007512
vt 0.1958118 0.7128704
vt 0.1958122 0.714326
vt 0.2085491 0.7022075
vt 0.2085491 0.7022075
vt 0.1958122 0.714326
vt 0.1999028 0.7116115
vt 0.2085503 0.6970312
vt 0.2085503 0.6970312
vt 0.1999028 0.7116115
vt 0.1958117 0.7138935
vt 0.1958117 0.7138935
vt 0.1999034 0.7130662
vt 0.2085491 0.6984869
vt 0.2085491 0.6984869
vt 0.1999034 0.7130662
vt 0.1958122 0.7153482
vt 0.1958122 0.7153482
vt 0.1999034 0.714521
vt 0.2085491 0.6999417
vt 0.2085491 0.6999417
vt 0.1999034 0.714521
vt 0.1958122 0.716803
vt 0.1958122 0.716803
vt 0.1999037 0.7159756
vt 0.2085495 0.7013964
vt 0.2085495 0.7013964
vt 0.1999037 0.7159756
vt 0.195811 0.7182588
vt 0.195811 0.7182588
vt 0.1999034 0.7174305
vt 0.2085491 0.7028512
vt 0.2085491 0.7028512
vt 0.1999034 0.7174305
vt 0.1958122 0.7197126
vt 0.1958122 0.7197126
vt 0.1999034 0.7188854
vt 0.2085491 0.7043061
vt 0.2085491 0.7043061
vt 0.1999034 0.7188854
vt 0.1958122 0.7211674
vt 0.1958122 0.7211674
vt 0.1999029 0.7203395
vt 0.2085504 0.7057591
vt 0.2085504 0.7057591
vt 0.1999029 0.7203395
vt 0.1958118 0.7226215
vt 0.1958118 0.7226215
vt 0.1999034 0.7217949
vt 0.2085491 0.7072156
vt 0.2085491 0.7072156
vt 0.1999034 0.7217949
vt 0.1958122 0.7240769
vt 0.1958122 0.7240769
vt 0.1958122 0.707052
vt 0.2085491 0.6949336
vt 0.2085491 0.6949336
vt 0.1958122 0.707052
vt 0.1958122 0.7055972
vt 0.2085491 0.6934788
vt 0.2085491 0.6934788
vt 0.1958122 0.7055972
vt 0.1958117 0.7041424
vt 0.2085503 0.6920233
vt 0.2085503 0.6920233
vt 0.1958117 0.7041424
vt 0.195811 0.7085077
vt 0.2085495 0.6963885
vt 0.2085495 0.6963885
vt 0.195811 0.7085077
vt 0.1958122 0.7099616
vt 0.2085491 0.6978431
vt 0.2085491 0.6978431
vt 0.1958122 0.7099616
vt 0.1958122 0.7114164
vt 0.2085491 0.699298
vt 0.2085491 0.699298
vt 0.1958122 0.7114164
vt 0.1958118 0.7128704
vt 0.2085504 0.7007512
vt 0.2085504 0.7007512
vt 0.1958118 0.7128704
vt 0.1958122 0.714326
vt 0.2085491 0.7022075
vt 0.2085491 0.7022075
vt 0.1958122 0.714326
vt 0.1999034 0.7217949
vt 0.2085491 0.7072156
vt 0.2085491 0.7072156
vt 0.1999034 0.7217949
vt 0.1958122 0.7240769
vt 0.1958122 0.7240769
vt 0.1958122 0.714326
vt 0.2085491 0.7022075
vt 0.2085491 0.7022075
vt 0.1958122 0.714326
vt 0.1999034 0.7217949
vt 0.2085491 0.7072156
vt 0.2085491 0.7072156
vt 0.1999034 0.7217949
vt 0.1958122 0.7240769
vt 0.1958122 0.7240769
vt 0.1958122 0.714326
vt 0.2085491 0.7022075
vt 0.2085491 0.7022075
vt 0.1958122 0.714326
vt 0.1999034 0.7217949
vt 0.2085491 0.7072156
vt 0.2085491 0.7072156
vt 0.1999034 0.7217949
vt 0.1958122 0.7240769
vt 0.1958122 0.7240769
vt 0.1958122 0.714326
vt 0.2085491 0.7022075
vt 0.2085491 0.7022075
vt 0.1958122 0.714326
vt 0.1999034 0.7217949
vt 0.2085491 0.7072156
vt 0.2085491 0.7072156
vt 0.1999034 0.7217949
vt 0.1958122 0.7240769
vt 0.1958122 0.7240769
vt 0.1958122 0.714326
vt 0.2085491 0.7022075
vt 0.2085491 0.7022075
vt 0.1958122 0.714326
vt 0.1999028 0.7116115
vt 0.2085503 0.6970312
vt 0.2085503 0.6970312
vt 0.1999028 0.7116115
vt 0.1958117 0.7138935
vt 0.1958117 0.7138935
vt 0.1958117 0.7041424
vt 0.2085503 0.6920233
vt 0.2085503 0.6920233
vt 0.1958117 0.7041424
vt 0.1999028 0.7116115
vt 0.2085503 0.6970312
vt 0.2085503 0.6970312
vt 0.1999028 0.7116115
vt 0.1958117 0.7138935
vt 0.1958117 0.7138935
vt 0.1958117 0.7041424
vt 0.2085503 0.6920233
vt 0.2085503 0.6920233
vt 0.1958117 0.7041424
vt 0.1999028 0.7116115
vt 0.2085503 0.6970312
vt 0.2085503 0.6970312
vt 0.1999028 0.7116115
vt 0.1958117 0.7138935
vt 0.1958117 0.7138935
vt 0.1958117 0.7041424
vt 0.2085503 0.6920233
vt 0.2085503 0.6920233
vt 0.1958117 0.7041424
vt 0.1999028 0.7116115
vt 0.2085503 0.6970312
vt 0.2085503 0.6970312
vt 0.1999028 0.7116115
vt 0.1958117 0.7138935
vt 0.1958117 0.7138935
vt 0.1958117 0.7041424
vt 0.2085503 0.6920233
vt 0.2085503 0.6920233
vt 0.1958117 0.7041424
vn -0.9199435 0.392051 0
vn -0.579259 0.8151436 0
vn -0.579259 0.8151436 0
vn -0.9199435 0.392051 0
vn -0.9891847 -0.1466748 0
vn -0.9891847 -0.1466748 0
vn -0.9199435 0.392051 0
vn -0.579259 0.8151436 0
vn -0.579259 0.8151436 0
vn -0.9199435 0.392051 0
vn -0.9891847 -0.1466748 0
vn -0.9891847 -0.1466748 0
vn -0.9199435 0.392051 0
vn -0.579259 0.8151436 0
vn -0.579259 0.8151436 0
vn -0.9199435 0.392051 0
vn -0.9891847 -0.1466748 0
vn -0.9891847 -0.1466748 0
vn -0.9199435 0.392051 0
vn -0.579259 0.8151436 0
vn -0.579259 0.8151436 0
vn -0.9199435 0.392051 0
vn -0.9891847 -0.1466748 0
vn -0.9891847 -0.1466748 0
vn -0.9199435 0.392051 0
vn -0.579259 0.8151436 0
vn -0.579259 0.8151436 0
vn -0.9199435 0.392051 0
vn -0.9891847 -0.1466748 0
vn -0.9891847 -0.1466748 0
vn -0.9199435 0.392051 0
vn -0.579259 0.8151436 0
vn -0.579259 0.8151436 0
vn -0.9199435 0.392051 0
vn -0.9891847 -0.1466748 0
vn -0.9891847 -0.1466748 0
vn -0.9199435 0.392051 0
vn -0.579259 0.8151436 0
vn -0.579259 0.8151436 0
vn -0.9199435 0.392051 0
vn -0.9891847 -0.1466748 0
vn -0.9891847 -0.1466748 0
vn -0.9199435 0.392051 0
vn -0.579259 0.8151436 0
vn -0.579259 0.8151436 0
vn -0.9199435 0.392051 0
vn -0.9891847 -0.1466748 0
vn -0.9891847 -0.1466748 0
vn 0.6934264 -0.7205274 0
vn 0.6934264 -0.7205274 0
vn 0.6934264 -0.7205274 0
vn 0.6934264 -0.7205274 0
vn 0.6934264 -0.7205274 0
vn 0.6934264 -0.7205274 0
vn 0.6934264 -0.7205274 0
vn 0.6934264 -0.7205274 0
vn 0.6934264 -0.7205274 0
vn 0.6934264 -0.7205274 0
vn 0.6934264 -0.7205274 0
vn 0.6934264 -0.7205274 0
vn 0.6934264 -0.7205274 0
vn 0.6934264 -0.7205274 0
vn 0.6934264 -0.7205274 0
vn 0.6934264 -0.7205274 0
vn 0.6934264 -0.7205274 0
vn 0.6934264 -0.7205274 0
vn 0.6934264 -0.7205274 0
vn 0.6934264 -0.7205274 0
vn 0.6934264 -0.7205274 0
vn 0.6934264 -0.7205274 0
vn 0.6934264 -0.7205274 0
vn 0.6934264 -0.7205274 0
vn 0.6934264 -0.7205274 0
vn 0.6934264 -0.7205274 0
vn 0.6934264 -0.7205274 0
vn 0.6934264 -0.7205274 0
vn 0.6934264 -0.7205274 0
vn 0.6934264 -0.7205274 0
vn 0.6934264 -0.7205274 0
vn 0.6934264 -0.7205274 0
vn -0.9199435 0.392051 0
vn -0.579259 0.8151436 0
vn -0.579259 0.8151436 0
vn -0.9199435 0.392051 0
vn -0.9891847 -0.1466748 0
vn -0.9891847 -0.1466748 0
vn -0.9199435 0.392051 0
vn -0.579259 0.8151436 0
vn -0.579259 0.8151436 0
vn -0.9199435 0.392051 0
vn -0.9891847 -0.1466748 0
vn -0.9891847 -0.1466748 0
vn -0.9199435 0.392051 0
vn -0.579259 0.8151436 0
vn -0.579259 0.8151436 0
vn -0.9199435 0.392051 0
vn -0.9891847 -0.1466748 0
vn -0.9891847 -0.1466748 0
vn -0.9199435 0.392051 0
vn -0.579259 0.8151436 0
vn -0.579259 0.8151436 0
vn -0.9199435 0.392051 0
vn -0.9891847 -0.1466748 0
vn -0.9891847 -0.1466748 0
vn -0.9199435 0.392051 0
vn -0.579259 0.8151436 0
vn -0.579259 0.8151436 0
vn -0.9199435 0.392051 0
vn -0.9891847 -0.1466748 0
vn -0.9891847 -0.1466748 0
vn -0.9199435 0.392051 0
vn -0.579259 0.8151436 0
vn -0.579259 0.8151436 0
vn -0.9199435 0.392051 0
vn -0.9891847 -0.1466748 0
vn -0.9891847 -0.1466748 0
vn -0.9199435 0.392051 0
vn -0.579259 0.8151436 0
vn -0.579259 0.8151436 0
vn -0.9199435 0.392051 0
vn -0.9891847 -0.1466748 0
vn -0.9891847 -0.1466748 0
vn -0.9199435 0.392051 0
vn -0.579259 0.8151436 0
vn -0.579259 0.8151436 0
vn -0.9199435 0.392051 0
vn -0.9891847 -0.1466748 0
vn -0.9891847 -0.1466748 0
vn 0.6934264 -0.7205274 0
vn 0.6934264 -0.7205274 0
vn 0.6934264 -0.7205274 0
vn 0.6934264 -0.7205274 0
vn 0.6934264 -0.7205274 0
vn 0.6934264 -0.7205274 0
vn 0.6934264 -0.7205274 0
vn 0.6934264 -0.7205274 0
vn 0.6934264 -0.7205274 0
vn 0.6934264 -0.7205274 0
vn 0.6934264 -0.7205274 0
vn 0.6934264 -0.7205274 0
vn 0.6934264 -0.7205274 0
vn 0.6934264 -0.7205274 0
vn 0.6934264 -0.7205274 0
vn 0.6934264 -0.7205274 0
vn 0.6934264 -0.7205274 0
vn 0.6934264 -0.7205274 0
vn 0.6934264 -0.7205274 0
vn 0.6934264 -0.7205274 0
vn 0.6934264 -0.7205274 0
vn 0.6934264 -0.7205274 0
vn 0.6934264 -0.7205274 0
vn 0.6934264 -0.7205274 0
vn 0.6934264 -0.7205274 0
vn 0.6934264 -0.7205274 0
vn 0.6934264 -0.7205274 0
vn 0.6934264 -0.7205274 0
vn 0.6934264 -0.7205274 0
vn 0.6934264 -0.7205274 0
vn 0.6934264 -0.7205274 0
vn 0.6934264 -0.7205274 0
vn -0.9199435 0.392051 0
vn -0.579259 0.8151436 0
vn -0.579259 0.8151436 0
vn -0.9199435 0.392051 0
vn -0.9891847 -0.1466748 0
vn -0.9891847 -0.1466748 0
vn 0.6934264 -0.7205274 0
vn 0.6934264 -0.7205274 0
vn 0.6934264 -0.7205274 0
vn 0.6934264 -0.7205274 0
vn -0.9199435 0.392051 0
vn -0.579259 0.8151436 0
vn -0.579259 0.8151436 0
vn -0.9199435 0.392051 0
vn -0.9891847 -0.1466748 0
vn -0.9891847 -0.1466748 0
vn 0.6934264 -0.7205274 0
vn 0.6934264 -0.7205274 0
vn 0.6934264 -0.7205274 0
vn 0.6934264 -0.7205274 0
vn -0.9199435 0.392051 0
vn -0.579259 0.8151436 0
vn -0.579259 0.8151436 0
vn -0.9199435 0.392051 0
vn -0.9891847 -0.1466748 0
vn -0.9891847 -0.1466748 0
vn 0.6934264 -0.7205274 0
vn 0.6934264 -0.7205274 0
vn 0.6934264 -0.7205274 0
vn 0.6934264 -0.7205274 0
vn -0.9199435 0.392051 0
vn -0.579259 0.8151436 0
vn -0.579259 0.8151436 0
vn -0.9199435 0.392051 0
vn -0.9891847 -0.1466748 0
vn -0.9891847 -0.1466748 0
vn 0.6934264 -0.7205274 0
vn 0.6934264 -0.7205274 0
vn 0.6934264 -0.7205274 0
vn 0.6934264 -0.7205274 0
vn -0.9199435 0.392051 0
vn -0.579259 0.8151436 0
vn -0.579259 0.8151436 0
vn -0.9199435 0.392051 0
vn -0.9891847 -0.1466748 0
vn -0.9891847 -0.1466748 0
vn 0.6934264 -0.7205274 0
vn 0.6934264 -0.7205274 0
vn 0.6934264 -0.7205274 0
vn 0.6934264 -0.7205274 0
vn -0.9199435 0.392051 0
vn -0.579259 0.8151436 0
vn -0.579259 0.8151436 0
vn -0.9199435 0.392051 0
vn -0.9891847 -0.1466748 0
vn -0.9891847 -0.1466748 0
vn 0.6934264 -0.7205274 0
vn 0.6934264 -0.7205274 0
vn 0.6934264 -0.7205274 0
vn 0.6934264 -0.7205274 0
vn -0.9199435 0.392051 0
vn -0.579259 0.8151436 0
vn -0.579259 0.8151436 0
vn -0.9199435 0.392051 0
vn -0.9891847 -0.1466748 0
vn -0.9891847 -0.1466748 0
vn 0.6934264 -0.7205274 0
vn 0.6934264 -0.7205274 0
vn 0.6934264 -0.7205274 0
vn 0.6934264 -0.7205274 0
vn -0.9199435 0.392051 0
vn -0.579259 0.8151436 0
vn -0.579259 0.8151436 0
vn -0.9199435 0.392051 0
vn -0.9891847 -0.1466748 0
vn -0.9891847 -0.1466748 0
vn 0.6934264 -0.7205274 0
vn 0.6934264 -0.7205274 0
vn 0.6934264 -0.7205274 0
vn 0.6934264 -0.7205274 0
g TSP_House_Wall_Short_11A_Blinds_0
f 3/3/3 2/2/2 1/1/1
f 2/2/2 4/4/4 1/1/1
f 5/5/5 1/1/1 4/4/4
f 6/6/6 5/5/5 4/4/4
f 9/9/9 8/8/8 7/7/7
f 8/8/8 10/10/10 7/7/7
f 11/11/11 7/7/7 10/10/10
f 12/12/12 11/11/11 10/10/10
f 15/15/15 14/14/14 13/13/13
f 14/14/14 16/16/16 13/13/13
f 17/17/17 13/13/13 16/16/16
f 18/18/18 17/17/17 16/16/16
f 21/21/21 20/20/20 19/19/19
f 20/20/20 22/22/22 19/19/19
f 23/23/23 19/19/19 22/22/22
f 24/24/24 23/23/23 22/22/22
f 27/27/27 26/26/26 25/25/25
f 26/26/26 28/28/28 25/25/25
f 29/29/29 25/25/25 28/28/28
f 30/30/30 29/29/29 28/28/28
f 33/33/33 32/32/32 31/31/31
f 32/32/32 34/34/34 31/31/31
f 35/35/35 31/31/31 34/34/34
f 36/36/36 35/35/35 34/34/34
f 39/39/39 38/38/38 37/37/37
f 38/38/38 40/40/40 37/37/37
f 41/41/41 37/37/37 40/40/40
f 42/42/42 41/41/41 40/40/40
f 45/45/45 44/44/44 43/43/43
f 44/44/44 46/46/46 43/43/43
f 47/47/47 43/43/43 46/46/46
f 48/48/48 47/47/47 46/46/46
f 51/51/51 50/50/50 49/49/49
f 52/52/52 51/51/51 49/49/49
f 55/55/55 54/54/54 53/53/53
f 56/56/56 55/55/55 53/53/53
f 59/59/59 58/58/58 57/57/57
f 60/60/60 59/59/59 57/57/57
f 63/63/63 62/62/62 61/61/61
f 64/64/64 63/63/63 61/61/61
f 67/67/67 66/66/66 65/65/65
f 68/68/68 67/67/67 65/65/65
f 71/71/71 70/70/70 69/69/69
f 72/72/72 71/71/71 69/69/69
f 75/75/75 74/74/74 73/73/73
f 76/76/76 75/75/75 73/73/73
f 79/79/79 78/78/78 77/77/77
f 80/80/80 79/79/79 77/77/77
f 83/83/83 82/82/82 81/81/81
f 82/82/82 84/84/84 81/81/81
f 85/85/85 81/81/81 84/84/84
f 86/86/86 85/85/85 84/84/84
f 89/89/89 88/88/88 87/87/87
f 88/88/88 90/90/90 87/87/87
f 91/91/91 87/87/87 90/90/90
f 92/92/92 91/91/91 90/90/90
f 95/95/95 94/94/94 93/93/93
f 94/94/94 96/96/96 93/93/93
f 97/97/97 93/93/93 96/96/96
f 98/98/98 97/97/97 96/96/96
f 101/101/101 100/100/100 99/99/99
f 100/100/100 102/102/102 99/99/99
f 103/103/103 99/99/99 102/102/102
f 104/104/104 103/103/103 102/102/102
f 107/107/107 106/106/106 105/105/105
f 106/106/106 108/108/108 105/105/105
f 109/109/109 105/105/105 108/108/108
f 110/110/110 109/109/109 108/108/108
f 113/113/113 112/112/112 111/111/111
f 112/112/112 114/114/114 111/111/111
f 115/115/115 111/111/111 114/114/114
f 116/116/116 115/115/115 114/114/114
f 119/119/119 118/118/118 117/117/117
f 118/118/118 120/120/120 117/117/117
f 121/121/121 117/117/117 120/120/120
f 122/122/122 121/121/121 120/120/120
f 125/125/125 124/124/124 123/123/123
f 124/124/124 126/126/126 123/123/123
f 127/127/127 123/123/123 126/126/126
f 128/128/128 127/127/127 126/126/126
f 131/131/131 130/130/130 129/129/129
f 132/132/132 131/131/131 129/129/129
f 135/135/135 134/134/134 133/133/133
f 136/136/136 135/135/135 133/133/133
f 139/139/139 138/138/138 137/137/137
f 140/140/140 139/139/139 137/137/137
f 143/143/143 142/142/142 141/141/141
f 144/144/144 143/143/143 141/141/141
f 147/147/147 146/146/146 145/145/145
f 148/148/148 147/147/147 145/145/145
f 151/151/151 150/150/150 149/149/149
f 152/152/152 151/151/151 149/149/149
f 155/155/155 154/154/154 153/153/153
f 156/156/156 155/155/155 153/153/153
f 159/159/159 158/158/158 157/157/157
f 160/160/160 159/159/159 157/157/157
f 163/163/163 162/162/162 161/161/161
f 162/162/162 164/164/164 161/161/161
f 165/165/165 161/161/161 164/164/164
f 166/166/166 165/165/165 164/164/164
f 169/169/169 168/168/168 167/167/167
f 170/170/170 169/169/169 167/167/167
f 173/173/173 172/172/172 171/171/171
f 172/172/172 174/174/174 171/171/171
f 175/175/175 171/171/171 174/174/174
f 176/176/176 175/175/175 174/174/174
f 179/179/179 178/178/178 177/177/177
f 180/180/180 179/179/179 177/177/177
f 183/183/183 182/182/182 181/181/181
f 182/182/182 184/184/184 181/181/181
f 185/185/185 181/181/181 184/184/184
f 186/186/186 185/185/185 184/184/184
f 189/189/189 188/188/188 187/187/187
f 190/190/190 189/189/189 187/187/187
f 193/193/193 192/192/192 191/191/191
f 192/192/192 194/194/194 191/191/191
f 195/195/195 191/191/191 194/194/194
f 196/196/196 195/195/195 194/194/194
f 199/199/199 198/198/198 197/197/197
f 200/200/200 199/199/199 197/197/197
f 203/203/203 202/202/202 201/201/201
f 202/202/202 204/204/204 201/201/201
f 205/205/205 201/201/201 204/204/204
f 206/206/206 205/205/205 204/204/204
f 209/209/209 208/208/208 207/207/207
f 210/210/210 209/209/209 207/207/207
f 213/213/213 212/212/212 211/211/211
f 212/212/212 214/214/214 211/211/211
f 215/215/215 211/211/211 214/214/214
f 216/216/216 215/215/215 214/214/214
f 219/219/219 218/218/218 217/217/217
f 220/220/220 219/219/219 217/217/217
f 223/223/223 222/222/222 221/221/221
f 222/222/222 224/224/224 221/221/221
f 225/225/225 221/221/221 224/224/224
f 226/226/226 225/225/225 224/224/224
f 229/229/229 228/228/228 227/227/227
f 230/230/230 229/229/229 227/227/227
f 233/233/233 232/232/232 231/231/231
f 232/232/232 234/234/234 231/231/231
f 235/235/235 231/231/231 234/234/234
f 236/236/236 235/235/235 234/234/234
f 239/239/239 238/238/238 237/237/237
f 240/240/240 239/239/239 237/237/237
