g TSP_Interior_Wall_Regular_05B
v -0.07500048 -1.937151E-07 -1.075
v -0.07499991 -2.384186E-07 -0.737508
v 0.07499996 -2.384186E-07 -0.737508
v 0.07499953 -1.937151E-07 -1.075
v 0.07499953 3 -1.075
v -0.07500029 3 -1.074999
v -0.07500048 -1.937151E-07 -1.075
v 0.07499953 -1.937151E-07 -1.075
v 0.07500052 3 1.075
v 0.07500052 -1.937151E-07 1.075
v -0.07499917 -1.937151E-07 1.075
v -0.07499893 3 1.075
v 0.07499953 3 -1.075
v 0.07499953 -1.937151E-07 -1.075
v 0.07499996 -2.384186E-07 -0.737508
v 0.07499996 2.5 -0.737508
v 0.07500052 3 1.075
v 0.07500009 2.5 0.7375069
v 0.07500052 -1.937151E-07 1.075
v 0.07500009 -2.384186E-07 0.7375069
v -0.07499973 -2.384186E-07 0.7375069
v -0.07499917 -1.937151E-07 1.075
v 0.07500052 -1.937151E-07 1.075
v 0.07500009 -2.384186E-07 0.7375069
v -0.07499893 3 1.075
v -0.07499917 -1.937151E-07 1.075
v -0.07499973 -2.384186E-07 0.7375069
v -0.07499956 2.5 0.7375091
v -0.07500029 3 -1.074999
v -0.07499974 2.5 -0.7375057
v -0.07499974 2.5 -0.7375057
v -0.07499991 -2.384186E-07 -0.737508
v -0.07500048 -1.937151E-07 -1.075
v -0.07500029 3 -1.074999
v 0.07499953 3 -1.075
v 0.07500052 3 1.075
v -0.07499893 3 1.075
v -0.07500029 3 -1.074999
v 0.07499996 -2.384186E-07 -0.737508
v -0.07499991 -2.384186E-07 -0.737508
v -0.07499974 2.5 -0.7375057
v 0.07499996 2.5 -0.737508
v -0.07499973 -2.384186E-07 0.7375069
v 0.07500009 -2.384186E-07 0.7375069
v 0.07500009 2.5 0.7375069
v -0.07499956 2.5 0.7375091
v -0.1399994 2.425 -0.837501
v 0.1400003 2.425 -0.837501
v 0.1400003 2.5 -0.8375006
v -0.1399994 2.5 -0.8375006
v 0.140001 2.425 0.8375006
v -0.1399994 2.425 0.8375006
v -0.1399994 2.5 0.8374996
v 0.140001 2.5 0.8374996
v 0.140001 2.5 0.8374996
v -0.1399994 2.5 0.8374996
v -0.1399994 2.5 -0.8375006
v 0.1400003 2.5 -0.8375006
v -0.1399994 2.425 -0.837501
v -0.1399994 2.5 -0.8375006
v -0.1399994 2.5 0.8374996
v -0.1399994 2.425 0.8375006
v 0.140001 2.425 0.8375006
v 0.140001 2.5 0.8374996
v 0.1400003 2.5 -0.8375006
v 0.1400003 2.425 -0.837501
v -0.1399994 2.425 -0.837501
v -0.1399994 2.425 0.8375006
v 0.140001 2.425 0.8375006
v 0.1400003 2.425 -0.837501
vt 0.1717817 0.7155168
vt 0.1717817 0.7155168
vt 0.1717817 0.7155168
vt 0.1717817 0.7155168
vt 0.4842818 0.7780169
vt 0.4842817 0.7780169
vt 0.4842818 0.7780169
vt 0.4842818 0.7780169
vt 0.4842818 0.7780169
vt 0.4842818 0.7780169
vt 0.4842818 0.7780169
vt 0.4842817 0.7780169
vt 0.4842818 0.7780169
vt 0.4842818 0.7780169
vt 0.4842818 0.7780169
vt 0.4842818 0.7780169
vt 0.4842818 0.7780169
vt 0.4842818 0.7780169
vt 0.4842818 0.7780169
vt 0.4842818 0.7780169
vt 0.1717817 0.7155168
vt 0.1717817 0.7155168
vt 0.1717817 0.7155168
vt 0.1717817 0.7155168
vt 0.4842817 0.7780169
vt 0.4842818 0.7780169
vt 0.4842818 0.7780169
vt 0.4842817 0.7780169
vt 0.4842818 0.7780169
vt 0.4842817 0.7780169
vt 0.4842817 0.7780169
vt 0.4842817 0.7780169
vt 0.4842818 0.7780169
vt 0.4842817 0.7780169
vt 0.1717817 0.7155168
vt 0.1717817 0.7155168
vt 0.1717817 0.7155168
vt 0.1717817 0.7155168
vt 0.4844862 0.7759322
vt 0.4844862 0.7759325
vt 0.4844862 0.7626009
vt 0.4844862 0.7626009
vt 0.4844862 0.7759323
vt 0.4844862 0.7759322
vt 0.4844862 0.7626009
vt 0.4844862 0.7626009
vt 0.3798974 0.7899823
vt 0.4020975 0.7752121
vt 0.379465 0.7907806
vt 0.379465 0.7907806
vt 0.4020975 0.7899823
vt 0.3798974 0.7752121
vt 0.4025299 0.7907806
vt 0.4025299 0.7907806
vt 0.4025299 0.8052034
vt 0.4025299 0.8052034
vt 0.379465 0.8052034
vt 0.379465 0.8052034
vt 0.3798974 0.7817596
vt 0.379465 0.7990021
vt 0.4025299 0.7990021
vt 0.4020975 0.7817596
vt 0.4020975 0.7817596
vt 0.4025299 0.7990021
vt 0.379465 0.7990021
vt 0.3798974 0.7817596
vt 0.4020975 0.7604417
vt 0.3798974 0.7604417
vt 0.3798974 0.7604417
vt 0.4020975 0.7604417
vn 0 -1 0
vn 0 -1 0
vn 0 -1 0
vn 0 -1 0
vn 0 0 -1
vn 0 0 -1
vn 0 0 -1
vn 0 0 -1
vn 0 0 1
vn 0 0 1
vn 0 0 1
vn 0 0 1
vn 1 0 0
vn 1 0 0
vn 1 0 0
vn 1 0 0
vn 1 0 0
vn 1 0 0
vn 1 0 0
vn 1 0 0
vn 0 -1 0
vn 0 -1 0
vn 0 -1 0
vn 0 -1 0
vn -1 0 0
vn -1 0 0
vn -1 0 0
vn -1 0 0
vn -1 0 0
vn -1 0 0
vn -1 0 0
vn -1 0 0
vn -1 0 0
vn -1 0 0
vn 0 1 0
vn 0 1 0
vn 0 1 0
vn 0 1 0
vn 0 0 1
vn 0 0 1
vn 0 0 1
vn 0 0 1
vn 0 0 -1
vn 0 0 -1
vn 0 0 -1
vn 0 0 -1
vn 0 0 -1
vn 0 0 -1
vn 0 0 -1
vn 0 0 -1
vn 0 1.27724E-05 1
vn 0 1.27724E-05 1
vn 0 1.27724E-05 1
vn 0 1.27724E-05 1
vn 0 1 0
vn 0 1 0
vn 0 1 0
vn 0 1 0
vn -1 0 0
vn -1 0 0
vn -1 0 0
vn -1 0 0
vn 1 0 0
vn 1 0 0
vn 1 0 0
vn 1 0 0
vn 0 -1 0
vn 0 -1 0
vn 0 -1 0
vn 0 -1 0
g TSP_Interior_Wall_Regular_05B_0
f 3/3/3 2/2/2 1/1/1
f 4/4/4 3/3/3 1/1/1
f 7/7/7 6/6/6 5/5/5
f 8/8/8 7/7/7 5/5/5
f 11/11/11 10/10/10 9/9/9
f 12/12/12 11/11/11 9/9/9
f 15/15/15 14/14/14 13/13/13
f 16/16/16 15/15/15 13/13/13
f 16/16/16 13/13/13 17/17/17
f 18/18/18 16/16/16 17/17/17
f 17/17/17 19/19/19 18/18/18
f 19/19/19 20/20/20 18/18/18
f 23/23/23 22/22/22 21/21/21
f 24/24/24 23/23/23 21/21/21
f 27/27/27 26/26/26 25/25/25
f 28/28/28 27/27/27 25/25/25
f 28/28/28 25/25/25 29/29/29
f 30/30/30 28/28/28 29/29/29
f 33/33/33 32/32/32 31/31/31
f 34/34/34 33/33/33 31/31/31
f 37/37/37 36/36/36 35/35/35
f 38/38/38 37/37/37 35/35/35
f 41/41/41 40/40/40 39/39/39
f 42/42/42 41/41/41 39/39/39
f 45/45/45 44/44/44 43/43/43
f 46/46/46 45/45/45 43/43/43
f 49/49/49 48/48/48 47/47/47
f 50/50/50 49/49/49 47/47/47
f 53/53/53 52/52/52 51/51/51
f 54/54/54 53/53/53 51/51/51
f 57/57/57 56/56/56 55/55/55
f 58/58/58 57/57/57 55/55/55
f 61/61/61 60/60/60 59/59/59
f 62/62/62 61/61/61 59/59/59
f 65/65/65 64/64/64 63/63/63
f 66/66/66 65/65/65 63/63/63
f 69/69/69 68/68/68 67/67/67
f 70/70/70 69/69/69 67/67/67
