g TSP_House_Wall_Short_04B_Window.L
v -0.05999804 1.325 -0.8750017
v -0.05999804 -1.325 -0.8750017
v 0.06000185 -1.325 -0.8750017
v 0.06000185 1.325 -0.8750017
v -0.05999804 1.325 0.0749985
v 0.06000185 1.325 0.0749985
v 0.06000185 -1.325 0.0749985
v -0.05999804 -1.325 0.0749985
v 0.06000185 1.325 0.0749985
v -0.05999804 1.325 0.0749985
v -0.05999804 1.325 -0.8750017
v 0.06000185 1.325 -0.8750017
v 0.06000185 -1.325 0.0749985
v 0.06000185 -1.325 -0.8750017
v -0.05999804 -1.325 -0.8750017
v -0.05999804 -1.325 0.0749985
v -0.05999804 -1.25 -0.8000016
v 0.06000185 -1.25 -0.8000016
v 0.06000185 -1.25 -1.549721E-06
v -0.05999804 -1.25 -1.549721E-06
v -0.05999804 1.25 -1.549721E-06
v -0.05999804 -1.25 -1.549721E-06
v 0.06000185 -1.25 -1.549721E-06
v 0.06000185 1.25 -1.549721E-06
v 0.06000185 -1.25 -1.549721E-06
v 0.06000185 -1.325 0.0749985
v 0.06000185 1.325 0.0749985
v 0.06000185 1.25 -1.549721E-06
v 0.06000185 1.25 -0.8000016
v 0.06000185 1.325 -0.8750017
v 0.06000185 -1.325 -0.8750017
v 0.06000185 -1.25 -0.8000016
v 0.06000185 1.25 -1.549721E-06
v 0.06000185 1.325 0.0749985
v 0.06000185 1.325 -0.8750017
v 0.06000185 1.25 -0.8000016
v 0.06000185 -1.25 -0.8000016
v 0.06000185 -1.325 -0.8750017
v 0.06000185 -1.325 0.0749985
v 0.06000185 -1.25 -1.549721E-06
v -0.05999804 1.25 -0.8000016
v 0.06000185 1.25 -0.8000016
v 0.06000185 -1.25 -0.8000016
v -0.05999804 -1.25 -0.8000016
v -0.05999804 1.25 -0.8000016
v -0.05999804 1.25 -1.549721E-06
v 0.06000185 1.25 -1.549721E-06
v 0.06000185 1.25 -0.8000016
v -0.05999804 -1.25 -0.8000016
v -0.05999804 1.325 -0.8750017
v -0.05999804 1.25 -0.8000016
v -0.05999804 -1.325 -0.8750017
v -0.05999804 1.325 0.0749985
v -0.05999804 -1.25 -1.549721E-06
v -0.05999804 1.25 -1.549721E-06
v -0.05999804 -1.325 0.0749985
v -0.02499826 1.25 -1.549721E-06
v -0.02499826 -1.25 -1.549721E-06
v -0.02499809 -1.25 -0.8000016
v -0.02499809 1.25 -0.8000016
v 0.02500174 1.25 -1.549721E-06
v 0.02500191 1.25 -0.8000016
v 0.02500191 -1.25 -0.8000016
v 0.02500174 -1.25 -1.549721E-06
vt 0.160715 0.6638788
vt 0.160715 0.6523463
vt 0.160715 0.6523463
vt 0.160715 0.6638788
vt 0.1837799 0.6638788
vt 0.1837799 0.6638788
vt 0.1837799 0.6523463
vt 0.1837799 0.6523463
vt 0.1837799 0.6716913
vt 0.1837799 0.6716913
vt 0.160715 0.6716913
vt 0.160715 0.6716913
vt 0.1837799 0.6445338
vt 0.160715 0.6445338
vt 0.160715 0.6445338
vt 0.1837799 0.6445338
vt 0.1833474 0.66878
vt 0.1833474 0.66878
vt 0.1611474 0.66878
vt 0.1611474 0.66878
vt 0.1611474 0.6554457
vt 0.1611474 0.6607795
vt 0.1611474 0.6607795
vt 0.1611474 0.6554457
vt 0.1833474 0.6527788
vt 0.1837799 0.6523463
vt 0.1837799 0.6638788
vt 0.1833474 0.6634464
vt 0.1611474 0.6634464
vt 0.160715 0.6638788
vt 0.160715 0.6523463
vt 0.1611474 0.6527788
vt 0.1833474 0.6634464
vt 0.1837799 0.6638788
vt 0.160715 0.6638788
vt 0.1611474 0.6634464
vt 0.1611474 0.6527788
vt 0.160715 0.6523463
vt 0.1837799 0.6523463
vt 0.1833474 0.6527788
vt 0.1833474 0.6554457
vt 0.1833474 0.6554457
vt 0.1833474 0.6607795
vt 0.1833474 0.6607795
vt 0.1833474 0.6474449
vt 0.1611474 0.6474449
vt 0.1611474 0.6474449
vt 0.1833474 0.6474449
vt 0.1611474 0.6605913
vt 0.160715 0.6716913
vt 0.1611474 0.6712589
vt 0.160715 0.6601588
vt 0.1837799 0.6716913
vt 0.1833474 0.6605913
vt 0.1833474 0.6712589
vt 0.1837799 0.6601588
vt 0.9866089 0.9810201
vt 0.9866089 0.01362601
vt 0.5 0.01362601
vt 0.5 0.9810201
vt 0.9866089 0.9810201
vt 0.5 0.9810201
vt 0.5 0.01362601
vt 0.9866089 0.01362601
vn 0 0 -1
vn 0 0 -1
vn 0 0 -1
vn 0 0 -1
vn 0 0 1
vn 0 0 1
vn 0 0 1
vn 0 0 1
vn 0 1 0
vn 0 1 0
vn 0 1 0
vn 0 1 0
vn 0 -1 0
vn 0 -1 0
vn 0 -1 0
vn 0 -1 0
vn 0 1 0
vn 0 1 0
vn 0 1 0
vn 0 1 0
vn 0 0 -1
vn 0 0 -1
vn 0 0 -1
vn 0 0 -1
vn 1 0 0
vn 1 0 0
vn 1 0 0
vn 1 0 0
vn 1 0 0
vn 1 0 0
vn 1 0 0
vn 1 0 0
vn 1 0 0
vn 1 0 0
vn 1 0 0
vn 1 0 0
vn 1 0 0
vn 1 0 0
vn 1 0 0
vn 1 0 0
vn 0 0 1
vn 0 0 1
vn 0 0 1
vn 0 0 1
vn 0 -1 0
vn 0 -1 0
vn 0 -1 0
vn 0 -1 0
vn -1 0 0
vn -1 0 0
vn -1 0 0
vn -1 0 0
vn -1 0 0
vn -1 0 0
vn -1 0 0
vn -1 0 0
vn -1 0 0
vn -1 0 0
vn -1 0 0
vn -1 0 0
vn 1 0 0
vn 1 0 0
vn 1 0 0
vn 1 0 0
g TSP_House_Wall_Short_04B_Window.L_0
f 3/3/3 2/2/2 1/1/1
f 4/4/4 3/3/3 1/1/1
f 7/7/7 6/6/6 5/5/5
f 8/8/8 7/7/7 5/5/5
f 11/11/11 10/10/10 9/9/9
f 12/12/12 11/11/11 9/9/9
f 15/15/15 14/14/14 13/13/13
f 16/16/16 15/15/15 13/13/13
f 19/19/19 18/18/18 17/17/17
f 20/20/20 19/19/19 17/17/17
f 23/23/23 22/22/22 21/21/21
f 24/24/24 23/23/23 21/21/21
f 27/27/27 26/26/26 25/25/25
f 28/28/28 27/27/27 25/25/25
f 31/31/31 30/30/30 29/29/29
f 32/32/32 31/31/31 29/29/29
f 35/35/35 34/34/34 33/33/33
f 36/36/36 35/35/35 33/33/33
f 39/39/39 38/38/38 37/37/37
f 40/40/40 39/39/39 37/37/37
f 43/43/43 42/42/42 41/41/41
f 44/44/44 43/43/43 41/41/41
f 47/47/47 46/46/46 45/45/45
f 48/48/48 47/47/47 45/45/45
f 51/51/51 50/50/50 49/49/49
f 50/50/50 52/52/52 49/49/49
f 53/53/53 50/50/50 51/51/51
f 49/49/49 52/52/52 54/54/54
f 55/55/55 53/53/53 51/51/51
f 52/52/52 56/56/56 54/54/54
f 56/56/56 53/53/53 55/55/55
f 54/54/54 56/56/56 55/55/55
g TSP_House_Wall_Short_04B_Window.L_1
f 59/59/59 58/58/58 57/57/57
f 60/60/60 59/59/59 57/57/57
f 63/63/63 62/62/62 61/61/61
f 64/64/64 63/63/63 61/61/61
