g TSP_Antenna_01A
v -4.086059E-08 -0.1254002 -0.1254002
v 4.086059E-08 -0.1254002 0.1254002
v 4.086059E-08 0.1254002 0.1254002
v -4.086059E-08 0.1254002 -0.1254002
v -0.1254002 -0.06733251 0.06733255
v -0.1254003 -0.06733251 -0.06733248
v -0.1254003 0.06733251 -0.06733248
v -0.1254002 0.06733251 0.06733255
v 4.086059E-08 -0.1254002 0.1254002
v -0.1254002 -0.07733251 0.07733255
v -0.1254002 0.07733251 0.07733255
v -0.1254003 -0.07733251 -0.07733247
v 4.086059E-08 0.1254002 0.1254002
v -4.086059E-08 -0.1254002 -0.1254002
v -4.086059E-08 0.1254002 -0.1254002
v -0.1254003 0.07733251 -0.07733247
v -0.1254002 0.06733251 0.06733255
v -0.1254002 0.07733251 0.07733255
v -0.1254002 -0.07733251 0.07733255
v -0.1254002 -0.06733251 0.06733255
v -0.1254003 0.06733251 -0.06733248
v -0.1254003 -0.07733251 -0.07733247
v -0.1254003 0.07733251 -0.07733247
v -0.1254003 -0.06733251 -0.06733248
vt 0.4532044 0.4581785
vt 0.4532044 0.4581785
vt 0.4532044 0.4581785
vt 0.4532044 0.4581785
vt 0.4182123 0.5734837
vt 0.4231073 0.5734837
vt 0.4231074 0.5832738
vt 0.4182123 0.5832738
vt 0.4440879 0.4516644
vt 0.4475824 0.4586532
vt 0.4475824 0.4811413
vt 0.4588263 0.4586532
vt 0.4440879 0.4881301
vt 0.4623209 0.4516644
vt 0.4623209 0.4881301
vt 0.4588263 0.4811413
vt 0.4507568 0.4747922
vt 0.4503933 0.4755193
vt 0.4503933 0.4642752
vt 0.4507568 0.4650022
vt 0.4556518 0.4747923
vt 0.4560153 0.4642752
vt 0.4560153 0.4755193
vt 0.4556518 0.4650022
vn 1 0 0
vn 1 0 0
vn 1 0 0
vn 1 0 0
vn -1 0 0
vn -1 0 0
vn -1 0 0
vn -1 0 0
vn -0.4765589 -0.6216477 0.6216477
vn -0.4765589 -0.6216477 0.6216477
vn -0.4765589 0.6216477 0.6216477
vn -0.4765589 -0.6216477 -0.6216477
vn -0.4765589 0.6216477 0.6216477
vn -0.4765589 -0.6216477 -0.6216477
vn -0.4765589 0.6216477 -0.6216477
vn -0.4765589 0.6216477 -0.6216477
vn -1 0 0
vn -1 0 0
vn -1 0 0
vn -1 0 0
vn -1 0 0
vn -1 0 0
vn -1 0 0
vn -1 0 0
g TSP_Antenna_01A_0
f 3/3/3 2/2/2 1/1/1
f 4/4/4 3/3/3 1/1/1
f 7/7/7 6/6/6 5/5/5
f 8/8/8 7/7/7 5/5/5
f 11/11/11 10/10/10 9/9/9
f 10/10/10 12/12/12 9/9/9
f 13/13/13 11/11/11 9/9/9
f 12/12/12 14/14/14 9/9/9
f 13/13/13 15/15/15 11/11/11
f 15/15/15 14/14/14 12/12/12
f 15/15/15 16/16/16 11/11/11
f 16/16/16 15/15/15 12/12/12
f 19/19/19 18/18/18 17/17/17
f 20/20/20 19/19/19 17/17/17
f 17/17/17 18/18/18 21/21/21
f 22/22/22 19/19/19 20/20/20
f 18/18/18 23/23/23 21/21/21
f 24/24/24 22/22/22 20/20/20
f 21/21/21 23/23/23 24/24/24
f 23/23/23 22/22/22 24/24/24
