g TSP_Ceiling_Fixture_02A
v 0 -0.2749998 0.9999999
v -0.15 -0.105 0.9999999
v 0 -0.105 0.9999999
v -0.15 -0.2249998 0.9999999
v 0 -0.2749998 0.9999999
v -0.35 -0.2749998 0.9999999
v -0.35 -0.1759998 0.9999999
v -0.15 -0.2249998 0.9999999
v -0.15 -0.2249998 -1
v -0.15 -0.105 -1
v -0.15 -0.105 0.9999999
v -0.15 -0.2249998 -1
v 0 -0.2749998 -1
v 0 -0.105 -1
v -0.15 -0.105 -1
v -0.35 -0.1759998 -1
v -0.35 -0.2749998 -1
v 0 -0.2749998 -1
v 0 -0.2749998 0.9999999
v 0 -0.105 0.9999999
v 0 -0.105 -1
v 0 -0.2749998 -1
v -0.35 -0.2749998 0.9999999
v -0.35 -0.2749998 -1
v -0.35 -0.1759998 -1
v -0.35 -0.1759998 0.9999999
v -0.15 -0.2249998 0.9999999
v -0.35 -0.1759998 0.9999999
v -0.35 -0.1759998 -1
v -0.15 -0.2249998 -1
v 0 -0.2749998 -1
v -0.35 -0.2749998 -1
v -0.35 -0.2749998 0.9999999
v 0 -0.2749998 0.9999999
v 0 -0.105 -1
v 0 -0.105 0.9999999
v -0.15 -0.105 0.9999999
v -0.15 -0.105 -1
vt 0.4488128 0.4732284
vt 0.4524518 0.4513943
vt 0.4488128 0.4513943
vt 0.4524518 0.4683764
vt 0.4488128 0.4732284
vt 0.4573038 0.4732284
vt 0.4573038 0.4636214
vt 0.479653 0.4595405
vt 0.4871627 0.4595405
vt 0.4871627 0.4402689
vt 0.479653 0.4402689
vt 0.4524518 0.4683764
vt 0.4488128 0.4732284
vt 0.4488128 0.4513943
vt 0.4524518 0.4513943
vt 0.4573038 0.4636214
vt 0.4573038 0.4732284
vt 0.4488128 0.4732284
vt 0.4488128 0.4732284
vt 0.4488128 0.4513943
vt 0.4488128 0.4513943
vt 0.4488128 0.4732284
vt 0.4573038 0.4732284
vt 0.4573038 0.4732284
vt 0.4573038 0.4636214
vt 0.4573038 0.4636214
vt 0.479653 0.4595405
vt 0.479653 0.4595405
vt 0.4871627 0.4595405
vt 0.4871627 0.4595405
vt 0.4805211 0.4702412
vt 0.4805211 0.4702412
vt 0.4880308 0.4702412
vt 0.4880308 0.4702412
vt 0.4871627 0.4402689
vt 0.479653 0.4402689
vt 0.479653 0.4402689
vt 0.4871627 0.4402689
vn 0 0 1
vn 0 0 1
vn 0 0 1
vn 0 0 1
vn 0 0 1
vn 0 0 1
vn 0 0 1
vn -1 0 0
vn -1 0 0
vn -1 0 0
vn -1 0 0
vn 0 0 -1
vn 0 0 -1
vn 0 0 -1
vn 0 0 -1
vn 0 0 -1
vn 0 0 -1
vn 0 0 -1
vn 1 0 0
vn 1 0 0
vn 1 0 0
vn 1 0 0
vn -1 0 0
vn -1 0 0
vn -1 0 0
vn -1 0 0
vn 0.2379623 0.9712744 0
vn 0.2379623 0.9712744 0
vn 0.2379623 0.9712744 0
vn 0.2379623 0.9712744 0
vn 0 -1 0
vn 0 -1 0
vn 0 -1 0
vn 0 -1 0
vn 0 1 0
vn 0 1 0
vn 0 1 0
vn 0 1 0
g TSP_Ceiling_Fixture_02A_0
f 3/3/3 2/2/2 1/1/1
f 2/2/2 4/4/4 1/1/1
f 6/6/6 5/5/5 4/4/4
f 7/7/7 6/6/6 4/4/4
f 10/10/10 9/9/9 8/8/8
f 11/11/11 10/10/10 8/8/8
f 14/14/14 13/13/13 12/12/12
f 15/15/15 14/14/14 12/12/12
f 17/17/17 16/16/16 12/12/12
f 18/18/18 17/17/17 12/12/12
f 21/21/21 20/20/20 19/19/19
f 22/22/22 21/21/21 19/19/19
f 25/25/25 24/24/24 23/23/23
f 26/26/26 25/25/25 23/23/23
f 29/29/29 28/28/28 27/27/27
f 30/30/30 29/29/29 27/27/27
f 33/33/33 32/32/32 31/31/31
f 34/34/34 33/33/33 31/31/31
f 37/37/37 36/36/36 35/35/35
f 38/38/38 37/37/37 35/35/35
