g TSP_House_Floor_Small_01B_Open_Corner
v 1.754896 0.004999998 -2
v 1.735977 0.009999999 -2
v 1.735975 -0.105 -2
v -5.960464E-08 -0.105 1.192093E-07
v 2 -0.105 2
v 1.735976 -0.105 0
v 2 -0.105 -2
v 1.735975 -0.105 -2
v -2 0.005 2
v 2 0.005 2
v 2 -0.105 2
v -2 -0.105 2
v 2 0.005 2
v 2 0.005 -2
v 2 -0.105 -2
v 2 -0.105 2
v 0.01891899 0.005 1.754895
v 2 0.005 2
v -2 0.005 2
v -2 0.004999999 1.754895
v -2 0.01 1.735976
v -2 0.004999999 1.754895
v -2 -0.105 1.735975
v -2 -0.105 2
v -2 0.005 2
v -2 -0.105 1.735975
v -2 -0.105 2
v 2 -0.105 2
v -5.960464E-08 -0.105 1.735976
v -5.960464E-08 -0.105 1.192093E-07
v 2 -0.105 -2
v 2 0.005 -2
v 1.754896 0.004999998 -2
v 1.735975 -0.105 -2
v -2 0.01 1.735976
v -2 -0.105 1.735975
v -5.960464E-08 -0.105 1.735976
v 0 0.01 1.735976
v 0 0.01 1.735976
v -2 0.004999999 1.754895
v -2 0.01 1.735976
v 0.01891899 0.005 1.754895
v -5.960464E-08 0.009999999 -1.192093E-07
v 0.01891899 0.004999999 0.01891887
v 2 0.005 -2
v 1.754896 0.004999999 0.01891911
v 1.754896 0.004999998 -2
v 2 0.005 2
v 0.01891899 0.004999999 0.01891887
v 0.01891899 0.005 1.754895
v 0 0.01 1.735976
v -5.960464E-08 -0.105 1.735976
v -5.960464E-08 -0.105 1.192093E-07
v -5.960464E-08 0.009999999 -1.192093E-07
v 1.735976 0.009999999 1.192093E-07
v 0.01891899 0.004999999 0.01891887
v -5.960464E-08 0.009999999 -1.192093E-07
v 1.754896 0.004999999 0.01891911
v 1.735977 0.009999999 -2
v 1.754896 0.004999998 -2
v -5.960464E-08 0.009999999 -1.192093E-07
v -5.960464E-08 -0.105 1.192093E-07
v 1.735976 -0.105 0
v 1.735976 0.009999999 1.192093E-07
v 1.735976 0.009999999 1.192093E-07
v 1.735976 -0.105 0
v 1.735975 -0.105 -2
v 1.735977 0.009999999 -2
vt 0.4709302 0.4457633
vt 0.471652 0.445827
vt 0.4709302 0.4416304
vt 0.4973722 0.439191
vt 0.4973722 0.439191
vt 0.4973722 0.439191
vt 0.4973722 0.439191
vt 0.4973722 0.439191
vt 0.4709302 0.4457633
vt 0.4978178 0.4457633
vt 0.4978178 0.4416304
vt 0.4709302 0.4416304
vt 0.4978178 0.4457633
vt 0.4978178 0.4457633
vt 0.4978178 0.4416304
vt 0.4978178 0.4416304
vt 0.4651919 0.5825036
vt 0.4665678 0.5825036
vt 0.4396802 0.5825036
vt 0.441056 0.5825036
vt 0.471652 0.445827
vt 0.4709302 0.4457633
vt 0.4709302 0.4416304
vt 0.4709302 0.4416304
vt 0.4709302 0.4457633
vt 0.4715987 0.4391909
vt 0.4709302 0.439191
vt 0.4978178 0.439191
vt 0.4971493 0.4391909
vt 0.4971493 0.4391909
vt 0.4978178 0.4416304
vt 0.4978178 0.4457633
vt 0.4709302 0.4457633
vt 0.4709302 0.4416304
vt 0.5881526 0.6432431
vt 0.5881526 0.6323177
vt 0.5881526 0.6323177
vt 0.5881526 0.6432431
vt 0.5881526 0.6589849
vt 0.5883752 0.6589849
vt 0.5881526 0.6589849
vt 0.5883752 0.6589849
vt 0.5695124 0.6589849
vt 0.5692899 0.6589849
vt 0.453124 0.5825036
vt 0.453124 0.5825036
vt 0.453124 0.5825036
vt 0.453124 0.5825036
vt 0.453124 0.5825036
vt 0.453124 0.5825036
vt 0.5881526 0.6432431
vt 0.5881526 0.6323177
vt 0.5695124 0.6323177
vt 0.5695124 0.6432431
vt 0.5695124 0.6589849
vt 0.5883752 0.6589849
vt 0.5881526 0.6589849
vt 0.5692899 0.6589849
vt 0.5695124 0.6589849
vt 0.5692899 0.6589849
vt 0.5881526 0.6432431
vt 0.5881526 0.6323177
vt 0.5695124 0.6323177
vt 0.5695124 0.6432431
vt 0.5695124 0.6432431
vt 0.5695124 0.6323177
vt 0.5695124 0.6323177
vt 0.5695124 0.6432431
vn 0 0 -1
vn 0 0 -1
vn 0 0 -1
vn 0 -1 0
vn 0 -1 0
vn 0 -1 0
vn 0 -1 0
vn 0 -1 0
vn 0 0 1
vn 0 0 1
vn 0 0 1
vn 0 0 1
vn 1 0 0
vn 1 0 0
vn 1 0 0
vn 1 0 0
vn 0 1 0
vn 0 1 0
vn 0 1 0
vn 0 1 0
vn -1 0 0
vn -1 0 0
vn -1 0 0
vn -1 0 0
vn -1 0 0
vn 0 -1 0
vn 0 -1 0
vn 0 -1 0
vn 0 -1 0
vn 0 -1 0
vn 0 0 -1
vn 0 0 -1
vn 0 0 -1
vn 0 0 -1
vn 0 0 -1
vn 0 0 -1
vn 0 0 -1
vn 0 0 -1
vn 0.1298886 0.9829842 0.1298886
vn 0 0.966808 0.2555042
vn 0 0.966808 0.2555042
vn 0.1298886 0.9829842 0.1298886
vn 0.1298886 0.9829842 0.1298886
vn 0.1298886 0.9829842 0.1298886
vn 0 1 0
vn 0 1 0
vn 0 1 0
vn 0 1 0
vn 0 1 0
vn 0 1 0
vn -1 0 0
vn -1 0 0
vn -1 0 0
vn -1 0 0
vn 0.1298886 0.9829842 0.1298886
vn 0.1298886 0.9829842 0.1298886
vn 0.1298886 0.9829842 0.1298886
vn 0.1298886 0.9829842 0.1298886
vn 0.2555042 0.966808 0
vn 0.2555042 0.966808 0
vn 0 0 -1
vn 0 0 -1
vn 0 0 -1
vn 0 0 -1
vn -1 0 0
vn -1 0 0
vn -1 0 0
vn -1 0 0
g TSP_House_Floor_Small_01B_Open_Corner_0
f 3/3/3 2/2/2 1/1/1
f 6/6/6 5/5/5 4/4/4
f 5/5/5 6/6/6 7/7/7
f 6/6/6 8/8/8 7/7/7
f 11/11/11 10/10/10 9/9/9
f 12/12/12 11/11/11 9/9/9
f 15/15/15 14/14/14 13/13/13
f 16/16/16 15/15/15 13/13/13
f 19/19/19 18/18/18 17/17/17
f 20/20/20 19/19/19 17/17/17
f 23/23/23 22/22/22 21/21/21
f 23/23/23 24/24/24 22/22/22
f 24/24/24 25/25/25 22/22/22
f 28/28/28 27/27/27 26/26/26
f 29/29/29 28/28/28 26/26/26
f 28/28/28 29/29/29 30/30/30
f 33/33/33 32/32/32 31/31/31
f 34/34/34 33/33/33 31/31/31
f 37/37/37 36/36/36 35/35/35
f 38/38/38 37/37/37 35/35/35
f 41/41/41 40/40/40 39/39/39
f 40/40/40 42/42/42 39/39/39
f 39/39/39 42/42/42 43/43/43
f 42/42/42 44/44/44 43/43/43
f 47/47/47 46/46/46 45/45/45
f 46/46/46 48/48/48 45/45/45
f 46/46/46 49/49/49 48/48/48
f 48/48/48 49/49/49 50/50/50
f 53/53/53 52/52/52 51/51/51
f 54/54/54 53/53/53 51/51/51
f 57/57/57 56/56/56 55/55/55
f 56/56/56 58/58/58 55/55/55
f 55/55/55 58/58/58 59/59/59
f 58/58/58 60/60/60 59/59/59
f 63/63/63 62/62/62 61/61/61
f 64/64/64 63/63/63 61/61/61
f 67/67/67 66/66/66 65/65/65
f 68/68/68 67/67/67 65/65/65
