g TSP_House_Wall_Short_10B_Blinds
v -0.1568899 1.172033 -1.525502
v -0.1529405 1.145401 -0.6005023
v -0.1529405 1.145401 -1.525502
v -0.1568899 1.172033 -0.6005023
v -0.03599024 1.257949 -1.525502
v -0.03599024 1.257949 -0.6005023
v -0.1568899 1.589489 -1.525502
v -0.1529405 1.562857 -0.6005023
v -0.1529405 1.562857 -1.525502
v -0.1568899 1.589489 -0.6005023
v -0.03599024 1.675405 -1.525502
v -0.03599024 1.675405 -0.6005023
v -0.1568899 1.380761 -1.525502
v -0.1529405 1.354129 -0.6005023
v -0.1529405 1.354129 -1.525502
v -0.1568899 1.380761 -0.6005023
v -0.03599024 1.466677 -1.525502
v -0.03599024 1.466677 -0.6005023
v -0.1529405 1.771585 -0.6005023
v -0.03599024 1.884133 -0.6005023
v -0.03599024 1.884133 -1.525502
v -0.1529405 1.771585 -1.525502
v -0.1529405 0.7279449 -0.6005023
v -0.03599024 0.8404927 -0.6005023
v -0.03599024 0.8404927 -1.525502
v -0.1529405 0.7279449 -1.525502
v -0.1568899 2.215673 -0.6005023
v -0.03599024 2.301589 -1.525502
v -0.03599024 2.301589 -0.6005023
v -0.1568899 2.215673 -1.525502
v -0.1529405 2.189041 -0.6005023
v -0.1529405 2.189041 -1.525502
v -0.1529405 2.189041 -0.6005023
v -0.03599024 2.301589 -0.6005023
v -0.03599024 2.301589 -1.525502
v -0.1529405 2.189041 -1.525502
v -0.1568899 1.798217 -1.525502
v -0.1529405 1.771585 -0.6005023
v -0.1529405 1.771585 -1.525502
v -0.1568899 1.798217 -0.6005023
v -0.03599024 1.884133 -1.525502
v -0.03599024 1.884133 -0.6005023
v -0.1529405 1.562857 -0.6005023
v -0.03599024 1.675405 -0.6005023
v -0.03599024 1.675405 -1.525502
v -0.1529405 1.562857 -1.525502
v -0.1529405 0.9366729 -0.6005023
v -0.03599024 1.049221 -0.6005023
v -0.03599024 1.049221 -1.525502
v -0.1529405 0.9366729 -1.525502
v -0.1568899 2.006944 -0.6005023
v -0.03599024 2.09286 -1.525502
v -0.03599024 2.09286 -0.6005023
v -0.1568899 2.006944 -1.525502
v -0.1529405 1.980312 -0.6005023
v -0.1529405 1.980312 -1.525502
v -0.1568899 0.7545766 -0.6005023
v -0.03599024 0.8404927 -1.525502
v -0.03599024 0.8404927 -0.6005023
v -0.1568899 0.7545766 -1.525502
v -0.1529405 0.7279449 -0.6005023
v -0.1529405 0.7279449 -1.525502
v -0.1568899 0.9633047 -0.6005023
v -0.03599024 1.049221 -1.525502
v -0.03599024 1.049221 -0.6005023
v -0.1568899 0.9633047 -1.525502
v -0.1529405 0.9366729 -0.6005023
v -0.1529405 0.9366729 -1.525502
v -0.1529405 1.980312 -0.6005023
v -0.03599024 2.09286 -0.6005023
v -0.03599024 2.09286 -1.525502
v -0.1529405 1.980312 -1.525502
v -0.1529405 1.354129 -0.6005023
v -0.03599024 1.466677 -0.6005023
v -0.03599024 1.466677 -1.525502
v -0.1529405 1.354129 -1.525502
v -0.1529405 1.145401 -0.6005023
v -0.03599024 1.257949 -0.6005023
v -0.03599024 1.257949 -1.525502
v -0.1529405 1.145401 -1.525502
v -0.1568899 0.7545766 1.524498
v -0.03599024 0.8404927 0.5994987
v -0.03599024 0.8404927 1.524498
v -0.1568899 0.7545766 0.5994987
v -0.1529405 0.7279449 1.524498
v -0.1529405 0.7279449 0.5994987
v -0.1568899 0.9633047 1.524498
v -0.03599024 1.049221 0.5994987
v -0.03599024 1.049221 1.524498
v -0.1568899 0.9633047 0.5994987
v -0.1529405 0.9366729 1.524498
v -0.1529405 0.9366729 0.5994987
v -0.1568899 1.172033 1.524498
v -0.03599024 1.257949 0.5994987
v -0.03599024 1.257949 1.524498
v -0.1568899 1.172033 0.5994987
v -0.1529405 1.145401 1.524498
v -0.1529405 1.145401 0.5994987
v -0.1568899 1.380761 1.524498
v -0.03599024 1.466677 0.5994987
v -0.03599024 1.466677 1.524498
v -0.1568899 1.380761 0.5994987
v -0.1529405 1.354129 1.524498
v -0.1529405 1.354129 0.5994987
v -0.1568899 1.589489 1.524498
v -0.03599024 1.675405 0.5994987
v -0.03599024 1.675405 1.524498
v -0.1568899 1.589489 0.5994987
v -0.1529405 1.562857 1.524498
v -0.1529405 1.562857 0.5994987
v -0.1568899 1.798217 1.524498
v -0.03599024 1.884133 0.5994987
v -0.03599024 1.884133 1.524498
v -0.1568899 1.798217 0.5994987
v -0.1529405 1.771585 1.524498
v -0.1529405 1.771585 0.5994987
v -0.1568899 2.006944 1.524498
v -0.03599024 2.09286 0.5994987
v -0.03599024 2.09286 1.524498
v -0.1568899 2.006944 0.5994987
v -0.1529405 1.980312 1.524498
v -0.1529405 1.980312 0.5994987
v -0.1568899 2.215673 1.524498
v -0.03599024 2.301589 0.5994987
v -0.03599024 2.301589 1.524498
v -0.1568899 2.215673 0.5994987
v -0.1529405 2.189041 1.524498
v -0.1529405 2.189041 0.5994987
v -0.1529405 1.145401 1.524498
v -0.03599024 1.257949 1.524498
v -0.03599024 1.257949 0.5994987
v -0.1529405 1.145401 0.5994987
v -0.1529405 0.9366729 1.524498
v -0.03599024 1.049221 1.524498
v -0.03599024 1.049221 0.5994987
v -0.1529405 0.9366729 0.5994987
v -0.1529405 0.7279449 1.524498
v -0.03599024 0.8404927 1.524498
v -0.03599024 0.8404927 0.5994987
v -0.1529405 0.7279449 0.5994987
v -0.1529405 1.354129 1.524498
v -0.03599024 1.466677 1.524498
v -0.03599024 1.466677 0.5994987
v -0.1529405 1.354129 0.5994987
v -0.1529405 1.562857 1.524498
v -0.03599024 1.675405 1.524498
v -0.03599024 1.675405 0.5994987
v -0.1529405 1.562857 0.5994987
v -0.1529405 1.771585 1.524498
v -0.03599024 1.884133 1.524498
v -0.03599024 1.884133 0.5994987
v -0.1529405 1.771585 0.5994987
v -0.1529405 1.980312 1.524498
v -0.03599024 2.09286 1.524498
v -0.03599024 2.09286 0.5994987
v -0.1529405 1.980312 0.5994987
v -0.1529405 2.189041 1.524498
v -0.03599024 2.301589 1.524498
v -0.03599024 2.301589 0.5994987
v -0.1529405 2.189041 0.5994987
vt 0.1090831 0.7262397
vt 0.1049919 0.7285218
vt 0.1049919 0.7285218
vt 0.1090831 0.7262397
vt 0.1177288 0.7116604
vt 0.1177288 0.7116604
vt 0.1090831 0.7291493
vt 0.1049919 0.7314313
vt 0.1049919 0.7314313
vt 0.1090831 0.7291493
vt 0.1177288 0.71457
vt 0.1177288 0.71457
vt 0.1090834 0.7276944
vt 0.1049907 0.7299775
vt 0.1049907 0.7299775
vt 0.1090834 0.7276944
vt 0.1177292 0.7131152
vt 0.1177292 0.7131152
vt 0.1049919 0.7231351
vt 0.1177288 0.7110167
vt 0.1177288 0.7110167
vt 0.1049919 0.7231351
vt 0.1049914 0.7158611
vt 0.11773 0.703742
vt 0.11773 0.703742
vt 0.1049914 0.7158611
vt 0.1090831 0.7335137
vt 0.1177288 0.7189344
vt 0.1177288 0.7189344
vt 0.1090831 0.7335137
vt 0.1049919 0.7357957
vt 0.1049919 0.7357957
vt 0.1049919 0.7260447
vt 0.1177288 0.7139263
vt 0.1177288 0.7139263
vt 0.1049919 0.7260447
vt 0.1090831 0.7306041
vt 0.1049919 0.7328861
vt 0.1049919 0.7328861
vt 0.1090831 0.7306041
vt 0.1177288 0.7160248
vt 0.1177288 0.7160248
vt 0.1049919 0.7216803
vt 0.1177288 0.7095619
vt 0.1177288 0.7095619
vt 0.1049919 0.7216803
vt 0.1049919 0.717316
vt 0.1177288 0.7051975
vt 0.1177288 0.7051975
vt 0.1049919 0.717316
vt 0.1090826 0.7320582
vt 0.1177301 0.7174779
vt 0.1177301 0.7174779
vt 0.1090826 0.7320582
vt 0.1049915 0.7343403
vt 0.1049915 0.7343403
vt 0.1090825 0.7233303
vt 0.11773 0.7087499
vt 0.11773 0.7087499
vt 0.1090825 0.7233303
vt 0.1049914 0.7256123
vt 0.1049914 0.7256123
vt 0.1090831 0.7247849
vt 0.1177288 0.7102056
vt 0.1177288 0.7102056
vt 0.1090831 0.7247849
vt 0.1049919 0.7270669
vt 0.1049919 0.7270669
vt 0.1049915 0.7245891
vt 0.1177301 0.7124699
vt 0.1177301 0.7124699
vt 0.1049915 0.7245891
vt 0.1049907 0.7202264
vt 0.1177292 0.7081072
vt 0.1177292 0.7081072
vt 0.1049907 0.7202264
vt 0.1049919 0.7187707
vt 0.1177288 0.7066523
vt 0.1177288 0.7066523
vt 0.1049919 0.7187707
vt 0.1090825 0.7233303
vt 0.11773 0.7087499
vt 0.11773 0.7087499
vt 0.1090825 0.7233303
vt 0.1049914 0.7256123
vt 0.1049914 0.7256123
vt 0.1090831 0.7247849
vt 0.1177288 0.7102056
vt 0.1177288 0.7102056
vt 0.1090831 0.7247849
vt 0.1049919 0.7270669
vt 0.1049919 0.7270669
vt 0.1090831 0.7262397
vt 0.1177288 0.7116604
vt 0.1177288 0.7116604
vt 0.1090831 0.7262397
vt 0.1049919 0.7285218
vt 0.1049919 0.7285218
vt 0.1090834 0.7276944
vt 0.1177292 0.7131152
vt 0.1177292 0.7131152
vt 0.1090834 0.7276944
vt 0.1049907 0.7299775
vt 0.1049907 0.7299775
vt 0.1090831 0.7291493
vt 0.1177288 0.71457
vt 0.1177288 0.71457
vt 0.1090831 0.7291493
vt 0.1049919 0.7314313
vt 0.1049919 0.7314313
vt 0.1090831 0.7306041
vt 0.1177288 0.7160248
vt 0.1177288 0.7160248
vt 0.1090831 0.7306041
vt 0.1049919 0.7328861
vt 0.1049919 0.7328861
vt 0.1090826 0.7320582
vt 0.1177301 0.7174779
vt 0.1177301 0.7174779
vt 0.1090826 0.7320582
vt 0.1049915 0.7343403
vt 0.1049915 0.7343403
vt 0.1090831 0.7335137
vt 0.1177288 0.7189344
vt 0.1177288 0.7189344
vt 0.1090831 0.7335137
vt 0.1049919 0.7357957
vt 0.1049919 0.7357957
vt 0.1049919 0.7187707
vt 0.1177288 0.7066523
vt 0.1177288 0.7066523
vt 0.1049919 0.7187707
vt 0.1049919 0.717316
vt 0.1177288 0.7051975
vt 0.1177288 0.7051975
vt 0.1049919 0.717316
vt 0.1049914 0.7158611
vt 0.11773 0.703742
vt 0.11773 0.703742
vt 0.1049914 0.7158611
vt 0.1049907 0.7202264
vt 0.1177292 0.7081072
vt 0.1177292 0.7081072
vt 0.1049907 0.7202264
vt 0.1049919 0.7216803
vt 0.1177288 0.7095619
vt 0.1177288 0.7095619
vt 0.1049919 0.7216803
vt 0.1049919 0.7231351
vt 0.1177288 0.7110167
vt 0.1177288 0.7110167
vt 0.1049919 0.7231351
vt 0.1049915 0.7245891
vt 0.1177301 0.7124699
vt 0.1177301 0.7124699
vt 0.1049915 0.7245891
vt 0.1049919 0.7260447
vt 0.1177288 0.7139263
vt 0.1177288 0.7139263
vt 0.1049919 0.7260447
vn -0.9199435 0.392051 0
vn -0.9891847 -0.1466748 0
vn -0.9891847 -0.1466748 0
vn -0.9199435 0.392051 0
vn -0.579259 0.8151436 0
vn -0.579259 0.8151436 0
vn -0.9199435 0.392051 0
vn -0.9891847 -0.1466748 0
vn -0.9891847 -0.1466748 0
vn -0.9199435 0.392051 0
vn -0.579259 0.8151436 0
vn -0.579259 0.8151436 0
vn -0.9199435 0.392051 0
vn -0.9891847 -0.1466748 0
vn -0.9891847 -0.1466748 0
vn -0.9199435 0.392051 0
vn -0.579259 0.8151436 0
vn -0.579259 0.8151436 0
vn 0.6934264 -0.7205274 0
vn 0.6934264 -0.7205274 0
vn 0.6934264 -0.7205274 0
vn 0.6934264 -0.7205274 0
vn 0.6934264 -0.7205274 0
vn 0.6934264 -0.7205274 0
vn 0.6934264 -0.7205274 0
vn 0.6934264 -0.7205274 0
vn -0.9199435 0.392051 0
vn -0.579259 0.8151436 0
vn -0.579259 0.8151436 0
vn -0.9199435 0.392051 0
vn -0.9891847 -0.1466748 0
vn -0.9891847 -0.1466748 0
vn 0.6934264 -0.7205274 0
vn 0.6934264 -0.7205274 0
vn 0.6934264 -0.7205274 0
vn 0.6934264 -0.7205274 0
vn -0.9199435 0.392051 0
vn -0.9891847 -0.1466748 0
vn -0.9891847 -0.1466748 0
vn -0.9199435 0.392051 0
vn -0.579259 0.8151436 0
vn -0.579259 0.8151436 0
vn 0.6934264 -0.7205274 0
vn 0.6934264 -0.7205274 0
vn 0.6934264 -0.7205274 0
vn 0.6934264 -0.7205274 0
vn 0.6934264 -0.7205274 0
vn 0.6934264 -0.7205274 0
vn 0.6934264 -0.7205274 0
vn 0.6934264 -0.7205274 0
vn -0.9199435 0.392051 0
vn -0.579259 0.8151436 0
vn -0.579259 0.8151436 0
vn -0.9199435 0.392051 0
vn -0.9891847 -0.1466748 0
vn -0.9891847 -0.1466748 0
vn -0.9199435 0.392051 0
vn -0.579259 0.8151436 0
vn -0.579259 0.8151436 0
vn -0.9199435 0.392051 0
vn -0.9891847 -0.1466748 0
vn -0.9891847 -0.1466748 0
vn -0.9199435 0.392051 0
vn -0.579259 0.8151436 0
vn -0.579259 0.8151436 0
vn -0.9199435 0.392051 0
vn -0.9891847 -0.1466748 0
vn -0.9891847 -0.1466748 0
vn 0.6934264 -0.7205274 0
vn 0.6934264 -0.7205274 0
vn 0.6934264 -0.7205274 0
vn 0.6934264 -0.7205274 0
vn 0.6934264 -0.7205274 0
vn 0.6934264 -0.7205274 0
vn 0.6934264 -0.7205274 0
vn 0.6934264 -0.7205274 0
vn 0.6934264 -0.7205274 0
vn 0.6934264 -0.7205274 0
vn 0.6934264 -0.7205274 0
vn 0.6934264 -0.7205274 0
vn -0.9199435 0.392051 0
vn -0.579259 0.8151436 0
vn -0.579259 0.8151436 0
vn -0.9199435 0.392051 0
vn -0.9891847 -0.1466748 0
vn -0.9891847 -0.1466748 0
vn -0.9199435 0.392051 0
vn -0.579259 0.8151436 0
vn -0.579259 0.8151436 0
vn -0.9199435 0.392051 0
vn -0.9891847 -0.1466748 0
vn -0.9891847 -0.1466748 0
vn -0.9199435 0.392051 0
vn -0.579259 0.8151436 0
vn -0.579259 0.8151436 0
vn -0.9199435 0.392051 0
vn -0.9891847 -0.1466748 0
vn -0.9891847 -0.1466748 0
vn -0.9199435 0.392051 0
vn -0.579259 0.8151436 0
vn -0.579259 0.8151436 0
vn -0.9199435 0.392051 0
vn -0.9891847 -0.1466748 0
vn -0.9891847 -0.1466748 0
vn -0.9199435 0.392051 0
vn -0.579259 0.8151436 0
vn -0.579259 0.8151436 0
vn -0.9199435 0.392051 0
vn -0.9891847 -0.1466748 0
vn -0.9891847 -0.1466748 0
vn -0.9199435 0.392051 0
vn -0.579259 0.8151436 0
vn -0.579259 0.8151436 0
vn -0.9199435 0.392051 0
vn -0.9891847 -0.1466748 0
vn -0.9891847 -0.1466748 0
vn -0.9199435 0.392051 0
vn -0.579259 0.8151436 0
vn -0.579259 0.8151436 0
vn -0.9199435 0.392051 0
vn -0.9891847 -0.1466748 0
vn -0.9891847 -0.1466748 0
vn -0.9199435 0.392051 0
vn -0.579259 0.8151436 0
vn -0.579259 0.8151436 0
vn -0.9199435 0.392051 0
vn -0.9891847 -0.1466748 0
vn -0.9891847 -0.1466748 0
vn 0.6934264 -0.7205274 0
vn 0.6934264 -0.7205274 0
vn 0.6934264 -0.7205274 0
vn 0.6934264 -0.7205274 0
vn 0.6934264 -0.7205274 0
vn 0.6934264 -0.7205274 0
vn 0.6934264 -0.7205274 0
vn 0.6934264 -0.7205274 0
vn 0.6934264 -0.7205274 0
vn 0.6934264 -0.7205274 0
vn 0.6934264 -0.7205274 0
vn 0.6934264 -0.7205274 0
vn 0.6934264 -0.7205274 0
vn 0.6934264 -0.7205274 0
vn 0.6934264 -0.7205274 0
vn 0.6934264 -0.7205274 0
vn 0.6934264 -0.7205274 0
vn 0.6934264 -0.7205274 0
vn 0.6934264 -0.7205274 0
vn 0.6934264 -0.7205274 0
vn 0.6934264 -0.7205274 0
vn 0.6934264 -0.7205274 0
vn 0.6934264 -0.7205274 0
vn 0.6934264 -0.7205274 0
vn 0.6934264 -0.7205274 0
vn 0.6934264 -0.7205274 0
vn 0.6934264 -0.7205274 0
vn 0.6934264 -0.7205274 0
vn 0.6934264 -0.7205274 0
vn 0.6934264 -0.7205274 0
vn 0.6934264 -0.7205274 0
vn 0.6934264 -0.7205274 0
g TSP_House_Wall_Short_10B_Blinds_0
f 3/3/3 2/2/2 1/1/1
f 2/2/2 4/4/4 1/1/1
f 5/5/5 1/1/1 4/4/4
f 6/6/6 5/5/5 4/4/4
f 9/9/9 8/8/8 7/7/7
f 8/8/8 10/10/10 7/7/7
f 11/11/11 7/7/7 10/10/10
f 12/12/12 11/11/11 10/10/10
f 15/15/15 14/14/14 13/13/13
f 14/14/14 16/16/16 13/13/13
f 17/17/17 13/13/13 16/16/16
f 18/18/18 17/17/17 16/16/16
f 21/21/21 20/20/20 19/19/19
f 22/22/22 21/21/21 19/19/19
f 25/25/25 24/24/24 23/23/23
f 26/26/26 25/25/25 23/23/23
f 29/29/29 28/28/28 27/27/27
f 28/28/28 30/30/30 27/27/27
f 31/31/31 27/27/27 30/30/30
f 32/32/32 31/31/31 30/30/30
f 35/35/35 34/34/34 33/33/33
f 36/36/36 35/35/35 33/33/33
f 39/39/39 38/38/38 37/37/37
f 38/38/38 40/40/40 37/37/37
f 41/41/41 37/37/37 40/40/40
f 42/42/42 41/41/41 40/40/40
f 45/45/45 44/44/44 43/43/43
f 46/46/46 45/45/45 43/43/43
f 49/49/49 48/48/48 47/47/47
f 50/50/50 49/49/49 47/47/47
f 53/53/53 52/52/52 51/51/51
f 52/52/52 54/54/54 51/51/51
f 55/55/55 51/51/51 54/54/54
f 56/56/56 55/55/55 54/54/54
f 59/59/59 58/58/58 57/57/57
f 58/58/58 60/60/60 57/57/57
f 61/61/61 57/57/57 60/60/60
f 62/62/62 61/61/61 60/60/60
f 65/65/65 64/64/64 63/63/63
f 64/64/64 66/66/66 63/63/63
f 67/67/67 63/63/63 66/66/66
f 68/68/68 67/67/67 66/66/66
f 71/71/71 70/70/70 69/69/69
f 72/72/72 71/71/71 69/69/69
f 75/75/75 74/74/74 73/73/73
f 76/76/76 75/75/75 73/73/73
f 79/79/79 78/78/78 77/77/77
f 80/80/80 79/79/79 77/77/77
f 83/83/83 82/82/82 81/81/81
f 82/82/82 84/84/84 81/81/81
f 85/85/85 81/81/81 84/84/84
f 86/86/86 85/85/85 84/84/84
f 89/89/89 88/88/88 87/87/87
f 88/88/88 90/90/90 87/87/87
f 91/91/91 87/87/87 90/90/90
f 92/92/92 91/91/91 90/90/90
f 95/95/95 94/94/94 93/93/93
f 94/94/94 96/96/96 93/93/93
f 97/97/97 93/93/93 96/96/96
f 98/98/98 97/97/97 96/96/96
f 101/101/101 100/100/100 99/99/99
f 100/100/100 102/102/102 99/99/99
f 103/103/103 99/99/99 102/102/102
f 104/104/104 103/103/103 102/102/102
f 107/107/107 106/106/106 105/105/105
f 106/106/106 108/108/108 105/105/105
f 109/109/109 105/105/105 108/108/108
f 110/110/110 109/109/109 108/108/108
f 113/113/113 112/112/112 111/111/111
f 112/112/112 114/114/114 111/111/111
f 115/115/115 111/111/111 114/114/114
f 116/116/116 115/115/115 114/114/114
f 119/119/119 118/118/118 117/117/117
f 118/118/118 120/120/120 117/117/117
f 121/121/121 117/117/117 120/120/120
f 122/122/122 121/121/121 120/120/120
f 125/125/125 124/124/124 123/123/123
f 124/124/124 126/126/126 123/123/123
f 127/127/127 123/123/123 126/126/126
f 128/128/128 127/127/127 126/126/126
f 131/131/131 130/130/130 129/129/129
f 132/132/132 131/131/131 129/129/129
f 135/135/135 134/134/134 133/133/133
f 136/136/136 135/135/135 133/133/133
f 139/139/139 138/138/138 137/137/137
f 140/140/140 139/139/139 137/137/137
f 143/143/143 142/142/142 141/141/141
f 144/144/144 143/143/143 141/141/141
f 147/147/147 146/146/146 145/145/145
f 148/148/148 147/147/147 145/145/145
f 151/151/151 150/150/150 149/149/149
f 152/152/152 151/151/151 149/149/149
f 155/155/155 154/154/154 153/153/153
f 156/156/156 155/155/155 153/153/153
f 159/159/159 158/158/158 157/157/157
f 160/160/160 159/159/159 157/157/157
