g TSP_House_Chimney_01A
v -0.475 0.4285717 1
v -0.4749999 0.8571429 1
v 0.475 0.8571429 1
v 0.475 0.4285717 1
v -0.4749999 0.8571429 1
v -0.4749999 1.285714 1
v 0.475 1.285714 1
v 0.475 0.8571429 1
v -0.4749999 1.285714 1
v -0.4749999 1.714286 1
v 0.475 1.714286 1
v 0.475 1.285714 1
v -0.4749999 1.714286 1
v -0.475 2.142857 1
v 0.475 2.142857 1
v 0.475 1.714286 1
v -0.475 2.142857 1
v -0.475 2.571429 1
v 0.475 2.571429 1
v 0.475 2.142857 1
v -0.475 2.571429 1
v -0.475 3 1
v 0.475 3 1
v 0.475 2.571429 1
v 0.475 0.4285717 -1
v 0.475 0.8571432 -1
v -0.4750001 0.8571429 -1
v -0.4750001 0.4285717 -1
v 0.475 -2.384186E-07 -1
v -0.4750001 -2.384186E-07 -1
v 0.475 0.8571432 -1
v 0.475 1.285714 -1
v -0.4750001 1.285714 -1
v -0.4750001 0.8571429 -1
v 0.475 1.285714 -1
v 0.475 1.714286 -1
v -0.4750001 1.714286 -1
v -0.4750001 1.285714 -1
v 0.475 1.714286 -1
v 0.475 2.142857 -1
v -0.4750001 2.142857 -1
v -0.4750001 1.714286 -1
v 0.475 2.142857 -1
v 0.475 2.571429 -1
v -0.4750001 2.571429 -1
v -0.4750001 2.142857 -1
v 0.475 2.571429 -1
v 0.475 3 -1
v -0.475 3 -1
v -0.4750001 2.571429 -1
v 0.475 0.4285717 -0.3333333
v 0.475 0.8571432 -1
v 0.475 0.4285717 -1
v 0.475 0.8571432 -0.3333333
v 0.475 0.4285717 0.3333333
v 0.475 0.8571432 0.3333333
v 0.475 0.8571432 -0.3333333
v 0.475 1.285714 -1
v 0.475 0.8571432 -1
v 0.475 1.285714 -0.3333333
v 0.475 0.8571432 0.3333333
v 0.475 1.285714 0.3333333
v 0.475 1.285714 -0.3333333
v 0.475 1.714286 -0.3333333
v 0.475 1.714286 -1
v 0.475 1.285714 -1
v 0.475 1.714286 -0.3333333
v 0.475 2.142857 -1
v 0.475 1.714286 -1
v 0.475 2.142857 -0.3333333
v 0.475 1.714286 0.3333333
v 0.475 2.142857 0.3333333
v 0.475 1.714286 1
v 0.475 2.142857 1
v 0.475 2.142857 -0.3333333
v 0.475 2.571429 -1
v 0.475 2.142857 -1
v 0.475 2.571429 -0.3333333
v 0.475 2.142857 0.3333333
v 0.475 2.571429 0.3333333
v 0.475 2.571429 -0.3333333
v 0.475 3 -1
v 0.475 2.571429 -1
v 0.475 3 -0.3333333
v 0.475 2.571429 0.3333333
v 0.475 3 0.3333333
v 0.475 2.571429 1
v 0.475 3 1
v 0.475 2.142857 1
v 0.475 2.571429 1
v 0.475 2.571429 0.3333333
v 0.475 2.142857 0.3333333
v 0.475 1.285714 1
v 0.475 1.714286 1
v 0.475 1.714286 0.3333333
v 0.475 1.285714 0.3333333
v 0.475 1.714286 -0.3333333
v 0.475 1.285714 -0.3333333
v 0.475 0.8571429 1
v 0.475 1.285714 1
v 0.475 1.285714 0.3333333
v 0.475 0.8571432 0.3333333
v 0.475 0.4285717 1
v 0.475 0.8571429 1
v 0.475 0.8571432 0.3333333
v 0.475 0.4285717 0.3333333
v -0.475 0.4285717 0.3333333
v -0.4749999 0.8571429 1
v -0.475 0.4285717 1
v -0.475 0.8571429 0.3333333
v -0.475 0.4285717 -0.3333333
v -0.475 0.8571429 -0.3333333
v -0.475 0.8571429 0.3333333
v -0.475 1.285714 0.3333333
v -0.4749999 1.285714 1
v -0.4749999 0.8571429 1
v -0.475 1.285714 0.3333333
v -0.475 1.714286 0.3333333
v -0.4749999 1.714286 1
v -0.4749999 1.285714 1
v -0.475 1.714286 0.3333333
v -0.475 2.142857 0.3333333
v -0.475 2.142857 1
v -0.4749999 1.714286 1
v -0.475 2.142857 0.3333333
v -0.475 2.571429 0.3333333
v -0.475 2.571429 1
v -0.475 2.142857 1
v -0.475 2.571429 0.3333333
v -0.475 3 0.3333333
v -0.475 3 1
v -0.475 2.571429 1
v -0.4750001 2.571429 -1
v -0.475 3 -1
v -0.475 3 -0.3333333
v -0.475 2.571429 -0.3333333
v -0.475 2.571429 -0.3333333
v -0.475 3 -0.3333333
v -0.475 3 0.3333333
v -0.475 2.571429 0.3333333
v -0.4750001 2.142857 -1
v -0.4750001 2.571429 -1
v -0.475 2.571429 -0.3333333
v -0.475 2.142857 -0.3333333
v -0.475 2.142857 -0.3333333
v -0.475 2.571429 -0.3333333
v -0.475 2.571429 0.3333333
v -0.475 2.142857 0.3333333
v -0.4750001 1.714286 -1
v -0.4750001 2.142857 -1
v -0.475 2.142857 -0.3333333
v -0.475 1.714286 -0.3333333
v -0.475 2.142857 0.3333333
v -0.475 1.714286 0.3333333
v -0.4750001 1.285714 -1
v -0.4750001 1.714286 -1
v -0.475 1.714286 -0.3333333
v -0.475 1.285714 -0.3333333
v -0.475 1.285714 -0.3333333
v -0.475 1.714286 -0.3333333
v -0.475 1.714286 0.3333333
v -0.475 1.285714 0.3333333
v -0.4750001 0.8571429 -1
v -0.4750001 1.285714 -1
v -0.475 1.285714 -0.3333333
v -0.475 0.8571429 -0.3333333
v -0.475 0.8571429 -0.3333333
v -0.475 1.285714 -0.3333333
v -0.475 1.285714 0.3333333
v -0.475 0.8571429 0.3333333
v -0.4750001 0.4285717 -1
v -0.4750001 0.8571429 -1
v -0.475 0.8571429 -0.3333333
v -0.475 0.4285717 -0.3333333
v -0.475 -2.384186E-07 1
v -0.475 0.4285717 1
v 0.475 0.4285717 1
v 0.475 -2.384186E-07 1
v 0.475 -2.384186E-07 -0.3333333
v 0.475 0.4285717 -1
v 0.475 -2.384186E-07 -1
v 0.475 0.4285717 -0.3333333
v 0.475 -2.384186E-07 0.3333333
v 0.475 0.4285717 0.3333333
v 0.475 -2.384186E-07 1
v 0.475 0.4285717 1
v 0.475 0.4285717 0.3333333
v 0.475 -2.384186E-07 0.3333333
v -0.475 -2.384186E-07 0.3333333
v -0.475 0.4285717 0.3333333
v -0.475 0.4285717 1
v -0.475 -2.384186E-07 1
v -0.4750001 -2.384186E-07 -1
v -0.4750001 0.4285717 -1
v -0.475 0.4285717 -0.3333333
v -0.475 -2.384186E-07 -0.3333333
v -0.475 -2.384186E-07 -0.3333333
v -0.475 0.4285717 -0.3333333
v -0.475 0.4285717 0.3333333
v -0.475 -2.384186E-07 0.3333333
v 0.475 3 1
v -0.475 3 1
v -0.475 3 -1
v 0.475 3 -1
v 0.475 -2.384186E-07 1
v 0.475 -2.384186E-07 -1
v -0.4750001 -2.384186E-07 -1
v -0.475 -2.384186E-07 1
vt 0.4568078 0.4560514
vt 0.4568078 0.4520402
vt 0.4568078 0.4520402
vt 0.4568078 0.4560514
vt 0.4568078 0.45759
vt 0.4568078 0.4535788
vt 0.4568078 0.4535788
vt 0.4568078 0.45759
vt 0.4568078 0.4616008
vt 0.4568078 0.4575897
vt 0.4568078 0.4575897
vt 0.4568078 0.4616008
vt 0.4568078 0.4656122
vt 0.4568078 0.461601
vt 0.4568078 0.461601
vt 0.4568078 0.4656122
vt 0.4568078 0.4678242
vt 0.4568078 0.4638128
vt 0.4568078 0.4638128
vt 0.4568078 0.4678242
vt 0.4568078 0.4709324
vt 0.4568078 0.4669209
vt 0.4568078 0.4669209
vt 0.4568078 0.4709324
vt 0.4659041 0.4634696
vt 0.4659041 0.4594584
vt 0.4659041 0.4594584
vt 0.4659041 0.4634696
vt 0.4659041 0.4678242
vt 0.4659041 0.4678242
vt 0.4659041 0.4674874
vt 0.4659041 0.4634762
vt 0.4659041 0.4634762
vt 0.4659041 0.4674874
vt 0.4659041 0.4665463
vt 0.4659041 0.4625352
vt 0.4659041 0.4625352
vt 0.4659041 0.4665463
vt 0.4659041 0.4656122
vt 0.4659041 0.461601
vt 0.4659041 0.461601
vt 0.4659041 0.4656122
vt 0.4659041 0.4678242
vt 0.4659041 0.4638128
vt 0.4659041 0.4638128
vt 0.4659041 0.4678242
vt 0.4659041 0.4659869
vt 0.4659041 0.4619754
vt 0.4659041 0.4619754
vt 0.4659041 0.4659869
vt 0.462872 0.4723963
vt 0.4659041 0.4683852
vt 0.4659041 0.4723963
vt 0.462872 0.4683852
vt 0.4598399 0.4723963
vt 0.4598399 0.4683852
vt 0.462872 0.4764076
vt 0.4659041 0.4723963
vt 0.4659041 0.4764076
vt 0.462872 0.4714619
vt 0.4598398 0.4764075
vt 0.4598399 0.4714619
vt 0.462872 0.4714619
vt 0.462872 0.4665165
vt 0.4659041 0.4665165
vt 0.4659041 0.4705276
vt 0.462872 0.4745389
vt 0.4659041 0.4705277
vt 0.4659041 0.4745389
vt 0.462872 0.4705277
vt 0.4598399 0.4745389
vt 0.4598399 0.4705277
vt 0.4568078 0.4745389
vt 0.4568078 0.4705277
vt 0.462872 0.4866416
vt 0.4659041 0.4826307
vt 0.4659041 0.4866419
vt 0.462872 0.4812447
vt 0.4598399 0.4866416
vt 0.4598399 0.4812447
vt 0.462872 0.4762993
vt 0.4659041 0.4709021
vt 0.4659041 0.4749134
vt 0.462872 0.4724393
vt 0.4598399 0.4762993
vt 0.4598399 0.4724393
vt 0.4568078 0.4749134
vt 0.4568078 0.4709021
vt 0.4568078 0.4816965
vt 0.4568078 0.4776852
vt 0.4598399 0.4762993
vt 0.4598399 0.4816962
vt 0.4568078 0.475473
vt 0.4568078 0.4714619
vt 0.4598399 0.4714619
vt 0.4598399 0.4764073
vt 0.462872 0.4714619
vt 0.462872 0.4764073
vt 0.4568078 0.4764076
vt 0.4568078 0.4723963
vt 0.4598399 0.4714619
vt 0.4598398 0.4764075
vt 0.4568078 0.4649781
vt 0.4568078 0.460967
vt 0.4598399 0.460967
vt 0.4598399 0.4649781
vt 0.4598399 0.4723963
vt 0.4568079 0.4683852
vt 0.4568079 0.4723963
vt 0.4598399 0.4683852
vt 0.462872 0.4723963
vt 0.462872 0.4683852
vt 0.4598399 0.4764076
vt 0.4598399 0.4714619
vt 0.4568079 0.4723963
vt 0.4568079 0.4764076
vt 0.4598399 0.4714619
vt 0.4598399 0.4665165
vt 0.4568079 0.4665165
vt 0.4568079 0.4705276
vt 0.4598399 0.4784452
vt 0.4598399 0.4744339
vt 0.4568079 0.4744339
vt 0.4568079 0.4784452
vt 0.4598399 0.4866416
vt 0.4598399 0.4812447
vt 0.4568079 0.4826307
vt 0.4568079 0.4866419
vt 0.4598399 0.4762993
vt 0.4598399 0.4724393
vt 0.4568079 0.4709021
vt 0.4568079 0.4749134
vt 0.4659041 0.4749134
vt 0.4659041 0.4709021
vt 0.462872 0.4724393
vt 0.462872 0.4762993
vt 0.462872 0.4743462
vt 0.462872 0.4704862
vt 0.4598399 0.4704862
vt 0.4598399 0.4743462
vt 0.4659041 0.4816965
vt 0.4659041 0.4776852
vt 0.462872 0.4762993
vt 0.462872 0.4816962
vt 0.462872 0.4827354
vt 0.462872 0.4773385
vt 0.4598399 0.4773385
vt 0.4598399 0.4827354
vt 0.4659041 0.4745389
vt 0.4659041 0.4705277
vt 0.462872 0.4705277
vt 0.462872 0.4745389
vt 0.4598399 0.4705277
vt 0.4598399 0.4745389
vt 0.4659041 0.4774261
vt 0.4659041 0.473415
vt 0.462872 0.473415
vt 0.462872 0.4783605
vt 0.462872 0.4764073
vt 0.462872 0.4714619
vt 0.4598399 0.4714619
vt 0.4598399 0.4764073
vt 0.4659041 0.4764076
vt 0.4659041 0.4723963
vt 0.462872 0.4714619
vt 0.4628721 0.4764075
vt 0.4628721 0.4764075
vt 0.462872 0.4714619
vt 0.4598399 0.4714619
vt 0.4598399 0.4764076
vt 0.4659041 0.4649781
vt 0.4659041 0.460967
vt 0.462872 0.460967
vt 0.462872 0.4649781
vt 0.4568078 0.4678242
vt 0.4568078 0.4638128
vt 0.4568078 0.4638128
vt 0.4568078 0.4678242
vt 0.462872 0.4866416
vt 0.4659041 0.4826307
vt 0.4659041 0.4866419
vt 0.462872 0.4812447
vt 0.4598399 0.4866416
vt 0.4598399 0.4812447
vt 0.4568078 0.4816965
vt 0.4568078 0.4776852
vt 0.4598399 0.4762993
vt 0.4598399 0.4816962
vt 0.4598399 0.4846885
vt 0.4598399 0.4792916
vt 0.4568079 0.4806775
vt 0.4568079 0.4846888
vt 0.4659041 0.4816965
vt 0.4659041 0.4776852
vt 0.462872 0.4762993
vt 0.462872 0.4816962
vt 0.462872 0.4866416
vt 0.462872 0.4812447
vt 0.4598399 0.4812447
vt 0.4598399 0.4866416
vt 0.4613559 0.4644482
vt 0.4613559 0.4644482
vt 0.4613559 0.4644482
vt 0.4613559 0.4644482
vt 0.4613559 0.4678242
vt 0.4613559 0.4678242
vt 0.4613559 0.4678242
vt 0.4613559 0.4678242
vn 0 0 1
vn 0 0 1
vn 0 0 1
vn 0 0 1
vn 0 0 1
vn 0 0 1
vn 0 0 1
vn 0 0 1
vn 0 0 1
vn 0 0 1
vn 0 0 1
vn 0 0 1
vn 0 0 1
vn 0 0 1
vn 0 0 1
vn 0 0 1
vn 0 0 1
vn 0 0 1
vn 0 0 1
vn 0 0 1
vn 0 0 1
vn 0 0 1
vn 0 0 1
vn 0 0 1
vn 0 0 -1
vn 0 0 -1
vn 0 0 -1
vn 0 0 -1
vn 0 0 -1
vn 0 0 -1
vn 0 0 -1
vn 0 0 -1
vn 0 0 -1
vn 0 0 -1
vn 0 0 -1
vn 0 0 -1
vn 0 0 -1
vn 0 0 -1
vn 0 0 -1
vn 0 0 -1
vn 0 0 -1
vn 0 0 -1
vn 0 0 -1
vn 0 0 -1
vn 0 0 -1
vn 0 0 -1
vn 0 0 -1
vn 0 0 -1
vn 0 0 -1
vn 0 0 -1
vn 1 0 0
vn 1 0 0
vn 1 0 0
vn 1 0 0
vn 1 0 0
vn 1 0 0
vn 1 0 0
vn 1 0 0
vn 1 0 0
vn 1 0 0
vn 1 0 0
vn 1 0 0
vn 1 0 0
vn 1 0 0
vn 1 0 0
vn 1 0 0
vn 1 0 0
vn 1 0 0
vn 1 0 0
vn 1 0 0
vn 1 0 0
vn 1 0 0
vn 1 0 0
vn 1 0 0
vn 1 0 0
vn 1 0 0
vn 1 0 0
vn 1 0 0
vn 1 0 0
vn 1 0 0
vn 1 0 0
vn 1 0 0
vn 1 0 0
vn 1 0 0
vn 1 0 0
vn 1 0 0
vn 1 0 0
vn 1 0 0
vn 1 0 0
vn 1 0 0
vn 1 0 0
vn 1 0 0
vn 1 0 0
vn 1 0 0
vn 1 0 0
vn 1 0 0
vn 1 0 0
vn 1 0 0
vn 1 0 0
vn 1 0 0
vn 1 0 0
vn 1 0 0
vn 1 0 0
vn 1 0 0
vn 1 0 0
vn 1 0 0
vn -1 0 0
vn -1 0 0
vn -1 0 0
vn -1 0 0
vn -1 0 0
vn -1 0 0
vn -1 0 0
vn -1 0 0
vn -1 0 0
vn -1 0 0
vn -1 0 0
vn -1 0 0
vn -1 0 0
vn -1 0 0
vn -1 0 0
vn -1 0 0
vn -1 0 0
vn -1 0 0
vn -1 0 0
vn -1 0 0
vn -1 0 0
vn -1 0 0
vn -1 0 0
vn -1 0 0
vn -1 0 0
vn -1 0 0
vn -1 0 0
vn -1 0 0
vn -1 0 0
vn -1 0 0
vn -1 0 0
vn -1 0 0
vn -1 0 0
vn -1 0 0
vn -1 0 0
vn -1 0 0
vn -1 0 0
vn -1 0 0
vn -1 0 0
vn -1 0 0
vn -1 0 0
vn -1 0 0
vn -1 0 0
vn -1 0 0
vn -1 0 0
vn -1 0 0
vn -1 0 0
vn -1 0 0
vn -1 0 0
vn -1 0 0
vn -1 0 0
vn -1 0 0
vn -1 0 0
vn -1 0 0
vn -1 0 0
vn -1 0 0
vn -1 0 0
vn -1 0 0
vn -1 0 0
vn -1 0 0
vn -1 0 0
vn -1 0 0
vn -1 0 0
vn -1 0 0
vn -1 0 0
vn -1 0 0
vn -1 0 0
vn -1 0 0
vn 0 0 1
vn 0 0 1
vn 0 0 1
vn 0 0 1
vn 1 0 0
vn 1 0 0
vn 1 0 0
vn 1 0 0
vn 1 0 0
vn 1 0 0
vn 1 0 0
vn 1 0 0
vn 1 0 0
vn 1 0 0
vn -1 0 0
vn -1 0 0
vn -1 0 0
vn -1 0 0
vn -1 0 0
vn -1 0 0
vn -1 0 0
vn -1 0 0
vn -1 0 0
vn -1 0 0
vn -1 0 0
vn -1 0 0
vn 0 1 0
vn 0 1 0
vn 0 1 0
vn 0 1 0
vn 0 -1 0
vn 0 -1 0
vn 0 -1 0
vn 0 -1 0
g TSP_House_Chimney_01A_0
f 3/3/3 2/2/2 1/1/1
f 4/4/4 3/3/3 1/1/1
f 7/7/7 6/6/6 5/5/5
f 8/8/8 7/7/7 5/5/5
f 11/11/11 10/10/10 9/9/9
f 12/12/12 11/11/11 9/9/9
f 15/15/15 14/14/14 13/13/13
f 16/16/16 15/15/15 13/13/13
f 19/19/19 18/18/18 17/17/17
f 20/20/20 19/19/19 17/17/17
f 23/23/23 22/22/22 21/21/21
f 24/24/24 23/23/23 21/21/21
f 27/27/27 26/26/26 25/25/25
f 28/28/28 27/27/27 25/25/25
f 28/28/28 25/25/25 29/29/29
f 30/30/30 28/28/28 29/29/29
f 33/33/33 32/32/32 31/31/31
f 34/34/34 33/33/33 31/31/31
f 37/37/37 36/36/36 35/35/35
f 38/38/38 37/37/37 35/35/35
f 41/41/41 40/40/40 39/39/39
f 42/42/42 41/41/41 39/39/39
f 45/45/45 44/44/44 43/43/43
f 46/46/46 45/45/45 43/43/43
f 49/49/49 48/48/48 47/47/47
f 50/50/50 49/49/49 47/47/47
f 53/53/53 52/52/52 51/51/51
f 52/52/52 54/54/54 51/51/51
f 51/51/51 54/54/54 55/55/55
f 54/54/54 56/56/56 55/55/55
f 59/59/59 58/58/58 57/57/57
f 58/58/58 60/60/60 57/57/57
f 57/57/57 60/60/60 61/61/61
f 60/60/60 62/62/62 61/61/61
f 65/65/65 64/64/64 63/63/63
f 66/66/66 65/65/65 63/63/63
f 69/69/69 68/68/68 67/67/67
f 68/68/68 70/70/70 67/67/67
f 67/67/67 70/70/70 71/71/71
f 70/70/70 72/72/72 71/71/71
f 71/71/71 72/72/72 73/73/73
f 72/72/72 74/74/74 73/73/73
f 77/77/77 76/76/76 75/75/75
f 76/76/76 78/78/78 75/75/75
f 75/75/75 78/78/78 79/79/79
f 78/78/78 80/80/80 79/79/79
f 83/83/83 82/82/82 81/81/81
f 82/82/82 84/84/84 81/81/81
f 81/81/81 84/84/84 85/85/85
f 84/84/84 86/86/86 85/85/85
f 85/85/85 86/86/86 87/87/87
f 86/86/86 88/88/88 87/87/87
f 91/91/91 90/90/90 89/89/89
f 92/92/92 91/91/91 89/89/89
f 95/95/95 94/94/94 93/93/93
f 96/96/96 95/95/95 93/93/93
f 97/97/97 95/95/95 96/96/96
f 98/98/98 97/97/97 96/96/96
f 101/101/101 100/100/100 99/99/99
f 102/102/102 101/101/101 99/99/99
f 105/105/105 104/104/104 103/103/103
f 106/106/106 105/105/105 103/103/103
f 109/109/109 108/108/108 107/107/107
f 108/108/108 110/110/110 107/107/107
f 107/107/107 110/110/110 111/111/111
f 110/110/110 112/112/112 111/111/111
f 115/115/115 114/114/114 113/113/113
f 116/116/116 115/115/115 113/113/113
f 119/119/119 118/118/118 117/117/117
f 120/120/120 119/119/119 117/117/117
f 123/123/123 122/122/122 121/121/121
f 124/124/124 123/123/123 121/121/121
f 127/127/127 126/126/126 125/125/125
f 128/128/128 127/127/127 125/125/125
f 131/131/131 130/130/130 129/129/129
f 132/132/132 131/131/131 129/129/129
f 135/135/135 134/134/134 133/133/133
f 136/136/136 135/135/135 133/133/133
f 139/139/139 138/138/138 137/137/137
f 140/140/140 139/139/139 137/137/137
f 143/143/143 142/142/142 141/141/141
f 144/144/144 143/143/143 141/141/141
f 147/147/147 146/146/146 145/145/145
f 148/148/148 147/147/147 145/145/145
f 151/151/151 150/150/150 149/149/149
f 152/152/152 151/151/151 149/149/149
f 153/153/153 151/151/151 152/152/152
f 154/154/154 153/153/153 152/152/152
f 157/157/157 156/156/156 155/155/155
f 158/158/158 157/157/157 155/155/155
f 161/161/161 160/160/160 159/159/159
f 162/162/162 161/161/161 159/159/159
f 165/165/165 164/164/164 163/163/163
f 166/166/166 165/165/165 163/163/163
f 169/169/169 168/168/168 167/167/167
f 170/170/170 169/169/169 167/167/167
f 173/173/173 172/172/172 171/171/171
f 174/174/174 173/173/173 171/171/171
f 177/177/177 176/176/176 175/175/175
f 178/178/178 177/177/177 175/175/175
f 181/181/181 180/180/180 179/179/179
f 180/180/180 182/182/182 179/179/179
f 179/179/179 182/182/182 183/183/183
f 182/182/182 184/184/184 183/183/183
f 187/187/187 186/186/186 185/185/185
f 188/188/188 187/187/187 185/185/185
f 191/191/191 190/190/190 189/189/189
f 192/192/192 191/191/191 189/189/189
f 195/195/195 194/194/194 193/193/193
f 196/196/196 195/195/195 193/193/193
f 199/199/199 198/198/198 197/197/197
f 200/200/200 199/199/199 197/197/197
f 203/203/203 202/202/202 201/201/201
f 204/204/204 203/203/203 201/201/201
f 207/207/207 206/206/206 205/205/205
f 208/208/208 207/207/207 205/205/205
