g TSP_Antenna_01A_Dish
v -0.2767837 -0.154665 -0.05187269
v -0.2767837 -0.154665 0.05187287
v -0.2767837 0.154665 0.05187287
v -0.2767837 0.154665 -0.05187269
v -0.5738587 -0.305851 0.6350041
v -0.4800771 0.07831391 0.3431156
v -0.5738587 4.472565E-05 0.7048227
v -0.5738586 0.3057708 0.6350427
v -0.4800771 -0.2194305 0.2751575
v -0.4800773 0.07831393 -0.3431153
v -0.5738587 -0.5510244 0.439485
v -0.5738589 -0.6871611 0.1567944
v -0.4800771 0.3170864 0.1527009
v -0.5738587 0.5510803 0.4394149
v -0.5738587 0.6871412 0.1568815
v -0.4800772 0.3170864 -0.1527006
v -0.5738589 0.6871412 -0.1568812
v -0.573859 0.5510803 -0.4394146
v -0.573859 0.3057708 -0.6350424
v -0.5738591 4.483932E-05 -0.7048224
v -0.4800773 -0.2194305 -0.2751572
v -0.5738591 -0.3058512 -0.6350037
v -0.573859 -0.5510244 -0.4394846
v -0.4800772 -0.3519393 1.620507E-07
v -0.573859 -0.6871611 -0.1567941
v -0.4130522 -0.03086864 -0.03086851
v -1.005828E-08 -0.03086864 -0.03086864
v -1.005828E-08 0.03086864 -0.03086864
v 1.005828E-08 -0.03086864 0.03086864
v -0.4130522 0.03086864 -0.03086851
v -0.4130522 -0.03086864 0.03086878
v -0.4130522 0.03086864 0.03086878
v 1.005828E-08 0.03086864 0.03086864
v -0.2767837 -0.154665 0.05187287
v -0.4021839 -0.2508005 0.08411559
v -0.4021839 0.2508005 0.08411559
v -0.402184 -0.2508005 -0.08411532
v -0.2767837 0.154665 0.05187287
v -0.2767837 -0.154665 -0.05187269
v -0.2767837 0.154665 -0.05187269
v -0.402184 0.2508005 -0.08411532
v -0.5931923 0.6058008 0.4831102
v -0.4467967 0.2237947 0.4647145
v -0.5931922 0.3361941 0.6981143
v -0.4467967 0.403264 0.3215924
v -0.5931924 0.7554212 0.1724201
v -0.4467967 3.803753E-08 0.515794
v -0.5931923 2.66713E-08 0.7748485
v -0.4467968 0.502862 0.1147751
v -0.5931925 0.7554212 -0.1724198
v -0.3163143 7.219931E-08 1.030683E-07
v -0.4467967 -0.2237943 0.4647146
v -0.5931923 -0.3361937 0.6981145
v -0.4467968 0.502862 -0.1147748
v -0.4467967 -0.4032638 0.3215926
v -0.4467969 0.403264 -0.3215921
v -0.5931926 0.6058008 -0.4831098
v -0.5931923 -0.6058006 0.4831104
v -0.5931927 0.3361942 -0.698114
v -0.4467969 -0.5028619 0.1147752
v -0.5931925 -0.7554212 0.1724202
v -0.446797 0.2237947 -0.4647142
v -0.5931928 1.436701E-07 -0.7748481
v -0.446797 -0.5028619 -0.1147748
v -0.5931926 -0.7554212 -0.1724198
v -0.446797 1.159202E-07 -0.5157938
v -0.5931928 -0.3361939 -0.6981141
v -0.446797 -0.4032638 -0.3215923
v -0.5931927 -0.6058006 -0.48311
v -0.446797 -0.2237945 -0.4647142
v -0.5738586 0.3057708 0.6350427
v -0.5931922 0.3361941 0.6981143
v -0.5931923 2.66713E-08 0.7748485
v -0.5738587 4.472565E-05 0.7048227
v -0.5738587 0.5510803 0.4394149
v -0.5931923 -0.3361937 0.6981145
v -0.5931923 0.6058008 0.4831102
v -0.5738587 -0.305851 0.6350041
v -0.5738587 0.6871412 0.1568815
v -0.5931923 -0.6058006 0.4831104
v -0.5931924 0.7554212 0.1724201
v -0.5738587 -0.5510244 0.439485
v -0.5738589 0.6871412 -0.1568812
v -0.5931925 -0.7554212 0.1724202
v -0.5931925 0.7554212 -0.1724198
v -0.5738589 -0.6871611 0.1567944
v -0.573859 0.5510803 -0.4394146
v -0.5931926 -0.7554212 -0.1724198
v -0.5931926 0.6058008 -0.4831098
v -0.573859 -0.6871611 -0.1567941
v -0.573859 0.3057708 -0.6350424
v -0.5931927 -0.6058006 -0.48311
v -0.5931927 0.3361942 -0.698114
v -0.573859 -0.5510244 -0.4394846
v -0.5738591 4.483932E-05 -0.7048224
v -0.5931928 -0.3361939 -0.6981141
v -0.5931928 1.436701E-07 -0.7748481
v -0.5738591 -0.3058512 -0.6350037
vt 0.4503933 0.4642752
vt 0.4560153 0.4642752
vt 0.4560153 0.4755193
vt 0.4503933 0.4755193
vt 0.4960266 0.1482931
vt 0.490729 0.1370415
vt 0.4972956 0.1427335
vt 0.4960288 0.1371834
vt 0.4894939 0.1424529
vt 0.478257 0.1370415
vt 0.4924797 0.1527501
vt 0.4873394 0.1552181
vt 0.4872683 0.1327019
vt 0.4924788 0.1327211
vt 0.4873443 0.130255
vt 0.4817177 0.1327019
vt 0.4816421 0.1302482
vt 0.4765126 0.132725
vt 0.4729522 0.1371789
vt 0.4716904 0.1427335
vt 0.4794921 0.1424529
vt 0.4729527 0.1482942
vt 0.4765088 0.1527439
vt 0.484493 0.1448612
vt 0.4816433 0.155224
vt 0.4554485 0.465409
vt 0.4554485 0.465409
vt 0.4554485 0.4743855
vt 0.4509602 0.465409
vt 0.4554485 0.4743855
vt 0.4509602 0.465409
vt 0.4509602 0.4743855
vt 0.4509602 0.4743855
vt 0.4588263 0.4586532
vt 0.4623209 0.4516644
vt 0.4623209 0.4881301
vt 0.4440879 0.4516644
vt 0.4588263 0.4811413
vt 0.4475824 0.4586532
vt 0.4475824 0.4811413
vt 0.4440879 0.4881301
vt 0.4757126 0.1537463
vt 0.476047 0.1468034
vt 0.471805 0.1488463
vt 0.4786482 0.1500652
vt 0.4813593 0.1564656
vt 0.4751186 0.142736
vt 0.4704104 0.142736
vt 0.482407 0.1518754
vt 0.4876267 0.1564656
vt 0.484493 0.142736
vt 0.476047 0.1386686
vt 0.471805 0.1366258
vt 0.486579 0.1518754
vt 0.4786482 0.1354069
vt 0.4903378 0.1500652
vt 0.4932734 0.1537463
vt 0.4757126 0.1317258
vt 0.497181 0.1488463
vt 0.482407 0.1335967
vt 0.4813593 0.1290065
vt 0.4929391 0.1468034
vt 0.4985756 0.1427361
vt 0.486579 0.1335967
vt 0.4876267 0.1290065
vt 0.4938674 0.142736
vt 0.497181 0.1366258
vt 0.4903378 0.1354069
vt 0.4932734 0.1317258
vt 0.4929391 0.1386686
vt 0.4647788 0.1548545
vt 0.465931 0.1540809
vt 0.4673256 0.1625575
vt 0.4660456 0.162554
vt 0.4612288 0.1486642
vt 0.465931 0.171034
vt 0.4620233 0.1472833
vt 0.4647766 0.1702666
vt 0.4560943 0.1452429
vt 0.4620233 0.1778316
vt 0.4563766 0.1435109
vt 0.4612297 0.1764497
vt 0.4503921 0.1452336
vt 0.4563766 0.181604
vt 0.4501093 0.1435109
vt 0.4560894 0.1798735
vt 0.4452626 0.1486695
vt 0.4501093 0.181604
vt 0.4444626 0.1472833
vt 0.4503933 0.1798817
vt 0.4417022 0.1548483
vt 0.4444626 0.1778316
vt 0.440555 0.1540809
vt 0.4452588 0.1764411
vt 0.4404404 0.162554
vt 0.440555 0.171034
vt 0.4391603 0.1625574
vt 0.4417027 0.1702681
vn 1 0 0
vn 1 0 0
vn 1 0 0
vn 1 0 0
vn -0.9682989 0.1028482 -0.2276393
vn -0.9887139 -0.03332641 -0.1460624
vn -0.9682955 0.00607321 -0.249734
vn -0.9682965 -0.1138346 -0.222359
vn -0.9887159 0.09338737 -0.117131
vn -0.9887139 -0.03332641 0.1460624
vn -0.9683006 0.1990436 -0.1509155
vn -0.9682993 0.2421053 -0.0614953
vn -0.9887192 -0.1349543 -0.06497463
vn -0.9682972 -0.1914438 -0.1604673
vn -0.9682976 -0.2448211 -0.04962342
vn -0.9887172 -0.1349541 0.06500502
vn -0.9682976 -0.2448211 0.04962342
vn -0.9682972 -0.1914438 0.1604673
vn -0.9682965 -0.1138346 0.222359
vn -0.9682955 0.00607321 0.249734
vn -0.9887159 0.09338737 0.117131
vn -0.9682989 0.1028482 0.2276393
vn -0.9683006 0.1990436 0.1509155
vn -0.9887139 0.1498162 0
vn -0.9682993 0.2421053 0.0614953
vn 0 -0.7071068 -0.7071068
vn 0 -0.7071068 -0.7071068
vn 0 0.7071068 -0.7071068
vn 0 -0.7071068 0.7071068
vn 0 0.7071068 -0.7071068
vn 0 -0.7071068 0.7071068
vn 0 0.7071068 0.7071068
vn 0 0.7071068 0.7071068
vn 0.5366177 -0.4634329 0.7051748
vn 0.6020615 -0.6142083 0.5101668
vn 0.6020615 0.6142083 0.5101668
vn 0.6020615 -0.6142083 -0.5101668
vn 0.5366177 0.4634329 0.7051748
vn 0.5366177 -0.4634329 -0.7051748
vn 0.5366177 0.4634329 -0.7051748
vn 0.6020615 0.6142083 -0.5101668
vn 0.8706056 0.3846401 0.3067537
vn 0.9216514 0.1683443 0.3495982
vn 0.8706038 0.2134545 0.4432675
vn 0.9216524 0.3033619 0.2419265
vn 0.8706052 0.4796478 0.1094742
vn 0.9216504 0 0.3880215
vn 0.870594 0 0.4920019
vn 0.9216531 0.378287 0.08633918
vn 0.8706052 0.4796478 -0.1094742
vn 1 0 0
vn 0.9216514 -0.1683443 0.3495982
vn 0.8706038 -0.2134545 0.4432675
vn 0.9216531 0.378287 -0.08633918
vn 0.9216524 -0.3033619 0.2419265
vn 0.9216524 0.3033619 -0.2419265
vn 0.8706056 0.3846401 -0.3067537
vn 0.8706056 -0.3846401 0.3067537
vn 0.8706038 0.2134545 -0.4432675
vn 0.9216531 -0.378287 0.08633918
vn 0.8706052 -0.4796478 0.1094742
vn 0.9216514 0.1683443 -0.3495982
vn 0.870594 0 -0.4920019
vn 0.9216531 -0.378287 -0.08633918
vn 0.8706052 -0.4796478 -0.1094742
vn 0.9216504 0 -0.3880215
vn 0.8706038 -0.2134545 -0.4432675
vn 0.9216524 -0.3033619 -0.2419265
vn 0.8706056 -0.3846401 -0.3067537
vn 0.9216514 -0.1683443 -0.3495982
vn -0.9639397 -0.1154225 -0.239787
vn -0.96394 -0.1154836 -0.2397566
vn -0.9639387 0 -0.2661246
vn -0.9639387 0 -0.2661246
vn -0.9639401 -0.208078 -0.1659009
vn -0.9639364 0.1154526 -0.2397862
vn -0.9639413 -0.2080477 -0.1659316
vn -0.96394 0.1154836 -0.2397566
vn -0.9639404 -0.2594414 -0.05923724
vn -0.9639401 0.208078 -0.1659009
vn -0.9639439 -0.2594424 -0.05917642
vn -0.9639413 0.2080477 -0.1659316
vn -0.9639404 -0.2594414 0.05923724
vn -0.9639404 0.2594414 -0.05923724
vn -0.9639439 -0.2594424 0.05917642
vn -0.9639363 0.2594709 -0.05917595
vn -0.9639401 -0.208078 0.1659009
vn -0.9639404 0.2594414 0.05923724
vn -0.9639413 -0.2080477 0.1659316
vn -0.9639363 0.2594709 0.05917595
vn -0.9639397 -0.1154225 0.239787
vn -0.9639401 0.208078 0.1659009
vn -0.96394 -0.1154836 0.2397566
vn -0.9639413 0.2080477 0.1659316
vn -0.9639387 0 0.2661246
vn -0.9639364 0.1154526 0.2397862
vn -0.9639387 0 0.2661246
vn -0.96394 0.1154836 0.2397566
g TSP_Antenna_01A_Dish_0
f 3/3/3 2/2/2 1/1/1
f 4/4/4 3/3/3 1/1/1
f 7/7/7 6/6/6 5/5/5
f 8/8/8 6/6/6 7/7/7
f 6/6/6 9/9/9 5/5/5
f 9/9/9 6/6/6 10/10/10
f 5/5/5 9/9/9 11/11/11
f 11/11/11 9/9/9 12/12/12
f 13/13/13 6/6/6 8/8/8
f 6/6/6 13/13/13 10/10/10
f 14/14/14 13/13/13 8/8/8
f 15/15/15 13/13/13 14/14/14
f 16/16/16 13/13/13 15/15/15
f 13/13/13 16/16/16 10/10/10
f 17/17/17 16/16/16 15/15/15
f 18/18/18 16/16/16 17/17/17
f 10/10/10 16/16/16 18/18/18
f 19/19/19 10/10/10 18/18/18
f 20/20/20 10/10/10 19/19/19
f 21/21/21 10/10/10 20/20/20
f 9/9/9 10/10/10 21/21/21
f 22/22/22 21/21/21 20/20/20
f 23/23/23 21/21/21 22/22/22
f 21/21/21 24/24/24 9/9/9
f 24/24/24 21/21/21 23/23/23
f 9/9/9 24/24/24 12/12/12
f 25/25/25 24/24/24 23/23/23
f 12/12/12 24/24/24 25/25/25
f 28/28/28 27/27/27 26/26/26
f 26/26/26 27/27/27 29/29/29
f 30/30/30 28/28/28 26/26/26
f 31/31/31 26/26/26 29/29/29
f 28/28/28 30/30/30 32/32/32
f 32/32/32 31/31/31 29/29/29
f 33/33/33 28/28/28 32/32/32
f 33/33/33 32/32/32 29/29/29
f 36/36/36 35/35/35 34/34/34
f 34/34/34 35/35/35 37/37/37
f 38/38/38 36/36/36 34/34/34
f 39/39/39 34/34/34 37/37/37
f 36/36/36 38/38/38 40/40/40
f 40/40/40 39/39/39 37/37/37
f 41/41/41 36/36/36 40/40/40
f 41/41/41 40/40/40 37/37/37
f 44/44/44 43/43/43 42/42/42
f 43/43/43 45/45/45 42/42/42
f 42/42/42 45/45/45 46/46/46
f 47/47/47 43/43/43 44/44/44
f 48/48/48 47/47/47 44/44/44
f 45/45/45 49/49/49 46/46/46
f 46/46/46 49/49/49 50/50/50
f 43/43/43 51/51/51 45/45/45
f 47/47/47 51/51/51 43/43/43
f 45/45/45 51/51/51 49/49/49
f 52/52/52 47/47/47 48/48/48
f 52/52/52 51/51/51 47/47/47
f 53/53/53 52/52/52 48/48/48
f 49/49/49 54/54/54 50/50/50
f 49/49/49 51/51/51 54/54/54
f 55/55/55 51/51/51 52/52/52
f 55/55/55 52/52/52 53/53/53
f 54/54/54 51/51/51 56/56/56
f 50/50/50 54/54/54 57/57/57
f 54/54/54 56/56/56 57/57/57
f 58/58/58 55/55/55 53/53/53
f 57/57/57 56/56/56 59/59/59
f 60/60/60 55/55/55 58/58/58
f 60/60/60 51/51/51 55/55/55
f 61/61/61 60/60/60 58/58/58
f 56/56/56 62/62/62 59/59/59
f 56/56/56 51/51/51 62/62/62
f 59/59/59 62/62/62 63/63/63
f 64/64/64 60/60/60 61/61/61
f 64/64/64 51/51/51 60/60/60
f 65/65/65 64/64/64 61/61/61
f 62/62/62 66/66/66 63/63/63
f 62/62/62 51/51/51 66/66/66
f 63/63/63 66/66/66 67/67/67
f 68/68/68 64/64/64 65/65/65
f 68/68/68 51/51/51 64/64/64
f 69/69/69 68/68/68 65/65/65
f 67/67/67 70/70/70 69/69/69
f 66/66/66 70/70/70 67/67/67
f 66/66/66 51/51/51 70/70/70
f 70/70/70 51/51/51 68/68/68
f 70/70/70 68/68/68 69/69/69
f 73/73/73 72/72/72 71/71/71
f 74/74/74 73/73/73 71/71/71
f 71/71/71 72/72/72 75/75/75
f 76/76/76 73/73/73 74/74/74
f 72/72/72 77/77/77 75/75/75
f 78/78/78 76/76/76 74/74/74
f 75/75/75 77/77/77 79/79/79
f 80/80/80 76/76/76 78/78/78
f 77/77/77 81/81/81 79/79/79
f 82/82/82 80/80/80 78/78/78
f 79/79/79 81/81/81 83/83/83
f 84/84/84 80/80/80 82/82/82
f 81/81/81 85/85/85 83/83/83
f 86/86/86 84/84/84 82/82/82
f 83/83/83 85/85/85 87/87/87
f 88/88/88 84/84/84 86/86/86
f 85/85/85 89/89/89 87/87/87
f 90/90/90 88/88/88 86/86/86
f 87/87/87 89/89/89 91/91/91
f 92/92/92 88/88/88 90/90/90
f 89/89/89 93/93/93 91/91/91
f 94/94/94 92/92/92 90/90/90
f 91/91/91 93/93/93 95/95/95
f 96/96/96 92/92/92 94/94/94
f 93/93/93 97/97/97 95/95/95
f 98/98/98 96/96/96 94/94/94
f 95/95/95 97/97/97 98/98/98
f 97/97/97 96/96/96 98/98/98
