g TSP_House_Wall_Short_02B
v 0.0749998 -1.937151E-07 2.075
v 0.07499985 -1.937151E-07 -2.075
v -0.07499985 -1.788139E-07 -2.075
v -0.0750002 -1.937151E-07 2.075
v -0.2199998 2.5 -1.05
v -0.2199998 0.9999999 -1.05
v 0.1199997 0.9999999 -1.05
v 0.1199997 2.5 -1.05
v -0.22 2.5 1.05
v 0.1200001 2.5 1.05
v 0.1200001 0.9999999 1.05
v -0.22 0.9999999 1.05
v 0.1200001 2.5 1.05
v -0.22 2.5 1.05
v -0.2199998 2.5 -1.05
v 0.1199997 2.5 -1.05
v -0.22 2.425 0.975
v -0.22 1.075 0.975
v 0.1200001 1.075 0.975
v 0.1200001 2.425 0.975
v -0.22 2.425 0.975
v -0.22 2.5 1.05
v -0.22 0.9999999 1.05
v -0.22 1.075 0.975
v -0.2199998 1.075 -0.975
v -0.2199998 0.9999999 -1.05
v -0.2199998 2.5 -1.05
v -0.2199998 2.425 -0.975
v 0.1200001 1.075 0.975
v 0.1200001 0.9999999 1.05
v 0.1200001 2.5 1.05
v 0.1200001 2.425 0.975
v 0.1199997 2.425 -0.975
v 0.1199997 2.5 -1.05
v 0.1199997 0.9999999 -1.05
v 0.1199997 1.075 -0.975
v -0.2199998 2.425 -0.975
v -0.2199998 2.5 -1.05
v -0.22 2.5 1.05
v -0.22 2.425 0.975
v 0.1200001 2.425 0.975
v 0.1200001 2.5 1.05
v 0.1199997 2.5 -1.05
v 0.1199997 2.425 -0.975
v -0.2199998 2.425 -0.975
v 0.1199997 2.425 -0.975
v 0.1199997 1.075 -0.975
v -0.2199998 1.075 -0.975
v -0.2199998 2.425 -0.975
v -0.22 2.425 0.975
v 0.1200001 2.425 0.975
v 0.1199997 2.425 -0.975
v 0.12 2.425 -0.02499961
v 0.1199998 1.075 -0.02500011
v 0.12 1.075 0.02500034
v 0.1199998 2.425 0.02499985
v -0.1200002 2.425 -0.02500011
v -0.1200002 2.425 0.02499985
v -0.1200002 1.075 0.02499985
v -0.1200001 1.075 -0.02499961
v 0.12 1.075 0.02500034
v -0.1200002 1.075 0.02499985
v -0.1200002 2.425 0.02499985
v 0.1199998 2.425 0.02499985
v 0.12 2.425 -0.02499961
v -0.1200002 2.425 -0.02500011
v -0.1200001 1.075 -0.02499961
v 0.1199998 1.075 -0.02500011
v -0.0750002 3 2.075
v 0.07499961 3 2.074999
v 0.0749998 -1.937151E-07 2.075
v -0.0750002 -1.937151E-07 2.075
v -0.07499985 3 -2.075
v -0.07499985 -1.788139E-07 -2.075
v 0.07499985 -1.937151E-07 -2.075
v 0.07499961 3 -2.075
v -0.1000001 1.4435 1.050001
v -0.1000002 1.4435 1.943501
v -0.1000002 1.0565 1.943501
v -0.1000001 1.0565 1.050001
v -0.07499985 2 -2
v -0.07499991 2 -1.05
v -0.09999991 1.9435 -1.050001
v -0.09999986 1.9435 -1.943501
v -0.07500009 1 1.05
v -0.1000001 1.0565 1.050001
v -0.1000002 1.0565 1.943501
v -0.0750002 1 2
v -0.0750002 1 2
v -0.1000002 1.0565 1.943501
v -0.1000002 1.4435 1.943501
v -0.0750002 1.5 2
v -0.0750002 1.5 2
v -0.1000002 1.4435 1.943501
v -0.1000001 1.4435 1.050001
v -0.07500009 1.5 1.05
v -0.07499985 1.5 -2
v -0.07499985 2 -2
v -0.09999986 1.9435 -1.943501
v -0.09999986 1.5565 -1.943501
v -0.07499991 1.5 -1.05
v -0.07499985 1.5 -2
v -0.09999986 1.5565 -1.943501
v -0.09999991 1.5565 -1.050001
v -0.09999991 1.9435 -1.050001
v -0.09999991 1.5565 -1.050001
v -0.09999986 1.5565 -1.943501
v -0.09999986 1.9435 -1.943501
v -0.09999991 2.4435 -1.050001
v -0.09999991 2.0565 -1.050001
v -0.09999986 2.0565 -1.943501
v -0.09999986 2.4435 -1.943501
v -0.07499991 2 -1.05
v -0.07499985 2 -2
v -0.09999986 2.0565 -1.943501
v -0.09999991 2.0565 -1.050001
v -0.07499985 2 -2
v -0.07499985 2.5 -2
v -0.09999986 2.4435 -1.943501
v -0.09999986 2.0565 -1.943501
v -0.07499985 2.5 -2
v -0.07499991 2.5 -1.05
v -0.09999991 2.4435 -1.050001
v -0.09999986 2.4435 -1.943501
v -0.1000002 0.4349999 1.935
v -0.0750002 0.5 2
v -0.0750002 -1.937151E-07 2
v -0.1000002 0.0649998 1.935
v -0.1000002 0.4349999 1.935
v -0.09999986 0.4349999 -1.935
v -0.07499985 0.4999999 -2
v -0.0750002 0.5 2
v -0.09999986 0.0649998 -1.935
v -0.09999986 0.4349999 -1.935
v -0.1000002 0.4349999 1.935
v -0.1000002 0.0649998 1.935
v -0.1000002 2.935 1.935
v -0.0750002 3 2
v -0.0750002 2.5 2
v -0.1000002 2.565 1.935
v -0.1000002 2.565 1.935
v -0.0750002 2.5 2
v -0.07499985 2.5 -2
v -0.09999986 2.565 -1.935
v -0.09999986 2.565 -1.935
v -0.09999986 2.935 -1.935
v -0.1000002 2.935 1.935
v -0.1000002 2.565 1.935
v -0.09999986 0.4349999 -1.935
v -0.09999986 0.0649998 -1.935
v -0.07499985 -1.937151E-07 -2
v -0.07499985 0.4999999 -2
v -0.09999986 2.935 -1.935
v -0.07499985 3 -2
v -0.0750002 3 2
v -0.1000002 2.935 1.935
v -0.09999986 2.935 -1.935
v -0.09999986 2.565 -1.935
v -0.07499985 2.5 -2
v -0.07499985 3 -2
v -0.1000002 0.0649998 1.935
v -0.0750002 -1.937151E-07 2
v -0.07499985 -1.937151E-07 -2
v -0.09999986 0.0649998 -1.935
v -0.0750002 -1.937151E-07 2.075
v -0.0750002 -1.937151E-07 2
v -0.0750002 3 2
v -0.0750002 3 2.075
v -0.07499985 3 -2.075
v -0.07499985 3 -2
v -0.07499985 -1.937151E-07 -2
v -0.07499985 -1.788139E-07 -2.075
v -0.07499985 3 -2.075
v 0.07499961 3 -2.075
v 0.07499961 3 2.074999
v -0.0750002 3 2.075
v 0.1699998 1 1.1
v 0.1699998 1 -1.1
v -0.2699995 1 -1.1
v -0.2700005 1 1.1
v -0.2699995 1.075 -1.1
v 0.1699998 1.075 -1.1
v 0.1699998 1.075 1.1
v -0.2700005 1.075 1.1
v -0.2700005 1.075 1.1
v -0.2700005 1 1.1
v -0.2699995 1 -1.1
v -0.2699995 1.075 -1.1
v 0.1699998 1.075 -1.1
v 0.1699998 1 -1.1
v 0.1699998 1 1.1
v 0.1699998 1.075 1.1
v 0.1699998 1 1.1
v -0.2700005 1 1.1
v -0.2700005 1.075 1.1
v 0.1699998 1.075 1.1
v 0.1699998 1 -1.1
v 0.1699998 1.075 -1.1
v -0.2699995 1.075 -1.1
v -0.2699995 1 -1.1
v -0.1000001 2.4435 1.050001
v -0.1000002 2.4435 1.943501
v -0.1000002 2.0565 1.943501
v -0.1000001 2.0565 1.050001
v -0.07500009 2 1.05
v -0.1000001 2.0565 1.050001
v -0.1000002 2.0565 1.943501
v -0.0750002 2 2
v -0.0750002 2 2
v -0.1000002 2.0565 1.943501
v -0.1000002 2.4435 1.943501
v -0.0750002 2.5 2
v -0.0750002 2.5 2
v -0.1000002 2.4435 1.943501
v -0.1000001 2.4435 1.050001
v -0.07500009 2.5 1.05
v -0.09999991 1.4435 -1.050001
v -0.09999991 1.0565 -1.050001
v -0.09999986 1.0565 -1.943501
v -0.09999986 1.4435 -1.943501
v -0.07499991 1 -1.05
v -0.07499985 1 -2
v -0.09999986 1.0565 -1.943501
v -0.09999991 1.0565 -1.050001
v -0.07499985 1 -2
v -0.07499985 1.5 -2
v -0.09999986 1.4435 -1.943501
v -0.09999986 1.0565 -1.943501
v -0.07499985 1.5 -2
v -0.07499991 1.5 -1.05
v -0.09999991 1.4435 -1.050001
v -0.09999986 1.4435 -1.943501
v -0.1000001 1.9435 1.050001
v -0.1000002 1.9435 1.943501
v -0.1000002 1.5565 1.943501
v -0.1000001 1.5565 1.050001
v -0.07500009 1.5 1.05
v -0.1000001 1.5565 1.050001
v -0.1000002 1.5565 1.943501
v -0.0750002 1.5 2
v -0.0750002 1.5 2
v -0.1000002 1.5565 1.943501
v -0.1000002 1.9435 1.943501
v -0.0750002 2 2
v -0.0750002 2 2
v -0.1000002 1.9435 1.943501
v -0.1000001 1.9435 1.050001
v -0.07500009 2 1.05
v 0.0749998 2.95 1.925
v 0.07499961 3 1.924999
v 0.07499985 3 -1.925
v 0.07499985 2.95 -1.925
v 0.07499961 3 2.074999
v 0.07499961 3 1.924999
v 0.0749998 -1.937151E-07 1.925
v 0.0749998 -1.937151E-07 2.075
v 0.07500009 2.5 1.05
v 0.07500009 0.9999999 1.05
v 0.07499991 0.9999999 -1.05
v 0.0749998 2.95 1.925
v 0.07499985 -1.788139E-07 -1.925
v 0.07499991 2.5 -1.05
v 0.07499985 2.95 -1.925
v 0.07499985 3 -1.925
v 0.07499985 -1.937151E-07 -2.075
v 0.07499961 3 -2.075
v -0.0750002 1 2
v -0.1000002 0.9435 1.943501
v -0.09999986 0.9435 -1.943501
v -0.07499985 1 -2
v -0.0750002 0.5 2
v -0.1000002 0.5565 1.943501
v -0.1000002 0.9435 1.943501
v -0.0750002 1 2
v -0.1000002 0.9435 1.943501
v -0.1000002 0.5565 1.943501
v -0.09999986 0.5565 -1.943501
v -0.09999986 0.9435 -1.943501
v -0.1000002 0.5565 1.943501
v -0.0750002 0.5 2
v -0.07499985 0.4999999 -2
v -0.09999986 0.5565 -1.943501
v -0.07499985 0.4999999 -2
v -0.07499985 1 -2
v -0.09999986 0.9435 -1.943501
v -0.09999986 0.5565 -1.943501
v 0.02499992 2.475 -0.9749998
v 0.02499992 1.075 -0.9749998
v 0.02500008 1.075 -0.02500015
v 0.02500008 2.475 -0.02500015
v -0.02500008 2.475 -0.9749998
v -0.02499992 2.475 -0.02500015
v -0.02499992 1.075 -0.02500015
v -0.02500008 1.075 -0.9749998
vt 0.1717818 0.7155169
vt 0.1717818 0.7155169
vt 0.1717818 0.7155169
vt 0.1717818 0.7155169
vt 0.09821498 0.8010336
vt 0.09821498 0.7860413
vt 0.09821498 0.7860413
vt 0.09821498 0.8010336
vt 0.1212799 0.8010336
vt 0.1212799 0.8010336
vt 0.1212799 0.7860413
vt 0.1212799 0.7860413
vt 0.1212799 0.8111898
vt 0.1212799 0.8111898
vt 0.09821498 0.8111898
vt 0.09821498 0.8111898
vt 0.09864742 0.7900705
vt 0.09864742 0.7970044
vt 0.09864742 0.7970044
vt 0.09864742 0.7900705
vt 0.1208474 0.8004714
vt 0.1212799 0.8010336
vt 0.1212799 0.7860413
vt 0.1208474 0.7866036
vt 0.09864742 0.7866036
vt 0.09821498 0.7860413
vt 0.09821498 0.8010336
vt 0.09864742 0.8004714
vt 0.1208474 0.7866036
vt 0.1212799 0.7860413
vt 0.1212799 0.8010336
vt 0.1208474 0.8004714
vt 0.09864742 0.8004714
vt 0.09821498 0.8010336
vt 0.09821498 0.7860413
vt 0.09864742 0.7866036
vt 0.09864742 0.8004714
vt 0.09821498 0.8010336
vt 0.1212799 0.8010336
vt 0.1208474 0.8004714
vt 0.1208474 0.8004714
vt 0.1212799 0.8010336
vt 0.09821498 0.8010336
vt 0.09864742 0.8004714
vt 0.1208475 0.7900705
vt 0.1208475 0.7900705
vt 0.1208475 0.7970044
vt 0.1208475 0.7970044
vt 0.1208474 0.7796695
vt 0.09864742 0.7796695
vt 0.09864742 0.7796695
vt 0.1208474 0.7796695
vt 0.1153695 0.8004714
vt 0.1153695 0.7866036
vt 0.1156578 0.7866036
vt 0.1156578 0.8004714
vt 0.1153695 0.8004714
vt 0.1156578 0.8004714
vt 0.1156578 0.7866036
vt 0.1153695 0.7866036
vt 0.09792668 0.7970042
vt 0.09792668 0.7970042
vt 0.09792668 0.7900703
vt 0.09792668 0.7900703
vt 0.09850326 0.7900703
vt 0.09850326 0.7900703
vt 0.09850326 0.7970042
vt 0.09850326 0.7970042
vt 0.1717818 0.7155169
vt 0.1717818 0.7155169
vt 0.1717818 0.7155169
vt 0.1717818 0.7155169
vt 0.1717818 0.7155169
vt 0.1717818 0.7155169
vt 0.1717818 0.7155169
vt 0.1717818 0.7155169
vt 0.4913227 0.7776966
vt 0.4972639 0.7776966
vt 0.4972639 0.7767251
vt 0.4913227 0.776725
vt 0.4777896 0.78645
vt 0.4810356 0.78645
vt 0.4809439 0.7863858
vt 0.4778813 0.7863858
vt 0.4875278 0.7677715
vt 0.4876195 0.7678356
vt 0.4906822 0.7678356
vt 0.4907739 0.7677715
vt 0.4907739 0.7705058
vt 0.4906822 0.77057
vt 0.4906822 0.7715778
vt 0.4907739 0.771642
vt 0.4907739 0.7798451
vt 0.4906822 0.7797809
vt 0.4876195 0.7797809
vt 0.4875278 0.7798451
vt 0.4777896 0.7771107
vt 0.4777896 0.7782468
vt 0.4778813 0.7781827
vt 0.4778813 0.7771749
vt 0.4810356 0.7743763
vt 0.4777896 0.7743763
vt 0.4778813 0.7744405
vt 0.4809439 0.7744405
vt 0.4913227 0.7831653
vt 0.4913227 0.7821937
vt 0.4972639 0.7821937
vt 0.4972639 0.7831653
vt 0.4913227 0.7831653
vt 0.4913227 0.7821937
vt 0.4972639 0.7821937
vt 0.4972639 0.7831653
vt 0.4810356 0.7743763
vt 0.4777896 0.7743763
vt 0.4778813 0.7744405
vt 0.4809439 0.7744405
vt 0.4777896 0.7771107
vt 0.4777896 0.7782468
vt 0.4778813 0.7781827
vt 0.4778813 0.7771749
vt 0.4777896 0.78645
vt 0.4810356 0.78645
vt 0.4809439 0.7863858
vt 0.4778813 0.7863858
vt 0.4906684 0.7706631
vt 0.4907739 0.7707369
vt 0.4907739 0.7701688
vt 0.4906684 0.7702427
vt 0.4906684 0.7788662
vt 0.4778951 0.7788662
vt 0.4777896 0.77894
vt 0.4907739 0.77894
vt 0.4972382 0.7780921
vt 0.4972382 0.7790638
vt 0.4972382 0.7790638
vt 0.4972382 0.7780921
vt 0.4906684 0.7787411
vt 0.4907739 0.7788149
vt 0.4907739 0.7782468
vt 0.4906684 0.7783207
vt 0.4906684 0.7755863
vt 0.4907739 0.7755125
vt 0.4777896 0.7755125
vt 0.4778951 0.7755863
vt 0.4972639 0.7831653
vt 0.4972639 0.7821937
vt 0.4972639 0.7821937
vt 0.4972639 0.7831653
vt 0.4778951 0.7706631
vt 0.4778951 0.7702427
vt 0.4777896 0.7701688
vt 0.4777896 0.7707369
vt 0.4778951 0.7869442
vt 0.4777896 0.7870181
vt 0.4907739 0.7870181
vt 0.4906684 0.7869442
vt 0.4778951 0.7787411
vt 0.4778951 0.7783207
vt 0.4777896 0.7782468
vt 0.4777896 0.7788149
vt 0.4906684 0.7675083
vt 0.4907739 0.7674344
vt 0.4777896 0.7674344
vt 0.4778951 0.7675083
vt 0.1717818 0.7155169
vt 0.1717818 0.7155169
vt 0.1717818 0.7155169
vt 0.1717818 0.7155169
vt 0.1717818 0.7155169
vt 0.1717818 0.7155169
vt 0.1717818 0.7155169
vt 0.1717818 0.7155169
vt 0.1717818 0.7155169
vt 0.1717818 0.7155169
vt 0.1717818 0.7155169
vt 0.1717818 0.7155169
vt 0.1212799 0.775885
vt 0.09821498 0.775885
vt 0.09821498 0.775885
vt 0.1212799 0.775885
vt 0.1208474 0.8074051
vt 0.1208474 0.8074051
vt 0.09864742 0.8074051
vt 0.09864742 0.8074051
vt 0.1208474 0.7866036
vt 0.1212799 0.7860413
vt 0.09821498 0.7860413
vt 0.09864742 0.7866036
vt 0.09864742 0.7866036
vt 0.09821498 0.7860413
vt 0.1212799 0.7860413
vt 0.1208474 0.7866036
vt 0.1212799 0.7860413
vt 0.1212799 0.7860413
vt 0.1208474 0.7866036
vt 0.1208474 0.7866036
vt 0.09821498 0.7860413
vt 0.09864742 0.7866036
vt 0.1208474 0.7866036
vt 0.1212799 0.7860413
vt 0.4913227 0.7831653
vt 0.4972639 0.7831653
vt 0.4972639 0.7821937
vt 0.4913227 0.7821937
vt 0.4875278 0.7743763
vt 0.4876195 0.7744405
vt 0.4906822 0.7744405
vt 0.4907739 0.7743763
vt 0.4907739 0.7771107
vt 0.4906822 0.7771749
vt 0.4906822 0.7781827
vt 0.4907739 0.7782468
vt 0.4907739 0.78645
vt 0.4906822 0.7863858
vt 0.4876195 0.7863858
vt 0.4875278 0.78645
vt 0.4913227 0.7872669
vt 0.4913227 0.7862953
vt 0.4972639 0.7862954
vt 0.4972639 0.7872669
vt 0.4810356 0.7773418
vt 0.4777896 0.7773418
vt 0.4778813 0.777406
vt 0.4809439 0.777406
vt 0.4777896 0.7800761
vt 0.4777896 0.7812123
vt 0.4778813 0.7811481
vt 0.4778813 0.7801403
vt 0.4777896 0.7894154
vt 0.4810356 0.7894154
vt 0.4809439 0.7893512
vt 0.4778813 0.7893512
vt 0.4913227 0.7872669
vt 0.4972639 0.7872669
vt 0.4972639 0.7862953
vt 0.4913227 0.7862953
vt 0.4875278 0.7784779
vt 0.4876195 0.7785421
vt 0.4906822 0.7785421
vt 0.4907739 0.7784779
vt 0.4907739 0.7812123
vt 0.4906822 0.7812765
vt 0.4906822 0.7822843
vt 0.4907739 0.7823484
vt 0.4907739 0.7905515
vt 0.4906822 0.7904873
vt 0.4876195 0.7904873
vt 0.4875278 0.7905515
vt 0.4217896 0.7837479
vt 0.4217896 0.7837479
vt 0.4217896 0.7837479
vt 0.4217896 0.7837479
vt 0.1717818 0.7155169
vt 0.1717818 0.7155169
vt 0.1717818 0.7155169
vt 0.1717818 0.7155169
vt 0.1717818 0.7155169
vt 0.1717818 0.7155169
vt 0.1717818 0.7155169
vt 0.1717818 0.7155169
vt 0.1717818 0.7155169
vt 0.1717818 0.7155169
vt 0.1717818 0.7155169
vt 0.1717818 0.7155169
vt 0.1717818 0.7155169
vt 0.1717818 0.7155169
vt 0.4907739 0.7853138
vt 0.4906822 0.7852497
vt 0.4778813 0.7852497
vt 0.4777896 0.7853138
vt 0.4907739 0.7759746
vt 0.4906822 0.7760388
vt 0.4906822 0.7770466
vt 0.4907739 0.7771107
vt 0.4972639 0.7831653
vt 0.4972639 0.7821938
vt 0.4972639 0.7821938
vt 0.4972639 0.7831653
vt 0.4906822 0.7733044
vt 0.4907739 0.7732402
vt 0.4777896 0.7732402
vt 0.4778813 0.7733044
vt 0.4777896 0.7759746
vt 0.4777896 0.7771107
vt 0.4778813 0.7770466
vt 0.4778813 0.7760388
vt 0.9866089 0.9810201
vt 0.9866089 0.01362601
vt 0.01339111 0.01362601
vt 0.01339111 0.9810201
vt 0.9866089 0.9810201
vt 0.01339111 0.9810201
vt 0.01339111 0.01362601
vt 0.9866089 0.01362601
vn 0 -1 0
vn 0 -1 0
vn 0 -1 0
vn 0 -1 0
vn 0 0 -1
vn 0 0 -1
vn 0 0 -1
vn 0 0 -1
vn 0 0 1
vn 0 0 1
vn 0 0 1
vn 0 0 1
vn 0 1 0
vn 0 1 0
vn 0 1 0
vn 0 1 0
vn 0 0 -1
vn 0 0 -1
vn 0 0 -1
vn 0 0 -1
vn -1 0 0
vn -1 0 0
vn -1 0 0
vn -1 0 0
vn -1 0 0
vn -1 0 0
vn -1 0 0
vn -1 0 0
vn 1 0 0
vn 1 0 0
vn 1 0 0
vn 1 0 0
vn 1 0 0
vn 1 0 0
vn 1 0 0
vn 1 0 0
vn -1 0 0
vn -1 0 0
vn -1 0 0
vn -1 0 0
vn 1 0 0
vn 1 0 0
vn 1 0 0
vn 1 0 0
vn 0 0 1
vn 0 0 1
vn 0 0 1
vn 0 0 1
vn 0 -1 0
vn 0 -1 0
vn 0 -1 0
vn 0 -1 0
vn 1 0 0
vn 1 0 0
vn 1 0 0
vn 1 0 0
vn -1 0 0
vn -1 0 0
vn -1 0 0
vn -1 0 0
vn 0 0 1
vn 0 0 1
vn 0 0 1
vn 0 0 1
vn 0 0 -1
vn 0 0 -1
vn 0 0 -1
vn 0 0 -1
vn 0 0 1
vn 0 0 1
vn 0 0 1
vn 0 0 1
vn 0 0 -1
vn 0 0 -1
vn 0 0 -1
vn 0 0 -1
vn -1 0 0
vn -1 0 0
vn -1 0 0
vn -1 0 0
vn -0.9144777 0.4046365 0
vn -0.9144777 0.4046365 0
vn -0.9144777 0.4046365 0
vn -0.9144777 0.4046365 0
vn -0.9144774 -0.4046369 0
vn -0.9144774 -0.4046369 0
vn -0.9144774 -0.4046369 0
vn -0.9144774 -0.4046369 0
vn -0.9144776 0 0.4046365
vn -0.9144776 0 0.4046365
vn -0.9144776 0 0.4046365
vn -0.9144776 0 0.4046365
vn -0.9144776 0.4046366 0
vn -0.9144776 0.4046366 0
vn -0.9144776 0.4046366 0
vn -0.9144776 0.4046366 0
vn -0.9144776 0 -0.4046366
vn -0.9144776 0 -0.4046366
vn -0.9144776 0 -0.4046366
vn -0.9144776 0 -0.4046366
vn -0.9144777 -0.4046364 0
vn -0.9144777 -0.4046364 0
vn -0.9144777 -0.4046364 0
vn -0.9144777 -0.4046364 0
vn -1 0 0
vn -1 0 0
vn -1 0 0
vn -1 0 0
vn -1 0 0
vn -1 0 0
vn -1 0 0
vn -1 0 0
vn -0.9144777 -0.4046364 0
vn -0.9144777 -0.4046364 0
vn -0.9144777 -0.4046364 0
vn -0.9144777 -0.4046364 0
vn -0.9144776 0 -0.4046366
vn -0.9144776 0 -0.4046366
vn -0.9144776 0 -0.4046366
vn -0.9144776 0 -0.4046366
vn -0.9144785 0.4046345 0
vn -0.9144785 0.4046345 0
vn -0.9144785 0.4046345 0
vn -0.9144785 0.4046345 0
vn -0.9333457 0 0.358979
vn -0.9333457 0 0.358979
vn -0.9333457 0 0.358979
vn -0.9333457 0 0.358979
vn -0.9333456 0.3589791 0
vn -0.9333456 0.3589791 0
vn -0.9333456 0.3589791 0
vn -0.9333456 0.3589791 0
vn -1 0 0
vn -1 0 0
vn -1 0 0
vn -1 0 0
vn -0.9333452 0 0.3589801
vn -0.9333452 0 0.3589801
vn -0.9333452 0 0.3589801
vn -0.9333452 0 0.3589801
vn -0.9333462 -0.3589775 0
vn -0.9333462 -0.3589775 0
vn -0.9333462 -0.3589775 0
vn -0.9333462 -0.3589775 0
vn -1 0 0
vn -1 0 0
vn -1 0 0
vn -1 0 0
vn -0.9333457 0 -0.358979
vn -0.9333457 0 -0.358979
vn -0.9333457 0 -0.358979
vn -0.9333457 0 -0.358979
vn -0.9333462 0.3589775 0
vn -0.9333462 0.3589775 0
vn -0.9333462 0.3589775 0
vn -0.9333462 0.3589775 0
vn -0.9333457 0 -0.3589789
vn -0.9333457 0 -0.3589789
vn -0.9333457 0 -0.3589789
vn -0.9333457 0 -0.3589789
vn -0.9333456 -0.3589792 0
vn -0.9333456 -0.3589792 0
vn -0.9333456 -0.3589792 0
vn -0.9333456 -0.3589792 0
vn -1 0 0
vn -1 0 0
vn -1 0 0
vn -1 0 0
vn -1 0 0
vn -1 0 0
vn -1 0 0
vn -1 0 0
vn 0 1 0
vn 0 1 0
vn 0 1 0
vn 0 1 0
vn 0 -1 0
vn 0 -1 0
vn 0 -1 0
vn 0 -1 0
vn 0 1 0
vn 0 1 0
vn 0 1 0
vn 0 1 0
vn -1 0 0
vn -1 0 0
vn -1 0 0
vn -1 0 0
vn 1 0 0
vn 1 0 0
vn 1 0 0
vn 1 0 0
vn 0 0 1
vn 0 0 1
vn 0 0 1
vn 0 0 1
vn 0 0 -1
vn 0 0 -1
vn 0 0 -1
vn 0 0 -1
vn -1 0 0
vn -1 0 0
vn -1 0 0
vn -1 0 0
vn -0.9144776 -0.4046366 0
vn -0.9144776 -0.4046366 0
vn -0.9144776 -0.4046366 0
vn -0.9144776 -0.4046366 0
vn -0.9144776 0 0.4046365
vn -0.9144776 0 0.4046365
vn -0.9144776 0 0.4046365
vn -0.9144776 0 0.4046365
vn -0.9144786 0.4046343 0
vn -0.9144786 0.4046343 0
vn -0.9144786 0.4046343 0
vn -0.9144786 0.4046343 0
vn -1 0 0
vn -1 0 0
vn -1 0 0
vn -1 0 0
vn -0.9144775 -0.4046367 0
vn -0.9144775 -0.4046367 0
vn -0.9144775 -0.4046367 0
vn -0.9144775 -0.4046367 0
vn -0.9144776 0 -0.4046366
vn -0.9144776 0 -0.4046366
vn -0.9144776 0 -0.4046366
vn -0.9144776 0 -0.4046366
vn -0.9144775 0.4046368 0
vn -0.9144775 0.4046368 0
vn -0.9144775 0.4046368 0
vn -0.9144775 0.4046368 0
vn -1 0 0
vn -1 0 0
vn -1 0 0
vn -1 0 0
vn -0.9144776 -0.4046366 0
vn -0.9144776 -0.4046366 0
vn -0.9144776 -0.4046366 0
vn -0.9144776 -0.4046366 0
vn -0.9144776 0 0.4046365
vn -0.9144776 0 0.4046365
vn -0.9144776 0 0.4046365
vn -0.9144776 0 0.4046365
vn -0.9144776 0.4046366 0
vn -0.9144776 0.4046366 0
vn -0.9144776 0.4046366 0
vn -0.9144776 0.4046366 0
vn 1 0 0
vn 1 0 0
vn 1 0 0
vn 1 0 0
vn 1 0 0
vn 1 0 0
vn 1 0 0
vn 1 0 0
vn 1 0 0
vn 1 0 0
vn 1 0 0
vn 1 0 0
vn 1 0 0
vn 1 0 0
vn 1 0 0
vn 1 0 0
vn 1 0 0
vn 1 0 0
vn -0.9144778 0.4046361 0
vn -0.9144778 0.4046361 0
vn -0.9144778 0.4046361 0
vn -0.9144778 0.4046361 0
vn -0.9144776 0 0.4046365
vn -0.9144776 0 0.4046365
vn -0.9144776 0 0.4046365
vn -0.9144776 0 0.4046365
vn -1 0 0
vn -1 0 0
vn -1 0 0
vn -1 0 0
vn -0.9144779 -0.4046358 0
vn -0.9144779 -0.4046358 0
vn -0.9144779 -0.4046358 0
vn -0.9144779 -0.4046358 0
vn -0.9144776 0 -0.4046366
vn -0.9144776 0 -0.4046366
vn -0.9144776 0 -0.4046366
vn -0.9144776 0 -0.4046366
vn 1 0 0
vn 1 0 0
vn 1 0 0
vn 1 0 0
vn -1 0 0
vn -1 0 0
vn -1 0 0
vn -1 0 0
g TSP_House_Wall_Short_02B_0
f 3/3/3 2/2/2 1/1/1
f 4/4/4 3/3/3 1/1/1
f 7/7/7 6/6/6 5/5/5
f 8/8/8 7/7/7 5/5/5
f 11/11/11 10/10/10 9/9/9
f 12/12/12 11/11/11 9/9/9
f 15/15/15 14/14/14 13/13/13
f 16/16/16 15/15/15 13/13/13
f 19/19/19 18/18/18 17/17/17
f 20/20/20 19/19/19 17/17/17
f 23/23/23 22/22/22 21/21/21
f 24/24/24 23/23/23 21/21/21
f 27/27/27 26/26/26 25/25/25
f 28/28/28 27/27/27 25/25/25
f 31/31/31 30/30/30 29/29/29
f 32/32/32 31/31/31 29/29/29
f 35/35/35 34/34/34 33/33/33
f 36/36/36 35/35/35 33/33/33
f 39/39/39 38/38/38 37/37/37
f 40/40/40 39/39/39 37/37/37
f 43/43/43 42/42/42 41/41/41
f 44/44/44 43/43/43 41/41/41
f 47/47/47 46/46/46 45/45/45
f 48/48/48 47/47/47 45/45/45
f 51/51/51 50/50/50 49/49/49
f 52/52/52 51/51/51 49/49/49
f 55/55/55 54/54/54 53/53/53
f 56/56/56 55/55/55 53/53/53
f 59/59/59 58/58/58 57/57/57
f 60/60/60 59/59/59 57/57/57
f 63/63/63 62/62/62 61/61/61
f 64/64/64 63/63/63 61/61/61
f 67/67/67 66/66/66 65/65/65
f 68/68/68 67/67/67 65/65/65
f 71/71/71 70/70/70 69/69/69
f 72/72/72 71/71/71 69/69/69
f 75/75/75 74/74/74 73/73/73
f 76/76/76 75/75/75 73/73/73
f 79/79/79 78/78/78 77/77/77
f 80/80/80 79/79/79 77/77/77
f 83/83/83 82/82/82 81/81/81
f 84/84/84 83/83/83 81/81/81
f 87/87/87 86/86/86 85/85/85
f 88/88/88 87/87/87 85/85/85
f 91/91/91 90/90/90 89/89/89
f 92/92/92 91/91/91 89/89/89
f 95/95/95 94/94/94 93/93/93
f 96/96/96 95/95/95 93/93/93
f 99/99/99 98/98/98 97/97/97
f 100/100/100 99/99/99 97/97/97
f 103/103/103 102/102/102 101/101/101
f 104/104/104 103/103/103 101/101/101
f 107/107/107 106/106/106 105/105/105
f 108/108/108 107/107/107 105/105/105
f 111/111/111 110/110/110 109/109/109
f 112/112/112 111/111/111 109/109/109
f 115/115/115 114/114/114 113/113/113
f 116/116/116 115/115/115 113/113/113
f 119/119/119 118/118/118 117/117/117
f 120/120/120 119/119/119 117/117/117
f 123/123/123 122/122/122 121/121/121
f 124/124/124 123/123/123 121/121/121
f 127/127/127 126/126/126 125/125/125
f 128/128/128 127/127/127 125/125/125
f 131/131/131 130/130/130 129/129/129
f 132/132/132 131/131/131 129/129/129
f 135/135/135 134/134/134 133/133/133
f 136/136/136 135/135/135 133/133/133
f 139/139/139 138/138/138 137/137/137
f 140/140/140 139/139/139 137/137/137
f 143/143/143 142/142/142 141/141/141
f 144/144/144 143/143/143 141/141/141
f 147/147/147 146/146/146 145/145/145
f 148/148/148 147/147/147 145/145/145
f 151/151/151 150/150/150 149/149/149
f 152/152/152 151/151/151 149/149/149
f 155/155/155 154/154/154 153/153/153
f 156/156/156 155/155/155 153/153/153
f 159/159/159 158/158/158 157/157/157
f 160/160/160 159/159/159 157/157/157
f 163/163/163 162/162/162 161/161/161
f 164/164/164 163/163/163 161/161/161
f 167/167/167 166/166/166 165/165/165
f 168/168/168 167/167/167 165/165/165
f 171/171/171 170/170/170 169/169/169
f 172/172/172 171/171/171 169/169/169
f 175/175/175 174/174/174 173/173/173
f 176/176/176 175/175/175 173/173/173
f 179/179/179 178/178/178 177/177/177
f 180/180/180 179/179/179 177/177/177
f 183/183/183 182/182/182 181/181/181
f 184/184/184 183/183/183 181/181/181
f 187/187/187 186/186/186 185/185/185
f 188/188/188 187/187/187 185/185/185
f 191/191/191 190/190/190 189/189/189
f 192/192/192 191/191/191 189/189/189
f 195/195/195 194/194/194 193/193/193
f 196/196/196 195/195/195 193/193/193
f 199/199/199 198/198/198 197/197/197
f 200/200/200 199/199/199 197/197/197
f 203/203/203 202/202/202 201/201/201
f 204/204/204 203/203/203 201/201/201
f 207/207/207 206/206/206 205/205/205
f 208/208/208 207/207/207 205/205/205
f 211/211/211 210/210/210 209/209/209
f 212/212/212 211/211/211 209/209/209
f 215/215/215 214/214/214 213/213/213
f 216/216/216 215/215/215 213/213/213
f 219/219/219 218/218/218 217/217/217
f 220/220/220 219/219/219 217/217/217
f 223/223/223 222/222/222 221/221/221
f 224/224/224 223/223/223 221/221/221
f 227/227/227 226/226/226 225/225/225
f 228/228/228 227/227/227 225/225/225
f 231/231/231 230/230/230 229/229/229
f 232/232/232 231/231/231 229/229/229
f 235/235/235 234/234/234 233/233/233
f 236/236/236 235/235/235 233/233/233
f 239/239/239 238/238/238 237/237/237
f 240/240/240 239/239/239 237/237/237
f 243/243/243 242/242/242 241/241/241
f 244/244/244 243/243/243 241/241/241
f 247/247/247 246/246/246 245/245/245
f 248/248/248 247/247/247 245/245/245
f 251/251/251 250/250/250 249/249/249
f 252/252/252 251/251/251 249/249/249
f 255/255/255 254/254/254 253/253/253
f 256/256/256 255/255/255 253/253/253
f 258/258/258 257/257/257 255/255/255
f 259/259/259 258/258/258 255/255/255
f 257/257/257 260/260/260 255/255/255
f 261/261/261 259/259/259 255/255/255
f 257/257/257 262/262/262 260/260/260
f 259/259/259 261/261/261 262/262/262
f 262/262/262 263/263/263 260/260/260
f 261/261/261 263/263/263 262/262/262
f 261/261/261 265/265/265 264/264/264
f 265/265/265 266/266/266 264/264/264
f 269/269/269 268/268/268 267/267/267
f 270/270/270 269/269/269 267/267/267
f 273/273/273 272/272/272 271/271/271
f 274/274/274 273/273/273 271/271/271
f 277/277/277 276/276/276 275/275/275
f 278/278/278 277/277/277 275/275/275
f 281/281/281 280/280/280 279/279/279
f 282/282/282 281/281/281 279/279/279
f 285/285/285 284/284/284 283/283/283
f 286/286/286 285/285/285 283/283/283
g TSP_House_Wall_Short_02B_1
f 289/289/289 288/288/288 287/287/287
f 290/290/290 289/289/289 287/287/287
f 293/293/293 292/292/292 291/291/291
f 294/294/294 293/293/293 291/291/291
