g TSP_House_Wall_Glass_01A
v 0.01999994 0.025 0.875
v 0.01999994 1.9425 1
v 0.01999994 1.935125 0.875
v 0.01999994 0 1
v 0.02000006 0.025 -0.875
v 0.02000006 0 -1
v 0.02000006 1.935125 -0.875
v 0.02000006 1.9425 -1
v -0.02000006 2.975 0.875
v -0.02000006 3 1
v -0.02000006 1.9425 1
v -0.02000006 1.935125 0.875
v -0.02000006 1.9425 1
v 0.01999994 0 1
v -0.02000006 0 1
v 0.01999994 1.9425 1
v -0.02000006 3 1
v 0.01999994 3 1
v -0.01999994 3 -1
v 0.02000006 3 -1
v 0.01999994 3 1
v -0.02000006 3 1
v -0.02000006 0 1
v 0.01999994 0 1
v 0.02000006 0 -1
v -0.01999994 0 -1
v -0.01999994 1.9425 -1
v 0.02000006 3 -1
v -0.01999994 3 -1
v 0.02000006 1.9425 -1
v -0.01999994 0 -1
v 0.02000006 0 -1
v -0.01999994 1.935125 -0.875
v -0.01999994 1.9425 -1
v -0.01999994 3 -1
v -0.01999994 2.975 -0.875
v -0.01999994 2.975 -0.875
v -0.01999994 3 -1
v -0.02000006 3 1
v -0.02000006 2.975 0.875
v 0.01999994 1.935125 0.875
v 0.01999994 1.9425 1
v 0.01999994 3 1
v 0.01999994 2.975 0.875
v 0.01999994 2.975 0.875
v 0.01999994 3 1
v 0.02000006 3 -1
v 0.02000006 2.975 -0.875
v -0.02000006 1.935125 0.875
v -0.02000006 1.9425 1
v -0.02000006 0 1
v -0.02000006 0.025 0.875
v -0.01999994 0 -1
v -0.01999994 0.025 -0.875
v -0.01999994 1.9425 -1
v -0.01999994 1.935125 -0.875
v 0.02000006 2.975 -0.875
v 0.02000006 3 -1
v 0.02000006 1.9425 -1
v 0.02000006 1.935125 -0.875
v -0.02000006 2.975 0.875
v 0.01999994 2.975 0.875
v 0.02000006 2.975 -0.875
v -0.01999994 2.975 -0.875
v -0.01999994 0.025 -0.875
v 0.02000006 0.025 -0.875
v 0.01999994 0.025 0.875
v -0.02000006 0.025 0.875
v 0.02000006 2.975 -0.875
v 0.02000006 0.025 -0.875
v -0.01999994 0.025 -0.875
v -0.01999994 2.975 -0.875
v 0.01999994 2.975 0.875
v -0.02000006 2.975 0.875
v -0.02000006 0.025 0.875
v 0.01999994 0.025 0.875
v 0.008441784 2.975 -0.875
v 0.008441784 0.02499998 -0.875
v 0.008441735 0.02499998 0.875
v 0.008441735 2.975 0.875
v -0.008441735 2.975 -0.875
v -0.008441784 2.975 0.875
v -0.008441784 0.02499998 0.875
v -0.008441735 0.02499998 -0.875
vt 0.02065166 0.7059401
vt 0.02080276 0.7175292
vt 0.02065166 0.7174847
vt 0.02080276 0.705789
vt 0.008866103 0.7059401
vt 0.008715004 0.705789
vt 0.008866103 0.7174846
vt 0.008715004 0.7175292
vt 0.02065166 0.7059401
vt 0.02080276 0.705789
vt 0.02080276 0.7175292
vt 0.02065166 0.7174846
vt 0.02619107 0.7013785
vt 0.02619107 0.7013784
vt 0.02619107 0.7013784
vt 0.02619107 0.7013784
vt 0.02619107 0.7013784
vt 0.02619107 0.7013784
vt 0.004508425 0.7442763
vt 0.004508425 0.7442763
vt 0.02619107 0.7442763
vt 0.02619107 0.7442763
vt 0.02619107 0.6942971
vt 0.02619107 0.6942971
vt 0.004508425 0.6942971
vt 0.004508425 0.6942971
vt 0.004508425 0.7013784
vt 0.004508425 0.7013784
vt 0.004508425 0.7013784
vt 0.004508425 0.7013785
vt 0.004508425 0.7013784
vt 0.004508425 0.7013784
vt 0.008866103 0.7174846
vt 0.008715004 0.7175292
vt 0.008715004 0.705789
vt 0.008866103 0.7059401
vt 0.008866103 0.7059401
vt 0.008715004 0.705789
vt 0.02080276 0.705789
vt 0.02065166 0.7059401
vt 0.02065166 0.7174847
vt 0.02080276 0.7175292
vt 0.02080276 0.705789
vt 0.02065166 0.7059401
vt 0.02065166 0.7059401
vt 0.02080276 0.705789
vt 0.008715004 0.705789
vt 0.008866103 0.7059401
vt 0.02065166 0.7174846
vt 0.02080276 0.7175292
vt 0.02080276 0.705789
vt 0.02065166 0.7059401
vt 0.008715004 0.705789
vt 0.008866103 0.7059401
vt 0.008715004 0.7175292
vt 0.008866103 0.7174846
vt 0.008866103 0.7059401
vt 0.008715004 0.705789
vt 0.008715004 0.7175292
vt 0.008866103 0.7174846
vt 0.01720252 0.6982301
vt 0.01720252 0.6982301
vt 0.01369529 0.6982301
vt 0.01369529 0.6982301
vt 0.01369529 0.6929243
vt 0.01369529 0.6929243
vt 0.01720252 0.6929243
vt 0.01720252 0.6929243
vt 0.01369529 0.6982301
vt 0.01369529 0.6929243
vt 0.01369529 0.6929243
vt 0.01369529 0.6982301
vt 0.01720252 0.6982301
vt 0.01720252 0.6982301
vt 0.01720252 0.6929243
vt 0.01720252 0.6929243
vt 0.0310637 0.9762436
vt 0.0310637 0.02426719
vt 0.9633075 0.02426719
vt 0.9633076 0.9762437
vt 0.0310637 0.9762436
vt 0.9633074 0.9762436
vt 0.9633075 0.02426719
vt 0.0310637 0.02426719
vn 1 0 0
vn 1 0 0
vn 1 0 0
vn 1 0 0
vn 1 0 0
vn 1 0 0
vn 1 0 0
vn 1 0 0
vn -1 0 0
vn -1 0 0
vn -1 0 0
vn -1 0 0
vn 0 0 1
vn 0 0 1
vn 0 0 1
vn 0 0 1
vn 0 0 1
vn 0 0 1
vn 0 1 0
vn 0 1 0
vn 0 1 0
vn 0 1 0
vn 0 -1 0
vn 0 -1 0
vn 0 -1 0
vn 0 -1 0
vn 0 0 -1
vn 0 0 -1
vn 0 0 -1
vn 0 0 -1
vn 0 0 -1
vn 0 0 -1
vn -1 0 0
vn -1 0 0
vn -1 0 0
vn -1 0 0
vn -1 0 0
vn -1 0 0
vn -1 0 0
vn -1 0 0
vn 1 0 0
vn 1 0 0
vn 1 0 0
vn 1 0 0
vn 1 0 0
vn 1 0 0
vn 1 0 0
vn 1 0 0
vn -1 0 0
vn -1 0 0
vn -1 0 0
vn -1 0 0
vn -1 0 0
vn -1 0 0
vn -1 0 0
vn -1 0 0
vn 1 0 0
vn 1 0 0
vn 1 0 0
vn 1 0 0
vn 0 -1 0
vn 0 -1 0
vn 0 -1 0
vn 0 -1 0
vn 0 1 0
vn 0 1 0
vn 0 1 0
vn 0 1 0
vn 0 0 1
vn 0 0 1
vn 0 0 1
vn 0 0 1
vn 0 0 -1
vn 0 0 -1
vn 0 0 -1
vn 0 0 -1
vn 1 0 0
vn 1 0 0
vn 1 0 0
vn 1 0 0
vn -1 0 0
vn -1 0 0
vn -1 0 0
vn -1 0 0
g TSP_House_Wall_Glass_01A_0
f 3/3/3 2/2/2 1/1/1
f 2/2/2 4/4/4 1/1/1
f 1/1/1 4/4/4 5/5/5
f 4/4/4 6/6/6 5/5/5
f 5/5/5 6/6/6 7/7/7
f 6/6/6 8/8/8 7/7/7
f 11/11/11 10/10/10 9/9/9
f 12/12/12 11/11/11 9/9/9
f 15/15/15 14/14/14 13/13/13
f 14/14/14 16/16/16 13/13/13
f 13/13/13 16/16/16 17/17/17
f 16/16/16 18/18/18 17/17/17
f 21/21/21 20/20/20 19/19/19
f 22/22/22 21/21/21 19/19/19
f 25/25/25 24/24/24 23/23/23
f 26/26/26 25/25/25 23/23/23
f 29/29/29 28/28/28 27/27/27
f 28/28/28 30/30/30 27/27/27
f 27/27/27 30/30/30 31/31/31
f 30/30/30 32/32/32 31/31/31
f 35/35/35 34/34/34 33/33/33
f 36/36/36 35/35/35 33/33/33
f 39/39/39 38/38/38 37/37/37
f 40/40/40 39/39/39 37/37/37
f 43/43/43 42/42/42 41/41/41
f 44/44/44 43/43/43 41/41/41
f 47/47/47 46/46/46 45/45/45
f 48/48/48 47/47/47 45/45/45
f 51/51/51 50/50/50 49/49/49
f 52/52/52 51/51/51 49/49/49
f 53/53/53 51/51/51 52/52/52
f 54/54/54 53/53/53 52/52/52
f 55/55/55 53/53/53 54/54/54
f 56/56/56 55/55/55 54/54/54
f 59/59/59 58/58/58 57/57/57
f 60/60/60 59/59/59 57/57/57
f 63/63/63 62/62/62 61/61/61
f 64/64/64 63/63/63 61/61/61
f 67/67/67 66/66/66 65/65/65
f 68/68/68 67/67/67 65/65/65
f 71/71/71 70/70/70 69/69/69
f 72/72/72 71/71/71 69/69/69
f 75/75/75 74/74/74 73/73/73
f 76/76/76 75/75/75 73/73/73
g TSP_House_Wall_Glass_01A_1
f 79/79/79 78/78/78 77/77/77
f 80/80/80 79/79/79 77/77/77
f 83/83/83 82/82/82 81/81/81
f 84/84/84 83/83/83 81/81/81
