g Window_Lights_4A
v -2.538754 8.099999 -4.8
v -2.538754 10.5 -4.8
v -2.538754 10.5 -3.2
v -2.538754 8.099999 -3.2
v -4.460839 12.1 1.199998
v -4.460839 14.5 1.199998
v -4.460839 14.5 2.799997
v -4.460839 12.1 2.799998
v -3.231817 12.1 5.268201
v -4.098021 12.1 4.042529
v -4.098021 14.5 4.042529
v -3.231817 14.5 5.268202
v 5.960109 8.499999 0.4999993
v 5.960109 10.7 0.4999993
v 5.960109 10.7 -0.7000003
v 5.960109 8.499999 -0.7000003
vt 0.4916046 0.007688664
vt 0.4916046 0.2414259
vt 0.2588985 0.2414259
vt 0.2588985 0.007688664
vt 0.4916046 0.007688552
vt 0.4916046 0.2414256
vt 0.2588985 0.2414256
vt 0.2588985 0.007688552
vt 0.4916046 0.007688552
vt 0.2588985 0.007688552
vt 0.2588985 0.2414256
vt 0.4916046 0.2414256
vt 0.2620983 0.01234335
vt 0.2620983 0.2271361
vt 0.4915133 0.2271361
vt 0.4915133 0.01234339
vn -1 0 0
vn -1 0 0
vn -1 0 0
vn -1 0 0
vn -1 0 0
vn -1 0 0
vn -1 0 0
vn -1 0 0
vn -0.8166465 0 0.577138
vn -0.8166465 0 0.577138
vn -0.8166465 0 0.577138
vn -0.8166465 0 0.577138
vn 1 0 0
vn 1 0 0
vn 1 0 0
vn 1 0 0
g Window_Lights_4A_0
f 3/3/3 2/2/2 1/1/1
f 4/4/4 3/3/3 1/1/1
f 7/7/7 6/6/6 5/5/5
f 8/8/8 7/7/7 5/5/5
f 11/11/11 10/10/10 9/9/9
f 12/12/12 11/11/11 9/9/9
f 15/15/15 14/14/14 13/13/13
f 16/16/16 15/15/15 13/13/13
