g Wood_low
v -2.402493 -1.100585 -0.1816757
v -2.402493 1.093025 -0.1816757
v -2.402493 1.093025 0.002811402
v -2.402493 -1.100585 0.002811402
v 2.402493 1.093025 -0.1816757
v -2.402493 1.093025 -0.1816757
v -2.369562 1.04196 -0.1822278
v 2.369562 1.04196 -0.1822278
v -2.369562 1.04196 -0.02407962
v 2.369562 1.04196 -0.02407962
v 2.402493 1.093025 -0.1816757
v -2.402493 1.093025 0.002811402
v -2.402493 1.093025 -0.1816757
v 2.402493 1.093025 0.002811402
v 2.402493 -1.100585 0.002811402
v -2.402493 -1.100585 0.002811402
v -2.402493 -1.100585 -0.1816757
v 2.402493 -1.100585 -0.1816757
v 2.402493 -1.100585 -0.1816757
v 2.402493 -1.100585 0.002811402
v 2.402493 1.093025 0.002811402
v 2.402493 1.093025 -0.1816757
v 2.402493 -1.100585 -0.1816757
v 2.402493 1.093025 -0.1816757
v 2.369562 1.04196 -0.1822278
v 2.369562 -1.049519 -0.1822278
v 2.369562 1.04196 -0.02407962
v 2.369562 -1.049519 -0.02407962
v -2.369562 -1.049519 -0.02407962
v -2.369562 1.04196 -0.02407962
v -2.369562 1.04196 -0.1822278
v -2.369562 -1.049519 -0.1822278
v -2.369562 -1.049519 -0.1822278
v -2.402493 1.093025 -0.1816757
v -2.402493 -1.100585 -0.1816757
v 2.369562 -1.049519 -0.1822278
v -2.402493 -1.100585 -0.1816757
v 2.402493 -1.100585 -0.1816757
vt 0.279113 0.9964629
vt 0.6138728 0.9964631
vt 0.6138728 0.9683089
vt 0.279113 0.9683089
vt 0.756638 0.003536977
vt 0.02485642 0.003536977
vt 0.03300389 0.0162774
vt 0.7515532 0.01622154
vt 0.03300579 0.04009621
vt 0.7515551 0.04004021
vt 0.7417356 0.7897386
vt 0.003537196 0.7615846
vt 0.003537196 0.7897386
vt 0.7417356 0.7615841
vt 0.7417353 0.4268237
vt 0.003536977 0.4268243
vt 0.003536977 0.3986698
vt 0.7417353 0.3986697
vt 0.279113 0.9330808
vt 0.279113 0.961235
vt 0.6138728 0.9612347
vt 0.6138728 0.9330808
vt 0.7810484 0.3627601
vt 0.7810407 0.03134754
vt 0.7753738 0.04003831
vt 0.7753983 0.3550347
vt 0.7515551 0.04004021
vt 0.7515796 0.3550365
vt 0.03303039 0.3550926
vt 0.03300579 0.04009621
vt 0.009187201 0.04009807
vt 0.03303222 0.3789113
vt 0.009211723 0.3550944
vt 0.003536977 0.03237264
vt 0.003544809 0.3637852
vt 0.7515815 0.3788553
vt 0.0279474 0.3915958
vt 0.759729 0.3915958
vn -0.5783649 -0.5788227 -0.5748552
vn -0.5783649 0.5788227 -0.5748552
vn -0.5773503 0.5773503 0.5773503
vn -0.5773503 -0.5773503 0.5773503
vn 0.5783649 0.5788227 -0.5748552
vn -0.5783649 0.5788227 -0.5748552
vn 0.2943865 -0.2982014 -0.9079716
vn -0.2943865 -0.2982014 -0.9079716
vn 0.5773503 -0.5773503 -0.5773503
vn -0.5773503 -0.5773503 -0.5773503
vn 0.5783649 0.5788227 -0.5748552
vn -0.5773503 0.5773503 0.5773503
vn -0.5783649 0.5788227 -0.5748552
vn 0.5773503 0.5773503 0.5773503
vn 0.5773503 -0.5773503 0.5773503
vn -0.5773503 -0.5773503 0.5773503
vn -0.5783649 -0.5788227 -0.5748552
vn 0.5783649 -0.5788227 -0.5748552
vn 0.5783649 -0.5788227 -0.5748552
vn 0.5773503 -0.5773503 0.5773503
vn 0.5773503 0.5773503 0.5773503
vn 0.5783649 0.5788227 -0.5748552
vn 0.5783649 -0.5788227 -0.5748552
vn 0.5783649 0.5788227 -0.5748552
vn -0.2943865 -0.2982014 -0.9079716
vn -0.2943865 0.2982014 -0.9079716
vn -0.5773503 -0.5773503 -0.5773503
vn -0.5773503 0.5773503 -0.5773503
vn 0.5773503 0.5773503 -0.5773503
vn 0.5773503 -0.5773503 -0.5773503
vn 0.2943865 -0.2982014 -0.9079716
vn 0.2943865 0.2982014 -0.9079716
vn 0.2943865 0.2982014 -0.9079716
vn -0.5783649 0.5788227 -0.5748552
vn -0.5783649 -0.5788227 -0.5748552
vn -0.2943865 0.2982014 -0.9079716
vn -0.5783649 -0.5788227 -0.5748552
vn 0.5783649 -0.5788227 -0.5748552
g Wood_low_0
f 3/3/3 2/2/2 1/1/1
f 4/4/4 3/3/3 1/1/1
f 7/7/7 6/6/6 5/5/5
f 8/8/8 7/7/7 5/5/5
f 9/9/9 7/7/7 8/8/8
f 10/10/10 9/9/9 8/8/8
f 13/13/13 12/12/12 11/11/11
f 12/12/12 14/14/14 11/11/11
f 15/15/15 14/14/14 12/12/12
f 16/16/16 15/15/15 12/12/12
f 15/15/15 16/16/16 17/17/17
f 18/18/18 15/15/15 17/17/17
f 21/21/21 20/20/20 19/19/19
f 22/22/22 21/21/21 19/19/19
f 25/25/25 24/24/24 23/23/23
f 26/26/26 25/25/25 23/23/23
f 27/27/27 25/25/25 26/26/26
f 28/28/28 27/27/27 26/26/26
f 28/28/28 29/29/29 27/27/27
f 29/29/29 30/30/30 27/27/27
f 30/30/30 29/29/29 31/31/31
f 29/29/29 28/28/28 32/32/32
f 29/29/29 33/33/33 31/31/31
f 31/31/31 33/33/33 34/34/34
f 33/33/33 35/35/35 34/34/34
f 28/28/28 36/36/36 32/32/32
f 32/32/32 36/36/36 37/37/37
f 36/36/36 38/38/38 37/37/37
